<svg width="400" height="300" viewBox="0 0 400 300" fill="none" xmlns="http://www.w3.org/2000/svg">
<mask id="mask0_602_180" style="mask-type:luminance" maskUnits="userSpaceOnUse" x="0" y="0" width="400" height="300">
<rect width="400" height="300" fill="white"/>
</mask>
<g mask="url(#mask0_602_180)">
<path d="M91.5358 109.497C61.8366 133.872 63.0611 177.91 81.226 196.037L99.3128 196.925C99.3128 196.925 111.268 175.108 98.0125 152.022C82.8226 125.567 91.5358 109.497 91.5358 109.497Z" fill="#FBD164" stroke="black" stroke-width="1.6" stroke-linecap="round" stroke-linejoin="round"/>
<path d="M63.3884 144.728C63.3884 144.728 49.6419 179.753 66.0067 197.573H87.2158C87.2158 197.573 59.7881 158.451 63.3884 144.728Z" fill="#FBD164" stroke="black" stroke-width="1.6" stroke-linecap="round" stroke-linejoin="round"/>
<path d="M101.682 133.872C101.682 133.872 100.957 183.44 90.8107 196.037H105.937C105.937 196.037 120.011 160.294 101.682 133.872Z" fill="#1AB995" stroke="black" stroke-width="1.6" stroke-linecap="round" stroke-linejoin="round"/>
<path d="M110.154 146.776C110.154 146.776 125.388 182.826 108.443 197.573L96.9622 196.925C96.9622 196.925 116.373 170.536 110.154 146.776Z" fill="#FBD164" stroke="black" stroke-width="1.6" stroke-linecap="round" stroke-linejoin="round"/>
<path d="M117.38 200.905L87.2264 199.413V199.412L87.2163 199.413L87.2062 199.412V199.413L57.0517 200.905C57.0517 200.905 53.9334 236.023 69.2255 242.175H105.207C120.499 236.023 117.38 200.905 117.38 200.905Z" fill="#1AB995"/>
<mask id="mask1_602_180" style="mask-type:luminance" maskUnits="userSpaceOnUse" x="56" y="199" width="62" height="44">
<path fill-rule="evenodd" clip-rule="evenodd" d="M117.38 200.905L87.2264 199.413V199.412L87.2163 199.413L87.2062 199.412V199.413L57.0517 200.905C57.0517 200.905 53.9334 236.023 69.2255 242.175H105.207C120.499 236.023 117.38 200.905 117.38 200.905Z" fill="white"/>
</mask>
<g mask="url(#mask1_602_180)">
<path d="M72.6012 202.482C138.578 209.223 96.9622 247.906 96.9622 247.906L137.129 242.175L140.026 198.452L121.336 195.01" fill="#1D62FC"/>
</g>
<path fill-rule="evenodd" clip-rule="evenodd" d="M117.38 200.905L87.2264 199.413V199.412L87.2163 199.413L87.2062 199.412V199.413L57.0517 200.905C57.0517 200.905 53.9334 236.023 69.2255 242.175H105.207C120.499 236.023 117.38 200.905 117.38 200.905Z" stroke="black" stroke-width="1.6" stroke-linecap="round" stroke-linejoin="round"/>
<rect x="53.0952" y="195.01" width="68.2412" height="8.80454" fill="#1AB995" stroke="black" stroke-width="1.6" stroke-linecap="round" stroke-linejoin="round"/>
<path d="M78.0655 156.878C77.5737 158.569 77.7397 160.383 78.53 161.957" stroke="black" stroke-width="1.6" stroke-linecap="round" stroke-linejoin="round"/>
<path d="M105.337 166.062L104.13 170.414" stroke="black" stroke-width="1.6" stroke-linecap="round" stroke-linejoin="round"/>
<path d="M71.2999 219.491C72.3243 221.589 73.6157 223.545 75.1417 225.311" stroke="black" stroke-width="1.6" stroke-linecap="round" stroke-linejoin="round"/>
<path d="M261.348 210.958H288.629V229.938C288.629 236.841 283.033 242.438 276.129 242.438H273.848C266.945 242.438 261.348 236.841 261.348 229.938V210.958H261.348Z" fill="#E43334" stroke="black" stroke-width="1.6" stroke-linecap="round" stroke-linejoin="round"/>
<path d="M285.98 236.103H263.997C259.058 236.103 255.055 232.1 255.055 227.161V204.624H294.923V227.161C294.923 229.532 293.981 231.807 292.304 233.484C290.626 235.161 288.352 236.103 285.98 236.103Z" fill="#E43334"/>
<mask id="mask2_602_180" style="mask-type:luminance" maskUnits="userSpaceOnUse" x="255" y="204" width="40" height="33">
<path fill-rule="evenodd" clip-rule="evenodd" d="M285.98 236.103H263.997C259.058 236.103 255.055 232.1 255.055 227.161V204.624H294.923V227.161C294.923 229.532 293.981 231.807 292.304 233.484C290.626 235.161 288.352 236.103 285.98 236.103Z" fill="white"/>
</mask>
<g mask="url(#mask2_602_180)">
<path d="M258.71 237.576C248.257 206.17 276.691 212.188 300.525 210.958C324.36 209.729 285.89 201.983 285.89 201.983L255.054 204.624L251.811 218.523L253.539 235.063" fill="#C11F27"/>
</g>
<path fill-rule="evenodd" clip-rule="evenodd" d="M285.98 236.103H263.997C259.058 236.103 255.055 232.1 255.055 227.161V204.624H294.923V227.161C294.923 229.532 293.981 231.807 292.304 233.484C290.626 235.161 288.352 236.103 285.98 236.103Z" stroke="black" stroke-width="1.6" stroke-linecap="round" stroke-linejoin="round"/>
<path d="M314.09 151.839C314.09 130.429 296.931 113.032 275.633 112.687C253.867 112.335 236.108 129.638 235.889 151.436C235.805 158.521 237.652 165.495 241.232 171.61C247.662 182.593 251.221 195.021 251.221 207.752C251.221 208.093 251.356 208.42 251.597 208.662C251.838 208.903 252.165 209.039 252.506 209.039H297.471C298.182 209.038 298.757 208.462 298.756 207.752C298.756 195.173 302.041 182.773 308.517 171.995C312.175 165.909 314.102 158.94 314.09 151.839Z" fill="#FDD504"/>
<mask id="mask3_602_180" style="mask-type:luminance" maskUnits="userSpaceOnUse" x="235" y="112" width="80" height="98">
<path fill-rule="evenodd" clip-rule="evenodd" d="M314.09 151.839C314.09 130.429 296.931 113.032 275.633 112.687C253.867 112.335 236.108 129.638 235.889 151.436C235.805 158.521 237.652 165.495 241.232 171.61C247.662 182.593 251.221 195.021 251.221 207.752C251.221 208.093 251.356 208.42 251.597 208.662C251.838 208.903 252.165 209.039 252.506 209.039H297.471C298.182 209.038 298.757 208.462 298.756 207.752C298.756 195.173 302.041 182.773 308.517 171.995C312.175 165.909 314.102 158.94 314.09 151.839Z" fill="white"/>
</mask>
<g mask="url(#mask3_602_180)">
<path d="M248.675 118.653C207.278 163.877 273.764 212.798 308.052 208.647C342.34 204.495 258.71 237.576 258.71 237.576L223.217 220.364L209.787 156.306" fill="#FCB006"/>
</g>
<path fill-rule="evenodd" clip-rule="evenodd" d="M314.09 151.839C314.09 130.429 296.931 113.032 275.633 112.687C253.867 112.335 236.108 129.638 235.889 151.436C235.805 158.521 237.652 165.495 241.232 171.61C247.662 182.593 251.221 195.021 251.221 207.752V207.752C251.221 208.093 251.356 208.42 251.597 208.662C251.838 208.903 252.165 209.039 252.506 209.039H297.471C298.182 209.038 298.757 208.462 298.756 207.752V207.752C298.756 195.173 302.041 182.773 308.517 171.995C312.175 165.909 314.102 158.94 314.09 151.839Z" stroke="black" stroke-width="1.6" stroke-linecap="round" stroke-linejoin="round"/>
<rect x="253.539" y="214.222" width="42.8999" height="6.14227" rx="2.81035" fill="white" stroke="black" stroke-width="1.6" stroke-linecap="round" stroke-linejoin="round"/>
<rect x="253.539" y="223.627" width="42.8999" height="6.14227" rx="2.81035" fill="white" stroke="black" stroke-width="1.6" stroke-linecap="round" stroke-linejoin="round"/>
<rect x="270.635" y="61.0067" width="8.7075" height="36.3959" rx="3.9897" fill="#FCB006" stroke="black" stroke-width="1.6" stroke-linecap="round" stroke-linejoin="round"/>
<rect x="186.873" y="153.608" width="8.71986" height="36.3443" rx="3.9897" transform="rotate(-90 186.873 153.608)" fill="#FCB006" stroke="black" stroke-width="1.6" stroke-linecap="round" stroke-linejoin="round"/>
<rect x="326.76" y="153.608" width="8.71986" height="36.3443" rx="3.9897" transform="rotate(-90 326.76 153.608)" fill="#FCB006" stroke="black" stroke-width="1.6" stroke-linecap="round" stroke-linejoin="round"/>
<path d="M238.64 112.328L238.121 112.847C237.374 113.596 236.36 114.017 235.302 114.017C234.244 114.017 233.23 113.596 232.483 112.847L212.422 92.758C210.865 91.1979 210.865 88.6718 212.422 87.1117L212.941 86.5921C213.688 85.8435 214.702 85.4227 215.76 85.4227C216.817 85.4227 217.832 85.8435 218.579 86.5921L238.64 106.682C240.197 108.242 240.197 110.768 238.64 112.328Z" fill="#FCB006" stroke="black" stroke-width="1.6" stroke-linecap="round" stroke-linejoin="round"/>
<path d="M337.037 86.5921L337.556 87.1117C339.113 88.6718 339.113 91.1979 337.556 92.758L317.495 112.847C316.747 113.596 315.733 114.017 314.675 114.017C313.618 114.017 312.603 113.596 311.856 112.847L311.337 112.328C309.78 110.768 309.78 108.242 311.337 106.682L331.398 86.5921C332.146 85.8434 333.16 85.4227 334.218 85.4227C335.275 85.4227 336.29 85.8434 337.037 86.5921Z" fill="#FCB006" stroke="black" stroke-width="1.6" stroke-linecap="round" stroke-linejoin="round"/>
<path d="M297.771 150.82C293.674 155.38 289.166 159.554 284.306 163.291" stroke="black" stroke-width="1.6" stroke-linecap="round" stroke-linejoin="round"/>
<rect x="84.7327" y="143.969" width="186.275" height="104.275" rx="1.7823" fill="white"/>
<rect x="84.7327" y="143.969" width="186.275" height="104.275" rx="1.7823" stroke="black" stroke-width="1.6" stroke-linecap="round" stroke-linejoin="round"/>
<rect x="91.0719" y="149.439" width="173.596" height="95.2569" rx="1.75583" fill="#1A80FD"/>
<mask id="mask4_602_180" style="mask-type:luminance" maskUnits="userSpaceOnUse" x="91" y="149" width="174" height="96">
<rect x="91.0719" y="149.439" width="173.596" height="95.2569" rx="1.75583" fill="white"/>
</mask>
<g mask="url(#mask4_602_180)">
<path d="M264.668 141.294C262.913 244.696 81.5425 241.743 81.5425 241.743L106.303 266.487L264.668 273.432L301.228 218.741L268.842 138.876" fill="#1D62FC"/>
</g>
<rect x="91.0719" y="149.439" width="173.596" height="95.2569" rx="1.75583" stroke="black" stroke-width="1.6" stroke-linecap="round" stroke-linejoin="round"/>
<rect x="81.5425" y="241.743" width="192.655" height="7.84391" fill="#FDD504"/>
<rect x="81.5425" y="241.743" width="192.655" height="7.84391" stroke="black" stroke-width="1.6" stroke-linecap="round" stroke-linejoin="round"/>
<rect x="194.597" y="239.143" width="18.2771" height="2.60078" rx="1.29946" fill="white" stroke="black" stroke-width="1.6" stroke-linecap="round" stroke-linejoin="round"/>
<rect x="215.159" y="239.143" width="10.532" height="2.60078" rx="1.09377" fill="#FDD504" stroke="black" stroke-width="1.6" stroke-linecap="round" stroke-linejoin="round"/>
<rect x="238.475" y="239.143" width="6.78438" height="2.60078" rx="0.87786" fill="white" stroke="black" stroke-width="1.6" stroke-linecap="round" stroke-linejoin="round"/>
<path d="M98.8038 233.35H125.475V239.463C125.475 240.722 124.453 241.743 123.194 241.743H101.085C99.825 241.743 98.8039 240.722 98.8039 239.463V233.35H98.8038Z" fill="white" stroke="black" stroke-width="1.6" stroke-linecap="round" stroke-linejoin="round"/>
<rect x="98.3568" y="231.075" width="27.5647" height="4.5509" fill="#FACCC4"/>
<mask id="mask5_602_180" style="mask-type:luminance" maskUnits="userSpaceOnUse" x="98" y="231" width="28" height="5">
<rect x="98.3568" y="231.075" width="27.5647" height="4.5509" fill="white"/>
</mask>
<g mask="url(#mask5_602_180)">
<path d="M107.025 230.171C125.922 231.075 125.922 234.361 125.475 238.196C125.028 242.031 129.492 228.613 129.492 228.613L122.99 226.844L107.17 228.146" fill="#ED707B"/>
</g>
<rect x="98.3568" y="231.075" width="27.5647" height="4.5509" stroke="black" stroke-width="1.6" stroke-linecap="round" stroke-linejoin="round"/>
<rect x="110.686" y="228.613" width="2.90547" height="8.93393" rx="1.11945" fill="#FACCC4" stroke="black" stroke-width="1.6" stroke-linecap="round" stroke-linejoin="round"/>
<ellipse cx="177.87" cy="191.859" rx="24.3997" ry="24.4647" fill="white" stroke="black" stroke-width="1.6" stroke-linecap="round" stroke-linejoin="round"/>
<path d="M171.072 191.859V182.845C171.071 182.298 171.362 181.792 171.835 181.518C172.309 181.244 172.892 181.243 173.366 181.517L181.152 186.024L188.938 190.531C189.411 190.806 189.702 191.312 189.702 191.859C189.702 192.407 189.411 192.913 188.938 193.187L181.152 197.694L173.366 202.201C172.892 202.475 172.309 202.475 171.835 202.201C171.362 201.926 171.071 201.42 171.072 200.873V191.859Z" fill="#1A80FD" stroke="black" stroke-width="1.6" stroke-linecap="round" stroke-linejoin="round"/>
<path d="M127.946 178.349L123.719 181.171" stroke="black" stroke-width="1.6" stroke-linecap="round" stroke-linejoin="round"/>
<path d="M185.142 57.0186L185.144 57.0012L185.122 57.0001C183.561 55.6008 181.737 54.6321 179.614 54.2732C161.405 51.1942 171.687 65.7936 156.968 78.6236C140.892 92.6376 155.029 103.466 168.769 102.583C168.769 102.583 178.901 107.246 187.143 97.1146C194.201 88.4383 194.474 65.4248 185.142 57.0186Z" fill="#485065" stroke="black" stroke-width="1.6" stroke-linecap="round" stroke-linejoin="round"/>
<rect x="89.9795" y="50.2127" width="67.6304" height="20.4939" rx="2.44331" fill="#1A80FD"/>
<mask id="mask6_602_180" style="mask-type:luminance" maskUnits="userSpaceOnUse" x="89" y="50" width="69" height="21">
<rect x="89.9795" y="50.2127" width="67.6304" height="20.4939" rx="2.44331" fill="white"/>
</mask>
<g mask="url(#mask6_602_180)">
<path d="M139.591 47.7884C160.208 48.6457 160.08 69.1479 150.162 69.0396C123.173 68.745 113.549 74.209 113.549 74.209L154.735 74.5655L164.459 65.8058C164.459 65.8058 164.061 44.9305 162.348 44.5018C160.636 44.0732 139.591 47.7884 139.591 47.7884Z" fill="#1D62FC"/>
</g>
<rect x="89.9795" y="50.2127" width="67.6304" height="20.4939" rx="2.44331" stroke="black" stroke-width="1.6" stroke-linecap="round" stroke-linejoin="round"/>
<ellipse cx="101.683" cy="59.5675" rx="5.77431" ry="5.7825" fill="white" stroke="black" stroke-width="1.6" stroke-linecap="round" stroke-linejoin="round"/>
<rect x="112.781" y="55.6459" width="34.4072" height="2.67247" fill="white" stroke="black" stroke-width="1.6" stroke-linecap="round" stroke-linejoin="round"/>
<rect x="112.781" y="60.8166" width="26.8105" height="2.67247" fill="white" stroke="black" stroke-width="1.6" stroke-linecap="round" stroke-linejoin="round"/>
<rect x="176.18" y="149.43" width="53.879" height="16.3251" rx="2.82392" transform="rotate(-10.9156 176.18 149.43)" fill="#1AB995"/>
<mask id="mask7_602_180" style="mask-type:luminance" maskUnits="userSpaceOnUse" x="176" y="139" width="56" height="26">
<rect x="176.18" y="149.43" width="53.879" height="16.3251" rx="2.82392" transform="rotate(-10.9156 176.18 149.43)" fill="white"/>
</mask>
<g mask="url(#mask7_602_180)">
<path d="M174.81 152.055C198.401 146.955 198.491 145.335 199.257 148.104C199.257 148.104 204.707 151.051 204.123 147.431C203.538 143.811 229.983 140.188 230.078 139.857C230.173 139.525 222.658 137.656 222.658 137.656L175.571 148.104L174.81 152.055Z" fill="#0FA379"/>
</g>
<rect x="176.18" y="149.43" width="53.879" height="16.3251" rx="2.82392" transform="rotate(-10.9156 176.18 149.43)" stroke="black" stroke-width="1.6" stroke-linecap="round" stroke-linejoin="round"/>
<ellipse cx="185.891" cy="155.571" rx="4.59997" ry="4.6065" fill="white" stroke="black" stroke-width="1.6" stroke-linecap="round" stroke-linejoin="round"/>
<rect x="193.982" y="150.829" width="27.4111" height="2.12886" transform="rotate(-10.9156 193.982 150.829)" fill="white" stroke="black" stroke-width="1.6" stroke-linecap="round" stroke-linejoin="round"/>
<rect x="194.759" y="154.874" width="21.359" height="2.12886" transform="rotate(-10.9156 194.759 154.874)" fill="white" stroke="black" stroke-width="1.6" stroke-linecap="round" stroke-linejoin="round"/>
<path d="M123.616 64.5372C121.872 63.4891 121.251 70.7227 121.251 70.7227H115.361C115.361 70.7227 117.369 78.6319 118.44 79.9725C119.511 81.313 134.236 106.247 137.449 106.917C140.662 107.588 153.914 96.6539 153.914 96.6539V84.4086L138.266 93.5504C135.965 91.4543 122.456 76.7552 122.456 76.7552L123.616 64.5372Z" fill="#F9C1BB"/>
<mask id="mask8_602_180" style="mask-type:luminance" maskUnits="userSpaceOnUse" x="115" y="64" width="39" height="43">
<path fill-rule="evenodd" clip-rule="evenodd" d="M123.616 64.5372C121.872 63.4891 121.251 70.7227 121.251 70.7227H115.361C115.361 70.7227 117.369 78.6319 118.44 79.9725C119.511 81.313 134.236 106.247 137.449 106.917C140.662 107.588 153.914 96.6539 153.914 96.6539V84.4086L138.266 93.5504C135.965 91.4543 122.456 76.7552 122.456 76.7552L123.616 64.5372Z" fill="white"/>
</mask>
<g mask="url(#mask8_602_180)">
<path d="M140.499 91.5132C138.675 92.4304 145.169 102.611 143.228 105.088C141.99 106.667 148.403 100.936 148.403 100.936L144.227 94.9724" fill="#ED707B"/>
</g>
<path fill-rule="evenodd" clip-rule="evenodd" d="M123.616 64.5372C121.872 63.4891 121.251 70.7227 121.251 70.7227H115.361C115.361 70.7227 117.369 78.6319 118.44 79.9725C119.511 81.313 134.236 106.247 137.449 106.917C140.662 107.588 153.914 96.6539 153.914 96.6539V84.4086L138.266 93.5504C135.965 91.4543 122.456 76.7552 122.456 76.7552L123.616 64.5372Z" stroke="black" stroke-width="1.6" stroke-linecap="round" stroke-linejoin="round"/>
<path d="M196.082 145.525C197.019 143.917 208.015 119.248 206.944 117.773C205.873 116.299 193.201 102.331 193.201 102.331L201.354 91.1426C201.354 91.1426 215.044 110.567 215.044 117.629C215.044 124.69 203.355 141.876 203.236 142.65C203.117 143.425 204.824 153.427 203.514 153.897C201.593 154.586 200.737 147.596 200.499 147.953C200.261 148.311 200.737 150.575 200.023 150.872C199.309 151.17 198.655 144.557 198.476 144.676C198.298 144.795 196.082 145.525 196.082 145.525Z" fill="#F9C1BB"/>
<mask id="mask9_602_180" style="mask-type:luminance" maskUnits="userSpaceOnUse" x="193" y="91" width="23" height="63">
<path fill-rule="evenodd" clip-rule="evenodd" d="M196.082 145.525C197.019 143.917 208.015 119.248 206.944 117.773C205.873 116.299 193.201 102.331 193.201 102.331L201.354 91.1426C201.354 91.1426 215.044 110.567 215.044 117.629C215.044 124.69 203.355 141.876 203.236 142.65C203.117 143.425 204.824 153.427 203.514 153.897C201.593 154.586 200.737 147.596 200.499 147.953C200.261 148.311 200.737 150.575 200.023 150.872C199.309 151.17 198.655 144.557 198.476 144.676C198.298 144.795 196.082 145.525 196.082 145.525Z" fill="white"/>
</mask>
<g mask="url(#mask9_602_180)">
<path d="M201.844 111.994C199.162 108.279 209.472 103.916 209.472 103.916L196.879 103.927L194.215 109.166L195.547 110.715" fill="#ED707B"/>
</g>
<path fill-rule="evenodd" clip-rule="evenodd" d="M196.082 145.525C197.019 143.917 208.015 119.248 206.944 117.773C205.873 116.299 193.201 102.331 193.201 102.331L201.354 91.1426C201.354 91.1426 215.044 110.567 215.044 117.629C215.044 124.69 203.355 141.876 203.236 142.65C203.117 143.425 204.824 153.427 203.514 153.897C201.593 154.586 200.737 147.596 200.499 147.953C200.261 148.311 200.737 150.575 200.023 150.872C199.309 151.17 198.655 144.557 198.476 144.676C198.298 144.795 196.082 145.525 196.082 145.525Z" stroke="black" stroke-width="1.6" stroke-linecap="round" stroke-linejoin="round"/>
<path d="M164.088 113.933L163.196 110.179C163.196 110.179 163.184 103.225 164.255 101.616C164.255 101.616 157.07 98.2486 161.801 92.8864L147.757 104.37C147.757 104.37 138.353 93.6382 140.954 90.0578C140.954 90.0578 156.501 77.0568 180.509 79.615C202.25 81.9317 211.929 102.401 211.929 102.401C200.969 109.738 195.227 106.04 195.227 106.04L187.805 97.3102C187.805 97.3102 183.721 104.102 183.008 109.286C182.294 114.469 164.088 113.933 164.088 113.933Z" fill="#FDD504"/>
<mask id="mask10_602_180" style="mask-type:luminance" maskUnits="userSpaceOnUse" x="140" y="79" width="72" height="35">
<path fill-rule="evenodd" clip-rule="evenodd" d="M164.088 113.933L163.196 110.179C163.196 110.179 163.184 103.225 164.255 101.616C164.255 101.616 157.07 98.2486 161.801 92.8864L147.757 104.37C147.757 104.37 138.353 93.6382 140.954 90.0578C140.954 90.0578 156.501 77.0568 180.509 79.615C202.25 81.9317 211.929 102.401 211.929 102.401C200.969 109.738 195.227 106.04 195.227 106.04L187.805 97.3102C187.805 97.3102 183.721 104.102 183.008 109.286C182.294 114.469 164.088 113.933 164.088 113.933Z" fill="white"/>
</mask>
<g mask="url(#mask10_602_180)">
<path d="M189.513 102.129L195.227 106.04L186.101 95.0308C186.101 95.0308 179.353 109.451 166.954 110.01C154.554 110.569 192.409 110.881 192.409 110.881L189.875 101.115" fill="#FCB006"/>
<path d="M170.838 77.867L173.386 90.5129L175.761 90.7987L187.805 80.7963L186.098 77.867H168.769" fill="white"/>
<mask id="mask11_602_180" style="mask-type:luminance" maskUnits="userSpaceOnUse" x="168" y="77" width="20" height="14">
<path fill-rule="evenodd" clip-rule="evenodd" d="M170.838 77.867L173.386 90.5129L175.761 90.7987L187.805 80.7963L186.098 77.867H168.769" fill="white"/>
</mask>
<g mask="url(#mask11_602_180)">
<path d="M169.816 81.4155L174.382 80.5273V82.0109L170.731 83.0111L171.302 84.3329L175.297 83.4398L175.583 84.7973L171.585 86.4762V88.9768L175.583 87.0121L175.297 87.8337L174.548 91.2988L176.938 91.1427L176.403 86.512L177.289 85.6902L179.293 88.441L181.469 86.762L178.897 84.1543L181.076 82.7253L183.502 85.4403L185.999 83.2255L182.86 80.7249" fill="white"/>
<path d="M169.816 81.4155L174.382 80.5273V82.0109L170.731 83.0111L171.302 84.3329L175.297 83.4398L175.583 84.7973L171.585 86.4762V88.9768L175.583 87.0121L175.297 87.8337L174.548 91.2988L176.938 91.1427L176.403 86.512L177.289 85.6902L179.293 88.441L181.469 86.762L178.897 84.1543L181.076 82.7253L183.502 85.4403L185.999 83.2255L182.86 80.7249" stroke="#D6DCF2" stroke-width="1.6" stroke-linecap="round" stroke-linejoin="round"/>
</g>
<path d="M170.838 77.867L173.386 90.5129L175.761 90.7987L187.805 80.7963L186.098 77.867H168.769" stroke="black" stroke-width="1.6" stroke-linecap="round" stroke-linejoin="round"/>
<path d="M148.403 84.3329C147.201 84.6698 146.352 85.1986 145.788 85.8663C141.826 90.5544 151.884 102.087 151.884 102.087L145.58 109.286L137.298 88.1774" fill="#FCB006"/>
<path d="M189.84 103.25C195.738 104.945 208.96 101.387 210.767 98.0217C212.575 94.6568 216.665 104.262 216.665 104.262L196.118 110.881L190.696 106.947" fill="#FCB006"/>
<path d="M156.874 78.6229C156.132 78.6511 155.428 78.9605 154.905 79.4886C154.436 78.9739 153.762 78.6939 153.066 78.7243C151.599 78.7634 150.299 80.2061 150.181 81.6879C149.839 85.9919 154.324 86.7877 154.324 86.7877C154.324 86.7877 158.987 85.361 159.299 81.4451C159.417 79.9634 158.341 78.5839 156.874 78.6229Z" fill="#FCB006"/>
<path d="M200.927 84.0954C200.185 84.1236 199.481 84.433 198.958 84.9611C198.489 84.4464 197.815 84.1664 197.119 84.1968C195.652 84.2359 194.352 85.6786 194.234 87.1604C193.892 91.4644 198.378 92.2602 198.378 92.2602C198.378 92.2602 203.04 90.8335 203.352 86.9176C203.47 85.4359 202.394 84.0564 200.927 84.0954Z" fill="#FCB006"/>
<path d="M192.174 98.0221C191.826 98.0353 191.497 98.1801 191.253 98.4271C191.033 98.1863 190.718 98.0554 190.392 98.0696C189.706 98.0879 189.098 98.7628 189.043 99.4559C188.882 101.469 190.981 101.842 190.981 101.842C190.981 101.842 193.162 101.174 193.308 99.3424C193.363 98.6492 192.86 98.0039 192.174 98.0222L192.174 98.0221Z" fill="#FCB006"/>
</g>
<path fill-rule="evenodd" clip-rule="evenodd" d="M164.088 113.933L163.196 110.179C163.196 110.179 163.184 103.225 164.255 101.616C164.255 101.616 157.07 98.2486 161.801 92.8864L147.757 104.37C147.757 104.37 138.353 93.6382 140.954 90.0578C140.954 90.0578 156.501 77.0568 180.509 79.615C202.25 81.9317 211.929 102.401 211.929 102.401C200.969 109.738 195.227 106.04 195.227 106.04L187.805 97.3102C187.805 97.3102 183.721 104.102 183.008 109.286C182.294 114.469 164.088 113.933 164.088 113.933Z" stroke="black" stroke-width="1.6" stroke-linecap="round" stroke-linejoin="round"/>
<path d="M176.399 71.7675C176.713 77.6147 176.148 79.1989 176.148 79.1989L173.098 79.5579L175.333 88.1774L184.697 80.5273L182.552 66.549L176.399 71.7675Z" fill="#F9C1BB"/>
<mask id="mask12_602_180" style="mask-type:luminance" maskUnits="userSpaceOnUse" x="173" y="66" width="12" height="23">
<path fill-rule="evenodd" clip-rule="evenodd" d="M176.399 71.7675C176.713 77.6147 176.148 79.1989 176.148 79.1989L173.098 79.5579L175.333 88.1774L184.697 80.5273L182.552 66.549L176.399 71.7675Z" fill="white"/>
</mask>
<g mask="url(#mask12_602_180)">
<path d="M171.473 80.5273C180.739 76.7821 183.105 68.6038 183.105 68.6038L178.253 68.986L171.473 80.5273Z" fill="#ED707B"/>
</g>
<path fill-rule="evenodd" clip-rule="evenodd" d="M176.399 71.7675C176.713 77.6147 176.148 79.1989 176.148 79.1989L173.098 79.5579L175.333 88.1774L184.697 80.5273L182.552 66.549L176.399 71.7675Z" stroke="black" stroke-width="1.6" stroke-linecap="round" stroke-linejoin="round"/>
<path d="M156.683 142.237C165.765 165.852 176.376 191.705 179.143 198.418C179.581 199.482 179.548 200.68 179.053 201.718L171.271 218.087C171.271 218.087 167.11 217.2 170.549 206.947C176.066 190.494 137.298 148.945 137.298 148.945L156.683 142.237Z" fill="#F9C1BB" stroke="black" stroke-width="1.6" stroke-linecap="round" stroke-linejoin="round"/>
<path d="M166.375 148.104C176.807 171.101 188.886 196.232 192.103 202.898C192.625 203.983 192.664 205.239 192.211 206.355L185.448 223.037C185.448 223.037 180.47 224.231 184.065 211.954C188.755 195.933 147.42 155.855 147.42 155.855L166.375 148.104Z" fill="#F9C1BB"/>
<mask id="mask13_602_180" style="mask-type:luminance" maskUnits="userSpaceOnUse" x="147" y="148" width="46" height="76">
<path fill-rule="evenodd" clip-rule="evenodd" d="M166.375 148.104C176.807 171.101 188.886 196.232 192.103 202.898C192.625 203.983 192.664 205.239 192.211 206.355L185.448 223.037C185.448 223.037 180.47 224.231 184.065 211.954C188.755 195.933 147.42 155.855 147.42 155.855L166.375 148.104Z" fill="white"/>
</mask>
<g mask="url(#mask13_602_180)">
<path d="M157.697 167.271C171.059 166.428 172.288 164.814 178.897 175.438C181.939 180.327 174.858 157.86 174.858 157.86L168.277 156.99" fill="#ED707B"/>
</g>
<path fill-rule="evenodd" clip-rule="evenodd" d="M166.375 148.104C176.807 171.101 188.886 196.232 192.103 202.898C192.625 203.983 192.664 205.239 192.211 206.355L185.448 223.037C185.448 223.037 180.47 224.231 184.065 211.954C188.755 195.933 147.42 155.855 147.42 155.855L166.375 148.104Z" stroke="black" stroke-width="1.6" stroke-linecap="round" stroke-linejoin="round"/>
<path d="M142.778 169.588C145.005 170.069 147.824 169.845 150.848 169.211C151.846 169.002 149.15 160.179 149.792 160.179C151.103 160.179 156.435 167.706 157.697 167.271C165.897 164.448 173.536 160.316 173.536 160.316L164.183 142.381C164.183 142.381 195.926 148.917 199.792 136.214C204.322 121.332 183.008 109.286 183.008 109.286L163.082 110.241C163.082 110.241 160.463 119.033 159.527 119.416C158.592 119.798 129.071 122.392 122.537 130.147C116.004 137.901 142.778 169.588 142.778 169.588Z" fill="#2F387E"/>
<mask id="mask14_602_180" style="mask-type:luminance" maskUnits="userSpaceOnUse" x="121" y="109" width="80" height="61">
<path fill-rule="evenodd" clip-rule="evenodd" d="M142.778 169.588C145.005 170.069 147.824 169.845 150.848 169.211C151.846 169.002 149.15 160.179 149.792 160.179C151.103 160.179 156.435 167.706 157.697 167.271C165.897 164.448 173.536 160.316 173.536 160.316L164.183 142.381C164.183 142.381 195.926 148.917 199.792 136.214C204.322 121.332 183.008 109.286 183.008 109.286L163.082 110.241C163.082 110.241 160.463 119.033 159.527 119.416C158.592 119.798 129.071 122.392 122.537 130.147C116.004 137.901 142.778 169.588 142.778 169.588Z" fill="white"/>
</mask>
<g mask="url(#mask14_602_180)">
<path d="M153.353 136.485C153.353 136.485 163.339 145.411 185.325 147.774L177.553 156.627C177.553 156.627 190.974 169.999 179.602 162.564C168.23 155.129 164.483 146.864 153.353 136.485Z" fill="#111944"/>
<path d="M165.385 106.785C141.304 111.501 196.391 104.625 198.889 131.976C201.387 159.327 202.778 127.698 202.778 127.698L196.197 109.286L190.662 103.25" fill="#111944"/>
<g opacity="0.29">
<rect x="138.753" y="74.2344" width="5.97213" height="108.179" transform="rotate(19.6076 138.753 74.2344)" fill="white" stroke="black" stroke-width="1.6" stroke-linecap="round" stroke-linejoin="round"/>
<rect x="149.482" y="78.0565" width="5.97213" height="108.179" transform="rotate(19.6076 149.482 78.0565)" fill="white" stroke="black" stroke-width="1.6" stroke-linecap="round" stroke-linejoin="round"/>
<rect x="160.211" y="81.8786" width="5.97213" height="108.179" transform="rotate(19.6076 160.211 81.8786)" fill="white" stroke="black" stroke-width="1.6" stroke-linecap="round" stroke-linejoin="round"/>
<rect x="170.937" y="85.7032" width="5.9721" height="108.178" transform="rotate(19.6091 170.937 85.7032)" fill="white" stroke="black" stroke-width="1.59999" stroke-linecap="round" stroke-linejoin="round"/>
<rect x="181.67" y="89.5227" width="5.97213" height="108.179" transform="rotate(19.6076 181.67 89.5227)" fill="white" stroke="black" stroke-width="1.6" stroke-linecap="round" stroke-linejoin="round"/>
<rect x="192.399" y="93.3448" width="5.97213" height="108.179" transform="rotate(19.6076 192.399 93.3448)" fill="white" stroke="black" stroke-width="1.6" stroke-linecap="round" stroke-linejoin="round"/>
<rect x="203.128" y="97.1669" width="5.97213" height="108.179" transform="rotate(19.6076 203.128 97.1669)" fill="white" stroke="black" stroke-width="1.6" stroke-linecap="round" stroke-linejoin="round"/>
<rect x="213.857" y="100.989" width="5.97213" height="108.179" transform="rotate(19.6076 213.857 100.989)" fill="white" stroke="black" stroke-width="1.6" stroke-linecap="round" stroke-linejoin="round"/>
</g>
<g opacity="0.27">
<rect x="226.239" y="117.23" width="5.9787" height="108.06" transform="rotate(109.556 226.239 117.23)" fill="white" stroke="black" stroke-width="1.6" stroke-linecap="round" stroke-linejoin="round"/>
<rect x="222.422" y="127.974" width="5.9787" height="108.06" transform="rotate(109.556 222.422 127.974)" fill="white" stroke="black" stroke-width="1.6" stroke-linecap="round" stroke-linejoin="round"/>
<rect x="218.612" y="138.719" width="5.97856" height="108.057" transform="rotate(109.555 218.612 138.719)" fill="white" stroke="black" stroke-width="1.59996" stroke-linecap="round" stroke-linejoin="round"/>
<rect x="214.789" y="149.463" width="5.9787" height="108.06" transform="rotate(109.556 214.789 149.463)" fill="white" stroke="black" stroke-width="1.6" stroke-linecap="round" stroke-linejoin="round"/>
<rect x="210.972" y="160.207" width="5.9787" height="108.06" transform="rotate(109.556 210.972 160.207)" fill="white" stroke="black" stroke-width="1.6" stroke-linecap="round" stroke-linejoin="round"/>
<rect x="207.162" y="170.953" width="5.97856" height="108.057" transform="rotate(109.555 207.162 170.953)" fill="white" stroke="black" stroke-width="1.59996" stroke-linecap="round" stroke-linejoin="round"/>
<rect x="203.339" y="181.696" width="5.9787" height="108.06" transform="rotate(109.556 203.339 181.696)" fill="white" stroke="black" stroke-width="1.6" stroke-linecap="round" stroke-linejoin="round"/>
<rect x="199.529" y="192.443" width="5.97856" height="108.057" transform="rotate(109.555 199.529 192.443)" fill="white" stroke="black" stroke-width="1.59996" stroke-linecap="round" stroke-linejoin="round"/>
</g>
<path d="M150.766 134.978C164.251 145.717 178.287 144.71 178.287 144.71L150.766 134.978Z" fill="#2F387E"/>
<path d="M150.766 134.978C164.251 145.717 178.287 144.71 178.287 144.71" stroke="black" stroke-width="1.6" stroke-linecap="round" stroke-linejoin="round"/>
<path d="M160.16 111.994C160.16 111.994 183.371 110.946 188.603 111.994L185.999 108.279L157.61 109.286L159.308 111.994" fill="white"/>
<path d="M160.16 111.994C160.16 111.994 183.371 110.946 188.603 111.994L185.999 108.279L157.61 109.286L159.308 111.994" stroke="black" stroke-width="1.6" stroke-linecap="round" stroke-linejoin="round"/>
</g>
<path fill-rule="evenodd" clip-rule="evenodd" d="M142.778 169.588C145.005 170.069 147.824 169.845 150.848 169.211C151.846 169.002 149.15 160.179 149.792 160.179C151.103 160.179 156.435 167.706 157.697 167.271C165.897 164.448 173.536 160.316 173.536 160.316L164.183 142.381C164.183 142.381 195.926 148.917 199.792 136.214C204.322 121.332 183.008 109.286 183.008 109.286L163.082 110.241C163.082 110.241 160.463 119.033 159.527 119.416C158.592 119.798 129.071 122.392 122.537 130.147C116.004 137.901 142.778 169.588 142.778 169.588Z" stroke="black" stroke-width="1.6" stroke-linecap="round" stroke-linejoin="round"/>
<path d="M172.12 60.246C171.672 63.0961 169.924 65.13 170.471 68.7341C171.613 71.96 174.152 74.2091 177.108 74.2091C181.13 74.2091 184.392 70.0498 184.392 64.9191C184.392 63.4715 184.005 63.0738 183.541 61.8524C180.41 63.1575 174.049 61.887 172.12 60.246Z" fill="#F9C1BB"/>
<path fill-rule="evenodd" clip-rule="evenodd" d="M172.12 60.246C171.672 63.0961 169.924 65.13 170.471 68.7341C171.613 71.96 174.152 74.2091 177.108 74.2091C181.13 74.2091 184.392 70.0498 184.392 64.9191C184.392 63.4715 184.005 63.0738 183.541 61.8524C180.41 63.1575 174.049 61.887 172.12 60.246Z" stroke="black" stroke-width="1.6" stroke-linecap="round" stroke-linejoin="round"/>
<path d="M181.235 63.2413C181.447 62.9588 181.694 62.7045 181.97 62.4845C183.42 61.3267 185.34 61.3234 186.259 62.4771C187.177 63.6308 186.747 65.5046 185.298 66.6624C184.79 67.0741 184.188 67.3542 183.546 67.4777" fill="#F9C1BB"/>
<path d="M181.235 63.2413C181.447 62.9588 181.694 62.7045 181.97 62.4845C183.42 61.3267 185.34 61.3234 186.259 62.4771C187.177 63.6308 186.747 65.5046 185.298 66.6624C184.79 67.0741 184.188 67.3542 183.546 67.4777" stroke="black" stroke-width="1.6" stroke-linecap="round" stroke-linejoin="round"/>
<path d="M184.392 93.8809L187.805 97.3102L184.392 93.8809Z" fill="#F9C1BB"/>
<path d="M184.392 93.8809L187.805 97.3102" stroke="black" stroke-width="1.6" stroke-linecap="round" stroke-linejoin="round"/>
<path d="M174.427 93.9397C173.684 93.9679 172.98 94.2774 172.458 94.8054C171.988 94.2907 171.315 94.0108 170.619 94.0411C169.152 94.0802 167.852 95.523 167.734 97.0047C167.391 101.309 171.877 102.105 171.877 102.105C171.877 102.105 176.54 100.678 176.851 96.7619C176.969 95.2802 175.894 93.9007 174.427 93.9397Z" fill="#FCB006"/>
<path d="M176.038 56.5566C176.378 57.1998 176.967 57.6759 177.667 57.8742" stroke="black" stroke-width="1.6" stroke-linecap="round" stroke-linejoin="round"/>
<path d="M184.479 63.8349C184.527 63.8427 184.572 63.8653 184.606 63.8997C184.637 63.9374 184.633 64.0059 184.587 64.023" stroke="black" stroke-width="1.6" stroke-linecap="round" stroke-linejoin="round"/>
<path d="M164.821 101.903L166.723 102.096" stroke="black" stroke-width="1.6" stroke-linecap="round" stroke-linejoin="round"/>
<path d="M178.629 119.39C178.449 120.435 178.846 121.513 179.474 122.367C180.101 123.222 180.943 123.89 181.774 124.547" stroke="black" stroke-width="1.6" stroke-linecap="round" stroke-linejoin="round"/>
<path d="M138.191 147.047C138.631 147.684 139.215 148.21 139.896 148.58" stroke="black" stroke-width="1.6" stroke-linecap="round" stroke-linejoin="round"/>
<path d="M186.132 203.059L187.849 203.614" stroke="black" stroke-width="1.6" stroke-linecap="round" stroke-linejoin="round"/>
</g>
</svg>
