<svg width="400" height="300" viewBox="0 0 400 300" fill="none" xmlns="http://www.w3.org/2000/svg">
<mask id="mask0_602_1074" style="mask-type:luminance" maskUnits="userSpaceOnUse" x="0" y="0" width="400" height="300">
<rect width="400" height="300" fill="white"/>
</mask>
<g mask="url(#mask0_602_1074)">
<rect x="128.395" y="79.7711" width="11.3013" height="15.4642" rx="4.62153" fill="white" stroke="black" stroke-width="1.6" stroke-linecap="round" stroke-linejoin="round"/>
<rect x="128.395" y="97.5361" width="11.3013" height="15.4642" rx="4.62153" fill="white" stroke="black" stroke-width="1.6" stroke-linecap="round" stroke-linejoin="round"/>
<rect x="131.333" y="37.3506" width="123.772" height="232.644" rx="15.9182" fill="white"/>
<mask id="mask1_602_1074" style="mask-type:luminance" maskUnits="userSpaceOnUse" x="131" y="37" width="125" height="233">
<rect x="131.333" y="37.3506" width="123.772" height="232.644" rx="15.9182" fill="white"/>
</mask>
<g mask="url(#mask1_602_1074)">
<path d="M191.131 32.1834C173.701 45.7618 238.652 33.7788 248.72 46.667C261.625 63.1873 257.331 93.6105 257.331 93.6105L267.276 43.042L223.759 21.7734" fill="#D6DCF2"/>
</g>
<rect x="131.333" y="37.3506" width="123.772" height="232.644" rx="15.9182" stroke="black" stroke-width="1.6" stroke-linecap="round" stroke-linejoin="round"/>
<path d="M234.215 43.042H226.114C223.505 43.042 221.39 45.1989 221.39 47.8596C221.39 50.5202 219.275 52.6771 216.666 52.6771H169.773C167.164 52.6771 165.049 50.5202 165.049 47.8596C165.049 45.1989 162.934 43.042 160.324 43.042H152.223C144.213 43.042 137.719 49.6638 137.719 57.8323V246.073C137.719 254.242 144.213 260.864 152.223 260.864H234.215C242.226 260.864 248.72 254.242 248.72 246.073V57.8323C248.72 49.6638 242.226 43.042 234.215 43.042Z" fill="#1AB995"/>
<path fill-rule="evenodd" clip-rule="evenodd" d="M234.215 43.042H226.114C223.505 43.042 221.39 45.1989 221.39 47.8596V47.8596C221.39 50.5202 219.275 52.6771 216.666 52.6771H169.773C167.164 52.6771 165.049 50.5202 165.049 47.8596V47.8596C165.049 45.1989 162.934 43.042 160.324 43.042H152.223C144.213 43.042 137.719 49.6638 137.719 57.8323V246.073C137.719 254.242 144.213 260.864 152.223 260.864H234.215C242.226 260.864 248.72 254.242 248.72 246.073V57.8323C248.72 49.6638 242.226 43.042 234.215 43.042Z" stroke="black" stroke-width="1.6" stroke-linecap="round" stroke-linejoin="round"/>
<path d="M194.349 197.844C192.316 199.513 190.085 200.924 187.705 202.044" stroke="black" stroke-width="1.6" stroke-linecap="round" stroke-linejoin="round"/>
<path d="M164.922 241.496L135.896 189.48L134.745 187.011V135.531H109.28V187.011L108.129 189.48L79.1028 241.496C71.9413 254.33 81.207 270.14 95.8897 270.14H148.135C162.818 270.14 172.083 254.33 164.922 241.496Z" fill="white"/>
<mask id="mask2_602_1074" style="mask-type:luminance" maskUnits="userSpaceOnUse" x="76" y="135" width="92" height="136">
<path fill-rule="evenodd" clip-rule="evenodd" d="M164.922 241.496L135.896 189.48L134.745 187.011V135.531H109.28V187.011L108.129 189.48L79.1028 241.496C71.9413 254.33 81.207 270.14 95.8897 270.14H148.135C162.818 270.14 172.083 254.33 164.922 241.496Z" fill="white"/>
</mask>
<g mask="url(#mask2_602_1074)">
<path d="M107.615 172.295C108.339 156.997 111.739 141.062 125.133 138.69C138.528 136.318 111.202 136.318 111.202 136.318L101.765 137.47" fill="#D6DCF2"/>
</g>
<path fill-rule="evenodd" clip-rule="evenodd" d="M164.922 241.496L135.896 189.48L134.745 187.011V135.531H109.28V187.011L108.129 189.48L79.1028 241.496C71.9413 254.33 81.207 270.14 95.8897 270.14H148.135C162.818 270.14 172.083 254.33 164.922 241.496Z" stroke="black" stroke-width="1.6" stroke-linecap="round" stroke-linejoin="round"/>
<path d="M128.248 224.133C115.613 213.991 105.619 214.103 93.9738 219.001L82.3134 239.897C75.6877 251.771 84.2602 266.398 97.8444 266.398H146.18C159.764 266.398 168.337 251.771 161.711 239.897L152.129 222.726C144.824 227.795 137.357 231.445 128.248 224.133Z" fill="#1A80FD"/>
<mask id="mask3_602_1074" style="mask-type:luminance" maskUnits="userSpaceOnUse" x="80" y="215" width="84" height="52">
<path fill-rule="evenodd" clip-rule="evenodd" d="M128.248 224.133C115.613 213.991 105.619 214.103 93.9738 219.001L82.3134 239.897C75.6877 251.771 84.2602 266.398 97.8444 266.398H146.18C159.764 266.398 168.337 251.771 161.711 239.897L152.129 222.726C144.824 227.795 137.357 231.445 128.248 224.133Z" fill="white"/>
</mask>
<g mask="url(#mask3_602_1074)">
<path d="M99.2188 215.255C80.9579 263.016 127.11 260.153 155.556 263.752C184.002 267.352 126.531 274.251 122.012 273.951C117.494 273.651 74.353 265.252 72.5555 264.952C70.758 264.652 63.8675 236.456 70.1588 229.257C76.4501 222.058 82.1423 212.459 82.1423 212.459" fill="#1D62FC"/>
</g>
<path fill-rule="evenodd" clip-rule="evenodd" d="M128.248 224.133C115.613 213.991 105.619 214.103 93.9738 219.001L82.3134 239.897C75.6877 251.771 84.2602 266.398 97.8444 266.398H146.18C159.764 266.398 168.337 251.771 161.711 239.897L152.129 222.726C144.824 227.795 137.357 231.445 128.248 224.133Z" stroke="black" stroke-width="1.6" stroke-linecap="round" stroke-linejoin="round"/>
<rect x="105.497" y="133.947" width="33.0305" height="4.74331" rx="2.37019" fill="white" stroke="black" stroke-width="1.6" stroke-linecap="round" stroke-linejoin="round"/>
<ellipse cx="107.615" cy="238.258" rx="1.26109" ry="1.26265" fill="white" stroke="black" stroke-width="1.6" stroke-linecap="round" stroke-linejoin="round"/>
<ellipse cx="121.988" cy="237.363" rx="1.74274" ry="1.74489" fill="white" stroke="black" stroke-width="1.6" stroke-linecap="round" stroke-linejoin="round"/>
<ellipse cx="110.72" cy="245.468" rx="1.07785" ry="1.07918" fill="white" stroke="black" stroke-width="1.6" stroke-linecap="round" stroke-linejoin="round"/>
<ellipse cx="151.123" cy="247.779" rx="4.14924" ry="4.15438" fill="white" stroke="black" stroke-width="1.6" stroke-linecap="round" stroke-linejoin="round"/>
<path d="M117.188 157.369L113.882 161.872" stroke="black" stroke-width="1.6" stroke-linecap="round" stroke-linejoin="round"/>
<path d="M147.437 235.186L142.941 238.499" stroke="black" stroke-width="1.6" stroke-linecap="round" stroke-linejoin="round"/>
<path d="M218.654 117.135H152.867C151.011 117.136 149.508 118.641 149.509 120.497V150.645C149.508 152.501 151.011 154.006 152.867 154.007H195.873C197.606 156.198 199.583 158.694 201.021 160.507C201.685 161.345 203.023 160.864 203.023 159.794V154.007H218.654C220.51 154.006 222.013 152.501 222.012 150.645V120.497C222.013 118.641 220.51 117.136 218.654 117.135V117.135Z" fill="#FCB006"/>
<mask id="mask4_602_1074" style="mask-type:luminance" maskUnits="userSpaceOnUse" x="149" y="117" width="74" height="44">
<path fill-rule="evenodd" clip-rule="evenodd" d="M218.654 117.135H152.867C151.011 117.136 149.508 118.641 149.509 120.497V150.645C149.508 152.501 151.011 154.006 152.867 154.007H195.873C197.606 156.198 199.583 158.694 201.021 160.507C201.685 161.345 203.023 160.864 203.023 159.794V154.007H218.654C220.51 154.006 222.013 152.501 222.012 150.645V120.497C222.013 118.641 220.51 117.136 218.654 117.135V117.135Z" fill="white"/>
</mask>
<g mask="url(#mask4_602_1074)">
<path d="M222.012 114.86C221.555 160.627 141.855 153.116 141.855 153.116L207.959 171.423L229.759 168.137L234.916 115.329" fill="#FDD504"/>
</g>
<path fill-rule="evenodd" clip-rule="evenodd" d="M218.654 117.135H152.867C151.011 117.136 149.508 118.641 149.509 120.497V150.645C149.508 152.501 151.011 154.006 152.867 154.007H195.873C197.606 156.198 199.583 158.694 201.021 160.507C201.685 161.345 203.023 160.864 203.023 159.794V154.007H218.654C220.51 154.006 222.013 152.501 222.012 150.645V120.497C222.013 118.641 220.51 117.136 218.654 117.135V117.135Z" stroke="black" stroke-width="1.6" stroke-linecap="round" stroke-linejoin="round"/>
<ellipse cx="164.148" cy="134.563" rx="3.35383" ry="3.35797" fill="white" stroke="black" stroke-width="1.6" stroke-linecap="round" stroke-linejoin="round"/>
<ellipse cx="178.168" cy="134.563" rx="3.35383" ry="3.35797" fill="white" stroke="black" stroke-width="1.6" stroke-linecap="round" stroke-linejoin="round"/>
<ellipse cx="192.189" cy="134.563" rx="3.35383" ry="3.35797" fill="white" stroke="black" stroke-width="1.6" stroke-linecap="round" stroke-linejoin="round"/>
<ellipse cx="206.209" cy="134.563" rx="3.35383" ry="3.35797" fill="white" stroke="black" stroke-width="1.6" stroke-linecap="round" stroke-linejoin="round"/>
<path d="M169.053 122.238L163.668 126.141" stroke="black" stroke-width="1.6" stroke-linecap="round" stroke-linejoin="round"/>
<path d="M209.119 145.472L205.93 146.664" stroke="black" stroke-width="1.6" stroke-linecap="round" stroke-linejoin="round"/>
<path d="M314.869 197.121C314.652 191.096 313.166 185.184 310.508 179.772C309.499 177.718 308.325 175.748 306.999 173.883C297.097 159.943 279.341 152.765 261.774 157.192C244.208 161.619 231.961 176.357 229.83 193.33C229.543 195.601 229.44 197.892 229.523 200.18C229.74 206.205 231.226 212.117 233.884 217.529C244.306 217.194 258.303 215.373 275.322 211.084C292.34 206.796 305.531 201.765 314.869 197.121Z" fill="#1A80FD"/>
<mask id="mask5_602_1074" style="mask-type:luminance" maskUnits="userSpaceOnUse" x="229" y="155" width="86" height="63">
<path fill-rule="evenodd" clip-rule="evenodd" d="M314.869 197.121C314.652 191.096 313.166 185.184 310.508 179.772C309.499 177.718 308.325 175.748 306.999 173.883C297.097 159.943 279.341 152.765 261.774 157.192C244.208 161.619 231.961 176.357 229.83 193.33C229.543 195.601 229.44 197.892 229.523 200.18C229.74 206.205 231.226 212.117 233.884 217.529C244.306 217.194 258.303 215.373 275.322 211.084C292.34 206.796 305.531 201.765 314.869 197.121Z" fill="white"/>
</mask>
<g mask="url(#mask5_602_1074)">
<path d="M244.71 150.144C335.589 155.531 316.93 205.438 252.129 215.789C187.328 226.14 337.771 208.958 337.771 208.958L335.314 159.424L266.4 146.023L248.005 155.327" fill="#1D62FC"/>
</g>
<path fill-rule="evenodd" clip-rule="evenodd" d="M314.869 197.121C314.652 191.096 313.166 185.184 310.508 179.772C309.499 177.718 308.325 175.748 306.999 173.883C297.097 159.943 279.341 152.765 261.774 157.192C244.208 161.619 231.961 176.357 229.83 193.33C229.543 195.601 229.44 197.892 229.523 200.18C229.74 206.205 231.226 212.117 233.884 217.529C244.306 217.194 258.303 215.373 275.322 211.084C292.34 206.796 305.531 201.765 314.869 197.121Z" stroke="black" stroke-width="1.6" stroke-linecap="round" stroke-linejoin="round"/>
<path d="M237.393 223.418C247.296 237.358 265.051 244.536 282.618 240.109C300.185 235.683 312.431 220.944 314.562 203.972C304.045 208.849 290.907 213.37 276.791 216.928C262.674 220.485 248.963 222.73 237.393 223.418Z" fill="#1A80FD"/>
<path fill-rule="evenodd" clip-rule="evenodd" d="M237.393 223.418C247.296 237.358 265.051 244.536 282.618 240.109C300.185 235.683 312.431 220.944 314.562 203.972C304.045 208.849 290.907 213.37 276.791 216.928C262.674 220.485 248.963 222.73 237.393 223.418Z" stroke="black" stroke-width="1.6" stroke-linecap="round" stroke-linejoin="round"/>
<path d="M337.554 182.181C336.111 176.44 328.052 173.571 313.601 173.654C311.496 173.666 309.285 173.747 306.999 173.883C308.325 175.748 309.499 177.718 310.508 179.772C323.671 179.348 331.126 181.296 331.718 183.651C332.31 186.007 326.664 191.255 314.869 197.121C305.531 201.765 292.34 206.796 275.322 211.084C258.303 215.373 244.306 217.194 233.884 217.529C220.722 217.953 213.267 216.005 212.674 213.65C212.082 211.295 217.728 206.046 229.523 200.18C229.44 197.892 229.543 195.601 229.83 193.33C227.752 194.294 225.766 195.27 223.906 196.257C211.137 203.033 205.395 209.38 206.838 215.121C208.281 220.861 216.34 223.73 230.791 223.647C232.896 223.635 235.107 223.554 237.393 223.418C248.963 222.73 262.674 220.485 276.791 216.928C290.907 213.37 304.045 208.849 314.562 203.972C316.64 203.007 318.626 202.031 320.486 201.044C333.255 194.268 338.997 187.921 337.554 182.181Z" fill="#FDD504"/>
<mask id="mask6_602_1074" style="mask-type:luminance" maskUnits="userSpaceOnUse" x="206" y="173" width="132" height="51">
<path fill-rule="evenodd" clip-rule="evenodd" d="M337.554 182.181C336.111 176.44 328.052 173.571 313.601 173.654C311.496 173.666 309.285 173.747 306.999 173.883C308.325 175.748 309.499 177.718 310.508 179.772C323.671 179.348 331.126 181.296 331.718 183.651C332.31 186.007 326.664 191.255 314.869 197.121C305.531 201.765 292.34 206.796 275.322 211.084C258.303 215.373 244.306 217.194 233.884 217.529C220.722 217.953 213.267 216.005 212.674 213.65C212.082 211.295 217.728 206.046 229.523 200.18C229.44 197.892 229.543 195.601 229.83 193.33C227.752 194.294 225.766 195.27 223.906 196.257C211.137 203.033 205.395 209.38 206.838 215.121C208.281 220.861 216.34 223.73 230.791 223.647C232.896 223.635 235.107 223.554 237.393 223.418C248.963 222.73 262.674 220.485 276.791 216.928C290.907 213.37 304.045 208.849 314.562 203.972C316.64 203.007 318.626 202.031 320.486 201.044C333.255 194.268 338.997 187.921 337.554 182.181Z" fill="white"/>
</mask>
<g mask="url(#mask6_602_1074)">
<path d="M196.937 198.651C237.023 192.328 233.179 210.355 233.179 210.355L243.063 187.967L227.138 184.664" fill="#FCB006"/>
<path d="M296.053 167.597C316.095 170.336 318.292 184.664 318.292 184.664L301.269 187.967L295.778 182.706" fill="#FCB006"/>
</g>
<path fill-rule="evenodd" clip-rule="evenodd" d="M337.554 182.181C336.111 176.44 328.052 173.571 313.601 173.654C311.496 173.666 309.285 173.747 306.999 173.883C308.325 175.748 309.499 177.718 310.508 179.772C323.671 179.348 331.126 181.296 331.718 183.651C332.31 186.007 326.664 191.255 314.869 197.121C305.531 201.765 292.34 206.796 275.322 211.084C258.303 215.373 244.306 217.194 233.884 217.529C220.722 217.953 213.267 216.005 212.674 213.65C212.082 211.295 217.728 206.046 229.523 200.18C229.44 197.892 229.543 195.601 229.83 193.33C227.752 194.294 225.766 195.27 223.906 196.257C211.137 203.033 205.395 209.38 206.838 215.121C208.281 220.861 216.34 223.73 230.791 223.647C232.896 223.635 235.107 223.554 237.393 223.418C248.963 222.73 262.674 220.485 276.791 216.928C290.907 213.37 304.045 208.849 314.562 203.972C316.64 203.007 318.626 202.031 320.486 201.044C333.255 194.268 338.997 187.921 337.554 182.181Z" stroke="black" stroke-width="1.6" stroke-linecap="round" stroke-linejoin="round"/>
<path d="M258.502 178.388C258.346 179.414 257.745 180.319 256.861 180.862" stroke="black" stroke-width="1.6" stroke-linecap="round" stroke-linejoin="round"/>
<path d="M301.7 224.94C300.278 226.239 298.546 227.148 296.669 227.58" stroke="black" stroke-width="1.6" stroke-linecap="round" stroke-linejoin="round"/>
<path d="M70.8371 90.6726H69.7568V73.5788L70.8371 74.3972V90.6726Z" fill="#FDD504" stroke="black" stroke-width="1.6" stroke-linecap="round" stroke-linejoin="round"/>
<path d="M73.1051 105.396L71.5437 91.7814H69.0503L67.4888 105.396C67.3363 106.043 67.4228 106.723 67.7324 107.311C68.3775 108.618 69.8988 109.234 71.2713 108.745C72.6437 108.255 73.4321 106.816 73.1051 105.396Z" fill="#FDD504"/>
<mask id="mask7_602_1074" style="mask-type:luminance" maskUnits="userSpaceOnUse" x="67" y="91" width="7" height="18">
<path fill-rule="evenodd" clip-rule="evenodd" d="M73.1051 105.396L71.5437 91.7814H69.0503L67.4888 105.396C67.3363 106.043 67.4228 106.723 67.7324 107.311C68.3775 108.618 69.8988 109.234 71.2713 108.745C72.6437 108.255 73.4321 106.816 73.1051 105.396Z" fill="white"/>
</mask>
<g mask="url(#mask7_602_1074)">
<path d="M64.1021 96.4738C69.1342 98.713 73.048 90.8756 73.048 90.8756H67.4568L62.9838 94.2345V97.5934" fill="#FCB006"/>
</g>
<path fill-rule="evenodd" clip-rule="evenodd" d="M73.1051 105.396L71.5437 91.7814H69.0503L67.4888 105.396C67.3363 106.043 67.4228 106.723 67.7324 107.311C68.3775 108.618 69.8988 109.234 71.2713 108.745C72.6437 108.255 73.4321 106.816 73.1051 105.396V105.396Z" stroke="black" stroke-width="1.6" stroke-linecap="round" stroke-linejoin="round"/>
<ellipse cx="70.297" cy="90.6726" rx="2.58066" ry="2.58385" fill="#E43334"/>
<mask id="mask8_602_1074" style="mask-type:luminance" maskUnits="userSpaceOnUse" x="67" y="88" width="6" height="6">
<ellipse cx="70.297" cy="90.6726" rx="2.58066" ry="2.58385" fill="white"/>
</mask>
<g mask="url(#mask8_602_1074)">
<path d="M70.8371 86.9315C74.1355 92.9163 66.8688 93.6205 66.8688 93.6205L74.8973 95.0287L75.0731 88.6918" fill="#C11F27"/>
</g>
<ellipse cx="70.297" cy="90.6726" rx="2.58066" ry="2.58385" stroke="black" stroke-width="1.6" stroke-linecap="round" stroke-linejoin="round"/>
<path d="M81.1247 69.9218V95.7376C83.222 99.8118 88.2553 103.167 94.8261 105.002C98.3073 105.974 102.219 106.521 106.354 106.521C110.489 106.521 114.401 105.974 117.882 105.002C124.453 103.167 129.486 99.8118 131.584 95.7376V69.9218H81.1247Z" fill="#232C3F"/>
<path d="M104.257 87.9266L64.9102 76.6513C61.3922 75.6432 61.3158 70.6793 64.801 69.563L104.032 56.9982C105.542 56.5145 107.166 56.5145 108.676 56.9982L147.907 69.563C151.393 70.6793 151.316 75.6432 147.798 76.6513L108.451 87.9266C107.081 88.3194 105.628 88.3194 104.257 87.9266Z" fill="#485065"/>
<mask id="mask9_602_1074" style="mask-type:luminance" maskUnits="userSpaceOnUse" x="62" y="56" width="89" height="33">
<path fill-rule="evenodd" clip-rule="evenodd" d="M104.257 87.9266L64.9102 76.6513C61.3922 75.6432 61.3158 70.6793 64.801 69.563L104.032 56.9982C105.542 56.5145 107.166 56.5145 108.676 56.9982L147.907 69.563C151.393 70.6793 151.316 75.6432 147.798 76.6513L108.451 87.9266C107.081 88.3194 105.628 88.3194 104.257 87.9266Z" fill="white"/>
</mask>
<g mask="url(#mask9_602_1074)">
<path d="M98.8592 56.6354C58.6058 73.9643 88.0238 83.113 104.257 87.9266C120.49 92.7403 55.5585 93.2564 55.5585 93.2564L56.4962 68.103L64.2317 61.0558" fill="#232C3F"/>
</g>
<path fill-rule="evenodd" clip-rule="evenodd" d="M104.257 87.9266L64.9102 76.6513C61.3922 75.6432 61.3158 70.6793 64.801 69.563L104.032 56.9982C105.542 56.5145 107.166 56.5145 108.676 56.9982L147.907 69.563C151.393 70.6793 151.316 75.6432 147.798 76.6513L108.451 87.9266C107.081 88.3194 105.628 88.3194 104.257 87.9266Z" stroke="black" stroke-width="1.6" stroke-linecap="round" stroke-linejoin="round"/>
<path d="M125.53 93.4444C123.771 94.5995 121.883 95.5447 119.904 96.2608" stroke="black" stroke-width="1.6" stroke-linecap="round" stroke-linejoin="round"/>
<path d="M97.3925 71.2476C100.219 69.9276 103.176 68.9043 106.214 68.1941" stroke="black" stroke-width="1.6" stroke-linecap="round" stroke-linejoin="round"/>
<path d="M290.235 34.2344C290.236 31.8197 288.28 29.8611 285.865 29.8596H193.494C191.08 29.8611 189.123 31.8198 189.125 34.2344V39.6007H290.235V34.2344Z" fill="white" stroke="black" stroke-width="1.6" stroke-linecap="round" stroke-linejoin="round"/>
<path d="M189.125 39.6007V93.1613C189.123 95.5759 191.08 97.5346 193.494 97.5361H285.865C288.28 97.5346 290.236 95.5759 290.235 93.1613V39.6007H189.125Z" fill="white" stroke="black" stroke-width="1.6" stroke-linecap="round" stroke-linejoin="round"/>
<ellipse cx="194.618" cy="34.6137" rx="1.21034" ry="1.21184" fill="#E43334" stroke="black" stroke-width="1.6" stroke-linecap="round" stroke-linejoin="round"/>
<ellipse cx="199.704" cy="34.6137" rx="1.21034" ry="1.21184" fill="#FDD504" stroke="black" stroke-width="1.6" stroke-linecap="round" stroke-linejoin="round"/>
<ellipse cx="204.789" cy="34.6137" rx="1.21034" ry="1.21184" fill="#1AB995" stroke="black" stroke-width="1.6" stroke-linecap="round" stroke-linejoin="round"/>
<rect x="197.08" y="44.9975" width="85.1997" height="46.2115" rx="1.83079" fill="#7A24EA"/>
<mask id="mask10_602_1074" style="mask-type:luminance" maskUnits="userSpaceOnUse" x="197" y="44" width="86" height="48">
<rect x="197.08" y="44.9975" width="85.1997" height="46.2115" rx="1.83079" fill="white"/>
</mask>
<g mask="url(#mask10_602_1074)">
<path d="M280.207 40.3129C282.28 89.3771 185.622 93.1986 185.622 93.1986L294.975 110.589L302.12 63.6978" fill="#6B1AD3"/>
</g>
<rect x="197.08" y="44.9975" width="85.1997" height="46.2115" rx="1.83079" stroke="black" stroke-width="1.6" stroke-linecap="round" stroke-linejoin="round"/>
<ellipse opacity="0.36" cx="239.68" cy="65.9742" rx="13.513" ry="13.5465" fill="white" stroke="black" stroke-width="1.6" stroke-linecap="round" stroke-linejoin="round"/>
<path d="M235.915 65.9742V60.9829C235.914 60.6799 236.075 60.3997 236.338 60.2479C236.6 60.0962 236.923 60.096 237.186 60.2475L241.497 62.7431L245.809 65.2388C246.071 65.3909 246.233 65.6711 246.233 65.9742C246.233 66.2773 246.071 66.5575 245.809 66.7096L241.497 69.2053L237.186 71.7009C236.923 71.8524 236.6 71.8522 236.338 71.7004C236.075 71.5487 235.914 71.2684 235.915 70.9655V65.9742Z" fill="white" stroke="black" stroke-width="1.6" stroke-linecap="round" stroke-linejoin="round"/>
<path d="M211.281 57.4222C210.509 58.3236 209.562 59.0585 208.497 59.5824" stroke="black" stroke-width="1.6" stroke-linecap="round" stroke-linejoin="round"/>
<path d="M273.526 82.7775L271.417 83.4816" stroke="black" stroke-width="1.6" stroke-linecap="round" stroke-linejoin="round"/>
</g>
</svg>
