<svg width="400" height="300" viewBox="0 0 400 300" fill="none" xmlns="http://www.w3.org/2000/svg">
<mask id="mask0_602_1271" style="mask-type:luminance" maskUnits="userSpaceOnUse" x="0" y="0" width="400" height="300">
<rect width="400" height="300" fill="white"/>
</mask>
<g mask="url(#mask0_602_1271)">
<path fill-rule="evenodd" clip-rule="evenodd" d="M107.122 155.341H119.908H123.584L120.57 174.85H110.136L107.122 155.341ZM107.785 155.975L110.603 174.215H112.367L110.851 155.975H107.785ZM112.926 174.215L111.41 155.975H119.296L117.78 174.215H112.926ZM118.339 174.215H120.103L122.921 155.975H119.855L118.339 174.215Z" fill="#FCB006"/>
<path d="M107.122 155.341V154.541C106.889 154.541 106.667 154.643 106.515 154.82C106.363 154.998 106.296 155.232 106.331 155.463L107.122 155.341ZM123.584 155.341L124.375 155.463C124.41 155.232 124.343 154.998 124.191 154.82C124.039 154.643 123.818 154.541 123.584 154.541V155.341ZM120.57 174.85V175.65C120.965 175.65 121.301 175.362 121.361 174.972L120.57 174.85ZM110.136 174.85L109.345 174.972C109.405 175.362 109.741 175.65 110.136 175.65V174.85ZM110.603 174.215L109.812 174.337C109.872 174.727 110.208 175.015 110.603 175.015V174.215ZM107.785 155.975V155.175C107.551 155.175 107.33 155.277 107.178 155.455C107.026 155.632 106.959 155.867 106.994 156.098L107.785 155.975ZM112.367 174.215V175.015C112.59 175.015 112.804 174.922 112.955 174.757C113.107 174.592 113.182 174.372 113.164 174.149L112.367 174.215ZM110.851 155.975L111.648 155.909C111.614 155.495 111.267 155.175 110.851 155.175V155.975ZM111.41 155.975V155.175C111.186 155.175 110.973 155.269 110.821 155.434C110.67 155.598 110.594 155.819 110.613 156.042L111.41 155.975ZM112.926 174.215L112.128 174.282C112.163 174.696 112.509 175.015 112.926 175.015V174.215ZM119.296 155.975L120.093 156.042C120.112 155.819 120.036 155.598 119.885 155.434C119.733 155.269 119.52 155.175 119.296 155.175V155.975ZM117.78 174.215V175.015C118.197 175.015 118.543 174.696 118.578 174.282L117.78 174.215ZM120.103 174.215V175.015C120.498 175.015 120.834 174.727 120.894 174.337L120.103 174.215ZM118.339 174.215L117.542 174.149C117.524 174.372 117.599 174.592 117.751 174.757C117.902 174.922 118.116 175.015 118.339 175.015V174.215ZM122.921 155.975L123.712 156.098C123.747 155.867 123.68 155.632 123.528 155.455C123.376 155.277 123.155 155.175 122.921 155.175V155.975ZM119.855 155.975V155.175C119.439 155.175 119.092 155.495 119.058 155.909L119.855 155.975ZM119.908 154.541H107.122V156.141H119.908V154.541ZM123.584 154.541H119.908V156.141H123.584V154.541ZM121.361 174.972L124.375 155.463L122.793 155.219L119.78 174.728L121.361 174.972ZM110.136 175.65H120.57V174.05H110.136V175.65ZM106.331 155.463L109.345 174.972L110.926 174.728L107.913 155.219L106.331 155.463ZM111.393 174.093L108.576 155.853L106.994 156.098L109.812 174.337L111.393 174.093ZM112.367 173.415H110.603V175.015H112.367V173.415ZM110.054 156.042L111.569 174.282L113.164 174.149L111.648 155.909L110.054 156.042ZM107.785 156.775H110.851V155.175H107.785V156.775ZM110.613 156.042L112.128 174.282L113.723 174.149L112.207 155.909L110.613 156.042ZM119.296 155.175H111.41V156.775H119.296V155.175ZM118.578 174.282L120.093 156.042L118.499 155.909L116.983 174.149L118.578 174.282ZM112.926 175.015H117.78V173.415H112.926V175.015ZM120.103 173.415H118.339V175.015H120.103V173.415ZM122.13 155.853L119.313 174.093L120.894 174.337L123.712 156.098L122.13 155.853ZM119.855 156.775H122.921V155.175H119.855V156.775ZM119.137 174.282L120.652 156.042L119.058 155.909L117.542 174.149L119.137 174.282Z" fill="black"/>
<path d="M115.353 47.5799C14.4576 47.5799 107.101 154.797 107.101 154.797H123.605C123.605 154.797 216.248 47.5799 115.353 47.5799Z" fill="#1AB995"/>
<mask id="mask1_602_1271" style="mask-type:luminance" maskUnits="userSpaceOnUse" x="68" y="47" width="95" height="108">
<path fill-rule="evenodd" clip-rule="evenodd" d="M115.353 47.5799C14.4576 47.5799 107.101 154.797 107.101 154.797H123.605C123.605 154.797 216.248 47.5799 115.353 47.5799Z" fill="white"/>
</mask>
<g mask="url(#mask1_602_1271)">
<path d="M161.871 66.2609C166.085 69.112 168.18 74.2111 167.188 79.2015C171.99 76.0678 174.078 70.093 172.275 64.6504C170.471 59.2078 165.227 55.6631 159.504 56.0175C153.782 56.372 149.016 60.5367 147.897 66.1602C152.149 63.3732 157.659 63.4129 161.871 66.2609Z" fill="#FDD504" stroke="black" stroke-width="1.6" stroke-linecap="round" stroke-linejoin="round"/>
<path d="M72.2 108.048C76.4142 110.899 78.5094 115.998 77.5173 120.988C82.3189 117.855 84.4073 111.88 82.6035 106.437C80.7997 100.995 75.5561 97.4501 69.8334 97.8045C64.1107 98.1589 59.3446 102.324 58.2261 107.947C62.4783 105.16 67.9884 105.2 72.2 108.048Z" fill="#FDD504" stroke="black" stroke-width="1.6" stroke-linecap="round" stroke-linejoin="round"/>
</g>
<path fill-rule="evenodd" clip-rule="evenodd" d="M115.353 47.5799C14.4576 47.5799 107.101 154.797 107.101 154.797H123.605C123.605 154.797 216.248 47.5799 115.353 47.5799Z" stroke="black" stroke-width="1.6" stroke-linecap="round" stroke-linejoin="round"/>
<path d="M115.353 47.5799C48.3197 47.5799 109.871 154.797 109.871 154.797H120.835C120.835 154.797 182.386 47.5799 115.353 47.5799Z" fill="white"/>
<mask id="mask2_602_1271" style="mask-type:luminance" maskUnits="userSpaceOnUse" x="84" y="47" width="63" height="108">
<path fill-rule="evenodd" clip-rule="evenodd" d="M115.353 47.5799C48.3197 47.5799 109.871 154.797 109.871 154.797H120.835C120.835 154.797 182.386 47.5799 115.353 47.5799Z" fill="white"/>
</mask>
<g mask="url(#mask2_602_1271)">
<path d="M90.09 55.9677L94.1096 64.1232L103.098 65.431L96.5938 71.7792L98.1292 80.7429L90.09 76.5108L82.0509 80.7429L83.5862 71.7792L77.0824 65.431L86.0705 64.1232L90.09 55.9677Z" fill="#FDD504" stroke="black" stroke-width="1.6" stroke-linecap="round" stroke-linejoin="round"/>
<path d="M137.376 111.696C137.374 106.609 140.422 102.016 145.111 100.043C139.824 97.8261 133.708 99.4463 130.212 103.989C126.715 108.532 126.715 114.86 130.212 119.403C133.708 123.946 139.824 125.566 145.111 123.35C140.422 121.376 137.374 116.783 137.376 111.696Z" fill="#FDD504" stroke="black" stroke-width="1.6" stroke-linecap="round" stroke-linejoin="round"/>
</g>
<path fill-rule="evenodd" clip-rule="evenodd" d="M115.353 47.5799C48.3197 47.5799 109.871 154.797 109.871 154.797H120.835C120.835 154.797 182.386 47.5799 115.353 47.5799Z" stroke="black" stroke-width="1.6" stroke-linecap="round" stroke-linejoin="round"/>
<path d="M115.353 47.5799C89.0925 47.5799 113.205 154.797 113.205 154.797H117.501C117.501 154.797 141.613 47.5799 115.353 47.5799Z" fill="#1AB995" stroke="black" stroke-width="1.6" stroke-linecap="round" stroke-linejoin="round"/>
<path d="M118.248 192.33H112.458C109.516 192.33 107.131 189.945 107.131 187.003V173.671H123.575V187.003C123.575 189.945 121.19 192.33 118.248 192.33Z" fill="#FCB006"/>
<mask id="mask3_602_1271" style="mask-type:luminance" maskUnits="userSpaceOnUse" x="107" y="173" width="17" height="20">
<path fill-rule="evenodd" clip-rule="evenodd" d="M118.248 192.33H112.458C109.516 192.33 107.131 189.945 107.131 187.003V173.671H123.575V187.003C123.575 189.945 121.19 192.33 118.248 192.33Z" fill="white"/>
</mask>
<g mask="url(#mask3_602_1271)">
<path d="M104.559 176.398C124.028 175.657 123.847 185.778 122.921 193.078C121.995 200.378 126.612 168.623 126.612 168.623L111.41 171.178" fill="#FDD504"/>
</g>
<path fill-rule="evenodd" clip-rule="evenodd" d="M118.248 192.33H112.458C109.516 192.33 107.131 189.945 107.131 187.003V173.671H123.575V187.003C123.575 189.945 121.19 192.33 118.248 192.33Z" stroke="black" stroke-width="1.6" stroke-linecap="round" stroke-linejoin="round"/>
<rect x="105.463" y="172.667" width="19.7806" height="3.73179" rx="0.98596" fill="white" stroke="black" stroke-width="1.6" stroke-linecap="round" stroke-linejoin="round"/>
<path d="M125.918 153.003H104.788L106.934 156.878H123.772L125.918 153.003Z" fill="white" stroke="black" stroke-width="1.6" stroke-linecap="round" stroke-linejoin="round"/>
<path d="M140.362 71.667C141.307 73.8818 140.582 76.6918 138.683 78.1702" stroke="black" stroke-width="1.6" stroke-linecap="round" stroke-linejoin="round"/>
<path d="M112.94 182.306C113.864 183.088 115.041 183.505 116.25 183.48" stroke="black" stroke-width="1.6" stroke-linecap="round" stroke-linejoin="round"/>
<path d="M288.297 218.735L268.721 207.49L335.429 91.0434L355.005 102.288L288.297 218.735Z" fill="#FDD504" stroke="black" stroke-width="1.6" stroke-linecap="round" stroke-linejoin="round"/>
<g opacity="0.35">
<path d="M352.053 107.44L339.045 99.9675L339.476 99.2136L352.485 106.686L352.053 107.44Z" fill="#FDD504" stroke="black" stroke-width="1.6" stroke-linecap="round" stroke-linejoin="round"/>
<path d="M348.831 113.065L335.822 105.592L336.254 104.838L349.263 112.311L348.831 113.065Z" fill="#FDD504" stroke="black" stroke-width="1.6" stroke-linecap="round" stroke-linejoin="round"/>
<path d="M345.609 118.69L332.6 111.217L333.032 110.463L346.041 117.936L345.609 118.69Z" fill="#FDD504" stroke="black" stroke-width="1.6" stroke-linecap="round" stroke-linejoin="round"/>
<path d="M342.387 124.314L329.378 116.842L329.81 116.088L342.819 123.56L342.387 124.314Z" fill="#FDD504" stroke="black" stroke-width="1.6" stroke-linecap="round" stroke-linejoin="round"/>
<path d="M339.164 129.939L326.156 122.467L326.587 121.713L339.596 129.185L339.164 129.939Z" fill="#FDD504" stroke="black" stroke-width="1.6" stroke-linecap="round" stroke-linejoin="round"/>
<path d="M335.942 135.564L322.933 128.092L323.365 127.338L336.374 134.81L335.942 135.564Z" fill="#FDD504" stroke="black" stroke-width="1.6" stroke-linecap="round" stroke-linejoin="round"/>
<path d="M332.72 141.189L319.711 133.717L320.143 132.963L333.152 140.435L332.72 141.189Z" fill="#FDD504" stroke="black" stroke-width="1.6" stroke-linecap="round" stroke-linejoin="round"/>
<path d="M329.498 146.814L316.489 139.342L316.921 138.588L329.93 146.06L329.498 146.814Z" fill="#FDD504" stroke="black" stroke-width="1.6" stroke-linecap="round" stroke-linejoin="round"/>
<path d="M326.275 152.439L313.266 144.966L313.698 144.212L326.707 151.685L326.275 152.439Z" fill="#FDD504" stroke="black" stroke-width="1.6" stroke-linecap="round" stroke-linejoin="round"/>
<path d="M323.053 158.064L310.044 150.591L310.476 149.837L323.485 157.31L323.053 158.064Z" fill="#FDD504" stroke="black" stroke-width="1.6" stroke-linecap="round" stroke-linejoin="round"/>
<path d="M319.831 163.688L306.822 156.216L307.254 155.462L320.263 162.935L319.831 163.688Z" fill="#FDD504" stroke="black" stroke-width="1.6" stroke-linecap="round" stroke-linejoin="round"/>
<path d="M316.609 169.313L303.6 161.841L304.032 161.087L317.04 168.559L316.609 169.313Z" fill="#FDD504" stroke="black" stroke-width="1.6" stroke-linecap="round" stroke-linejoin="round"/>
</g>
<path d="M310.079 180.817L305.726 174.851C302.703 170.708 298.628 167.449 293.921 165.411L244.932 144.209C242.172 143.014 238.954 143.801 237.056 146.133C235.588 147.936 233.292 148.852 230.985 148.554L216.183 143.054L218.797 151.865L310.079 180.817Z" fill="white"/>
<mask id="mask4_602_1271" style="mask-type:luminance" maskUnits="userSpaceOnUse" x="216" y="143" width="95" height="38">
<path fill-rule="evenodd" clip-rule="evenodd" d="M310.079 180.817L305.726 174.851C302.703 170.708 298.628 167.449 293.921 165.411L244.932 144.209C242.172 143.015 238.954 143.801 237.056 146.133C235.588 147.936 233.292 148.852 230.985 148.554L216.183 143.054L218.797 151.865L310.079 180.817Z" fill="white"/>
</mask>
<g mask="url(#mask4_602_1271)">
<path d="M315.133 182.739L248.449 153.513L234.423 160.769L299.205 183.64L315.133 182.739Z" fill="white" stroke="black" stroke-width="1.6" stroke-linecap="round" stroke-linejoin="round"/>
</g>
<path fill-rule="evenodd" clip-rule="evenodd" d="M310.079 180.817L305.726 174.851C302.703 170.708 298.628 167.449 293.921 165.411L244.932 144.209C242.172 143.014 238.954 143.801 237.056 146.133V146.133C235.588 147.936 233.292 148.852 230.985 148.554L216.183 143.054L218.797 151.865L310.079 180.817Z" stroke="black" stroke-width="1.6" stroke-linecap="round" stroke-linejoin="round"/>
<ellipse cx="241.49" cy="151.815" rx="2.98478" ry="2.98879" fill="white" stroke="black" stroke-width="1.6" stroke-linecap="round" stroke-linejoin="round"/>
<path fill-rule="evenodd" clip-rule="evenodd" d="M218.377 152.708C212.329 150.731 205.63 151.463 200.366 155.041C195.181 158.579 188.646 159.506 182.681 157.55C171.622 153.934 165.779 141.704 170.146 130.708C173.729 121.689 183.43 116.396 192.929 118.33C199.792 119.695 205.465 124.507 207.932 131.056C210.215 137.085 214.909 141.88 221.03 143.882L222.648 144.41L219.792 153.17L218.377 152.708ZM192.995 126.877C186.407 124.855 179.426 128.553 177.399 135.14C176.423 138.309 176.748 141.736 178.302 144.664C179.856 147.593 182.512 149.783 185.683 150.751C192.274 152.765 199.25 149.057 201.268 142.468C203.287 135.878 199.583 128.899 192.995 126.877Z" fill="#E43334"/>
<path d="M200.366 155.041L199.916 154.38L199.915 154.38L200.366 155.041ZM218.377 152.708L218.128 153.468L218.128 153.468L218.377 152.708ZM182.681 157.55L182.93 156.79L182.93 156.79L182.681 157.55ZM170.146 130.708L170.89 131.004L170.89 131.004L170.146 130.708ZM192.929 118.33L192.769 119.114L192.773 119.115L192.929 118.33ZM207.932 131.056L207.183 131.338L207.184 131.339L207.932 131.056ZM221.03 143.882L221.279 143.121H221.279L221.03 143.882ZM222.648 144.41L223.409 144.658C223.545 144.239 223.316 143.787 222.897 143.65L222.648 144.41ZM219.792 153.17L219.543 153.931C219.745 153.997 219.965 153.98 220.154 153.884C220.343 153.788 220.487 153.62 220.552 153.418L219.792 153.17ZM177.399 135.14L178.164 135.376L178.164 135.376L177.399 135.14ZM192.995 126.877L193.23 126.112L192.995 126.877ZM178.302 144.664L177.596 145.039V145.039L178.302 144.664ZM185.683 150.751L185.917 149.986L185.917 149.985L185.683 150.751ZM201.268 142.468L200.504 142.233L201.268 142.468ZM200.816 155.703C205.859 152.275 212.296 151.561 218.128 153.468L218.625 151.947C212.361 149.9 205.402 150.651 199.916 154.38L200.816 155.703ZM182.432 158.31C188.633 160.343 195.426 159.38 200.817 155.702L199.915 154.38C194.935 157.778 188.659 158.668 182.93 156.79L182.432 158.31ZM169.403 130.413C164.864 141.839 170.937 154.552 182.433 158.31L182.93 156.79C172.307 153.317 166.693 141.569 170.89 131.004L169.403 130.413ZM193.088 117.546C183.207 115.534 173.127 121.037 169.403 130.413L170.89 131.004C174.33 122.342 183.653 117.258 192.769 119.114L193.088 117.546ZM208.681 130.774C206.116 123.966 200.219 118.965 193.085 117.545L192.773 119.115C199.365 120.426 204.814 125.048 207.183 131.338L208.681 130.774ZM221.279 143.121C215.408 141.202 210.885 136.595 208.68 130.772L207.184 131.339C209.545 137.574 214.41 142.559 220.782 144.642L221.279 143.121ZM222.897 143.65L221.279 143.121L220.782 144.642L222.399 145.171L222.897 143.65ZM220.552 153.418L223.409 144.658L221.887 144.162L219.031 152.922L220.552 153.418ZM218.128 153.468L219.543 153.931L220.04 152.41L218.625 151.947L218.128 153.468ZM178.164 135.376C180.061 129.211 186.594 125.749 192.76 127.642L193.23 126.112C186.219 123.96 178.791 127.896 176.635 134.905L178.164 135.376ZM179.009 144.289C177.554 141.548 177.25 138.341 178.164 135.376L176.635 134.905C175.596 138.277 175.942 141.923 177.596 145.039L179.009 144.289ZM185.917 149.985C182.949 149.08 180.463 147.03 179.009 144.289L177.596 145.039C179.249 148.156 182.075 150.486 185.45 151.516L185.917 149.985ZM200.504 142.233C198.615 148.401 192.085 151.871 185.917 149.986L185.449 151.516C192.462 153.659 199.886 149.714 202.033 142.702L200.504 142.233ZM192.76 127.642C198.927 129.535 202.392 136.066 200.504 142.233L202.033 142.702C204.181 135.69 200.24 128.264 193.23 126.112L192.76 127.642Z" fill="black"/>
<path d="M254.036 225.091L249.228 219.486C245.887 215.592 243.647 210.876 242.74 205.825L233.291 153.228C232.758 150.267 234.255 147.311 236.958 145.988C239.047 144.965 240.461 142.936 240.696 140.621L238.722 124.935L246.693 129.492L254.036 225.091Z" fill="white"/>
<mask id="mask5_602_1271" style="mask-type:luminance" maskUnits="userSpaceOnUse" x="233" y="124" width="22" height="102">
<path fill-rule="evenodd" clip-rule="evenodd" d="M254.036 225.091L249.228 219.486C245.887 215.592 243.647 210.876 242.74 205.825L233.291 153.228C232.758 150.267 234.255 147.311 236.958 145.988C239.047 144.965 240.461 142.936 240.696 140.621L238.722 124.935L246.693 129.492L254.036 225.091Z" fill="white"/>
</mask>
<g mask="url(#mask5_602_1271)">
<path d="M254.753 230.457L241.537 158.778L251.789 146.757L259.26 215.132L254.753 230.457Z" fill="#D6DCF2"/>
</g>
<path fill-rule="evenodd" clip-rule="evenodd" d="M254.036 225.091L249.228 219.486C245.887 215.592 243.647 210.876 242.74 205.825L233.291 153.228C232.758 150.267 234.255 147.311 236.958 145.988V145.988C239.047 144.965 240.461 142.936 240.696 140.621L238.722 124.935L246.693 129.492L254.036 225.091Z" stroke="black" stroke-width="1.6" stroke-linecap="round" stroke-linejoin="round"/>
<ellipse cx="241.472" cy="151.606" rx="2.98478" ry="2.98879" fill="#D6DCF2"/>
<path fill-rule="evenodd" clip-rule="evenodd" d="M247.609 129.275L247.736 130.76L238.567 131.548L238.422 129.85C237.871 123.426 234.278 117.756 228.936 114.156C223.411 110.432 219.765 104.033 219.982 96.6266C220.267 86.9247 227.626 78.673 237.212 77.2362C248.9 75.4844 259.46 83.9695 260.455 95.5763C260.997 101.836 258.607 107.993 253.984 112.247C249.304 116.564 247.065 122.927 247.609 129.275ZM238.658 84.4301C231.802 85.1413 226.82 91.2743 227.529 98.1302C228.245 104.989 234.383 109.971 241.243 109.262C248.098 108.546 253.075 102.409 252.362 95.554C251.648 88.6986 245.513 83.7189 238.658 84.4301Z" fill="#E43334"/>
<path d="M247.736 130.76L247.804 131.557C248.245 131.519 248.571 131.132 248.533 130.692L247.736 130.76ZM247.609 129.275L248.406 129.207L248.406 129.207L247.609 129.275ZM238.567 131.548L237.77 131.616C237.788 131.828 237.89 132.023 238.052 132.16C238.214 132.296 238.424 132.363 238.636 132.345L238.567 131.548ZM238.422 129.85L237.625 129.918L237.625 129.918L238.422 129.85ZM228.936 114.156L228.489 114.819L228.489 114.819L228.936 114.156ZM219.982 96.6266L219.183 96.6031L219.183 96.6031L219.982 96.6266ZM237.212 77.2362L237.331 78.0274L237.331 78.0274L237.212 77.2362ZM260.455 95.5763L259.657 95.6446L259.658 95.6454L260.455 95.5763ZM253.984 112.247L253.442 111.658L253.441 111.659L253.984 112.247ZM227.529 98.1302L226.733 98.2125L226.733 98.2133L227.529 98.1302ZM238.658 84.4301L238.575 83.6344V83.6344L238.658 84.4301ZM241.243 109.262L241.325 110.058L241.326 110.057L241.243 109.262ZM252.362 95.554L253.157 95.4712V95.4712L252.362 95.554ZM248.533 130.692L248.406 129.207L246.812 129.343L246.939 130.828L248.533 130.692ZM238.636 132.345L247.804 131.557L247.668 129.963L238.499 130.751L238.636 132.345ZM237.625 129.918L237.77 131.616L239.364 131.48L239.219 129.782L237.625 129.918ZM228.489 114.819C233.648 118.296 237.097 123.755 237.625 129.918L239.219 129.782C238.646 123.096 234.908 117.216 229.383 113.492L228.489 114.819ZM219.183 96.6031C218.957 104.296 222.747 110.949 228.489 114.819L229.383 113.492C224.075 109.914 220.573 103.769 220.782 96.65L219.183 96.6031ZM237.094 76.445C227.126 77.9389 219.479 86.5125 219.183 96.6031L220.782 96.65C221.055 87.337 228.126 79.407 237.331 78.0274L237.094 76.445ZM261.252 95.508C260.218 83.4451 249.242 74.6242 237.094 76.445L237.331 78.0274C248.558 76.3446 258.702 84.4939 259.657 95.6446L261.252 95.508ZM254.525 112.835C259.331 108.414 261.816 102.013 261.252 95.5072L259.658 95.6454C260.179 101.658 257.883 107.572 253.442 111.658L254.525 112.835ZM248.406 129.207C247.881 123.085 250.043 116.97 254.526 112.835L253.441 111.659C248.565 116.157 246.248 122.77 246.812 129.344L248.406 129.207ZM228.325 98.0479C227.661 91.6314 232.324 85.8915 238.74 85.2259L238.575 83.6344C231.28 84.3912 225.979 90.9172 226.733 98.2125L228.325 98.0479ZM241.16 108.466C234.74 109.13 228.995 104.467 228.325 98.0471L226.733 98.2133C227.495 105.511 234.026 110.813 241.325 110.058L241.16 108.466ZM251.566 95.6368C252.234 102.053 247.575 107.796 241.159 108.466L241.326 110.057C248.62 109.296 253.917 102.766 253.157 95.4712L251.566 95.6368ZM238.74 85.2259C245.157 84.5602 250.898 89.2208 251.566 95.6368L253.157 95.4712C252.398 88.1764 245.87 82.8776 238.575 83.6344L238.74 85.2259Z" fill="black"/>
<path d="M263.428 55.0449L266.548 28.24C266.765 26.3751 269.317 26.0192 270.035 27.7538L280.35 52.6854L303.476 218.989C303.913 222.12 301.731 225.013 298.6 225.452L293.009 226.231C291.505 226.44 289.981 226.043 288.77 225.127C287.56 224.211 286.763 222.852 286.555 221.348L263.428 55.0449Z" fill="#FACCC4"/>
<mask id="mask6_602_1271" style="mask-type:luminance" maskUnits="userSpaceOnUse" x="263" y="26" width="41" height="201">
<path fill-rule="evenodd" clip-rule="evenodd" d="M263.428 55.0449L266.548 28.24C266.765 26.3751 269.317 26.0192 270.035 27.7538L280.35 52.6854L303.476 218.989C303.913 222.12 301.731 225.013 298.6 225.452L293.009 226.231C291.505 226.44 289.981 226.043 288.77 225.127C287.56 224.211 286.763 222.852 286.555 221.348L263.428 55.0449Z" fill="white"/>
</mask>
<g mask="url(#mask6_602_1271)">
<ellipse cx="268.91" cy="25.444" rx="9.50634" ry="9.51911" fill="#485065" stroke="black" stroke-width="1.6" stroke-linecap="round" stroke-linejoin="round"/>
</g>
<path fill-rule="evenodd" clip-rule="evenodd" d="M263.428 55.0449L266.548 28.24C266.765 26.3751 269.317 26.0192 270.035 27.7538L280.35 52.6854L303.476 218.989C303.913 222.12 301.731 225.013 298.6 225.452L293.009 226.231C291.505 226.44 289.981 226.043 288.77 225.127C287.56 224.211 286.763 222.852 286.555 221.348L263.428 55.0449Z" stroke="black" stroke-width="1.6" stroke-linecap="round" stroke-linejoin="round"/>
<rect x="263.705" y="57.2414" width="17.0852" height="152.99" transform="rotate(-7.938 263.705 57.2414)" fill="#E43334"/>
<mask id="mask7_602_1271" style="mask-type:luminance" maskUnits="userSpaceOnUse" x="263" y="54" width="39" height="155">
<rect x="263.705" y="57.2414" width="17.0852" height="152.99" transform="rotate(-7.938 263.705 57.2414)" fill="white"/>
</mask>
<g mask="url(#mask7_602_1271)">
<path d="M282.653 69.2523C305.726 174.851 270.276 161.936 270.276 161.936L310.079 180.817L313.542 109.498" fill="#C11F27"/>
</g>
<rect x="263.705" y="57.2414" width="17.0852" height="152.99" transform="rotate(-7.938 263.705 57.2414)" stroke="black" stroke-width="1.6" stroke-linecap="round" stroke-linejoin="round"/>
<rect x="301.732" y="206.409" width="17.0852" height="25.2701" transform="rotate(172.062 301.732 206.409)" fill="#FDD504" stroke="black" stroke-width="1.6" stroke-linecap="round" stroke-linejoin="round"/>
<path d="M281.484 193.118L284.994 219.611C285.238 221.454 283.216 222.183 282.231 220.607L268.076 197.95L211.292 39.9627C210.222 36.9864 211.365 33.8493 213.844 32.9559L218.274 31.3592C220.754 30.4657 223.631 32.1542 224.7 35.1305L281.484 193.118Z" fill="white" stroke="black" stroke-width="1.6" stroke-linecap="round" stroke-linejoin="round"/>
<rect x="214.192" y="52.416" width="17.0874" height="152.97" transform="rotate(-19.8184 214.192 52.416)" fill="#1B80FD"/>
<mask id="mask8_602_1271" style="mask-type:luminance" maskUnits="userSpaceOnUse" x="214" y="46" width="69" height="151">
<rect x="214.192" y="52.416" width="17.0874" height="152.97" transform="rotate(-19.8184 214.192 52.416)" fill="white"/>
</mask>
<g mask="url(#mask8_602_1271)">
<path d="M235.682 136.229C265.098 168.197 288.63 162.842 288.63 162.842L275.6 185.87L231.58 167.661" fill="#1D62FC"/>
</g>
<rect x="214.192" y="52.416" width="17.0874" height="152.97" transform="rotate(-19.8184 214.192 52.416)" stroke="black" stroke-width="1.6" stroke-linecap="round" stroke-linejoin="round"/>
<rect x="214.243" y="52.3975" width="17.0874" height="25.2668" transform="rotate(-19.8184 214.243 52.3975)" fill="#FDD504" stroke="black" stroke-width="1.6" stroke-linecap="round" stroke-linejoin="round"/>
<path d="M235.02 48.8424L231.58 50.0819L232.818 53.526L236.258 52.2865L249.725 89.7571L251.228 89.2156L237.063 49.8055C236.92 49.4066 236.624 49.081 236.241 48.9004C235.858 48.7198 235.418 48.6989 235.02 48.8424H235.02Z" fill="#FDD504" stroke="black" stroke-width="1.6" stroke-linecap="round" stroke-linejoin="round"/>
<path d="M328.749 261.396V252.628C327.544 254.482 317.802 256.087 303.621 257.012C295.479 257.543 285.882 257.851 275.6 257.851C265.318 257.851 255.721 257.543 247.579 257.012C233.398 256.087 223.656 254.482 222.451 252.628V261.396C222.368 261.51 222.319 261.644 222.31 261.785C222.31 264.883 246.169 267.396 275.6 267.396C305.031 267.396 328.89 264.883 328.89 261.785C328.881 261.644 328.832 261.51 328.749 261.396Z" fill="#1A80FD" stroke="black" stroke-width="1.6" stroke-linecap="round" stroke-linejoin="round"/>
<path d="M328.749 251.852V163.38H222.451V251.852C222.263 252.076 222.263 252.404 222.451 252.628C223.656 254.482 233.398 256.087 247.579 257.012C255.721 257.543 265.318 257.851 275.6 257.851C285.882 257.851 295.479 257.543 303.621 257.012C317.802 256.087 327.544 254.482 328.749 252.628C328.937 252.404 328.937 252.076 328.749 251.852H328.749Z" fill="#1A80FD"/>
<mask id="mask9_602_1271" style="mask-type:luminance" maskUnits="userSpaceOnUse" x="222" y="163" width="107" height="95">
<path fill-rule="evenodd" clip-rule="evenodd" d="M328.749 251.852V163.38H222.451V251.852C222.263 252.076 222.263 252.404 222.451 252.628C223.656 254.482 233.398 256.087 247.579 257.012C255.721 257.543 265.318 257.851 275.6 257.851C285.882 257.851 295.479 257.543 303.621 257.012C317.802 256.087 327.544 254.482 328.749 252.628C328.937 252.404 328.937 252.076 328.749 251.852H328.749Z" fill="white"/>
</mask>
<g mask="url(#mask9_602_1271)">
<path d="M323.485 157.31C323.632 264.218 242.79 250.302 210.891 252.628C178.991 254.955 204.128 278.519 204.128 278.519C204.128 278.519 312.275 293.514 316.765 294.05C321.254 294.585 356.018 267.395 356.018 267.395L356.553 175.013" fill="#1D62FC"/>
</g>
<path fill-rule="evenodd" clip-rule="evenodd" d="M328.749 251.852V163.38H222.451V251.852C222.263 252.076 222.263 252.404 222.451 252.628C223.656 254.482 233.398 256.087 247.579 257.012C255.721 257.543 265.318 257.851 275.6 257.851C285.882 257.851 295.479 257.543 303.621 257.012C317.802 256.087 327.544 254.482 328.749 252.628C328.937 252.404 328.937 252.076 328.749 251.852H328.749Z" stroke="black" stroke-width="1.6" stroke-linecap="round" stroke-linejoin="round"/>
<path d="M255.175 130.03L252.77 133.244" stroke="black" stroke-width="1.6" stroke-linecap="round" stroke-linejoin="round"/>
<path d="M301.802 227.307C298.092 231.771 293.424 235.343 288.145 237.756" stroke="black" stroke-width="1.6" stroke-linecap="round" stroke-linejoin="round"/>
<path d="M55.3631 251.392H54.062V230.802L55.3631 231.787V251.392Z" fill="#FDD504" stroke="black" stroke-width="1.6" stroke-linecap="round" stroke-linejoin="round"/>
<path d="M58.0948 269.127L56.2141 252.728H53.211L51.3304 269.127C51.1467 269.906 51.2509 270.726 51.6238 271.434C52.1485 272.465 53.1533 273.216 54.3018 273.348C55.423 273.482 56.5395 273.062 57.2944 272.222C58.0492 271.382 58.3478 270.227 58.0948 269.127H58.0948Z" fill="#FDD504"/>
<mask id="mask10_602_1271" style="mask-type:luminance" maskUnits="userSpaceOnUse" x="51" y="252" width="8" height="22">
<path fill-rule="evenodd" clip-rule="evenodd" d="M58.0948 269.127L56.2141 252.728H53.211L51.3304 269.127C51.1467 269.906 51.2509 270.726 51.6238 271.434C52.1485 272.465 53.1533 273.216 54.3018 273.348C55.423 273.482 56.5395 273.062 57.2944 272.222C58.0492 271.382 58.3478 270.227 58.0948 269.127H58.0948Z" fill="white"/>
</mask>
<g mask="url(#mask10_602_1271)">
<path d="M47.2513 258.38C53.312 261.077 58.026 251.636 58.026 251.636H51.2918L45.9045 255.682V259.728" fill="#FCB006"/>
</g>
<path fill-rule="evenodd" clip-rule="evenodd" d="M58.0948 269.127L56.2141 252.728H53.211L51.3304 269.127C51.1467 269.906 51.2509 270.726 51.6238 271.434C52.1485 272.465 53.1533 273.216 54.3018 273.348C55.423 273.482 56.5395 273.062 57.2944 272.222C58.0492 271.382 58.3478 270.227 58.0948 269.127H58.0948Z" stroke="black" stroke-width="1.6" stroke-linecap="round" stroke-linejoin="round"/>
<ellipse cx="54.7126" cy="251.392" rx="3.10821" ry="3.11238" fill="#E43334"/>
<mask id="mask11_602_1271" style="mask-type:luminance" maskUnits="userSpaceOnUse" x="51" y="248" width="7" height="7">
<ellipse cx="54.7126" cy="251.392" rx="3.10821" ry="3.11238" fill="white"/>
</mask>
<g mask="url(#mask11_602_1271)">
<path d="M55.3631 246.886C59.3358 254.095 50.5836 254.943 50.5836 254.943L60.2533 256.639L60.4651 249.006" fill="#C11F27"/>
</g>
<ellipse cx="54.7126" cy="251.392" rx="3.10821" ry="3.11238" stroke="black" stroke-width="1.6" stroke-linecap="round" stroke-linejoin="round"/>
<path d="M67.7538 226.396V257.493C70.2798 262.401 76.342 266.442 84.2561 268.653C88.4488 269.824 93.1601 270.482 98.1407 270.482C103.121 270.482 107.833 269.824 112.025 268.653C119.939 266.442 126.002 262.401 128.528 257.493V226.397L67.7538 226.396Z" fill="#232C3F"/>
<path d="M95.6147 248.084L48.2246 234.502C43.9874 233.288 43.8954 227.309 48.0931 225.964L95.3438 210.829C97.1629 210.247 99.1185 210.247 100.938 210.829L148.188 225.964C152.386 227.309 152.294 233.288 148.057 234.502L100.667 248.084C99.0159 248.557 97.2655 248.557 95.6147 248.084Z" fill="#485065"/>
<mask id="mask12_602_1271" style="mask-type:luminance" maskUnits="userSpaceOnUse" x="44" y="210" width="108" height="39">
<path fill-rule="evenodd" clip-rule="evenodd" d="M95.6147 248.084L48.2246 234.502C43.9874 233.288 43.8954 227.309 48.0931 225.964L95.3438 210.829C97.1629 210.247 99.1185 210.247 100.938 210.829L148.188 225.964C152.386 227.309 152.294 233.288 148.057 234.502L100.667 248.084C99.0159 248.557 97.2655 248.557 95.6147 248.084Z" fill="white"/>
</mask>
<g mask="url(#mask12_602_1271)">
<path d="M89.1136 210.392C40.6315 231.266 76.0631 242.286 95.6147 248.084C115.166 253.883 36.9612 254.504 36.9612 254.504L38.0905 224.206L47.4074 215.717" fill="#232C3F"/>
</g>
<path fill-rule="evenodd" clip-rule="evenodd" d="M95.6147 248.084L48.2246 234.502C43.9874 233.288 43.8954 227.309 48.0931 225.964L95.3438 210.829C97.1629 210.247 99.1185 210.247 100.938 210.829L148.188 225.964C152.386 227.309 152.294 233.288 148.057 234.502L100.667 248.084C99.0159 248.557 97.2655 248.557 95.6147 248.084Z" stroke="black" stroke-width="1.6" stroke-linecap="round" stroke-linejoin="round"/>
<path d="M121.236 254.731C119.118 256.122 116.844 257.261 114.461 258.123" stroke="black" stroke-width="1.6" stroke-linecap="round" stroke-linejoin="round"/>
<path d="M87.347 227.993C90.7519 226.403 94.3125 225.171 97.9716 224.315" stroke="black" stroke-width="1.6" stroke-linecap="round" stroke-linejoin="round"/>
<path d="M173.339 128.397C167.116 126.429 168.224 112.315 180.416 113.975C192.608 115.635 190.464 138.052 209.514 136.76C229.301 135.419 227.975 182.813 201.666 176.333C182.398 171.587 173.339 128.397 173.339 128.397Z" fill="#485065"/>
<mask id="mask13_602_1271" style="mask-type:luminance" maskUnits="userSpaceOnUse" x="169" y="113" width="55" height="64">
<path fill-rule="evenodd" clip-rule="evenodd" d="M173.339 128.397C167.116 126.429 168.224 112.315 180.416 113.975C192.608 115.635 190.464 138.052 209.514 136.76C229.301 135.419 227.975 182.813 201.666 176.333C182.398 171.587 173.339 128.397 173.339 128.397Z" fill="white"/>
</mask>
<g mask="url(#mask13_602_1271)">
<path d="M213.867 176.422C215.721 164.994 191.715 161.419 193.5 156.566C195.286 151.714 197.08 146.247 191.757 144.07C186.434 141.893 182.52 153.705 182.52 153.705L180.615 163.201L183.919 170.497L214.283 178.209" fill="#323442"/>
</g>
<path fill-rule="evenodd" clip-rule="evenodd" d="M173.339 128.397C167.116 126.429 168.224 112.315 180.416 113.975C192.608 115.635 190.464 138.052 209.514 136.76C229.301 135.419 227.975 182.813 201.666 176.333C182.398 171.587 173.339 128.397 173.339 128.397Z" stroke="black" stroke-width="1.6" stroke-linecap="round" stroke-linejoin="round"/>
<path d="M170.989 126.612C170.989 126.612 177.186 122.523 182.52 125.721L181.875 128.345L172.646 128.878L170.989 126.612Z" fill="#FDD504" stroke="black" stroke-width="1.6" stroke-linecap="round" stroke-linejoin="round"/>
<path d="M134.796 232.16C133.506 226.957 113.379 158.682 180.853 158.89C248.327 159.098 223.048 237.765 223.048 237.765L134.796 232.16Z" fill="#FDD504"/>
<mask id="mask14_602_1271" style="mask-type:luminance" maskUnits="userSpaceOnUse" x="131" y="158" width="97" height="80">
<path fill-rule="evenodd" clip-rule="evenodd" d="M134.796 232.16C133.506 226.957 113.379 158.682 180.853 158.89C248.327 159.098 223.048 237.765 223.048 237.765L134.796 232.16Z" fill="white"/>
</mask>
<g mask="url(#mask14_602_1271)">
<ellipse cx="179.551" cy="159.736" rx="17.3565" ry="12.7179" fill="white" stroke="black" stroke-width="1.6" stroke-linecap="round" stroke-linejoin="round"/>
<ellipse cx="179.551" cy="159.736" rx="12.9405" ry="9.48209" fill="#F9C1BB"/>
<mask id="mask15_602_1271" style="mask-type:luminance" maskUnits="userSpaceOnUse" x="166" y="150" width="27" height="20">
<ellipse cx="179.551" cy="159.736" rx="12.9405" ry="9.48209" fill="white"/>
</mask>
<g mask="url(#mask15_602_1271)">
<ellipse cx="172.048" cy="159.163" rx="15.9561" ry="7.74894" fill="#ED707B"/>
</g>
<ellipse cx="179.551" cy="159.736" rx="12.9405" ry="9.48209" stroke="black" stroke-width="1.6" stroke-linecap="round" stroke-linejoin="round"/>
<path d="M213.244 185.15C213.14 189.273 211.206 201.18 211.206 201.18L214.373 192.731L213.244 185.15Z" fill="#FDD504" stroke="black" stroke-width="1.6" stroke-linecap="round" stroke-linejoin="round"/>
<path d="M101.295 215.39C116.259 204.463 131.152 207.84 138.135 214.159C145.118 220.478 147.655 218.13 147.655 218.13L206.039 220.279C206.039 220.279 213.487 211.751 221.003 212.788C228.518 213.824 237.118 206.961 238.62 207.516C240.123 208.07 243.282 218.13 243.282 218.13L239.456 226.661L207.148 246.029L155.084 248.304L101.295 215.39Z" fill="#FDD504" stroke="black" stroke-width="1.6" stroke-linecap="round" stroke-linejoin="round"/>
</g>
<path fill-rule="evenodd" clip-rule="evenodd" d="M134.796 232.16C133.506 226.957 113.379 158.682 180.853 158.89C248.327 159.098 223.048 237.765 223.048 237.765L134.796 232.16Z" stroke="black" stroke-width="1.6" stroke-linecap="round" stroke-linejoin="round"/>
<path d="M179.186 168.148C178.846 176.735 163.381 179.791 160.073 161.129C160.073 161.129 169.515 155.907 169.67 158.488C170.167 166.722 179.186 168.148 179.186 168.148Z" fill="white" stroke="black" stroke-width="1.6" stroke-linecap="round" stroke-linejoin="round"/>
<path d="M179.106 168.148C179.446 176.735 194.257 179.212 198.952 161.302C198.952 161.302 188.777 155.907 188.622 158.488C188.125 166.722 179.106 168.148 179.106 168.148Z" fill="white" stroke="black" stroke-width="1.6" stroke-linecap="round" stroke-linejoin="round"/>
<path d="M124.087 221.181C130.529 215.354 137.86 209.252 147.655 218.13C157.45 227.008 160.318 221.528 167.809 228.257C174.395 234.173 167.035 248.872 169.745 246.029C172.454 243.187 187.568 224.101 200.982 224.303C210.196 224.442 218.045 218.375 218.568 218.13C219.092 217.885 223.162 228.673 223.162 228.673L212.205 240.119L181.862 254.894L151.312 243.656L124.087 221.181Z" fill="#FDD504" stroke="black" stroke-width="1.6" stroke-linecap="round" stroke-linejoin="round"/>
<path d="M183.901 214.517C183.69 216.616 181.571 218.173 179.155 218.129C176.739 218.085 174.681 216.454 174.55 214.349C174.409 212.077 176.534 210.14 179.307 210.19C182.081 210.24 184.13 212.252 183.901 214.517Z" fill="#F9C1BB" stroke="black" stroke-width="1.6" stroke-linecap="round" stroke-linejoin="round"/>
<path d="M232.661 252.121L237.759 251.416C237.759 251.416 246.796 262.433 223.162 267.158L232.661 252.121Z" fill="#485065" stroke="black" stroke-width="1.6" stroke-linecap="round" stroke-linejoin="round"/>
<path d="M225.819 250.751C230.218 250.409 233.985 250.283 235.956 250.594C242.565 251.639 236.347 264.603 223.162 267.158C223.162 267.158 231.91 255.55 225.819 250.751Z" fill="white" stroke="black" stroke-width="1.6" stroke-linecap="round" stroke-linejoin="round"/>
<path d="M199.139 253.924C199.139 253.924 214.552 251.628 225.819 250.751C231.91 255.55 223.162 267.158 223.162 267.158C222.324 267.321 221.478 267.438 220.627 267.51C205.729 268.758 192.984 267.475 191.26 266.133C189.536 264.791 199.139 253.924 199.139 253.924Z" fill="#485065" stroke="black" stroke-width="1.6" stroke-linecap="round" stroke-linejoin="round"/>
<path d="M189.117 246.029C196.914 251.017 202.004 254.479 202.004 254.479C204.886 258.2 203.742 261.488 202.172 263.664C200.91 265.414 198.783 266.388 196.585 266.238C193.379 266.02 190.164 265.719 186.957 265.342C188.115 260.027 189.615 251.695 189.117 246.029Z" fill="#F9C1BB" stroke="black" stroke-width="1.6" stroke-linecap="round" stroke-linejoin="round"/>
<path d="M110.033 212.303C117.609 202.158 165.639 231.011 189.117 246.029C189.615 251.695 188.115 260.027 186.957 265.342C138.545 259.64 92.0903 236.33 110.033 212.303Z" fill="#1AB995"/>
<mask id="mask16_602_1271" style="mask-type:luminance" maskUnits="userSpaceOnUse" x="106" y="210" width="84" height="56">
<path fill-rule="evenodd" clip-rule="evenodd" d="M110.033 212.303C117.609 202.158 165.639 231.011 189.117 246.029C189.615 251.695 188.114 260.027 186.957 265.342C138.545 259.64 92.0903 236.33 110.033 212.303Z" fill="white"/>
</mask>
<g mask="url(#mask16_602_1271)">
<path d="M112.379 250.751C123.915 246.866 127.553 244.42 152.836 250.416C160.354 252.199 173.436 237.717 180.455 234.825C187.474 231.933 191.95 250.416 191.95 250.416L169.047 261.068L153.113 263.01L119.406 258.787L112.379 250.751Z" fill="#0FA379"/>
<ellipse cx="108.136" cy="215.287" rx="10.4275" ry="10.4415" fill="#0FA379"/>
</g>
<path fill-rule="evenodd" clip-rule="evenodd" d="M110.033 212.303C117.609 202.158 165.639 231.011 189.117 246.029C189.615 251.695 188.115 260.027 186.957 265.342C138.545 259.64 92.0903 236.33 110.033 212.303Z" stroke="black" stroke-width="1.6" stroke-linecap="round" stroke-linejoin="round"/>
<ellipse cx="179.186" cy="147.184" rx="12.7637" ry="17.8957" fill="#F9C1BB"/>
<ellipse cx="179.186" cy="147.184" rx="12.7637" ry="17.8957" stroke="black" stroke-width="1.6" stroke-linecap="round" stroke-linejoin="round"/>
<path d="M167.354 145.148C159.988 141.71 158.379 147.204 161.766 151.714C164.306 155.096 167.132 154.65 168.386 154.216" fill="#F9C1BB"/>
<path d="M167.354 145.148C159.988 141.71 158.379 147.204 161.766 151.714C164.306 155.096 167.132 154.65 168.386 154.216" stroke="black" stroke-width="1.6" stroke-linecap="round" stroke-linejoin="round"/>
<path d="M189.698 145.148C197.064 141.71 198.672 147.204 195.286 151.714C193.114 154.606 190.733 154.699 189.304 154.394" fill="#F9C1BB"/>
<path d="M189.698 145.148C197.064 141.71 198.672 147.204 195.286 151.714C193.114 154.606 190.733 154.699 189.304 154.394" stroke="black" stroke-width="1.6" stroke-linecap="round" stroke-linejoin="round"/>
<path d="M175.44 136.667C173.535 151.058 165.026 148.844 165.026 148.844C165.026 148.844 160.073 127.566 178.361 127.812C196.649 128.058 191.95 147.184 191.95 147.184C191.95 147.184 177.472 147.491 175.44 136.667Z" fill="#485065" stroke="black" stroke-width="1.6" stroke-linecap="round" stroke-linejoin="round"/>
<path d="M126.2 252.121L121.103 251.416C121.103 251.416 112.066 262.433 135.7 267.158L126.2 252.121Z" fill="#485065" stroke="black" stroke-width="1.6" stroke-linecap="round" stroke-linejoin="round"/>
<path d="M133.042 250.751C128.643 250.409 124.876 250.283 122.905 250.594C116.296 251.639 122.515 264.603 135.7 267.158C135.699 267.158 126.951 255.55 133.042 250.751Z" fill="white" stroke="black" stroke-width="1.6" stroke-linecap="round" stroke-linejoin="round"/>
<path d="M159.722 253.924C159.722 253.924 144.309 251.628 133.042 250.751C126.951 255.55 135.699 267.158 135.7 267.158C136.537 267.321 137.383 267.438 138.234 267.51C153.133 268.758 165.878 267.475 167.601 266.133C169.325 264.791 159.722 253.924 159.722 253.924Z" fill="#485065" stroke="black" stroke-width="1.6" stroke-linecap="round" stroke-linejoin="round"/>
<path d="M169.745 246.029C161.947 251.017 156.857 254.479 156.857 254.479C153.976 258.2 155.119 261.488 156.689 263.664C157.951 265.414 160.078 266.388 162.276 266.238C165.482 266.02 168.698 265.719 171.905 265.342C170.747 260.027 169.247 251.695 169.745 246.029Z" fill="#F9C1BB"/>
<mask id="mask17_602_1271" style="mask-type:luminance" maskUnits="userSpaceOnUse" x="155" y="246" width="17" height="21">
<path fill-rule="evenodd" clip-rule="evenodd" d="M169.745 246.029C161.947 251.017 156.857 254.479 156.857 254.479C153.976 258.2 155.119 261.488 156.689 263.664C157.951 265.414 160.078 266.388 162.276 266.238C165.482 266.02 168.698 265.719 171.905 265.342C170.747 260.027 169.247 251.695 169.745 246.029Z" fill="white"/>
</mask>
<g mask="url(#mask17_602_1271)">
<path d="M157.824 252.327C157.131 259.403 163.227 267.033 168.769 264.536C174.311 262.039 166.148 247.084 169.745 246.029C173.341 244.974 175.697 268.018 175.697 268.018C175.697 268.018 174.173 268.698 172.787 269.253C171.402 269.808 158.517 269.808 158.517 269.808L151.451 259.287L152.836 250.416L159.722 253.924" fill="#ED707B"/>
</g>
<path fill-rule="evenodd" clip-rule="evenodd" d="M169.745 246.029C161.947 251.017 156.857 254.479 156.857 254.479C153.976 258.2 155.119 261.488 156.689 263.664C157.951 265.414 160.078 266.388 162.276 266.238C165.482 266.02 168.698 265.719 171.905 265.342C170.747 260.027 169.247 251.695 169.745 246.029Z" stroke="black" stroke-width="1.6" stroke-linecap="round" stroke-linejoin="round"/>
<path d="M248.828 212.303C241.252 202.158 193.223 231.011 169.745 246.029C169.247 251.695 170.747 260.027 171.905 265.342C220.316 259.64 266.771 236.33 248.828 212.303Z" fill="#1AB995"/>
<mask id="mask18_602_1271" style="mask-type:luminance" maskUnits="userSpaceOnUse" x="169" y="210" width="84" height="56">
<path fill-rule="evenodd" clip-rule="evenodd" d="M248.828 212.303C241.252 202.158 193.223 231.011 169.745 246.029C169.247 251.695 170.747 260.027 171.905 265.342C220.316 259.64 266.771 236.33 248.828 212.303Z" fill="white"/>
</mask>
<g mask="url(#mask18_602_1271)">
<path d="M209.514 219.447C219.063 220.557 240.059 208.449 246.286 211.795C252.513 215.14 259.238 220.08 255.913 232.289C252.588 244.498 257.303 237.765 257.303 237.765L259.242 210.189L235.049 196.062L209.514 219.447Z" fill="#0FA379"/>
<ellipse cx="254.709" cy="215.287" rx="11.6325" ry="12.7028" fill="#0FA379"/>
<path d="M175.377 239.808C173.55 248.489 179.345 268.018 179.345 268.018L167.809 269.108L164.324 242.196" fill="#1A80FD"/>
<path d="M175.377 239.808C173.55 248.489 179.345 268.018 179.345 268.018L167.809 269.108L164.324 242.196" stroke="black" stroke-width="1.6" stroke-linecap="round" stroke-linejoin="round"/>
</g>
<path fill-rule="evenodd" clip-rule="evenodd" d="M248.828 212.303C241.252 202.158 193.223 231.011 169.745 246.029C169.247 251.695 170.747 260.027 171.905 265.342C220.316 259.64 266.771 236.33 248.828 212.303Z" stroke="black" stroke-width="1.6" stroke-linecap="round" stroke-linejoin="round"/>
<path d="M145.112 164.534V185.091L180.874 194.441L145.112 164.534Z" fill="white" stroke="black" stroke-width="1.6" stroke-linecap="round" stroke-linejoin="round"/>
<path d="M139.61 164.534V183.226L179.106 194.441L139.61 164.534Z" fill="white" stroke="black" stroke-width="1.6" stroke-linecap="round" stroke-linejoin="round"/>
<path d="M134.796 167.158V202.633L183.723 219.725L176.944 193.442L134.796 167.158Z" fill="white" stroke="black" stroke-width="1.6" stroke-linecap="round" stroke-linejoin="round"/>
<path d="M213.198 164.534V185.091L177.435 194.441L213.198 164.534Z" fill="white" stroke="black" stroke-width="1.6" stroke-linecap="round" stroke-linejoin="round"/>
<path d="M218.7 164.534V183.226L179.204 194.441L218.7 164.534Z" fill="white" stroke="black" stroke-width="1.6" stroke-linecap="round" stroke-linejoin="round"/>
<path d="M223.514 167.158V202.633L174.586 219.725L181.365 193.442L223.514 167.158Z" fill="white" stroke="black" stroke-width="1.6" stroke-linecap="round" stroke-linejoin="round"/>
<path d="M131.838 174.231L129.195 167.241L130.171 167.158L173.702 192.02L174.586 194.441L131.838 174.231Z" fill="#FDD504" stroke="black" stroke-width="1.6" stroke-linecap="round" stroke-linejoin="round"/>
<path d="M174.193 190.722L173.702 190.998L176.406 195.007L187.855 193.442L188.439 190.113L188.184 189.868C188.184 189.868 181.947 193.57 174.193 190.722Z" fill="#FDD504" stroke="black" stroke-width="1.6" stroke-linecap="round" stroke-linejoin="round"/>
<path d="M187.11 194.441L188.439 191.819L228.827 172.254L229.114 172.798L200.621 192.438L187.11 194.441Z" fill="#FDD504" stroke="black" stroke-width="1.6" stroke-linecap="round" stroke-linejoin="round"/>
<path d="M129.195 167.241L132.036 218.13L173.702 238.024V192.867L129.195 167.241Z" fill="#FDD504"/>
<mask id="mask19_602_1271" style="mask-type:luminance" maskUnits="userSpaceOnUse" x="129" y="167" width="45" height="72">
<path fill-rule="evenodd" clip-rule="evenodd" d="M129.195 167.241L132.036 218.13L173.702 238.024V192.867L129.195 167.241Z" fill="white"/>
</mask>
<g mask="url(#mask19_602_1271)">
<ellipse cx="132.045" cy="206.667" rx="6.65776" ry="8.09113" fill="#FCB006"/>
</g>
<path fill-rule="evenodd" clip-rule="evenodd" d="M129.195 167.241L132.036 218.13L173.702 238.024V192.867L129.195 167.241V167.241Z" stroke="black" stroke-width="1.6" stroke-linecap="round" stroke-linejoin="round"/>
<path d="M188.439 192.572L229.114 172.798V219.725L188.439 238.024V192.572Z" fill="#FDD504"/>
<mask id="mask20_602_1271" style="mask-type:luminance" maskUnits="userSpaceOnUse" x="188" y="172" width="42" height="67">
<path fill-rule="evenodd" clip-rule="evenodd" d="M188.439 192.572L229.114 172.798V219.725L188.439 238.024V192.572Z" fill="white"/>
</mask>
<g mask="url(#mask20_602_1271)">
<ellipse cx="228.84" cy="203.487" rx="7.04807" ry="7.05754" fill="#FCB006"/>
<path d="M192.492 197.676L223.514 183.094V189.868L192.492 204.893V197.676Z" fill="#485065" stroke="black" stroke-width="1.6" stroke-linecap="round" stroke-linejoin="round"/>
</g>
<path fill-rule="evenodd" clip-rule="evenodd" d="M188.439 192.572L229.114 172.798V219.725L188.439 238.024V192.572V192.572Z" stroke="black" stroke-width="1.6" stroke-linecap="round" stroke-linejoin="round"/>
<path d="M173.702 190.998C173.702 190.998 180.285 195.228 188.439 190.113V239.106C188.439 239.106 179.302 242.156 173.702 239.106V190.998Z" fill="#FDD504" stroke="black" stroke-width="1.6" stroke-linecap="round" stroke-linejoin="round"/>
<ellipse cx="132.493" cy="204.112" rx="6.20915" ry="7.68255" fill="#F9C1BB" stroke="black" stroke-width="1.6" stroke-linecap="round" stroke-linejoin="round"/>
<ellipse cx="227.248" cy="200.1" rx="6.20915" ry="7.68255" fill="#F9C1BB" stroke="black" stroke-width="1.6" stroke-linecap="round" stroke-linejoin="round"/>
<ellipse cx="178.957" cy="176.259" rx="1.12289" ry="1.1244" fill="black"/>
<ellipse cx="178.957" cy="182.769" rx="1.12289" ry="1.1244" fill="black"/>
<rect x="177.435" y="198.327" width="6.48346" height="36.749" fill="#FDD504" stroke="black" stroke-width="1.6" stroke-linecap="round" stroke-linejoin="round"/>
<path d="M182.228 132.141C182.174 133.125 182.414 134.102 182.919 134.948" stroke="black" stroke-width="1.6" stroke-linecap="round" stroke-linejoin="round"/>
<path d="M207.503 147.012C208.371 147.814 209.021 148.824 209.391 149.946" stroke="black" stroke-width="1.6" stroke-linecap="round" stroke-linejoin="round"/>
<path d="M152.34 207.604C154.102 209.373 156.119 210.869 158.323 212.042" stroke="black" stroke-width="1.6" stroke-linecap="round" stroke-linejoin="round"/>
<path d="M208.588 238.329L204.02 240.424" stroke="black" stroke-width="1.6" stroke-linecap="round" stroke-linejoin="round"/>
</g>
</svg>
