<svg width="323" height="246" viewBox="0 0 323 246" fill="none" xmlns="http://www.w3.org/2000/svg">
<path d="M263.663 215.996L55.8701 215.996C55.4808 215.996 55.1651 215.68 55.1651 215.291L55.1651 99.1963L264.367 99.1963V215.291C264.367 215.68 264.052 215.996 263.663 215.996Z" fill="#D6DCF2" stroke="black" stroke-width="1.6" stroke-linecap="round" stroke-linejoin="round"/>
<path d="M55.1652 89.6172H264.367V205.711C264.367 206.101 264.052 206.416 263.662 206.416H55.8701C55.4808 206.416 55.1651 206.101 55.1651 205.711L55.1652 89.6172Z" fill="white"/>
<mask id="mask0_602_1586" style="mask-type:luminance" maskUnits="userSpaceOnUse" x="55" y="89" width="210" height="118">
<path fill-rule="evenodd" clip-rule="evenodd" d="M55.1652 89.6172H264.367V205.711C264.367 206.101 264.052 206.416 263.662 206.416H55.8701C55.4808 206.416 55.1651 206.101 55.1651 205.711L55.1652 89.6172Z" fill="white"/>
</mask>
<g mask="url(#mask0_602_1586)">
<path d="M167.418 94.2994C191.19 103.753 68.7672 83.3141 55.1652 118.238C41.5632 153.163 33.1729 70.3309 33.1729 70.3309L91.334 73.9209" fill="#D6DCF2"/>
</g>
<path fill-rule="evenodd" clip-rule="evenodd" d="M55.1652 89.6172H264.367V205.711C264.367 206.101 264.052 206.416 263.662 206.416H55.8701C55.4808 206.416 55.1651 206.101 55.1651 205.711L55.1652 89.6172Z" stroke="black" stroke-width="1.6" stroke-linecap="round" stroke-linejoin="round"/>
<path d="M55.4393 173.577H83.6107C89.6041 173.577 94.4627 177.529 94.4627 182.404V206.822L55.4393 173.577Z" fill="white" stroke="black" stroke-width="1.6" stroke-linecap="round" stroke-linejoin="round"/>
<path d="M55.793 45.2479H263.74C264.086 45.2479 264.367 45.529 264.367 45.8757V95.4139H55.1652V45.8757C55.1652 45.7092 55.2313 45.5495 55.349 45.4318C55.4668 45.314 55.6265 45.2479 55.793 45.2479Z" fill="#1B80FD" stroke="black" stroke-width="1.6" stroke-linecap="round" stroke-linejoin="round"/>
<path d="M264.367 89.4913H55.1652V39.9531C55.1652 39.6064 55.4462 39.3253 55.793 39.3253H263.74C264.086 39.3253 264.367 39.6064 264.367 39.9531V89.4913Z" fill="#FDD504"/>
<mask id="mask1_602_1586" style="mask-type:luminance" maskUnits="userSpaceOnUse" x="55" y="39" width="210" height="51">
<path fill-rule="evenodd" clip-rule="evenodd" d="M264.367 89.4913H55.1652V39.9531C55.1652 39.6064 55.4462 39.3253 55.793 39.3253H263.74C264.086 39.3253 264.367 39.6064 264.367 39.9531V89.4913Z" fill="white"/>
</mask>
<g mask="url(#mask1_602_1586)">
<path d="M166.019 27.6842C123.136 50.6145 259.288 24.9774 269.754 67.8612C280.221 110.745 278.259 41.8191 278.259 41.8191L239.668 15.8015" fill="#FBB006"/>
</g>
<path fill-rule="evenodd" clip-rule="evenodd" d="M264.367 89.4913H55.1652V39.9531C55.1652 39.6064 55.4462 39.3253 55.793 39.3253H263.74C264.086 39.3253 264.367 39.6064 264.367 39.9531V89.4913Z" stroke="black" stroke-width="1.6" stroke-linecap="round" stroke-linejoin="round"/>
<ellipse cx="105.052" cy="52.4529" rx="11.3145" ry="9.20349" fill="#E43334" stroke="black" stroke-width="1.6" stroke-linecap="round" stroke-linejoin="round"/>
<rect x="97.7784" y="15.8015" width="14.5472" height="42.0731" rx="0.39625" fill="#1A80FD"/>
<mask id="mask2_602_1586" style="mask-type:luminance" maskUnits="userSpaceOnUse" x="97" y="15" width="16" height="43">
<rect x="97.7784" y="15.8015" width="14.5472" height="42.0731" rx="0.39625" fill="white"/>
</mask>
<g mask="url(#mask2_602_1586)">
<path d="M96.1001 43.2494C100.808 60.9807 120.96 45.7978 120.96 45.7978L115.056 61.6564L94.4626 64.4084" fill="#1D62FC"/>
</g>
<rect x="97.7784" y="15.8015" width="14.5472" height="42.0731" rx="0.39625" stroke="black" stroke-width="1.6" stroke-linecap="round" stroke-linejoin="round"/>
<ellipse cx="214.481" cy="52.4529" rx="11.3145" ry="9.20349" fill="#E43334" stroke="black" stroke-width="1.6" stroke-linecap="round" stroke-linejoin="round"/>
<rect x="207.207" y="15.8015" width="14.5472" height="42.0731" rx="0.39625" fill="#1A80FD"/>
<mask id="mask3_602_1586" style="mask-type:luminance" maskUnits="userSpaceOnUse" x="207" y="15" width="15" height="43">
<rect x="207.207" y="15.8015" width="14.5472" height="42.0731" rx="0.39625" fill="white"/>
</mask>
<g mask="url(#mask3_602_1586)">
<path d="M202.067 39.3253C214.481 61.6564 230.656 43.2494 230.656 43.2494C230.656 43.2494 224.351 71.2468 221.754 70.3309C219.158 69.415 195.23 61.6564 195.23 61.6564" fill="#1D62FC"/>
</g>
<rect x="207.207" y="15.8015" width="14.5472" height="42.0731" rx="0.39625" stroke="black" stroke-width="1.6" stroke-linecap="round" stroke-linejoin="round"/>
<rect x="106.369" y="71.2237" width="106.795" height="8.63831" rx="0.26089" fill="#FDD504"/>
<path d="M230.417 162.066L226.716 167.679" stroke="black" stroke-width="1.6" stroke-linecap="round" stroke-linejoin="round"/>
<path d="M104.615 129.504C100.901 133.571 96.729 137.193 92.1813 140.299" stroke="black" stroke-width="1.6" stroke-linecap="round" stroke-linejoin="round"/>
<path d="M172.598 53.0163L168.868 55.8115" stroke="black" stroke-width="1.6" stroke-linecap="round" stroke-linejoin="round"/>
<path d="M321.617 215.564L279.282 85.3445C279.196 85.0799 278.912 84.935 278.647 85.0211L148.428 127.356C148.234 127.419 148.098 127.592 148.082 127.796C148.066 127.999 148.174 128.192 148.355 128.284L320.909 216.169C321.091 216.261 321.31 216.235 321.465 216.103C321.62 215.97 321.68 215.758 321.617 215.564Z" fill="#FBD164"/>
<path d="M279.245 166.306L213.185 132.661C213.004 132.568 212.896 132.376 212.912 132.172C212.928 131.969 213.065 131.796 213.258 131.733L263.111 115.525C263.376 115.439 263.66 115.584 263.746 115.849L279.953 165.701C280.016 165.895 279.956 166.108 279.802 166.24C279.647 166.373 279.427 166.399 279.245 166.306Z" fill="#FBD164"/>
<path fill-rule="evenodd" clip-rule="evenodd" d="M321.617 215.564L279.282 85.3445C279.196 85.0799 278.912 84.935 278.647 85.0211L148.428 127.356C148.234 127.419 148.098 127.592 148.082 127.796C148.066 127.999 148.174 128.192 148.355 128.284L320.909 216.169C321.091 216.261 321.31 216.235 321.465 216.103C321.62 215.97 321.68 215.758 321.617 215.564Z" stroke="#190000" stroke-width="1.6" stroke-linecap="round" stroke-linejoin="round"/>
<path fill-rule="evenodd" clip-rule="evenodd" d="M279.245 166.306L213.185 132.661C213.004 132.568 212.896 132.376 212.912 132.172C212.928 131.969 213.065 131.796 213.258 131.733L263.111 115.525C263.376 115.439 263.66 115.584 263.746 115.849L279.953 165.701C280.016 165.895 279.956 166.108 279.802 166.24C279.647 166.373 279.427 166.399 279.245 166.306V166.306Z" stroke="#190000" stroke-width="1.6" stroke-linecap="round" stroke-linejoin="round"/>
<path d="M279.845 98.2059L275.486 99.6231L279.845 98.2059Z" fill="#D3575E"/>
<path d="M279.845 98.2059L275.486 99.6231" stroke="#190000" stroke-width="1.6" stroke-linecap="round" stroke-linejoin="round"/>
<path d="M282.931 107.698L278.572 109.115L282.931 107.698Z" fill="#D3575E"/>
<path d="M282.931 107.698L278.572 109.115" stroke="#190000" stroke-width="1.6" stroke-linecap="round" stroke-linejoin="round"/>
<path d="M292.188 136.174L287.829 137.591L292.188 136.174Z" fill="#D3575E"/>
<path d="M292.188 136.174L287.829 137.591" stroke="#190000" stroke-width="1.6" stroke-linecap="round" stroke-linejoin="round"/>
<path d="M295.274 145.665L290.915 147.083L295.274 145.665Z" fill="#D3575E"/>
<path d="M295.274 145.665L290.915 147.083" stroke="#190000" stroke-width="1.6" stroke-linecap="round" stroke-linejoin="round"/>
<path d="M286.016 117.19L281.657 118.607L286.016 117.19Z" fill="#D3575E"/>
<path d="M286.016 117.19L281.657 118.607" stroke="#190000" stroke-width="1.6" stroke-linecap="round" stroke-linejoin="round"/>
<path d="M289.102 126.682L284.743 128.099L289.102 126.682Z" fill="#D3575E"/>
<path d="M289.102 126.682L284.743 128.099" stroke="#190000" stroke-width="1.6" stroke-linecap="round" stroke-linejoin="round"/>
<path d="M301.446 164.649L297.087 166.067L301.446 164.649Z" fill="#D3575E"/>
<path d="M301.446 164.649L297.087 166.067" stroke="#190000" stroke-width="1.6" stroke-linecap="round" stroke-linejoin="round"/>
<path d="M307.618 183.633L303.258 185.05L307.618 183.633Z" fill="#D3575E"/>
<path d="M307.618 183.633L303.258 185.05" stroke="#190000" stroke-width="1.6" stroke-linecap="round" stroke-linejoin="round"/>
<path d="M298.36 155.157L294.001 156.575L298.36 155.157Z" fill="#D3575E"/>
<path d="M298.36 155.157L294.001 156.575" stroke="#190000" stroke-width="1.6" stroke-linecap="round" stroke-linejoin="round"/>
<path d="M304.532 174.141L300.173 175.558L304.532 174.141Z" fill="#D3575E"/>
<path d="M304.532 174.141L300.173 175.558" stroke="#190000" stroke-width="1.6" stroke-linecap="round" stroke-linejoin="round"/>
<path d="M310.703 193.125L306.344 194.542L310.703 193.125Z" fill="#D3575E"/>
<path d="M310.703 193.125L306.344 194.542" stroke="#190000" stroke-width="1.6" stroke-linecap="round" stroke-linejoin="round"/>
<path d="M313.789 202.617L309.43 204.034L313.789 202.617Z" fill="#D3575E"/>
<path d="M313.789 202.617L309.43 204.034" stroke="#190000" stroke-width="1.6" stroke-linecap="round" stroke-linejoin="round"/>
<path d="M163.037 125.837L164.454 130.196L163.037 125.837Z" fill="#D3575E"/>
<path d="M163.037 125.837L164.454 130.196" stroke="#190000" stroke-width="1.6" stroke-linecap="round" stroke-linejoin="round"/>
<path d="M172.529 122.751L173.946 127.11L172.529 122.751Z" fill="#D3575E"/>
<path d="M172.529 122.751L173.946 127.11" stroke="#190000" stroke-width="1.6" stroke-linecap="round" stroke-linejoin="round"/>
<path d="M201.005 113.493L202.422 117.852L201.005 113.493Z" fill="#D3575E"/>
<path d="M201.005 113.493L202.422 117.852" stroke="#190000" stroke-width="1.6" stroke-linecap="round" stroke-linejoin="round"/>
<path d="M210.496 110.407L211.914 114.766L210.496 110.407Z" fill="#D3575E"/>
<path d="M210.496 110.407L211.914 114.766" stroke="#190000" stroke-width="1.6" stroke-linecap="round" stroke-linejoin="round"/>
<path d="M182.021 119.665L183.438 124.024L182.021 119.665Z" fill="#D3575E"/>
<path d="M182.021 119.665L183.438 124.024" stroke="#190000" stroke-width="1.6" stroke-linecap="round" stroke-linejoin="round"/>
<path d="M191.513 116.579L192.93 120.938L191.513 116.579Z" fill="#D3575E"/>
<path d="M191.513 116.579L192.93 120.938" stroke="#190000" stroke-width="1.6" stroke-linecap="round" stroke-linejoin="round"/>
<path d="M229.48 104.235L230.897 108.595L229.48 104.235Z" fill="#D3575E"/>
<path d="M229.48 104.235L230.897 108.595" stroke="#190000" stroke-width="1.6" stroke-linecap="round" stroke-linejoin="round"/>
<path d="M248.464 98.0638L249.881 102.423L248.464 98.0638Z" fill="#D3575E"/>
<path d="M248.464 98.0638L249.881 102.423" stroke="#190000" stroke-width="1.6" stroke-linecap="round" stroke-linejoin="round"/>
<path d="M219.988 107.321L221.406 111.68L219.988 107.321Z" fill="#D3575E"/>
<path d="M219.988 107.321L221.406 111.68" stroke="#190000" stroke-width="1.6" stroke-linecap="round" stroke-linejoin="round"/>
<path d="M238.972 101.15L240.389 105.509L238.972 101.15Z" fill="#D3575E"/>
<path d="M238.972 101.15L240.389 105.509" stroke="#190000" stroke-width="1.6" stroke-linecap="round" stroke-linejoin="round"/>
<path d="M257.956 94.9779L259.373 99.337L257.956 94.9779Z" fill="#D3575E"/>
<path d="M257.956 94.9779L259.373 99.337" stroke="#190000" stroke-width="1.6" stroke-linecap="round" stroke-linejoin="round"/>
<path d="M267.448 91.892L268.865 96.2511L267.448 91.892Z" fill="#D3575E"/>
<path d="M267.448 91.892L268.865 96.2511" stroke="#190000" stroke-width="1.6" stroke-linecap="round" stroke-linejoin="round"/>
<path d="M289.072 177.512C286.644 179.966 282.774 180.871 279.51 179.748" stroke="#190000" stroke-width="1.6" stroke-linecap="round" stroke-linejoin="round"/>
<path d="M44.0589 135.419C25.9789 142.313 39.0528 158.913 39.0528 158.913C59.8137 149.839 44.0589 135.419 44.0589 135.419Z" fill="#409159" stroke="#190000" stroke-width="1.6" stroke-linecap="round" stroke-linejoin="round"/>
<path d="M46.7451 166.944C33.6584 152.691 23.0644 170.973 23.0644 170.973C39.1673 186.912 46.7451 166.944 46.7451 166.944Z" fill="#409159" stroke="#190000" stroke-width="1.6" stroke-linecap="round" stroke-linejoin="round"/>
<path d="M57.7998 184.967C44.7131 170.713 34.1192 188.996 34.1192 188.996C50.2221 204.935 57.7998 184.967 57.7998 184.967Z" fill="#FBD164" stroke="#190000" stroke-width="1.6" stroke-linecap="round" stroke-linejoin="round"/>
<path d="M67.0854 206.611C53.9987 192.358 41.2962 209.395 41.2962 209.395C56.6199 231.478 67.0854 206.611 67.0854 206.611Z" fill="#FBD164" stroke="#190000" stroke-width="1.6" stroke-linecap="round" stroke-linejoin="round"/>
<path d="M68.3463 157.043C49.3344 153.443 51.7737 174.432 51.7737 174.432C74.2113 177.58 68.3463 157.043 68.3463 157.043Z" fill="#409159" stroke="#190000" stroke-width="1.6" stroke-linecap="round" stroke-linejoin="round"/>
<path d="M80.469 178.764C61.4571 175.164 63.8964 196.152 63.8964 196.152C86.3339 199.3 80.469 178.764 80.469 178.764Z" fill="#409159" stroke="#190000" stroke-width="1.6" stroke-linecap="round" stroke-linejoin="round"/>
<path d="M93.8927 202.176C76.9412 187.982 69.7255 214.426 69.7255 214.426C90.1193 224.298 93.8927 202.176 93.8927 202.176Z" fill="#FBD164" stroke="#190000" stroke-width="1.6" stroke-linecap="round" stroke-linejoin="round"/>
<path d="M21.5334 145.685C59.9096 164.679 72.38 224.217 72.38 224.217" stroke="#190000" stroke-width="1.6" stroke-linecap="round" stroke-linejoin="round"/>
<path d="M5.47321 143.89C14.5316 160.023 30.5387 150.735 30.5387 150.735C24.129 129.003 5.47321 143.89 5.47321 143.89Z" fill="#409159" stroke="#190000" stroke-width="1.6" stroke-linecap="round" stroke-linejoin="round"/>
<path d="M92.4812 213.446C92.4812 213.446 105.904 211.213 119.667 208.915C114.635 197.317 105.933 187.693 94.8991 181.523L88.2133 188.827C88.2133 188.827 89.3002 184.891 90.8085 179.45C84.4133 176.519 77.5318 174.795 70.5102 174.363L66.8964 201.549C66.8964 201.549 63.9288 188.252 60.9128 174.548C45.8185 176.11 32.468 183.519 23.14 194.464L40.5315 209.904C40.5315 209.904 28.9985 204.925 18.6733 200.451C12.6176 209.755 9.40019 220.62 9.41362 231.721C9.41362 232.39 9.44128 233.051 9.46397 233.715H124.329C124.352 233.051 124.379 232.39 124.379 231.721C124.382 226.036 123.541 220.381 121.884 214.942L92.4812 213.446Z" fill="#FBD164"/>
<mask id="mask4_602_1586" style="mask-type:luminance" maskUnits="userSpaceOnUse" x="9" y="174" width="116" height="60">
<path fill-rule="evenodd" clip-rule="evenodd" d="M92.4812 213.446C92.4812 213.446 105.904 211.213 119.667 208.915C114.635 197.317 105.933 187.693 94.8991 181.523L88.2133 188.827C88.2133 188.827 89.3002 184.891 90.8085 179.45C84.4133 176.519 77.5318 174.795 70.5102 174.363L66.8964 201.549C66.8964 201.549 63.9288 188.252 60.9128 174.548C45.8185 176.11 32.468 183.519 23.14 194.464L40.5315 209.904C40.5315 209.904 28.9985 204.925 18.6733 200.451C12.6176 209.755 9.40019 220.62 9.41362 231.721C9.41362 232.39 9.44128 233.051 9.46397 233.715H124.329C124.352 233.051 124.379 232.39 124.379 231.721C124.382 226.036 123.541 220.381 121.884 214.942L92.4812 213.446Z" fill="white"/>
</mask>
<g mask="url(#mask4_602_1586)">
<path d="M67.0854 239.008C75.1933 220.229 86.0764 214.285 86.0764 214.285L100.111 220.365L89.0945 209.731C89.0945 209.731 109.717 196.335 116.653 197.989C123.589 199.643 120.372 199.286 120.372 199.286L116.653 197.989L121.287 216.963V230.132L75.681 239.008L62.7554 240.471" fill="#F9B964"/>
<path d="M1.0282 213.243L40.5316 209.904L13.5526 193.89L18.006 182.733L60.3548 169.326L43.5113 177.144L66.8964 201.549V171.209L75.5591 168.1L89.2773 173.404L88.2134 188.827L97.6912 169.326L92.9355 163.893L30.5387 159.869L20.1374 163.527" fill="#F9B964"/>
</g>
<path fill-rule="evenodd" clip-rule="evenodd" d="M92.4812 213.446C92.4812 213.446 105.904 211.213 119.667 208.915C114.635 197.317 105.933 187.693 94.8991 181.523L88.2133 188.827C88.2133 188.827 89.3002 184.891 90.8085 179.45C84.4133 176.519 77.5318 174.795 70.5102 174.363L66.8964 201.549C66.8964 201.549 63.9288 188.252 60.9128 174.548C45.8185 176.11 32.468 183.519 23.14 194.464L40.5315 209.904C40.5315 209.904 28.9985 204.925 18.6733 200.451C12.6176 209.755 9.40019 220.62 9.41362 231.721C9.41362 232.39 9.44128 233.051 9.46397 233.715H124.329C124.352 233.051 124.379 232.39 124.379 231.721C124.382 226.036 123.541 220.381 121.884 214.942L92.4812 213.446Z" stroke="#190000" stroke-width="1.6" stroke-linecap="round" stroke-linejoin="round"/>
<path d="M11.7091 230.132C8.65744 230.12 5.74738 231.419 3.71875 233.699C1.69013 235.978 0.738332 239.02 1.10534 242.049C4.11734 243.451 7.76956 244.275 11.7091 244.275C15.6487 244.275 19.3009 243.451 22.3129 242.049C22.6799 239.02 21.7281 235.978 19.6995 233.699C17.6709 231.419 14.7608 230.12 11.7091 230.132Z" fill="white"/>
<mask id="mask5_602_1586" style="mask-type:luminance" maskUnits="userSpaceOnUse" x="1" y="230" width="22" height="15">
<path fill-rule="evenodd" clip-rule="evenodd" d="M11.7091 230.132C8.65744 230.12 5.74738 231.419 3.71875 233.699C1.69013 235.978 0.738332 239.02 1.10534 242.049C4.11734 243.451 7.76956 244.275 11.7091 244.275C15.6487 244.275 19.3009 243.451 22.3129 242.049C22.6799 239.02 21.7281 235.978 19.6995 233.699C17.6709 231.419 14.7608 230.12 11.7091 230.132Z" fill="white"/>
</mask>
<g mask="url(#mask5_602_1586)">
<path d="M-1.99475 230.132C28.7341 233.715 13.3697 254.616 13.3697 254.616L37.5138 248.763L23.0644 224.217L1.02821 214.742" fill="#D6DCF2"/>
</g>
<path fill-rule="evenodd" clip-rule="evenodd" d="M11.7091 230.132C8.65744 230.12 5.74738 231.419 3.71875 233.699C1.69013 235.978 0.738332 239.02 1.10534 242.049C4.11734 243.451 7.76956 244.275 11.7091 244.275C15.6487 244.275 19.3009 243.451 22.3129 242.049C22.6799 239.02 21.7281 235.978 19.6995 233.699C17.6709 231.419 14.7608 230.12 11.7091 230.132Z" stroke="#190000" stroke-width="1.6" stroke-linecap="round" stroke-linejoin="round"/>
<path d="M131.862 224.832C131.862 224.832 140.055 223.469 148.455 222.066C145.384 214.988 140.072 209.114 133.338 205.347L129.257 209.806C129.257 209.806 129.92 207.403 130.841 204.082C126.938 202.293 122.737 201.241 118.452 200.977L116.246 217.57C116.246 217.57 114.434 209.455 112.594 201.09C103.631 202.024 95.3726 206.378 89.5384 213.246L100.154 222.67C100.154 222.67 93.1142 219.631 86.8121 216.901C83.1158 222.579 81.152 229.211 81.1602 235.987C81.1602 236.395 81.1771 236.799 81.1909 237.203H151.301C151.315 236.799 151.331 236.395 151.331 235.987C151.333 232.516 150.82 229.065 149.809 225.745L131.862 224.832Z" fill="#409159"/>
<mask id="mask6_602_1586" style="mask-type:luminance" maskUnits="userSpaceOnUse" x="81" y="200" width="71" height="38">
<path fill-rule="evenodd" clip-rule="evenodd" d="M131.862 224.832C131.862 224.832 140.055 223.469 148.455 222.066C145.384 214.988 140.072 209.114 133.338 205.347L129.257 209.806C129.257 209.806 129.92 207.403 130.841 204.082C126.938 202.293 122.737 201.241 118.452 200.977L116.246 217.57C116.246 217.57 114.434 209.455 112.594 201.09C103.631 202.024 95.3726 206.378 89.5384 213.246L100.154 222.67C100.154 222.67 93.1142 219.631 86.8121 216.901C83.1158 222.579 81.152 229.211 81.1602 235.987C81.1602 236.395 81.1771 236.799 81.1909 237.203H151.301C151.315 236.799 151.331 236.395 151.331 235.987C151.333 232.516 150.82 229.065 149.809 225.745L131.862 224.832Z" fill="white"/>
</mask>
<g mask="url(#mask6_602_1586)">
<path d="M81.1602 217.585L100.154 222.67L83.6865 212.896L86.4047 206.086L112.253 197.903L110.058 200.168L116.246 217.57V199.052L121.533 197.154L129.906 200.392L129.257 209.806L135.042 197.903L132.139 194.587L94.0543 192.131L87.7056 194.363" fill="#357C49"/>
<path d="M62.69 232.141L141.063 237.203C141.063 237.203 70.2817 244.199 69.1653 244.199C68.0488 244.199 59.1175 237.203 59.1175 237.203" fill="#357C49"/>
<path d="M157.363 226.913L131.862 224.832L154.683 217.181L155.353 224.996" fill="#357C49"/>
</g>
<path fill-rule="evenodd" clip-rule="evenodd" d="M131.862 224.832C131.862 224.832 140.055 223.469 148.455 222.066C145.384 214.988 140.072 209.114 133.338 205.347L129.257 209.806C129.257 209.806 129.92 207.403 130.841 204.082C126.938 202.293 122.737 201.241 118.452 200.977L116.246 217.57C116.246 217.57 114.434 209.455 112.594 201.09C103.631 202.024 95.3726 206.378 89.5384 213.246L100.154 222.67C100.154 222.67 93.1142 219.631 86.8121 216.901C83.1158 222.579 81.152 229.211 81.1602 235.987C81.1602 236.395 81.1771 236.799 81.1909 237.203H151.301C151.315 236.799 151.331 236.395 151.331 235.987C151.333 232.516 150.82 229.065 149.809 225.745L131.862 224.832Z" stroke="#190000" stroke-width="1.6" stroke-linecap="round" stroke-linejoin="round"/>
<path d="M10.3135 237.752C10.6144 237.903 10.8436 238.167 10.9515 238.486" stroke="#190000" stroke-width="1.6" stroke-linecap="round" stroke-linejoin="round"/>
<path d="M38.3723 219.477C39.6931 221.017 41.5122 222.044 43.5127 222.38" stroke="#190000" stroke-width="1.6" stroke-linecap="round" stroke-linejoin="round"/>
<path d="M81.2218 195.34L79.7235 197.51" stroke="#190000" stroke-width="1.6" stroke-linecap="round" stroke-linejoin="round"/>
<path d="M110.078 226.812C111.134 227.199 112.271 227.308 113.38 227.129" stroke="#190000" stroke-width="1.6" stroke-linecap="round" stroke-linejoin="round"/>
<path d="M34.5453 169.533C34.8144 169.713 35.1456 169.774 35.4612 169.702" stroke="#190000" stroke-width="1.6" stroke-linecap="round" stroke-linejoin="round"/>
<path d="M43.1454 147.213V147.762" stroke="#190000" stroke-width="1.6" stroke-linecap="round" stroke-linejoin="round"/>
<path d="M14.9685 145.584L15.334 145.768" stroke="#190000" stroke-width="1.6" stroke-linecap="round" stroke-linejoin="round"/>
<path d="M64.3583 166.781L63.0794 168.794" stroke="#190000" stroke-width="1.6" stroke-linecap="round" stroke-linejoin="round"/>
<path d="M77.1191 243.43H270.975V207.868H77.1191V243.43Z" fill="#D9342D" stroke="black" stroke-width="1.6" stroke-linecap="round" stroke-linejoin="round"/>
<mask id="mask7_602_1586" style="mask-type:luminance" maskUnits="userSpaceOnUse" x="77" y="207" width="194" height="37">
<path fill-rule="evenodd" clip-rule="evenodd" d="M77.1191 243.43H270.975V207.868H77.1191V243.43Z" fill="white"/>
</mask>
<g mask="url(#mask7_602_1586)">
<path d="M221.97 248.199H246.689V201.797H221.97V248.199Z" fill="white" stroke="black" stroke-width="1.6" stroke-linecap="round" stroke-linejoin="round"/>
<path d="M221.97 248.199V248.455H246.689L246.87 248.381L246.946 248.199V201.797L246.87 201.615L246.689 201.541H221.97L221.788 201.615L221.714 201.797V248.199L221.788 248.381L221.97 248.455V248.199H222.226V202.053H246.433V247.943H221.97V248.199H222.226H221.97Z" fill="#040000"/>
<path d="M221.97 248.199V248.455H246.689L246.87 248.381L246.946 248.199V201.797L246.87 201.615L246.689 201.541H221.97L221.788 201.615L221.714 201.797V248.199L221.788 248.381L221.97 248.455V248.199H222.226V202.053H246.433V247.943H221.97V248.199H222.226H221.97V248.199V248.199Z" stroke="black" stroke-width="1.6" stroke-linecap="round" stroke-linejoin="round"/>
<path d="M210.988 248.199H215.614V201.797H210.988V248.199Z" fill="white" stroke="black" stroke-width="1.6" stroke-linecap="round" stroke-linejoin="round"/>
<path d="M210.988 248.199V248.455H215.614L215.796 248.381L215.87 248.199V201.797L215.796 201.615L215.614 201.541H210.988L210.807 201.615L210.731 201.797V248.199L210.807 248.381L210.988 248.455V248.199H211.244V202.053H215.358V247.943H210.988V248.199H211.244H210.988Z" fill="#040000"/>
<path d="M210.988 248.199V248.455H215.614L215.796 248.381L215.87 248.199V201.797L215.796 201.615L215.614 201.541H210.988L210.807 201.615L210.731 201.797V248.199L210.807 248.381L210.988 248.455V248.199H211.244V202.053H215.358V247.943H210.988V248.199H211.244H210.988V248.199V248.199Z" stroke="black" stroke-width="1.6" stroke-linecap="round" stroke-linejoin="round"/>
</g>
<path fill-rule="evenodd" clip-rule="evenodd" d="M77.1191 243.43H270.975V207.868H77.1191V243.43V243.43V243.43Z" stroke="black" stroke-width="1.6" stroke-linecap="round" stroke-linejoin="round"/>
<path d="M146.728 211.255C136.378 210.867 205.696 235.176 207.648 235.611C209.599 236.045 204.626 220.144 204.626 220.144L190.747 216.241" fill="#B92022"/>
<path d="M146.728 211.255C136.378 210.867 205.696 235.176 207.648 235.611C209.599 236.045 204.626 220.144 204.626 220.144L190.747 216.241" stroke="black" stroke-width="1.6" stroke-linecap="round" stroke-linejoin="round"/>
<path d="M77.1191 243.43V243.686H270.975L271.157 243.611L271.231 243.43V207.868L271.157 207.686L270.975 207.612H77.119L76.9378 207.686L76.863 207.868V243.43L76.938 243.611L77.1191 243.686V243.43H77.3753V208.124H270.719V243.173L77.119 243.174V243.43H77.3753H77.1191Z" fill="#040000"/>
<path d="M77.1191 243.43V243.686H270.975L271.157 243.611L271.231 243.43V207.868L271.157 207.686L270.975 207.612H77.119L76.9378 207.686L76.863 207.868V243.43L76.938 243.611L77.1191 243.686V243.43H77.3753V208.124H270.719V243.173L77.119 243.174V243.43H77.3753H77.1191V243.43V243.43Z" stroke="black" stroke-width="1.6" stroke-linecap="round" stroke-linejoin="round"/>
<path d="M119.334 206.974L219.37 229.816C219.37 229.816 221.394 209.287 225.731 206.974H119.334Z" fill="white" stroke="black" stroke-width="1.6" stroke-linecap="round" stroke-linejoin="round"/>
<path d="M119.334 206.974L119.277 207.224L219.313 230.066L219.52 230.023L219.625 229.84C219.626 229.838 219.751 228.562 220.008 226.605C220.393 223.67 221.073 219.21 222.061 215.281C222.554 213.316 223.124 211.483 223.767 210.046C224.406 208.606 225.134 207.575 225.851 207.199L225.979 206.911C225.951 206.797 225.848 206.717 225.731 206.718H119.334C119.203 206.718 119.093 206.816 119.079 206.945C119.064 207.075 119.149 207.195 119.277 207.224L119.334 206.974V207.23H225.731V206.974L225.61 206.747C224.405 207.407 223.481 209.164 222.665 211.433C220.251 218.237 219.117 229.78 219.115 229.79L219.37 229.816L219.427 229.566L119.391 206.724L119.334 206.974L119.334 206.974Z" fill="#040000" stroke="black" stroke-width="1.6" stroke-linecap="round" stroke-linejoin="round"/>
<path d="M251.255 162.596H105.134C110.825 174.055 105.134 206.974 105.134 206.974H251.255C251.255 206.974 245.565 174.055 251.255 162.596Z" fill="white" stroke="black" stroke-width="1.6" stroke-linecap="round" stroke-linejoin="round"/>
<mask id="mask8_602_1586" style="mask-type:luminance" maskUnits="userSpaceOnUse" x="105" y="162" width="147" height="45">
<path fill-rule="evenodd" clip-rule="evenodd" d="M251.255 162.596H105.134C110.825 174.055 105.134 206.974 105.134 206.974H251.255C251.255 206.974 245.565 174.055 251.255 162.596Z" fill="white"/>
</mask>
<g mask="url(#mask8_602_1586)">
<path d="M103.114 179.773L106.064 179.888L156.6 181.856L100.164 184.785" fill="#D4D9EE"/>
<path d="M103.114 179.773L106.064 179.888L156.6 181.856L100.164 184.785" stroke="black" stroke-width="1.6" stroke-linecap="round" stroke-linejoin="round"/>
<path d="M273.972 192.494L271.021 192.379L220.487 190.41L276.922 187.481" fill="#D4D9EE"/>
<path d="M273.972 192.494L271.021 192.379L220.487 190.41L276.922 187.481" stroke="black" stroke-width="1.6" stroke-linecap="round" stroke-linejoin="round"/>
<path d="M275.448 171.292L272.497 171.178L113.772 169.153L278.398 166.28" fill="#D4D9EE"/>
<path d="M275.448 171.292L272.497 171.178L113.772 169.153L278.398 166.28" stroke="black" stroke-width="1.6" stroke-linecap="round" stroke-linejoin="round"/>
</g>
<path fill-rule="evenodd" clip-rule="evenodd" d="M251.255 162.596H105.134C110.825 174.055 105.134 206.974 105.134 206.974H251.255C251.255 206.974 245.565 174.055 251.255 162.596Z" stroke="black" stroke-width="1.6" stroke-linecap="round" stroke-linejoin="round"/>
<path d="M251.255 162.596V162.339H105.134L104.917 162.461L104.905 162.71C106.768 166.452 107.41 172.638 107.407 179.194C107.407 185.752 106.776 192.689 106.145 197.984C105.829 200.632 105.513 202.869 105.276 204.444C105.039 206.018 104.882 206.928 104.882 206.93L104.938 207.138L105.134 207.23H251.255L251.451 207.138L251.507 206.93C251.507 206.928 251.349 206.018 251.114 204.444C250.403 199.719 248.982 189.032 248.982 179.194C248.98 172.637 249.621 166.452 251.484 162.71L251.472 162.461L251.255 162.339V162.596L251.025 162.482C249.095 166.378 248.473 172.601 248.47 179.194C248.47 192.374 251.002 207.01 251.002 207.018L251.255 206.974V206.718H105.134V206.974L105.387 207.018C105.388 207.01 107.919 192.373 107.92 179.194C107.917 172.601 107.294 166.378 105.364 162.482L105.134 162.596V162.852H251.255V162.596L251.025 162.482L251.255 162.596Z" fill="#040000"/>
<path d="M251.255 162.596V162.339H105.134L104.917 162.461L104.905 162.71C106.768 166.452 107.41 172.638 107.407 179.194C107.407 185.752 106.776 192.689 106.145 197.984C105.829 200.632 105.513 202.869 105.276 204.444C105.039 206.018 104.882 206.928 104.882 206.93L104.938 207.138L105.134 207.23H251.255L251.451 207.138L251.507 206.93C251.507 206.928 251.349 206.018 251.114 204.444C250.403 199.719 248.982 189.032 248.982 179.194C248.98 172.637 249.621 166.452 251.484 162.71L251.472 162.461L251.255 162.339V162.596L251.025 162.482C249.095 166.378 248.473 172.601 248.47 179.194C248.47 192.374 251.002 207.01 251.002 207.018L251.255 206.974V206.718H105.134V206.974L105.387 207.018C105.388 207.01 107.919 192.373 107.92 179.194C107.917 172.601 107.294 166.378 105.364 162.482L105.134 162.596V162.852H251.255V162.596L251.025 162.482L251.255 162.596V162.596Z" stroke="black" stroke-width="1.6" stroke-linecap="round" stroke-linejoin="round"/>
<path d="M256.947 162.596H99.4425V154.261H256.947V162.596Z" fill="#14B18E" stroke="black" stroke-width="1.6" stroke-linecap="round" stroke-linejoin="round"/>
<path d="M256.947 162.596V162.339H99.6986V154.517H256.691V162.596H256.947V162.339V162.596H257.203V154.261L257.129 154.08L256.947 154.005H99.4425L99.2612 154.08L99.1863 154.261V162.596L99.2613 162.777L99.4425 162.852H256.947L257.129 162.777L257.203 162.596H256.947Z" fill="#040000"/>
<path d="M256.947 162.596V162.339H99.6986V154.517H256.691V162.596H256.947V162.339V162.596H257.203V154.261L257.129 154.08L256.947 154.005H99.4425L99.2612 154.08L99.1863 154.261V162.596L99.2613 162.777L99.4425 162.852H256.947L257.129 162.777L257.203 162.596H256.947V162.596V162.596Z" stroke="black" stroke-width="1.6" stroke-linecap="round" stroke-linejoin="round"/>
<path d="M256.947 207.909H99.4425V199.574H256.947V207.909Z" fill="#14B18E" stroke="black" stroke-width="1.6" stroke-linecap="round" stroke-linejoin="round"/>
<mask id="mask9_602_1586" style="mask-type:luminance" maskUnits="userSpaceOnUse" x="99" y="199" width="158" height="9">
<path fill-rule="evenodd" clip-rule="evenodd" d="M256.947 207.909H99.4425V199.574H256.947V207.909Z" fill="white"/>
</mask>
<g mask="url(#mask9_602_1586)">
<path d="M93.3852 206.974C105.134 206.974 234.476 204.771 235.344 207.909C236.212 211.047 107.552 215.674 107.552 215.674L81.4558 206.974" fill="#14B18E"/>
<path d="M93.3852 206.974C105.134 206.974 234.476 204.771 235.344 207.909C236.212 211.047 107.552 215.674 107.552 215.674L81.4558 206.974" stroke="black" stroke-width="1.6" stroke-linecap="round" stroke-linejoin="round"/>
<path d="M93.3852 207.23C100.253 207.23 147.213 206.478 185.273 206.478C198.828 206.478 211.255 206.573 220.334 206.832C224.872 206.961 228.575 207.132 231.16 207.351C232.451 207.459 233.463 207.581 234.152 207.713C234.416 207.758 234.675 207.826 234.927 207.914L235.096 207.997L235.113 208.012L235.183 207.954L235.098 207.977L235.113 208.011L235.183 207.954L235.098 207.977L235.231 207.941H235.092L235.098 207.978L235.231 207.941H235.208L235.108 207.878L235.092 207.941H235.208L235.108 207.878L235.117 207.883L235.109 207.877L235.108 207.878L235.117 207.883L235.109 207.877C235.094 207.904 234.902 208.014 234.597 208.104C233.399 208.48 230.471 208.891 226.322 209.303C211.783 210.746 182.082 212.276 156.024 213.444C142.994 214.028 130.874 214.521 122.011 214.868C117.579 215.042 113.962 215.179 111.453 215.273C108.944 215.366 107.547 215.418 107.543 215.418L107.552 215.674L107.633 215.43L81.537 206.731C81.4499 206.701 81.3536 206.72 81.2847 206.781C81.2158 206.842 81.1848 206.935 81.2034 207.026C81.2221 207.116 81.2875 207.189 81.3749 207.217L107.471 215.916L107.561 215.93C107.562 215.93 139.511 214.781 171.463 213.24C187.439 212.469 203.414 211.6 215.399 210.728C221.391 210.291 226.387 209.855 229.888 209.428C231.639 209.214 233.018 209.004 233.968 208.794C234.347 208.719 234.719 208.613 235.08 208.475C235.2 208.429 235.314 208.366 235.417 208.288C235.529 208.207 235.599 208.079 235.605 207.941L235.591 207.841C235.503 207.594 235.322 207.529 235.113 207.436C234.316 207.133 232.45 206.914 229.625 206.72C221.169 206.154 204.34 205.966 185.273 205.966C147.21 205.966 100.24 206.718 93.3854 206.718C93.2938 206.718 93.2092 206.767 93.1635 206.846C93.1177 206.925 93.1177 207.023 93.1635 207.102C93.2092 207.181 93.2938 207.23 93.3854 207.23L93.3852 207.23Z" fill="#040000" stroke="black" stroke-width="1.6" stroke-linecap="round" stroke-linejoin="round"/>
</g>
<path fill-rule="evenodd" clip-rule="evenodd" d="M256.947 207.909H99.4425V199.574H256.947V207.909V207.909V207.909Z" stroke="black" stroke-width="1.6" stroke-linecap="round" stroke-linejoin="round"/>
<path d="M256.947 207.909V207.653H99.6986V199.831H256.691V207.909H256.947V207.653V207.909H257.203V199.574L257.129 199.394L256.947 199.318H99.4425L99.2612 199.394L99.1863 199.574V207.909L99.2613 208.091L99.4425 208.165H256.947L257.129 208.091L257.203 207.909H256.947Z" fill="#040000"/>
<path d="M256.947 207.909V207.653H99.6986V199.831H256.691V207.909H256.947V207.653V207.909H257.203V199.574L257.129 199.394L256.947 199.318H99.4425L99.2612 199.394L99.1863 199.574V207.909L99.2613 208.091L99.4425 208.165H256.947L257.129 208.091L257.203 207.909H256.947V207.909V207.909Z" stroke="black" stroke-width="1.6" stroke-linecap="round" stroke-linejoin="round"/>
<path d="M195.179 188.17C198.781 187.423 202.382 186.676 205.983 185.931C206.467 185.831 206.262 185.089 205.778 185.189C202.178 185.936 198.577 186.682 194.975 187.428C194.491 187.529 194.696 188.27 195.179 188.17V188.17Z" fill="#040000" stroke="black" stroke-width="1.6" stroke-linecap="round" stroke-linejoin="round"/>
<path d="M118.589 228.422H128.687C129.182 228.422 129.182 227.652 128.687 227.652H118.589C118.095 227.652 118.094 228.422 118.589 228.422Z" fill="#040000" stroke="black" stroke-width="1.6" stroke-linecap="round" stroke-linejoin="round"/>
<path d="M167.138 231.55L168.313 227.925V209.058H156.225L157.509 232.665L167.138 231.55Z" fill="#FACCC4"/>
<mask id="mask10_602_1586" style="mask-type:luminance" maskUnits="userSpaceOnUse" x="156" y="209" width="13" height="24">
<path fill-rule="evenodd" clip-rule="evenodd" d="M167.138 231.55L168.313 227.925V209.058H156.225L157.509 232.665L167.138 231.55Z" fill="white"/>
</mask>
<g mask="url(#mask10_602_1586)">
<path d="M154.737 225.859C157.175 226.532 168.313 223.738 168.313 223.738L155.465 219.831" fill="#ED707B"/>
</g>
<path fill-rule="evenodd" clip-rule="evenodd" d="M167.138 231.55L168.313 227.925V209.058H156.225L157.509 232.665L167.138 231.55V231.55Z" stroke="#190000" stroke-width="1.6" stroke-linecap="round" stroke-linejoin="round"/>
<path d="M134.773 243.168C134.773 243.168 134.239 234.059 145.794 235.175C157.348 236.29 156.277 227.182 156.277 227.182L168.313 227.925V240.061C168.313 241.777 167.112 243.168 165.631 243.168L134.773 243.168Z" fill="#D3575E" stroke="#190000" stroke-width="1.6" stroke-linecap="round" stroke-linejoin="round"/>
<path d="M197.665 231.55L195.784 227.925L192.112 209.059H204.201L207.511 232.665L197.665 231.55Z" fill="#FACCC4"/>
<mask id="mask11_602_1586" style="mask-type:luminance" maskUnits="userSpaceOnUse" x="192" y="209" width="16" height="24">
<path fill-rule="evenodd" clip-rule="evenodd" d="M197.665 231.55L195.784 227.925L192.112 209.059H204.201L207.511 232.665L197.665 231.55Z" fill="white"/>
</mask>
<g mask="url(#mask11_602_1586)">
<path d="M192.742 226.253C200.932 224.251 206.098 218.638 206.098 218.638L194.016 218.337" fill="#ED707B"/>
</g>
<path fill-rule="evenodd" clip-rule="evenodd" d="M197.665 231.55L195.784 227.925L192.112 209.059H204.201L207.511 232.665L197.665 231.55V231.55Z" stroke="#190000" stroke-width="1.6" stroke-linecap="round" stroke-linejoin="round"/>
<path d="M232.29 243.168C232.29 243.168 231.052 234.059 219.714 235.175C208.377 236.29 207.675 227.182 207.675 227.182L195.784 227.925L198.146 240.061C198.48 241.777 199.951 243.168 201.432 243.168L232.29 243.168Z" fill="#D3575E" stroke="#190000" stroke-width="1.6" stroke-linecap="round" stroke-linejoin="round"/>
<path d="M189.277 218.94C189.277 218.94 200.831 220.551 207.09 214.696L201.654 159.425L187.18 79.6913L160.519 87.9146L166.324 111.701L180.345 159.521L189.277 218.94Z" fill="#516DDB"/>
<mask id="mask12_602_1586" style="mask-type:luminance" maskUnits="userSpaceOnUse" x="160" y="79" width="48" height="141">
<path fill-rule="evenodd" clip-rule="evenodd" d="M189.277 218.94C189.277 218.94 200.831 220.551 207.09 214.696L201.654 159.425L187.18 79.6913L160.519 87.9146L166.324 111.701L180.345 159.521L189.277 218.94Z" fill="white"/>
</mask>
<g mask="url(#mask12_602_1586)">
<path d="M170.825 113.47C176.273 106.844 172.339 121.199 176.944 147.922C181.55 174.645 161.481 149.321 161.481 149.321" fill="#3152BA"/>
<path d="M182.399 92.3624L183.831 111.087C184.009 113.416 185.83 115.144 187.903 114.954L201.205 113.732" stroke="#3152BA" stroke-width="1.6" stroke-linecap="round" stroke-linejoin="round"/>
<g opacity="0.16">
<path fill-rule="evenodd" clip-rule="evenodd" d="M190.793 218.072L185.387 222.078L104.649 134.251L110.054 130.244L190.793 218.072V218.072Z" stroke="#3152BA" stroke-width="1.6" stroke-linecap="round" stroke-linejoin="round"/>
<path fill-rule="evenodd" clip-rule="evenodd" d="M201.102 210.431L195.697 214.437L114.958 126.61L120.364 122.603L201.102 210.431V210.431Z" stroke="#3152BA" stroke-width="1.6" stroke-linecap="round" stroke-linejoin="round"/>
<path fill-rule="evenodd" clip-rule="evenodd" d="M211.412 202.789L206.006 206.796L125.268 118.969L130.674 114.962L211.412 202.789V202.789Z" stroke="#3152BA" stroke-width="1.6" stroke-linecap="round" stroke-linejoin="round"/>
<path fill-rule="evenodd" clip-rule="evenodd" d="M221.722 195.148L216.316 199.155L135.578 111.328L140.983 107.321L221.722 195.148V195.148Z" stroke="#3152BA" stroke-width="1.6" stroke-linecap="round" stroke-linejoin="round"/>
<path fill-rule="evenodd" clip-rule="evenodd" d="M232.031 187.507L226.626 191.514L145.887 103.687L151.293 99.68L232.031 187.507V187.507Z" stroke="#3152BA" stroke-width="1.6" stroke-linecap="round" stroke-linejoin="round"/>
<path fill-rule="evenodd" clip-rule="evenodd" d="M242.341 179.866L236.935 183.873L156.197 96.0455L161.603 92.0389L242.341 179.866V179.866Z" stroke="#3152BA" stroke-width="1.6" stroke-linecap="round" stroke-linejoin="round"/>
<path fill-rule="evenodd" clip-rule="evenodd" d="M252.651 172.225L247.245 176.232L166.507 88.4044L171.912 84.3978L252.651 172.225V172.225Z" stroke="#3152BA" stroke-width="1.6" stroke-linecap="round" stroke-linejoin="round"/>
<path fill-rule="evenodd" clip-rule="evenodd" d="M262.961 164.584L257.555 168.591L176.816 80.7633L182.222 76.7568L262.961 164.584V164.584Z" stroke="#3152BA" stroke-width="1.6" stroke-linecap="round" stroke-linejoin="round"/>
</g>
<g opacity="0.46">
<path fill-rule="evenodd" clip-rule="evenodd" d="M99.2515 150.01L93.7552 144.031L194.981 69.0064L200.478 74.9853L99.2515 150.01V150.01Z" stroke="#3152BA" stroke-width="1.6" stroke-linecap="round" stroke-linejoin="round"/>
<path fill-rule="evenodd" clip-rule="evenodd" d="M109.734 161.412L104.237 155.434L205.464 80.409L210.96 86.3879L109.734 161.412V161.412Z" stroke="#3152BA" stroke-width="1.6" stroke-linecap="round" stroke-linejoin="round"/>
<path fill-rule="evenodd" clip-rule="evenodd" d="M120.216 172.815L114.72 166.836L215.946 91.8116L221.442 97.7906L120.216 172.815V172.815Z" stroke="#3152BA" stroke-width="1.6" stroke-linecap="round" stroke-linejoin="round"/>
<path fill-rule="evenodd" clip-rule="evenodd" d="M130.698 184.218L125.202 178.239L226.428 103.214L231.925 109.193L130.698 184.218V184.218Z" stroke="#3152BA" stroke-width="1.6" stroke-linecap="round" stroke-linejoin="round"/>
<path fill-rule="evenodd" clip-rule="evenodd" d="M141.181 195.62L135.684 189.641L236.91 114.617L242.407 120.596L141.181 195.62V195.62Z" stroke="#3152BA" stroke-width="1.6" stroke-linecap="round" stroke-linejoin="round"/>
<path fill-rule="evenodd" clip-rule="evenodd" d="M151.663 207.023L146.167 201.044L247.393 126.02L252.889 131.999L151.663 207.023V207.023Z" stroke="#3152BA" stroke-width="1.6" stroke-linecap="round" stroke-linejoin="round"/>
<path fill-rule="evenodd" clip-rule="evenodd" d="M162.145 218.426L156.649 212.447L257.875 137.422L263.371 143.401L162.145 218.426V218.426Z" stroke="#3152BA" stroke-width="1.6" stroke-linecap="round" stroke-linejoin="round"/>
<path fill-rule="evenodd" clip-rule="evenodd" d="M172.628 229.828L167.131 223.849L268.357 148.825L273.854 154.804L172.628 229.828V229.828Z" stroke="#3152BA" stroke-width="1.6" stroke-linecap="round" stroke-linejoin="round"/>
</g>
</g>
<path fill-rule="evenodd" clip-rule="evenodd" d="M189.277 218.94C189.277 218.94 200.831 220.551 207.09 214.696L201.654 159.425L187.18 79.6913L160.519 87.9146L166.324 111.701L180.345 159.521L189.277 218.94Z" stroke="#190000" stroke-width="1.6" stroke-linecap="round" stroke-linejoin="round"/>
<path d="M171.791 89.2583H149.083V157.182L153.856 219.669C153.856 219.669 156.208 224.033 173.808 220.222L172.433 157.662L171.972 108.545" fill="#516DDB"/>
<mask id="mask13_602_1586" style="mask-type:luminance" maskUnits="userSpaceOnUse" x="149" y="89" width="25" height="133">
<path fill-rule="evenodd" clip-rule="evenodd" d="M171.791 89.2583H149.083V157.182L153.856 219.669C153.856 219.669 156.208 224.033 173.808 220.222L172.433 157.662L171.972 108.545" fill="white"/>
</mask>
<g mask="url(#mask13_602_1586)">
<path d="M169.649 101.561C170.539 104.266 138.412 110.395 136.088 122.375C135.117 127.378 146.718 94.9971 146.718 94.9971L158.908 92.7818" fill="#3152BA"/>
<path d="M146.242 116.058H155.605C158.319 116.058 160.519 113.858 160.519 111.144V95.6757" stroke="#3152BA" stroke-width="1.6" stroke-linecap="round" stroke-linejoin="round"/>
<g opacity="0.16">
<path fill-rule="evenodd" clip-rule="evenodd" d="M168.434 224.175L163.029 228.182L82.2901 140.354L87.6959 136.348L168.434 224.175V224.175Z" stroke="#3152BA" stroke-width="1.6" stroke-linecap="round" stroke-linejoin="round"/>
<path fill-rule="evenodd" clip-rule="evenodd" d="M178.744 216.534L173.338 220.541L92.5997 132.713L98.0056 128.707L178.744 216.534V216.534Z" stroke="#3152BA" stroke-width="1.6" stroke-linecap="round" stroke-linejoin="round"/>
<path fill-rule="evenodd" clip-rule="evenodd" d="M189.054 208.893L183.648 212.899L102.909 125.072L108.315 121.066L189.054 208.893V208.893Z" stroke="#3152BA" stroke-width="1.6" stroke-linecap="round" stroke-linejoin="round"/>
<path fill-rule="evenodd" clip-rule="evenodd" d="M199.363 201.252L193.958 205.258L113.219 117.431L118.625 113.425L199.363 201.252V201.252Z" stroke="#3152BA" stroke-width="1.6" stroke-linecap="round" stroke-linejoin="round"/>
<path fill-rule="evenodd" clip-rule="evenodd" d="M209.673 193.611L204.267 197.617L123.529 109.79L128.935 105.783L209.673 193.611V193.611Z" stroke="#3152BA" stroke-width="1.6" stroke-linecap="round" stroke-linejoin="round"/>
<path fill-rule="evenodd" clip-rule="evenodd" d="M219.983 185.97L214.577 189.976L133.838 102.149L139.244 98.1424L219.983 185.97V185.97Z" stroke="#3152BA" stroke-width="1.6" stroke-linecap="round" stroke-linejoin="round"/>
<path fill-rule="evenodd" clip-rule="evenodd" d="M230.292 178.328L224.886 182.335L144.148 94.5079L149.554 90.5014L230.292 178.328V178.328Z" stroke="#3152BA" stroke-width="1.6" stroke-linecap="round" stroke-linejoin="round"/>
<path fill-rule="evenodd" clip-rule="evenodd" d="M240.602 170.687L235.196 174.694L154.458 86.8669L159.864 82.8603L240.602 170.687V170.687Z" stroke="#3152BA" stroke-width="1.6" stroke-linecap="round" stroke-linejoin="round"/>
</g>
<g opacity="0.46">
<path fill-rule="evenodd" clip-rule="evenodd" d="M76.893 156.113L71.3967 150.134L172.623 75.1099L178.119 81.0888L76.893 156.113V156.113Z" stroke="#3152BA" stroke-width="1.6" stroke-linecap="round" stroke-linejoin="round"/>
<path fill-rule="evenodd" clip-rule="evenodd" d="M87.3753 167.516L81.879 161.537L183.105 86.5125L188.602 92.4915L87.3753 167.516V167.516Z" stroke="#3152BA" stroke-width="1.6" stroke-linecap="round" stroke-linejoin="round"/>
<path fill-rule="evenodd" clip-rule="evenodd" d="M97.8576 178.919L92.3613 172.94L193.587 97.9151L199.084 103.894L97.8576 178.919V178.919Z" stroke="#3152BA" stroke-width="1.6" stroke-linecap="round" stroke-linejoin="round"/>
<path fill-rule="evenodd" clip-rule="evenodd" d="M108.34 190.321L102.844 184.342L204.07 109.318L209.566 115.297L108.34 190.321V190.321Z" stroke="#3152BA" stroke-width="1.6" stroke-linecap="round" stroke-linejoin="round"/>
<path fill-rule="evenodd" clip-rule="evenodd" d="M118.822 201.724L113.326 195.745L214.552 120.72L220.048 126.699L118.822 201.724V201.724Z" stroke="#3152BA" stroke-width="1.6" stroke-linecap="round" stroke-linejoin="round"/>
<path fill-rule="evenodd" clip-rule="evenodd" d="M129.305 213.126L123.808 207.147L225.034 132.123L230.531 138.102L129.305 213.126V213.126Z" stroke="#3152BA" stroke-width="1.6" stroke-linecap="round" stroke-linejoin="round"/>
<path fill-rule="evenodd" clip-rule="evenodd" d="M139.787 224.529L134.29 218.55L235.517 143.526L241.013 149.505L139.787 224.529V224.529Z" stroke="#3152BA" stroke-width="1.6" stroke-linecap="round" stroke-linejoin="round"/>
<path fill-rule="evenodd" clip-rule="evenodd" d="M150.269 235.932L144.773 229.953L245.999 154.928L251.495 160.907L150.269 235.932V235.932Z" stroke="#3152BA" stroke-width="1.6" stroke-linecap="round" stroke-linejoin="round"/>
</g>
</g>
<path d="M171.791 89.2583H149.083V157.182L153.856 219.669C153.856 219.669 156.208 224.033 173.808 220.222L172.433 157.662L171.972 108.545" stroke="#190000" stroke-width="1.6" stroke-linecap="round" stroke-linejoin="round"/>
<path d="M145.247 49.3422L148.012 37.697C148.012 37.697 163.993 30.2852 182.511 33.6211C182.511 33.6211 191.9 94.6596 191.9 97.6569C191.9 97.6569 168.536 106.331 142.99 96.2872C141.024 93.0407 150.535 84.5692 145.247 49.3422Z" fill="#FBD164"/>
<mask id="mask14_602_1586" style="mask-type:luminance" maskUnits="userSpaceOnUse" x="142" y="32" width="50" height="70">
<path fill-rule="evenodd" clip-rule="evenodd" d="M145.247 49.3422L148.012 37.697C148.012 37.697 163.993 30.2852 182.511 33.6211C182.511 33.6211 191.9 94.6596 191.9 97.6569C191.9 97.6569 168.536 106.331 142.99 96.2872C141.024 93.0407 150.535 84.5692 145.247 49.3422Z" fill="white"/>
</mask>
<g mask="url(#mask14_602_1586)">
<path d="M167.742 57.4868C179.524 61.8124 158.968 69.1127 168.78 78.3742L171.551 78.1226C159.719 70.8709 183.147 61.4833 168.523 56.8029L167.742 57.4868Z" fill="#409159" stroke="#190000" stroke-width="1.6" stroke-linecap="round" stroke-linejoin="round"/>
<path d="M168.131 54.9793C162.827 40.658 178.101 39.8283 170.213 54.486L168.131 54.9793Z" fill="#F08059"/>
<path d="M168.131 54.9793C162.827 40.658 178.101 39.8283 170.213 54.486" stroke="#190000" stroke-width="1.6" stroke-linecap="round" stroke-linejoin="round"/>
<path d="M169.199 56.3791C174.503 70.7004 159.229 71.5301 167.117 56.8723L169.199 56.3791Z" fill="#F08059"/>
<path d="M169.199 56.3791C174.503 70.7004 159.229 71.5301 167.117 56.8723" stroke="#190000" stroke-width="1.6" stroke-linecap="round" stroke-linejoin="round"/>
<path d="M169.544 54.9886C186.204 46.378 183.47 61.1856 169.58 56.9166L169.544 54.9886Z" fill="#F08059"/>
<path d="M169.544 54.9886C186.204 46.378 183.47 61.1856 169.58 56.9166" stroke="#190000" stroke-width="1.6" stroke-linecap="round" stroke-linejoin="round"/>
<path d="M167.785 56.3698C151.126 64.9803 153.86 50.1728 167.749 54.4418L167.785 56.3698Z" fill="#F08059"/>
<path d="M167.785 56.3698C151.126 64.9803 153.86 50.1728 167.749 54.4418" stroke="#190000" stroke-width="1.6" stroke-linecap="round" stroke-linejoin="round"/>
<path d="M168.909 54.6959C176.939 38.4807 185.806 48.3645 170.407 55.7104L168.909 54.6959Z" fill="#F08059"/>
<path d="M168.909 54.6959C176.939 38.4807 185.806 48.3645 170.407 55.7104" stroke="#190000" stroke-width="1.6" stroke-linecap="round" stroke-linejoin="round"/>
<path d="M168.421 56.6624C160.391 72.8777 151.524 62.9938 166.923 55.6479L168.421 56.6624Z" fill="#F08059"/>
<path d="M168.421 56.6624C160.391 72.8777 151.524 62.9938 166.923 55.6479" stroke="#190000" stroke-width="1.6" stroke-linecap="round" stroke-linejoin="round"/>
<path d="M169.664 55.6858C185.195 59.7239 172.461 70.7811 168.218 57.3978L169.664 55.6858Z" fill="#F08059"/>
<path d="M169.664 55.6858C185.195 59.7239 172.461 70.7811 168.218 57.3978" stroke="#190000" stroke-width="1.6" stroke-linecap="round" stroke-linejoin="round"/>
<path d="M167.666 55.6726C152.135 51.6345 164.869 40.5773 169.112 53.9605L167.666 55.6726Z" fill="#F08059"/>
<path d="M167.666 55.6726C152.135 51.6345 164.869 40.5773 169.112 53.9605" stroke="#190000" stroke-width="1.6" stroke-linecap="round" stroke-linejoin="round"/>
<ellipse cx="168.767" cy="55.6697" rx="5.30362" ry="4.17353" transform="rotate(-39.4594 168.767 55.6697)" fill="white" stroke="#190000" stroke-width="1.6" stroke-linecap="round" stroke-linejoin="round"/>
<path d="M170.37 70.775C176.913 74.1412 180.35 66.2835 180.35 66.2835C180.35 66.2835 170.968 64.484 170.37 70.775Z" fill="#409159" stroke="#190000" stroke-width="1.6" stroke-linecap="round" stroke-linejoin="round"/>
<ellipse cx="164.346" cy="35.8857" rx="11.4688" ry="11.3496" fill="#FB81B2" stroke="#190000" stroke-width="1.6" stroke-linecap="round" stroke-linejoin="round"/>
<ellipse cx="164.346" cy="33.8594" rx="10.4328" ry="11.3496" fill="#FACCC4" stroke="#190000" stroke-width="1.6" stroke-linecap="round" stroke-linejoin="round"/>
<path d="M147.837 58.1125C156.765 48.0615 149.916 78.9436 154.067 78.3179L154.002 88.4317C156.28 92.4833 142.848 92.7666 142.99 96.2872C143.132 99.8079 138.138 92.7638 138.138 92.7638L136.966 74.6651" fill="#F9AE64"/>
<path d="M184.509 46.0646C179.317 44.4422 189.483 66.0514 176.979 68.4693C164.475 70.8871 184.022 88.4317 184.022 88.4317L176.931 101.94L191.9 70.5627L190.998 60.5039" fill="#F9AE64"/>
</g>
<path fill-rule="evenodd" clip-rule="evenodd" d="M145.247 49.3422L148.012 37.697C148.012 37.697 163.993 30.2852 182.511 33.6211C182.511 33.6211 191.9 94.6596 191.9 97.6569C191.9 97.6569 168.536 106.331 142.99 96.2872C141.024 93.0407 150.535 84.5692 145.247 49.3422Z" stroke="#190000" stroke-width="1.6" stroke-linecap="round" stroke-linejoin="round"/>
<path d="M153.877 75.0671L158.508 102.453C158.614 103.07 158.973 103.613 159.498 103.952C160.024 104.291 160.667 104.394 161.272 104.236L192.737 96.0598C193.834 95.7768 194.543 94.7141 194.383 93.5925L190.72 68.1331C190.632 67.5297 190.301 66.9886 189.803 66.6357C189.306 66.2829 188.686 66.149 188.087 66.2653L155.654 72.5142C154.466 72.7407 153.677 73.8745 153.877 75.0671Z" fill="white"/>
<mask id="mask15_602_1586" style="mask-type:luminance" maskUnits="userSpaceOnUse" x="153" y="66" width="42" height="39">
<path fill-rule="evenodd" clip-rule="evenodd" d="M153.877 75.0671L158.508 102.453C158.614 103.07 158.973 103.613 159.498 103.952C160.024 104.291 160.667 104.394 161.272 104.236L192.737 96.0598C193.834 95.7768 194.543 94.7141 194.383 93.5925L190.72 68.1331C190.632 67.5297 190.301 66.9886 189.803 66.6357C189.306 66.2829 188.686 66.149 188.087 66.2653L155.654 72.5142C154.466 72.7407 153.677 73.8745 153.877 75.0671Z" fill="white"/>
</mask>
<g mask="url(#mask15_602_1586)">
<path d="M154.737 71.9115L161.313 108.752L156.392 107.839L151.376 72.419" fill="white"/>
<path d="M154.737 71.9115L161.313 108.752L156.392 107.839L151.376 72.419" stroke="#190000" stroke-width="1.6" stroke-linecap="round" stroke-linejoin="round"/>
<ellipse cx="177.044" cy="84.3947" rx="4.58366" ry="4.56704" fill="white" stroke="#190000" stroke-width="1.6" stroke-linecap="round" stroke-linejoin="round"/>
</g>
<path fill-rule="evenodd" clip-rule="evenodd" d="M153.877 75.0671L158.508 102.453C158.614 103.07 158.973 103.613 159.498 103.952C160.024 104.291 160.667 104.394 161.272 104.236L192.737 96.0598C193.834 95.7768 194.543 94.7141 194.383 93.5925L190.72 68.1331C190.632 67.5297 190.301 66.9886 189.803 66.6357C189.306 66.2829 188.686 66.149 188.087 66.2653L155.654 72.5142C154.466 72.7407 153.677 73.8745 153.877 75.0671V75.0671Z" stroke="#190000" stroke-width="1.6" stroke-linecap="round" stroke-linejoin="round"/>
<path d="M166.49 33.5221C176.219 34.5199 180.959 31.277 180.959 31.277C172.727 25.789 181.458 21.5483 176.219 16.5593C170.981 11.5702 175.391 3.93419 166.49 2.71457L165.368 6.20693C168.486 15.6862 163.372 25.9761 163.372 25.9761L166.49 33.5221Z" fill="#4B4D5C" stroke="#190000" stroke-width="1.6" stroke-linecap="round" stroke-linejoin="round"/>
<path d="M155.687 36.3706L157.759 21.1742L168.392 22.9827C168.55 26.2703 168.979 31.3384 169.64 35.3152" fill="#FACCC4"/>
<mask id="mask16_602_1586" style="mask-type:luminance" maskUnits="userSpaceOnUse" x="155" y="21" width="15" height="16">
<path fill-rule="evenodd" clip-rule="evenodd" d="M155.687 36.3706L157.759 21.1742L168.392 22.9827C168.55 26.2703 168.979 31.3384 169.64 35.3152" fill="white"/>
</mask>
<g mask="url(#mask16_602_1586)">
<path d="M155.821 26.5459C162.374 34.6447 168.068 31.2885 169.64 35.3152C171.212 39.3419 169.64 22.9827 169.64 22.9827L164.858 22.3402L156.716 25.2037" fill="#ED707B"/>
</g>
<path d="M155.687 36.3706L157.759 21.1742L168.392 22.9827C168.55 26.2703 168.979 31.3384 169.64 35.3152" stroke="#190000" stroke-width="1.6" stroke-linecap="round" stroke-linejoin="round"/>
<path d="M170.419 15.9356C174.972 13.1293 175.845 19.3968 169.64 22.9827L170.419 15.9356Z" fill="#FACCC4"/>
<path d="M170.419 15.9356C174.972 13.1293 175.845 19.3968 169.64 22.9827" stroke="#190000" stroke-width="1.6" stroke-linecap="round" stroke-linejoin="round"/>
<path d="M165.368 6.20682C165.368 6.20682 156.637 6.33167 160.129 14.5636C162.635 20.4705 158.977 24.6435 159.382 29.1101C160.057 29.5053 160.855 29.6763 161.813 29.5308C170.201 28.2581 171.074 21.1869 170.809 13.0014C165.442 11.8142 165.368 6.20682 165.368 6.20682Z" fill="#FACCC4"/>
<mask id="mask17_602_1586" style="mask-type:luminance" maskUnits="userSpaceOnUse" x="159" y="6" width="12" height="24">
<path fill-rule="evenodd" clip-rule="evenodd" d="M165.368 6.20682C165.368 6.20682 156.637 6.33167 160.129 14.5636C162.635 20.4705 158.977 24.6435 159.382 29.1101C160.057 29.5053 160.855 29.6763 161.813 29.5308C170.201 28.2581 171.074 21.1869 170.809 13.0014C165.442 11.8142 165.368 6.20682 165.368 6.20682Z" fill="white"/>
</mask>
<g mask="url(#mask17_602_1586)">
<rect x="157.377" y="13.808" width="2.13719" height="3.94192" rx="0.08266" transform="rotate(1.5954 157.377 13.808)" fill="#190000"/>
<path d="M158.249 11.3128C156.051 11.8879 156.618 13.0928 158.016 12.8229C159.413 12.553 159.685 10.9371 158.249 11.3128Z" fill="#190000"/>
</g>
<path fill-rule="evenodd" clip-rule="evenodd" d="M165.368 6.20682C165.368 6.20682 156.637 6.33167 160.129 14.5636C162.635 20.4705 158.977 24.6435 159.382 29.1101C160.057 29.5053 160.855 29.6763 161.813 29.5308C170.201 28.2581 171.074 21.1869 170.809 13.0014C165.442 11.8142 165.368 6.20682 165.368 6.20682Z" stroke="#190000" stroke-width="1.6" stroke-linecap="round" stroke-linejoin="round"/>
<path d="M166.077 4.0014L166.491 2.71464C162.125 -1.15191 152.271 1.84159 151.149 10.8217C150.026 19.8022 141.919 16.3097 144.788 22.4214C147.656 28.533 141.162 31.5429 141.162 31.5429C141.162 31.5429 156.637 36.1415 162.375 34.6447C160.331 32.6719 159.543 30.8682 159.382 29.1101C158.977 24.6435 162.635 20.4705 160.129 14.5636C156.637 6.33167 165.368 6.20682 165.368 6.20682C165.368 6.20682 165.442 11.8142 170.809 13.0014C171.01 13.0458 171.201 13.0979 171.417 13.1292" fill="#4B4D5C"/>
<path d="M166.077 4.0014L166.491 2.71464C162.125 -1.15191 152.271 1.84159 151.149 10.8217C150.026 19.8022 141.919 16.3097 144.788 22.4214C147.656 28.533 141.162 31.5429 141.162 31.5429C141.162 31.5429 156.637 36.1415 162.375 34.6447C160.331 32.6719 159.543 30.8682 159.382 29.1101C158.977 24.6435 162.635 20.4705 160.129 14.5636C156.637 6.33167 165.368 6.20682 165.368 6.20682C165.368 6.20682 165.442 11.8142 170.809 13.0014C171.01 13.0458 171.201 13.0979 171.417 13.1292" stroke="#190000" stroke-width="1.6" stroke-linecap="round" stroke-linejoin="round"/>
<path d="M152.486 18.4641C151.735 18.963 151.306 19.8431 151.153 20.7319C151 21.6207 151.091 22.5311 151.183 23.4282" stroke="#190000" stroke-width="1.6" stroke-linecap="round" stroke-linejoin="round"/>
<path d="M176.931 91.2997C174.553 92.4297 173.825 91.993 170.429 98.3494C170.429 98.3494 171.157 100.048 173.68 98.0097C173.68 98.0097 170.865 101.7 170.429 102.136C169.992 102.573 171.677 104.684 173.922 102.231C173.922 102.231 175.029 104.396 177.455 102.455C177.455 102.455 180.21 103.613 181.277 101.408C182.345 99.2037 183.53 95.5351 183.53 95.5351L177.319 91.5563" fill="#FACCC4"/>
<mask id="mask18_602_1586" style="mask-type:luminance" maskUnits="userSpaceOnUse" x="170" y="91" width="14" height="13">
<path fill-rule="evenodd" clip-rule="evenodd" d="M176.931 91.2997C174.553 92.4297 173.825 91.993 170.429 98.3494C170.429 98.3494 171.157 100.048 173.68 98.0098C173.68 98.0098 170.866 101.7 170.429 102.136C169.992 102.573 171.677 104.684 173.922 102.231C173.922 102.231 175.029 104.396 177.455 102.455C177.455 102.455 180.21 103.613 181.277 101.408C182.345 99.2037 183.53 95.5351 183.53 95.5351L177.319 91.5563" fill="white"/>
</mask>
<g mask="url(#mask18_602_1586)">
<path d="M178.993 89.392C175.342 91.0047 176.153 92.1404 176.153 92.1404C176.153 92.1404 175.829 94.1516 182.562 101.136C189.295 108.121 182.4 92.3027 182.4 92.3027" fill="#ED707B"/>
</g>
<path d="M176.931 91.2997C174.553 92.4297 173.825 91.993 170.429 98.3494C170.429 98.3494 171.157 100.048 173.68 98.0097C173.68 98.0097 170.865 101.7 170.429 102.136C169.992 102.573 171.677 104.684 173.922 102.231C173.922 102.231 175.029 104.396 177.455 102.455C177.455 102.455 180.21 103.613 181.277 101.408C182.345 99.2037 183.53 95.5351 183.53 95.5351L177.319 91.5563" stroke="#190000" stroke-width="1.6" stroke-linecap="round" stroke-linejoin="round"/>
<path d="M182.911 46.2798C183.746 56.6131 185.386 69.0708 185.568 70.1582C185.859 71.9049 175.815 89.7797 175.815 89.7797C177.125 95.1955 183.547 99.7995 183.547 99.7995C183.547 99.7995 199.105 75.9808 199.542 69.867C199.979 63.7533 193.208 29.7825 181.853 33.7128" fill="#FBD164"/>
<mask id="mask19_602_1586" style="mask-type:luminance" maskUnits="userSpaceOnUse" x="175" y="33" width="25" height="67">
<path fill-rule="evenodd" clip-rule="evenodd" d="M182.911 46.2798C183.746 56.6131 185.386 69.0708 185.568 70.1582C185.859 71.9049 175.815 89.7797 175.815 89.7797C177.125 95.1955 183.547 99.7995 183.547 99.7995C183.547 99.7995 199.105 75.9808 199.542 69.867C199.979 63.7533 193.208 29.7825 181.853 33.7128" fill="white"/>
</mask>
<g mask="url(#mask19_602_1586)">
<path d="M192.802 99.3773C183.57 99.2194 196.089 89.1774 187.032 85.1136L185.167 85.9582C195.142 88.137 181.132 100.324 192.425 100.041L192.802 99.3773Z" fill="#409159" stroke="#190000" stroke-width="1.6" stroke-linecap="round" stroke-linejoin="round"/>
<path d="M192.058 100.499C184.91 91.8294 195.323 87.5606 193.385 99.6531L192.058 100.499Z" fill="#F08059"/>
<path d="M192.058 100.499C184.91 91.8294 195.323 87.5606 193.385 99.6531" stroke="#190000" stroke-width="1.6" stroke-linecap="round" stroke-linejoin="round"/>
<path d="M192.154 101.549C182.659 111.559 180.979 100.609 191.663 100.218L192.154 101.549Z" fill="#F08059"/>
<path d="M192.154 101.549C182.659 111.559 180.979 100.609 191.663 100.218" stroke="#190000" stroke-width="1.6" stroke-linecap="round" stroke-linejoin="round"/>
<path d="M193.042 100.164C202.537 90.1532 204.217 101.104 193.533 101.495L193.042 100.164Z" fill="#F08059"/>
<path d="M193.042 100.164C202.537 90.1532 204.217 101.104 193.533 101.495" stroke="#190000" stroke-width="1.6" stroke-linecap="round" stroke-linejoin="round"/>
<path d="M192.53 100.114C194.19 86.9051 202.741 91.6298 193.816 100.457L192.53 100.114Z" fill="#F08059"/>
<path d="M192.53 100.114C194.19 86.9051 202.741 91.6298 193.816 100.457" stroke="#190000" stroke-width="1.6" stroke-linecap="round" stroke-linejoin="round"/>
<path d="M191.902 101.093C180.134 102.042 186.309 91.2798 192.493 99.554L191.902 101.093Z" fill="#F08059"/>
<path d="M191.902 101.093C180.134 102.042 186.309 91.2798 192.493 99.554" stroke="#190000" stroke-width="1.6" stroke-linecap="round" stroke-linejoin="round"/>
<path d="M193.294 100.619C205.062 99.6711 198.887 110.433 192.703 102.159L193.294 100.619Z" fill="#F08059"/>
<path d="M193.294 100.619C205.062 99.6711 198.887 110.433 192.703 102.159" stroke="#190000" stroke-width="1.6" stroke-linecap="round" stroke-linejoin="round"/>
<ellipse cx="192.529" cy="100.888" rx="3.90209" ry="3.07063" transform="rotate(-58.6409 192.529 100.888)" fill="white" stroke="#190000" stroke-width="1.6" stroke-linecap="round" stroke-linejoin="round"/>
<path d="M187.764 90.7785C182.404 90.0209 181.914 96.3122 181.914 96.3122C181.914 96.3122 188.869 95.2946 187.764 90.7785Z" fill="#409159" stroke="#190000" stroke-width="1.6" stroke-linecap="round" stroke-linejoin="round"/>
<ellipse cx="199.989" cy="69.5013" rx="5.58346" ry="8.16099" fill="#D3575E" stroke="#190000" stroke-width="1.6" stroke-linecap="round" stroke-linejoin="round"/>
</g>
<path d="M182.911 46.2798C183.746 56.6131 185.386 69.0708 185.568 70.1582C185.859 71.9049 175.815 89.7797 175.815 89.7797C177.125 95.1955 183.547 99.7995 183.547 99.7995C183.547 99.7995 199.105 75.9808 199.542 69.867C199.979 63.7532 193.208 29.7825 181.853 33.7128" stroke="#190000" stroke-width="1.6" stroke-linecap="round" stroke-linejoin="round"/>
<path d="M148.307 37.697C137.418 38.8949 137.451 52.6456 138.615 78.2652C138.615 78.2652 137.157 85.2817 147.807 89.392C151.697 89.392 150.486 77.582 150.486 77.582C150.486 77.582 149.79 72.3416 149.338 71.9049C148.982 71.5618 150.004 59.8021 150.458 54.7809" fill="#FBD164"/>
<mask id="mask20_602_1586" style="mask-type:luminance" maskUnits="userSpaceOnUse" x="138" y="37" width="13" height="53">
<path fill-rule="evenodd" clip-rule="evenodd" d="M148.307 37.697C137.418 38.8949 137.451 52.6456 138.615 78.2652C138.615 78.2652 137.157 85.2817 147.807 89.392C151.697 89.392 150.486 77.582 150.486 77.582C150.486 77.582 149.79 72.3416 149.338 71.9049C148.982 71.5618 150.004 59.8021 150.458 54.7809" fill="white"/>
</mask>
<g mask="url(#mask20_602_1586)">
<path d="M131.374 39.9182C143.823 38.3249 128.948 54.2802 141.925 57.9747L144.267 56.474C130.425 55.4943 146.886 36.3625 131.752 38.9512L131.374 39.9182Z" fill="#409159" stroke="#190000" stroke-width="1.6" stroke-linecap="round" stroke-linejoin="round"/>
<path d="M132.156 38.2639C143.465 48.5268 130.294 56.3052 130.536 39.6614L132.156 38.2639Z" fill="#F08059"/>
<path d="M132.156 38.2639C143.465 48.5268 130.294 56.3052 130.536 39.6614" stroke="#190000" stroke-width="1.6" stroke-linecap="round" stroke-linejoin="round"/>
<path d="M131.821 36.8707C142.634 21.549 147.035 35.9494 132.742 38.5648L131.821 36.8707Z" fill="#F08059"/>
<path d="M131.821 36.8707C142.634 21.549 147.035 35.9494 132.742 38.5648" stroke="#190000" stroke-width="1.6" stroke-linecap="round" stroke-linejoin="round"/>
<path d="M131.123 36.9038C130.772 18.8127 143.197 23.4952 132.919 37.1135L131.123 36.9038Z" fill="#F08059"/>
<path d="M131.123 36.9038C130.772 18.8127 143.197 23.4952 132.919 37.1135" stroke="#190000" stroke-width="1.6" stroke-linecap="round" stroke-linejoin="round"/>
<path d="M132.249 37.4341C147.892 33.857 141.691 49.5398 131.755 39.6202L132.249 37.4341Z" fill="#F08059"/>
<path d="M132.249 37.4341C147.892 33.857 141.691 49.5398 131.755 39.6202" stroke="#190000" stroke-width="1.6" stroke-linecap="round" stroke-linejoin="round"/>
<ellipse cx="131.446" cy="37.8332" rx="5.30362" ry="4.17353" transform="rotate(-66.9144 131.446 37.8332)" fill="white" stroke="#190000" stroke-width="1.6" stroke-linecap="round" stroke-linejoin="round"/>
<path d="M139.832 50.4985C147.19 50.469 146.618 41.9114 146.618 41.9114C146.618 41.9114 137.462 44.6403 139.832 50.4985Z" fill="#409159" stroke="#190000" stroke-width="1.6" stroke-linecap="round" stroke-linejoin="round"/>
</g>
<path d="M148.307 37.697C137.418 38.8949 137.451 52.6456 138.615 78.2652C138.615 78.2652 137.157 85.2817 147.807 89.392C151.697 89.392 150.486 77.582 150.486 77.582C150.486 77.582 149.79 72.3416 149.338 71.9049C148.982 71.5618 150.004 59.8021 150.458 54.7809" stroke="#190000" stroke-width="1.6" stroke-linecap="round" stroke-linejoin="round"/>
<path d="M162.967 81.9426C162.967 81.9426 163.227 81.8126 163.183 81.0753C161.519 80.0764 158.528 80.0543 156.585 80.1677C158.078 79.2224 159.512 77.8539 158.217 77.692C156.656 77.497 154.574 78.2776 149.044 79.5137C148.003 80.2945 146.179 84.5853 146.244 86.6672C146.244 86.6672 154.379 88.5573 155.68 88.4271C156.578 88.3375 157.804 87.6034 158.485 87.153C158.486 87.1527 158.488 87.1533 158.488 87.153C158.496 87.1482 158.517 87.1328 158.533 87.1217C158.812 86.9362 158.998 86.8007 158.998 86.8007C158.998 86.8007 158.989 86.7913 158.988 86.7898C160.078 85.9835 162.571 84.1032 162.815 83.8078C163.118 83.4392 163.032 82.7884 163.032 82.7884C163.162 82.3766 162.967 81.9426 162.967 81.9426Z" fill="#FACCC4"/>
<mask id="mask21_602_1586" style="mask-type:luminance" maskUnits="userSpaceOnUse" x="146" y="77" width="18" height="12">
<path fill-rule="evenodd" clip-rule="evenodd" d="M162.967 81.9426C162.967 81.9426 163.227 81.8126 163.183 81.0753C161.519 80.0764 158.528 80.0543 156.585 80.1677C158.078 79.2224 159.512 77.8539 158.217 77.692C156.656 77.497 154.574 78.2776 149.044 79.5137C148.003 80.2945 146.179 84.5853 146.244 86.6672C146.244 86.6672 154.379 88.5573 155.68 88.4271C156.578 88.3375 157.804 87.6034 158.485 87.153C158.486 87.1527 158.488 87.1533 158.488 87.153C158.496 87.1482 158.517 87.1328 158.533 87.1217C158.812 86.9362 158.998 86.8007 158.998 86.8007C158.998 86.8007 158.989 86.7913 158.988 86.7898C160.078 85.9835 162.571 84.1032 162.815 83.8078C163.118 83.4392 163.032 82.7884 163.032 82.7884C163.162 82.3766 162.967 81.9426 162.967 81.9426Z" fill="white"/>
</mask>
<g mask="url(#mask21_602_1586)">
<path d="M148.723 79.2641C151.316 77.5355 148.149 84.1078 150.381 88.1684C152.613 92.229 140.944 84.8822 140.944 84.8822" fill="#ED707B"/>
</g>
<path fill-rule="evenodd" clip-rule="evenodd" d="M162.967 81.9426C162.967 81.9426 163.227 81.8126 163.183 81.0753C161.519 80.0764 158.528 80.0543 156.585 80.1677C158.078 79.2224 159.512 77.8539 158.217 77.692C156.656 77.497 154.574 78.2776 149.044 79.5137C148.003 80.2945 146.179 84.5853 146.244 86.6672C146.244 86.6672 154.379 88.5573 155.68 88.4271C156.578 88.3375 157.804 87.6034 158.485 87.153C158.486 87.1527 158.488 87.1533 158.488 87.153C158.496 87.1482 158.517 87.1328 158.533 87.1217C158.812 86.9362 158.998 86.8007 158.998 86.8007C158.998 86.8007 158.989 86.7913 158.988 86.7898C160.078 85.9835 162.571 84.1032 162.815 83.8078C163.118 83.4392 163.032 82.7884 163.032 82.7884C163.162 82.3766 162.967 81.9426 162.967 81.9426Z" stroke="#190000" stroke-width="1.6" stroke-linecap="round" stroke-linejoin="round"/>
<path d="M153.284 215.304C151.541 219.914 154.191 222.462 154.191 222.462C154.191 222.462 161.959 227.072 173.878 221.916C173.878 221.916 173.878 219.186 173.706 215.547C155.89 221.249 153.284 215.304 153.284 215.304Z" fill="#399FE8" stroke="#190000" stroke-width="1.6" stroke-linecap="round" stroke-linejoin="round"/>
<path d="M207.302 210.362C209.799 214.612 207.617 217.571 207.617 217.571C207.617 217.571 201.391 223.368 188.773 220.3C188.773 220.3 188.312 217.609 187.867 213.993C206.39 216.604 207.302 210.362 207.302 210.362Z" fill="#399FE8" stroke="#190000" stroke-width="1.6" stroke-linecap="round" stroke-linejoin="round"/>
<path d="M153.321 229.215L155.16 230.975C153.003 231.258 150.839 231.491 148.67 231.676" stroke="#190000" stroke-width="1.6" stroke-linecap="round" stroke-linejoin="round"/>
<path d="M211 227.043L208.365 229.84C210.27 229.513 212.171 229.158 214.066 228.776" stroke="#190000" stroke-width="1.6" stroke-linecap="round" stroke-linejoin="round"/>
<path d="M180.099 157.906C181.919 158.774 184.003 158.911 185.92 158.286" stroke="#190000" stroke-width="1.6" stroke-linecap="round" stroke-linejoin="round"/>
<path d="M170.258 158.259C168.164 159.152 165.971 159.79 163.725 160.159" stroke="#190000" stroke-width="1.6" stroke-linecap="round" stroke-linejoin="round"/>
<path d="M185.91 69.8397C186.395 70.3783 187.034 70.753 187.741 70.9119" stroke="#190000" stroke-width="1.6" stroke-linecap="round" stroke-linejoin="round"/>
<path d="M160.445 200.499C160.755 201.266 161.444 201.814 162.261 201.943" stroke="#190000" stroke-width="1.6" stroke-linecap="round" stroke-linejoin="round"/>
</svg>
