<svg width="400" height="300" viewBox="0 0 400 300" fill="none" xmlns="http://www.w3.org/2000/svg">
<mask id="mask0_602_678" style="mask-type:luminance" maskUnits="userSpaceOnUse" x="0" y="0" width="400" height="300">
<rect width="400" height="300" fill="white"/>
</mask>
<g mask="url(#mask0_602_678)">
<path fill-rule="evenodd" clip-rule="evenodd" d="M309.691 137.385H319.122H321.834L319.611 151.77H311.914L309.691 137.385ZM310.18 137.853L312.259 151.302H313.56L312.442 137.853H310.18ZM313.972 151.302L312.854 137.853H318.671L317.553 151.302H313.972ZM317.966 151.302H319.267L321.345 137.853H319.083L317.966 151.302Z" fill="#FCB006"/>
<path d="M309.691 137.385V136.585C309.458 136.585 309.236 136.687 309.084 136.864C308.932 137.042 308.865 137.277 308.9 137.507L309.691 137.385ZM321.834 137.385L322.625 137.507C322.66 137.277 322.594 137.042 322.442 136.864C322.29 136.687 322.068 136.585 321.834 136.585V137.385ZM319.611 151.77V152.57C320.006 152.57 320.342 152.282 320.402 151.892L319.611 151.77ZM311.914 151.77L311.123 151.892C311.184 152.282 311.519 152.57 311.914 152.57V151.77ZM312.259 151.302L311.468 151.424C311.528 151.814 311.864 152.102 312.259 152.102V151.302ZM310.18 137.853V137.053C309.947 137.053 309.725 137.155 309.573 137.332C309.421 137.51 309.354 137.744 309.389 137.975L310.18 137.853ZM313.56 151.302V152.102C313.783 152.102 313.997 152.008 314.148 151.844C314.3 151.679 314.376 151.459 314.357 151.236L313.56 151.302ZM312.442 137.853L313.239 137.787C313.205 137.372 312.858 137.053 312.442 137.053V137.853ZM312.854 137.853V137.053C312.63 137.053 312.417 137.147 312.265 137.311C312.114 137.476 312.038 137.696 312.057 137.919L312.854 137.853ZM313.972 151.302L313.175 151.368C313.209 151.783 313.556 152.102 313.972 152.102V151.302ZM318.671 137.853L319.468 137.919C319.487 137.696 319.411 137.476 319.26 137.311C319.108 137.147 318.895 137.053 318.671 137.053V137.853ZM317.553 151.302V152.102C317.969 152.102 318.316 151.783 318.35 151.368L317.553 151.302ZM319.267 151.302V152.102C319.661 152.102 319.997 151.814 320.057 151.424L319.267 151.302ZM317.966 151.302L317.168 151.236C317.15 151.459 317.225 151.679 317.377 151.844C317.528 152.008 317.742 152.102 317.966 152.102V151.302ZM321.345 137.853L322.136 137.975C322.171 137.744 322.105 137.51 321.953 137.332C321.801 137.155 321.579 137.053 321.345 137.053V137.853ZM319.083 137.853V137.053C318.667 137.053 318.321 137.372 318.286 137.787L319.083 137.853ZM319.122 136.585H309.691V138.185H319.122V136.585ZM321.834 136.585H319.122V138.185H321.834V136.585ZM320.402 151.892L322.625 137.507L321.044 137.263L318.821 151.648L320.402 151.892ZM311.914 152.57H319.611V150.97H311.914V152.57ZM308.9 137.507L311.123 151.892L312.705 151.648L310.482 137.263L308.9 137.507ZM313.049 151.18L310.971 137.731L309.389 137.975L311.468 151.424L313.049 151.18ZM313.56 150.502H312.259V152.102H313.56V150.502ZM311.645 137.919L312.762 151.368L314.357 151.236L313.239 137.787L311.645 137.919ZM310.18 138.653H312.442V137.053H310.18V138.653ZM312.057 137.919L313.175 151.368L314.769 151.236L313.651 137.787L312.057 137.919ZM318.671 137.053H312.854V138.653H318.671V137.053ZM318.35 151.368L319.468 137.919L317.874 137.787L316.756 151.236L318.35 151.368ZM313.972 152.102H317.553V150.502H313.972V152.102ZM319.267 150.502H317.966V152.102H319.267V150.502ZM320.555 137.731L318.476 151.18L320.057 151.424L322.136 137.975L320.555 137.731ZM319.083 138.653H321.345V137.053H319.083V138.653ZM318.763 151.368L319.881 137.919L318.286 137.787L317.168 151.236L318.763 151.368Z" fill="black"/>
<path d="M315.763 57.9273C241.338 57.9273 309.676 136.984 309.676 136.984H321.85C321.85 136.984 390.188 57.9273 315.763 57.9273Z" fill="#1AB995"/>
<mask id="mask1_602_678" style="mask-type:luminance" maskUnits="userSpaceOnUse" x="281" y="57" width="70" height="80">
<path fill-rule="evenodd" clip-rule="evenodd" d="M315.763 57.9273C241.338 57.9273 309.676 136.984 309.676 136.984H321.85C321.85 136.984 390.188 57.9273 315.763 57.9273Z" fill="white"/>
</mask>
<g mask="url(#mask1_602_678)">
<path d="M350.077 71.7018C353.185 73.8033 354.731 77.5634 353.999 81.2435C357.538 78.9312 359.076 74.5254 357.745 70.5129C356.413 66.5005 352.547 63.8877 348.328 64.1493C344.108 64.4109 340.594 67.4813 339.769 71.6275C342.906 69.5725 346.97 69.6018 350.077 71.7018Z" fill="#FDD504" stroke="black" stroke-width="1.6" stroke-linecap="round" stroke-linejoin="round"/>
<path d="M283.931 102.513C287.039 104.615 288.585 108.375 287.853 112.055C291.392 109.743 292.93 105.337 291.599 101.325C290.268 97.3121 286.402 94.6993 282.182 94.961C277.963 95.2226 274.449 98.293 273.623 102.439C276.76 100.384 280.824 100.413 283.931 102.513Z" fill="#FDD504" stroke="black" stroke-width="1.6" stroke-linecap="round" stroke-linejoin="round"/>
</g>
<path fill-rule="evenodd" clip-rule="evenodd" d="M315.763 57.9273C241.338 57.9273 309.676 136.984 309.676 136.984H321.85C321.85 136.984 390.188 57.9273 315.763 57.9273Z" stroke="black" stroke-width="1.6" stroke-linecap="round" stroke-linejoin="round"/>
<path d="M315.763 57.9273C266.316 57.9273 311.719 136.984 311.719 136.984H319.807C319.807 136.984 365.209 57.9273 315.763 57.9273Z" fill="white"/>
<mask id="mask2_602_678" style="mask-type:luminance" maskUnits="userSpaceOnUse" x="292" y="57" width="47" height="80">
<path fill-rule="evenodd" clip-rule="evenodd" d="M315.763 57.9273C266.316 57.9273 311.719 136.984 311.719 136.984H319.807C319.807 136.984 365.209 57.9273 315.763 57.9273Z" fill="white"/>
</mask>
<g mask="url(#mask2_602_678)">
<path d="M297.127 64.112L300.093 70.1255L306.723 71.0898L301.925 75.7706L303.058 82.3801L297.127 79.2595L291.197 82.3801L292.33 75.7706L287.532 71.0898L294.162 70.1255L297.127 64.112Z" fill="#FDD504" stroke="black" stroke-width="1.6" stroke-linecap="round" stroke-linejoin="round"/>
<path d="M332.008 105.203C332.007 101.452 334.255 98.0652 337.714 96.6107C333.815 94.9764 329.305 96.171 326.727 99.5208C324.149 102.871 324.149 107.536 326.727 110.886C329.305 114.236 333.815 115.43 337.714 113.796C334.255 112.342 332.007 108.955 332.008 105.203Z" fill="#FDD504" stroke="black" stroke-width="1.6" stroke-linecap="round" stroke-linejoin="round"/>
</g>
<path fill-rule="evenodd" clip-rule="evenodd" d="M315.763 57.9273C266.316 57.9273 311.719 136.984 311.719 136.984H319.807C319.807 136.984 365.209 57.9273 315.763 57.9273Z" stroke="black" stroke-width="1.6" stroke-linecap="round" stroke-linejoin="round"/>
<path d="M315.763 57.9273C296.392 57.9273 314.178 136.984 314.178 136.984H317.347C317.347 136.984 335.134 57.9273 315.763 57.9273Z" fill="#1AB995" stroke="black" stroke-width="1.6" stroke-linecap="round" stroke-linejoin="round"/>
<path d="M317.899 164.659H313.627C311.457 164.659 309.698 162.9 309.698 160.73V150.901H321.828V160.73C321.828 161.772 321.414 162.772 320.677 163.509C319.94 164.245 318.941 164.659 317.899 164.659Z" fill="#FCB006"/>
<mask id="mask3_602_678" style="mask-type:luminance" maskUnits="userSpaceOnUse" x="309" y="150" width="13" height="15">
<path fill-rule="evenodd" clip-rule="evenodd" d="M317.899 164.659H313.627C311.457 164.659 309.698 162.9 309.698 160.73V150.901H321.828V160.73C321.828 161.772 321.414 162.772 320.677 163.509C319.94 164.245 318.941 164.659 317.899 164.659Z" fill="white"/>
</mask>
<g mask="url(#mask3_602_678)">
<path d="M307.8 152.912C322.162 152.365 322.029 159.828 321.345 165.211C320.662 170.593 324.068 147.178 324.068 147.178L312.854 149.062" fill="#FDD504"/>
</g>
<path fill-rule="evenodd" clip-rule="evenodd" d="M317.899 164.659H313.627C311.457 164.659 309.698 162.9 309.698 160.73V150.901H321.828V160.73C321.828 161.772 321.414 162.772 320.677 163.509C319.94 164.245 318.941 164.659 317.899 164.659Z" stroke="black" stroke-width="1.6" stroke-linecap="round" stroke-linejoin="round"/>
<rect x="308.467" y="150.16" width="14.5911" height="2.75164" rx="0.72714" fill="white" stroke="black" stroke-width="1.6" stroke-linecap="round" stroke-linejoin="round"/>
<path d="M323.556 135.661H307.97L309.552 138.519H321.973L323.556 135.661Z" fill="white" stroke="black" stroke-width="1.6" stroke-linecap="round" stroke-linejoin="round"/>
<path d="M334.211 75.688C334.908 77.3211 334.373 79.3931 332.972 80.4832" stroke="black" stroke-width="1.6" stroke-linecap="round" stroke-linejoin="round"/>
<path d="M313.983 157.268C314.664 157.844 315.533 158.152 316.425 158.134" stroke="black" stroke-width="1.6" stroke-linecap="round" stroke-linejoin="round"/>
<rect x="334.319" y="138.564" width="16.6512" height="98.9627" transform="rotate(29.8632 334.319 138.564)" fill="#FDD504" stroke="black" stroke-width="1.6" stroke-linecap="round" stroke-linejoin="round"/>
<g opacity="0.35">
<rect x="337.27" y="144.568" width="11.0652" height="0.64074" transform="rotate(29.8632 337.27 144.568)" fill="#FDD504" stroke="black" stroke-width="1.6" stroke-linecap="round" stroke-linejoin="round"/>
<rect x="334.893" y="148.716" width="11.0652" height="0.64074" transform="rotate(29.8632 334.893 148.716)" fill="#FDD504" stroke="black" stroke-width="1.6" stroke-linecap="round" stroke-linejoin="round"/>
<rect x="332.516" y="152.863" width="11.0652" height="0.64074" transform="rotate(29.8632 332.516 152.863)" fill="#FDD504" stroke="black" stroke-width="1.6" stroke-linecap="round" stroke-linejoin="round"/>
<rect x="330.139" y="157.011" width="11.0652" height="0.64074" transform="rotate(29.8632 330.139 157.011)" fill="#FDD504" stroke="black" stroke-width="1.6" stroke-linecap="round" stroke-linejoin="round"/>
<rect x="327.762" y="161.158" width="11.0652" height="0.64074" transform="rotate(29.8632 327.762 161.158)" fill="#FDD504" stroke="black" stroke-width="1.6" stroke-linecap="round" stroke-linejoin="round"/>
<rect x="325.385" y="165.306" width="11.0652" height="0.64074" transform="rotate(29.8632 325.385 165.306)" fill="#FDD504" stroke="black" stroke-width="1.6" stroke-linecap="round" stroke-linejoin="round"/>
<rect x="323.009" y="169.453" width="11.0652" height="0.64074" transform="rotate(29.8632 323.009 169.453)" fill="#FDD504" stroke="black" stroke-width="1.6" stroke-linecap="round" stroke-linejoin="round"/>
<rect x="320.632" y="173.601" width="11.0652" height="0.64074" transform="rotate(29.8632 320.632 173.601)" fill="#FDD504" stroke="black" stroke-width="1.6" stroke-linecap="round" stroke-linejoin="round"/>
<rect x="318.255" y="177.748" width="11.0652" height="0.64074" transform="rotate(29.8632 318.255 177.748)" fill="#FDD504" stroke="black" stroke-width="1.6" stroke-linecap="round" stroke-linejoin="round"/>
<rect x="315.878" y="181.896" width="11.0652" height="0.64074" transform="rotate(29.8632 315.878 181.896)" fill="#FDD504" stroke="black" stroke-width="1.6" stroke-linecap="round" stroke-linejoin="round"/>
<rect x="313.501" y="186.043" width="11.0652" height="0.64074" transform="rotate(29.8632 313.501 186.043)" fill="#FDD504" stroke="black" stroke-width="1.6" stroke-linecap="round" stroke-linejoin="round"/>
<rect x="311.124" y="190.191" width="11.0652" height="0.64074" transform="rotate(29.8632 311.124 190.191)" fill="#FDD504" stroke="black" stroke-width="1.6" stroke-linecap="round" stroke-linejoin="round"/>
</g>
<path d="M315.585 204.739L312.374 200.34C310.144 197.285 307.137 194.881 303.666 193.379L267.529 177.746C265.493 176.865 263.12 177.445 261.719 179.164C260.636 180.494 258.943 181.169 257.242 180.95L246.323 176.894L248.251 183.391L315.585 204.739Z" fill="white"/>
<mask id="mask4_602_678" style="mask-type:luminance" maskUnits="userSpaceOnUse" x="246" y="176" width="70" height="29">
<path fill-rule="evenodd" clip-rule="evenodd" d="M315.585 204.739L312.374 200.34C310.144 197.285 307.137 194.881 303.666 193.379L267.529 177.746C265.493 176.865 263.12 177.445 261.719 179.164C260.636 180.494 258.943 181.169 257.242 180.95L246.323 176.894L248.251 183.391L315.585 204.739Z" fill="white"/>
</mask>
<g mask="url(#mask4_602_678)">
<path d="M319.313 206.156L270.123 184.606L259.777 189.956L307.563 206.82L319.313 206.156Z" fill="white" stroke="black" stroke-width="1.6" stroke-linecap="round" stroke-linejoin="round"/>
</g>
<path fill-rule="evenodd" clip-rule="evenodd" d="M315.585 204.739L312.374 200.34C310.144 197.285 307.137 194.881 303.666 193.379L267.529 177.746C265.493 176.865 263.12 177.445 261.719 179.164V179.164C260.636 180.494 258.943 181.169 257.242 180.95L246.323 176.894L248.251 183.391L315.585 204.739Z" stroke="black" stroke-width="1.6" stroke-linecap="round" stroke-linejoin="round"/>
<ellipse cx="264.99" cy="183.354" rx="2.20171" ry="2.20379" fill="white" stroke="black" stroke-width="1.6" stroke-linecap="round" stroke-linejoin="round"/>
<path fill-rule="evenodd" clip-rule="evenodd" d="M247.941 184.012C243.48 182.554 238.539 183.095 234.655 185.733C230.83 188.341 226.01 189.025 221.61 187.583C213.452 184.917 209.142 175.899 212.364 167.791C215.007 161.141 222.163 157.238 229.169 158.664C234.232 159.67 238.416 163.218 240.236 168.047C241.921 172.493 245.383 176.029 249.898 177.504L251.092 177.894L248.985 184.353L247.941 184.012ZM229.217 164.959C224.356 163.468 219.207 166.199 217.714 171.059C216.996 173.396 217.236 175.922 218.382 178.081C219.529 180.24 221.487 181.855 223.825 182.569C228.687 184.056 233.833 181.32 235.322 176.459C236.81 171.598 234.078 166.45 229.217 164.959Z" fill="#E43334"/>
<path d="M234.655 185.733L234.206 185.071L234.205 185.072L234.655 185.733ZM247.941 184.012L247.693 184.773L247.941 184.012ZM221.61 187.583L221.859 186.823L221.859 186.822L221.61 187.583ZM212.364 167.791L213.107 168.087L213.107 168.087L212.364 167.791ZM229.169 158.664L229.01 159.448L229.013 159.448L229.169 158.664ZM240.236 168.047L239.488 168.329L239.488 168.33L240.236 168.047ZM249.898 177.504L249.65 178.265L249.898 177.504ZM251.092 177.894L251.852 178.142C251.989 177.722 251.76 177.271 251.34 177.134L251.092 177.894ZM248.985 184.353L248.736 185.114C248.938 185.18 249.158 185.163 249.347 185.067C249.536 184.971 249.68 184.803 249.745 184.602L248.985 184.353ZM217.714 171.059L218.479 171.294L218.479 171.294L217.714 171.059ZM229.217 164.959L228.982 165.724L229.217 164.959ZM223.825 182.569L224.059 181.804L224.058 181.804L223.825 182.569ZM235.322 176.459L236.087 176.693L235.322 176.459ZM235.105 186.395C238.767 183.907 243.447 183.385 247.693 184.773L248.19 183.252C243.512 181.723 238.31 182.282 234.206 185.071L235.105 186.395ZM221.361 188.343C225.997 189.862 231.075 189.142 235.106 186.394L234.205 185.072C230.585 187.54 226.023 188.187 221.859 186.823L221.361 188.343ZM211.621 167.496C208.228 176.034 212.768 185.535 221.362 188.343L221.859 186.822C214.137 184.299 210.057 175.763 213.107 168.087L211.621 167.496ZM229.329 157.88C221.94 156.376 214.405 160.488 211.621 167.496L213.107 168.087C215.608 161.793 222.386 158.1 229.01 159.448L229.329 157.88ZM240.985 167.765C239.067 162.677 234.659 158.939 229.325 157.879L229.013 159.448C233.804 160.401 237.765 163.758 239.488 168.329L240.985 167.765ZM250.147 176.744C245.882 175.35 242.591 172.003 240.985 167.764L239.488 168.33C241.251 172.982 244.884 176.707 249.65 178.265L250.147 176.744ZM251.34 177.134L250.147 176.744L249.65 178.265L250.843 178.655L251.34 177.134ZM249.745 184.602L251.852 178.142L250.331 177.646L248.224 184.105L249.745 184.602ZM247.693 184.773L248.736 185.114L249.233 183.593L248.19 183.252L247.693 184.773ZM218.479 171.294C219.842 166.856 224.544 164.363 228.982 165.724L229.451 164.194C224.168 162.574 218.572 165.542 216.949 170.824L218.479 171.294ZM219.089 177.706C218.042 175.735 217.823 173.428 218.479 171.294L216.95 170.824C216.169 173.364 216.43 176.11 217.676 178.456L219.089 177.706ZM224.058 181.804C221.924 181.152 220.136 179.678 219.089 177.706L217.676 178.456C218.922 180.803 221.05 182.558 223.591 183.334L224.058 181.804ZM234.557 176.225C233.198 180.664 228.498 183.161 224.059 181.804L223.591 183.334C228.875 184.95 234.469 181.977 236.087 176.693L234.557 176.225ZM228.982 165.724C233.421 167.085 235.916 171.786 234.557 176.225L236.087 176.693C237.705 171.41 234.734 165.814 229.451 164.194L228.982 165.724Z" fill="black"/>
<path d="M274.245 237.384L270.698 233.252C268.234 230.38 266.582 226.903 265.912 223.179L258.943 184.396C258.55 182.212 259.654 180.032 261.647 179.057C263.188 178.303 264.231 176.807 264.405 175.1L262.949 163.534L268.829 166.894L274.245 237.384Z" fill="white"/>
<mask id="mask5_602_678" style="mask-type:luminance" maskUnits="userSpaceOnUse" x="258" y="163" width="17" height="75">
<path fill-rule="evenodd" clip-rule="evenodd" d="M274.245 237.384L270.698 233.252C268.234 230.38 266.582 226.903 265.912 223.179L258.943 184.396C258.55 182.212 259.654 180.032 261.647 179.057C263.188 178.303 264.231 176.807 264.405 175.1L262.949 163.534L268.829 166.894L274.245 237.384Z" fill="white"/>
</mask>
<g mask="url(#mask5_602_678)">
<path d="M274.774 241.34L265.025 188.488L272.587 179.625L278.098 230.041L274.774 241.34Z" fill="#D6DCF2"/>
</g>
<path fill-rule="evenodd" clip-rule="evenodd" d="M274.245 237.384L270.698 233.252C268.234 230.38 266.582 226.903 265.912 223.179L258.943 184.396C258.55 182.212 259.654 180.032 261.647 179.057V179.057C263.188 178.303 264.231 176.807 264.405 175.1L262.949 163.534L268.829 166.894L274.245 237.384Z" stroke="black" stroke-width="1.6" stroke-linecap="round" stroke-linejoin="round"/>
<ellipse cx="264.977" cy="183.2" rx="2.20171" ry="2.20379" fill="#D6DCF2"/>
<path fill-rule="evenodd" clip-rule="evenodd" d="M269.504 166.734L269.598 167.829L262.834 168.41L262.727 167.158C262.321 162.421 259.671 158.241 255.73 155.586C251.445 152.706 248.948 147.82 249.125 142.661C249.336 135.507 254.764 129.423 261.835 128.363C268.34 127.384 274.721 130.765 277.564 136.697C280.407 142.629 279.045 149.722 274.206 154.178C270.755 157.361 269.103 162.054 269.504 166.734ZM262.899 133.661C257.841 134.187 254.167 138.712 254.692 143.769C255.221 148.829 259.748 152.502 264.808 151.977C269.865 151.449 273.536 146.922 273.009 141.865C272.482 136.808 267.956 133.135 262.899 133.661Z" fill="#E43334"/>
<path d="M269.598 167.829L269.666 168.626C270.106 168.588 270.433 168.201 270.395 167.761L269.598 167.829ZM269.504 166.734L270.301 166.666L270.301 166.666L269.504 166.734ZM262.834 168.41L262.037 168.478C262.055 168.69 262.157 168.885 262.319 169.022C262.481 169.159 262.691 169.225 262.903 169.207L262.834 168.41ZM262.727 167.158L261.93 167.226L261.93 167.226L262.727 167.158ZM255.73 155.586L256.177 154.922L256.176 154.922L255.73 155.586ZM249.125 142.661L249.925 142.688L249.925 142.684L249.125 142.661ZM261.835 128.363L261.954 129.154L261.954 129.154L261.835 128.363ZM277.564 136.697L276.843 137.043L277.564 136.697ZM274.206 154.178L273.664 153.59L273.664 153.59L274.206 154.178ZM254.692 143.769L253.896 143.852L253.896 143.853L254.692 143.769ZM264.808 151.977L264.89 152.773L264.891 152.773L264.808 151.977ZM270.395 167.761L270.301 166.666L268.707 166.803L268.801 167.897L270.395 167.761ZM262.903 169.207L269.666 168.626L269.529 167.032L262.766 167.613L262.903 169.207ZM261.93 167.226L262.037 168.478L263.631 168.342L263.524 167.09L261.93 167.226ZM255.283 156.249C259.041 158.781 261.546 162.751 261.93 167.226L263.524 167.09C263.096 162.091 260.301 157.7 256.177 154.922L255.283 156.249ZM248.326 142.633C248.139 148.069 250.77 153.216 255.284 156.25L256.176 154.922C252.121 152.196 249.757 147.572 249.925 142.688L248.326 142.633ZM261.716 127.572C254.264 128.689 248.547 135.095 248.326 142.637L249.925 142.684C250.124 135.92 255.263 130.157 261.954 129.154L261.716 127.572ZM278.286 136.351C275.291 130.102 268.568 126.54 261.716 127.572L261.954 129.154C268.111 128.227 274.152 131.428 276.843 137.043L278.286 136.351ZM274.748 154.767C279.845 150.072 281.28 142.6 278.286 136.351L276.843 137.043C279.534 142.658 278.244 149.371 273.664 153.59L274.748 154.767ZM270.301 166.666C269.919 162.211 271.494 157.768 274.749 154.766L273.664 153.59C270.016 156.954 268.286 161.896 268.707 166.803L270.301 166.666ZM255.488 143.687C255.009 139.069 258.363 134.937 262.981 134.456L262.816 132.865C257.319 133.437 253.326 138.355 253.896 143.852L255.488 143.687ZM264.725 151.182C260.105 151.661 255.97 148.306 255.488 143.686L253.896 143.853C254.471 149.351 259.392 153.344 264.89 152.773L264.725 151.182ZM272.214 141.948C272.695 146.565 269.342 150.699 264.725 151.182L264.891 152.773C270.387 152.199 274.378 147.278 273.805 141.782L272.214 141.948ZM262.981 134.456C267.599 133.976 271.732 137.33 272.214 141.948L273.805 141.782C273.232 136.285 268.312 132.293 262.816 132.865L262.981 134.456Z" fill="black"/>
<path d="M281.173 112L283.474 92.2358C283.635 90.8607 285.517 90.5983 286.046 91.8773L293.655 110.261L310.714 232.885C311.037 235.194 309.426 237.327 307.117 237.65L302.993 238.225C301.884 238.379 300.76 238.086 299.867 237.411C298.974 236.736 298.386 235.733 298.232 234.625L281.173 112Z" fill="#FACCC4"/>
<mask id="mask6_602_678" style="mask-type:luminance" maskUnits="userSpaceOnUse" x="281" y="91" width="30" height="148">
<path fill-rule="evenodd" clip-rule="evenodd" d="M281.173 112L283.474 92.2358C283.635 90.8607 285.517 90.5983 286.046 91.8773L293.655 110.261L310.714 232.885C311.037 235.194 309.426 237.327 307.117 237.65L302.993 238.225C301.884 238.379 300.76 238.086 299.867 237.411C298.974 236.736 298.386 235.733 298.232 234.625L281.173 112Z" fill="white"/>
</mask>
<g mask="url(#mask6_602_678)">
<ellipse cx="285.217" cy="90.1742" rx="7.01231" ry="7.01893" fill="#485065" stroke="black" stroke-width="1.6" stroke-linecap="round" stroke-linejoin="round"/>
</g>
<path fill-rule="evenodd" clip-rule="evenodd" d="M281.173 112L283.474 92.2358C283.635 90.8607 285.517 90.5983 286.046 91.8773L293.655 110.261L310.714 232.885C311.037 235.194 309.426 237.327 307.117 237.65L302.993 238.225C301.884 238.379 300.76 238.086 299.867 237.411C298.974 236.736 298.386 235.733 298.232 234.625L281.173 112Z" stroke="black" stroke-width="1.6" stroke-linecap="round" stroke-linejoin="round"/>
<rect x="281.384" y="113.619" width="12.6027" height="112.808" transform="rotate(-7.9349 281.384 113.619)" fill="#E43334"/>
<mask id="mask7_602_678" style="mask-type:luminance" maskUnits="userSpaceOnUse" x="281" y="111" width="29" height="115">
<rect x="281.384" y="113.619" width="12.6027" height="112.808" transform="rotate(-7.9349 281.384 113.619)" fill="white"/>
</mask>
<g mask="url(#mask7_602_678)">
<path d="M295.354 122.476C312.374 200.34 286.225 190.816 286.225 190.816L315.585 204.739L318.14 152.152" fill="#C11F27"/>
</g>
<rect x="281.384" y="113.619" width="12.6027" height="112.808" transform="rotate(-7.9349 281.384 113.619)" stroke="black" stroke-width="1.6" stroke-linecap="round" stroke-linejoin="round"/>
<rect x="309.426" y="223.609" width="12.6027" height="18.6331" transform="rotate(172.065 309.426 223.609)" fill="#FDD504" stroke="black" stroke-width="1.6" stroke-linecap="round" stroke-linejoin="round"/>
<path d="M294.492 213.809L297.081 233.344C297.261 234.703 295.769 235.24 295.043 234.078L284.601 217.372L242.715 100.88C241.926 98.685 242.769 96.3719 244.597 95.7131L247.865 94.5358C249.694 93.877 251.816 95.122 252.605 97.3166L294.492 213.809Z" fill="white" stroke="black" stroke-width="1.6" stroke-linecap="round" stroke-linejoin="round"/>
<rect x="244.868" y="110.057" width="12.6038" height="112.798" transform="rotate(-19.8111 244.868 110.057)" fill="#1B80FD"/>
<mask id="mask8_602_678" style="mask-type:luminance" maskUnits="userSpaceOnUse" x="244" y="105" width="51" height="112">
<rect x="244.868" y="110.057" width="12.6038" height="112.798" transform="rotate(-19.8111 244.868 110.057)" fill="white"/>
</mask>
<g mask="url(#mask8_602_678)">
<path d="M260.706 171.861C282.405 195.433 299.763 191.484 299.763 191.484L290.151 208.464L257.68 195.038" fill="#1D62FC"/>
</g>
<rect x="244.868" y="110.057" width="12.6038" height="112.798" transform="rotate(-19.8111 244.868 110.057)" stroke="black" stroke-width="1.6" stroke-linecap="round" stroke-linejoin="round"/>
<rect x="244.894" y="110.048" width="12.6038" height="18.6314" transform="rotate(-19.8111 244.894 110.048)" fill="#FDD504" stroke="black" stroke-width="1.6" stroke-linecap="round" stroke-linejoin="round"/>
<path d="M260.218 107.427L257.68 108.341L258.594 110.881L261.131 109.967L271.065 137.596L272.173 137.196L261.725 108.137C261.619 107.843 261.401 107.603 261.118 107.47C260.836 107.337 260.512 107.321 260.218 107.427V107.427Z" fill="#FDD504" stroke="black" stroke-width="1.6" stroke-linecap="round" stroke-linejoin="round"/>
<path d="M329.356 264.154V257.689C328.468 259.055 321.281 260.239 310.821 260.921C304.815 261.313 297.736 261.54 290.151 261.54C282.567 261.54 275.488 261.313 269.482 260.921C259.021 260.239 251.835 259.055 250.946 257.689V264.154C250.885 264.238 250.849 264.337 250.842 264.44C250.842 266.725 268.442 268.577 290.151 268.577C311.861 268.577 329.461 266.725 329.461 264.44C329.454 264.337 329.418 264.237 329.356 264.154Z" fill="#1A80FD" stroke="black" stroke-width="1.6" stroke-linecap="round" stroke-linejoin="round"/>
<path d="M329.356 257.116V191.881H250.946V257.116C250.808 257.282 250.808 257.523 250.946 257.689C251.835 259.055 259.021 260.239 269.482 260.921C275.488 261.313 282.567 261.54 290.151 261.54C297.736 261.54 304.815 261.313 310.821 260.921C321.281 260.239 328.468 259.055 329.356 257.689C329.495 257.523 329.495 257.282 329.356 257.116Z" fill="#1A80FD"/>
<mask id="mask9_602_678" style="mask-type:luminance" maskUnits="userSpaceOnUse" x="250" y="191" width="80" height="71">
<path fill-rule="evenodd" clip-rule="evenodd" d="M329.356 257.116V191.881H250.946V257.116C250.808 257.282 250.808 257.523 250.946 257.689C251.835 259.055 259.021 260.239 269.482 260.921C275.488 261.313 282.567 261.54 290.151 261.54C297.736 261.54 304.815 261.313 310.821 260.921C321.281 260.239 328.468 259.055 329.356 257.689C329.495 257.523 329.495 257.282 329.356 257.116Z" fill="white"/>
</mask>
<g mask="url(#mask9_602_678)">
<path d="M325.474 187.406C325.582 266.235 265.95 255.973 242.419 257.689C218.888 259.405 237.43 276.779 237.43 276.779C237.43 276.779 317.205 287.836 320.516 288.231C323.828 288.626 349.472 268.577 349.472 268.577L349.866 200.459" fill="#1D62FC"/>
</g>
<path fill-rule="evenodd" clip-rule="evenodd" d="M329.356 257.116V191.881H250.946V257.116C250.808 257.282 250.808 257.523 250.946 257.689C251.835 259.055 259.021 260.239 269.482 260.921C275.488 261.313 282.567 261.54 290.151 261.54C297.736 261.54 304.815 261.313 310.821 260.921C321.281 260.239 328.468 259.055 329.356 257.689C329.495 257.523 329.495 257.282 329.356 257.116V257.116Z" stroke="black" stroke-width="1.6" stroke-linecap="round" stroke-linejoin="round"/>
<path d="M275.085 167.291L273.311 169.661" stroke="black" stroke-width="1.6" stroke-linecap="round" stroke-linejoin="round"/>
<path d="M309.479 239.018C306.742 242.31 303.299 244.944 299.405 246.723" stroke="black" stroke-width="1.6" stroke-linecap="round" stroke-linejoin="round"/>
<path d="M93.5588 192.457L91.9749 183.183L118.872 162.077L93.5588 192.457Z" fill="#FDD504" stroke="black" stroke-width="1.6" stroke-linecap="round" stroke-linejoin="round"/>
<path d="M99.0182 183.319L95.5395 184.276L93.5588 192.457L107.205 177.267L99.0182 183.319Z" fill="#FDD504" stroke="black" stroke-width="1.6" stroke-linecap="round" stroke-linejoin="round"/>
<path d="M114.788 189.013L95.5395 184.276L118.871 162.077L114.788 189.013Z" fill="#FCB006" stroke="black" stroke-width="1.6" stroke-linecap="round" stroke-linejoin="round"/>
<path d="M69.0626 228.951L69.3503 229.336C70.8966 228.171 72.3718 226.915 73.7681 225.574L73.4353 225.225C72.0536 226.554 70.5934 227.798 69.0626 228.951H69.0626Z" fill="#190000"/>
<path d="M69.0146 211.796L69.103 212.269C70.9871 211.921 72.8918 211.694 74.8051 211.59L74.7787 211.109C72.8446 211.214 70.9192 211.443 69.0146 211.796Z" fill="#190000"/>
<path d="M58.8401 233.838L58.9191 234.313C60.6481 234.027 62.5011 233.391 64.4276 232.424L64.2113 231.993C62.3282 232.939 60.5212 233.559 58.8401 233.838Z" fill="#190000"/>
<path d="M87.3808 206.963C86.4434 208.559 85.4741 210.123 84.4963 211.614C83.2008 211.407 81.8902 211.255 80.5806 211.16L80.5467 211.64C82.4577 211.778 84.3579 212.039 86.2356 212.419L86.3315 211.947C85.8953 211.858 85.4566 211.776 85.0153 211.7C85.9583 210.256 86.8919 208.747 87.7963 207.208L87.3808 206.963Z" fill="#190000"/>
<path d="M77.4028 221.057L77.7657 221.374C78.9879 219.971 80.2129 218.454 81.406 216.865L81.0205 216.575C79.835 218.155 78.6175 219.662 77.4028 221.057Z" fill="#190000"/>
<path d="M49.8296 229.101L49.3727 229.255C50.0609 231.301 51.3583 232.834 53.1239 233.687L53.3327 233.253C51.6864 232.457 50.4755 231.022 49.8296 229.101Z" fill="#190000"/>
<path d="M49.697 223.454L50.137 223.648C50.8168 222.104 51.9694 220.601 53.562 219.179L53.2424 218.82C51.5971 220.287 50.404 221.847 49.697 223.454Z" fill="#190000"/>
<path d="M63.3924 213.244C61.55 213.855 59.7619 214.619 58.0466 215.527L58.2742 215.953C59.9652 215.057 61.7282 214.303 63.5447 213.701L63.3924 213.244Z" fill="#190000"/>
<path d="M143.354 233.935L143.449 234.408C145.345 234.019 147.219 233.531 149.064 232.946L148.919 232.487C147.091 233.066 145.233 233.55 143.354 233.935Z" fill="#190000"/>
<path d="M120.618 232.634C122.409 233.38 124.259 233.975 126.148 234.413L126.257 233.943C124.394 233.512 122.57 232.926 120.804 232.189L120.618 232.634Z" fill="#190000"/>
<path d="M131.93 234.776L131.898 235.257C132.754 235.314 133.631 235.343 134.506 235.343C135.551 235.343 136.627 235.301 137.703 235.219L137.665 234.739C135.757 234.887 133.84 234.9 131.93 234.776Z" fill="#190000"/>
<path d="M92.7783 196.769C91.9359 198.53 91.0644 200.264 90.1881 201.924L90.6131 202.149C91.4931 200.484 92.3675 198.743 93.2127 196.976L92.7783 196.769Z" fill="#190000"/>
<path d="M169.397 222.081C167.864 223.171 166.242 224.237 164.577 225.249L164.827 225.661C166.501 224.642 168.133 223.57 169.675 222.473L169.397 222.081Z" fill="#190000"/>
<path d="M154.323 230.501L154.51 230.945C156.253 230.216 158.021 229.392 159.766 228.495L159.546 228.067C157.812 228.958 156.056 229.776 154.323 230.501Z" fill="#190000"/>
<path d="M110.789 226.513C112.259 227.776 113.821 228.928 115.463 229.96L115.718 229.551C114.097 228.532 112.554 227.394 111.101 226.147L110.789 226.513Z" fill="#190000"/>
<path d="M91.776 213.926C93.587 214.549 95.3546 215.292 97.0673 216.149L97.2835 215.718C95.5514 214.851 93.7636 214.1 91.9321 213.47L91.776 213.926Z" fill="#190000"/>
<path d="M102.019 219.054C103.604 220.131 105.118 221.308 106.553 222.578L106.872 222.217C105.422 220.934 103.891 219.744 102.29 218.655L102.019 219.054Z" fill="#190000"/>
<path d="M91.9749 183.183L81.7585 180.363L118.871 162.077L91.9749 183.183Z" fill="#FCB006" stroke="black" stroke-width="1.6" stroke-linecap="round" stroke-linejoin="round"/>
<path d="M112.609 178.231C111.928 178.923 111.103 179.456 110.192 179.793" stroke="black" stroke-width="1.6" stroke-linecap="round" stroke-linejoin="round"/>
<path d="M293.265 177.697C293.265 177.697 288.755 177.285 281.966 177.97C280.891 186.902 281.314 194.259 281.314 194.259C278.542 188.434 277.179 182.753 276.512 178.711C269.507 179.901 261.11 182.286 252.935 186.959C251.531 197.998 251.992 207.297 251.992 207.297C249.316 201.263 247.852 195.354 247.051 190.779C236.568 198.471 227.155 210.58 222.508 229.619C218.079 247.764 218.804 257.91 221.851 263.318C264.318 240.549 293.265 177.697 293.265 177.697Z" fill="#1AB995" stroke="black" stroke-width="1.6" stroke-linecap="round" stroke-linejoin="round"/>
<path d="M293.265 177.697C293.265 177.697 264.318 240.549 221.851 263.318C228.394 274.931 245.655 264.666 245.655 264.666C256.076 265.76 268.271 260.745 278.008 250.252C275.997 248.522 274.149 246.612 272.485 244.547C272.485 244.547 276.457 245.624 281.912 245.557C284.489 242.096 286.705 238.38 288.526 234.469C287.67 234.027 286.796 233.538 285.905 232.985C285.905 232.985 287.318 232.803 289.53 232.21C292.076 226.215 293.959 219.442 294.923 211.919C290.821 211.933 286.75 211.207 282.906 209.775C282.906 209.775 288.766 208.564 295.525 205.203C295.961 196.834 295.305 187.651 293.265 177.697Z" fill="#1AB995"/>
<mask id="mask10_602_678" style="mask-type:luminance" maskUnits="userSpaceOnUse" x="221" y="177" width="75" height="92">
<path fill-rule="evenodd" clip-rule="evenodd" d="M293.265 177.697C293.265 177.697 264.318 240.549 221.851 263.318C228.394 274.931 245.655 264.666 245.655 264.666C256.076 265.76 268.271 260.745 278.008 250.252C275.997 248.522 274.149 246.612 272.485 244.547C272.485 244.547 276.457 245.624 281.912 245.557C284.489 242.096 286.705 238.38 288.526 234.469C287.67 234.027 286.796 233.538 285.905 232.985C285.905 232.985 287.318 232.803 289.53 232.21C292.076 226.215 293.959 219.442 294.923 211.919C290.821 211.933 286.75 211.207 282.906 209.775C282.906 209.775 288.766 208.564 295.525 205.203C295.961 196.834 295.305 187.651 293.265 177.697Z" fill="white"/>
</mask>
<g mask="url(#mask10_602_678)">
<path d="M288.693 186.73C255.368 269.419 268.879 261.593 293.265 256.809C317.652 252.026 274.288 276.179 272.496 276.936C270.705 277.693 228.492 275.875 230.465 272.647C232.437 269.419 246.64 205.579 246.64 205.579L277.806 192.888" fill="#0FA379"/>
</g>
<path fill-rule="evenodd" clip-rule="evenodd" d="M293.265 177.697C293.265 177.697 264.318 240.549 221.851 263.318C228.394 274.931 245.655 264.666 245.655 264.666C256.076 265.76 268.271 260.745 278.008 250.252C275.997 248.522 274.149 246.612 272.485 244.547C272.485 244.547 276.457 245.624 281.912 245.557C284.489 242.096 286.705 238.38 288.526 234.469C287.67 234.027 286.796 233.538 285.905 232.985C285.905 232.985 287.318 232.803 289.53 232.21C292.076 226.215 293.959 219.442 294.923 211.919C290.821 211.933 286.75 211.207 282.906 209.775C282.906 209.775 288.766 208.564 295.525 205.203C295.961 196.834 295.305 187.651 293.265 177.697Z" stroke="black" stroke-width="1.6" stroke-linecap="round" stroke-linejoin="round"/>
<path d="M98.2816 220.511C98.2816 220.511 101.839 220.293 107.194 220.655C108.041 225.375 107.708 229.262 107.708 229.262C109.473 226.784 110.758 223.998 111.495 221.047C117.02 221.676 123.643 222.936 130.091 225.405C131.198 231.238 130.834 236.152 130.834 236.152C132.603 233.475 133.919 230.527 134.731 227.424C142.999 231.488 150.424 237.886 154.089 247.946C157.582 257.534 157.01 262.895 154.607 265.753C121.113 253.722 98.2816 220.511 98.2816 220.511Z" fill="#1AB995"/>
<mask id="mask11_602_678" style="mask-type:luminance" maskUnits="userSpaceOnUse" x="98" y="220" width="59" height="46">
<path fill-rule="evenodd" clip-rule="evenodd" d="M98.2816 220.511C98.2816 220.511 101.839 220.293 107.194 220.655C108.041 225.375 107.708 229.262 107.708 229.262C109.473 226.784 110.758 223.998 111.495 221.047C117.02 221.676 123.643 222.936 130.091 225.405C131.198 231.238 130.834 236.152 130.834 236.152C132.603 233.475 133.919 230.527 134.731 227.424C142.999 231.488 150.424 237.886 154.089 247.946C157.582 257.534 157.01 262.895 154.607 265.753C121.113 253.722 98.2816 220.511 98.2816 220.511Z" fill="white"/>
</mask>
<g mask="url(#mask11_602_678)">
<path d="M119.212 217.16C125.125 248.677 110.705 253.813 154.607 265.753C198.509 277.693 175.233 223.275 175.233 223.275L89.2294 200.275" fill="#0FA379"/>
</g>
<path fill-rule="evenodd" clip-rule="evenodd" d="M98.2816 220.511C98.2816 220.511 101.839 220.293 107.194 220.655C108.041 225.375 107.708 229.262 107.708 229.262C109.473 226.784 110.758 223.998 111.495 221.047C117.02 221.676 123.643 222.936 130.091 225.405C131.198 231.238 130.834 236.152 130.834 236.152C132.603 233.475 133.919 230.527 134.731 227.424C142.999 231.488 150.424 237.886 154.089 247.946C157.582 257.534 157.01 262.895 154.607 265.753C121.113 253.722 98.2816 220.511 98.2816 220.511Z" stroke="black" stroke-width="1.6" stroke-linecap="round" stroke-linejoin="round"/>
<path d="M98.2816 220.511C98.2816 220.511 121.113 253.722 154.607 265.753C149.447 271.889 135.832 266.465 135.832 266.465C127.614 267.043 117.995 264.393 110.315 258.849C111.85 257.969 113.307 256.961 114.671 255.834C114.671 255.834 111.538 256.403 107.236 256.368C105.278 254.622 103.527 252.656 102.02 250.509C102.695 250.276 103.384 250.017 104.086 249.725C104.086 249.725 102.972 249.629 101.228 249.315C99.1449 246.042 97.7015 242.404 96.9739 238.594C100.168 238.606 103.351 238.225 106.452 237.461C103.074 236.93 99.7447 236.122 96.499 235.045C96.155 230.623 96.6728 225.771 98.2816 220.511Z" fill="#0FA379" stroke="black" stroke-width="1.6" stroke-linecap="round" stroke-linejoin="round"/>
<rect x="130.196" y="180.276" width="124.119" height="22.6008" fill="white"/>
<mask id="mask12_602_678" style="mask-type:luminance" maskUnits="userSpaceOnUse" x="130" y="180" width="125" height="23">
<rect x="130.196" y="180.276" width="124.119" height="22.6008" fill="white"/>
</mask>
<g mask="url(#mask12_602_678)">
<path d="M128.226 187.869L237.48 188.218L126.244 189.266L128.226 187.869Z" fill="#D6DCF2"/>
<path d="M120.122 197.292L229.376 197.641L118.141 198.689L120.122 197.292Z" fill="#D6DCF2"/>
</g>
<rect x="130.196" y="180.276" width="124.119" height="22.6008" stroke="black" stroke-width="1.6" stroke-linecap="round" stroke-linejoin="round"/>
<path d="M258.068 180.276C258.068 178.785 256.86 177.575 255.368 177.574H128.534C127.056 177.574 125.768 178.714 125.723 180.193C125.7 180.923 125.975 181.632 126.483 182.157C126.991 182.681 127.691 182.978 128.421 182.978L250.478 182.978C251.299 182.978 252.086 183.305 252.666 183.886C253.247 184.467 253.573 185.255 253.572 186.076V197.078C253.573 198.788 252.187 200.174 250.478 200.175L128.534 200.175C127.057 200.175 125.768 201.315 125.723 202.794C125.7 203.524 125.974 204.232 126.483 204.757C126.991 205.282 127.691 205.578 128.421 205.579H255.368C256.86 205.578 258.068 204.368 258.068 202.877V180.603C258.068 180.548 258.062 180.494 258.059 180.44C258.063 180.385 258.068 180.331 258.068 180.276Z" fill="#FCB006"/>
<mask id="mask13_602_678" style="mask-type:luminance" maskUnits="userSpaceOnUse" x="125" y="177" width="134" height="29">
<path fill-rule="evenodd" clip-rule="evenodd" d="M258.068 180.276C258.068 178.785 256.86 177.575 255.368 177.574H128.534C127.056 177.574 125.768 178.714 125.723 180.193C125.7 180.923 125.975 181.632 126.483 182.157C126.991 182.681 127.691 182.978 128.421 182.978L250.478 182.978C251.299 182.978 252.086 183.305 252.666 183.886C253.247 184.467 253.573 185.255 253.572 186.076V197.078C253.573 198.788 252.187 200.174 250.478 200.175L128.534 200.175C127.057 200.175 125.768 201.315 125.723 202.794C125.7 203.524 125.974 204.232 126.483 204.757C126.991 205.282 127.691 205.578 128.421 205.579H255.368C256.86 205.578 258.068 204.368 258.068 202.877V180.603C258.068 180.548 258.062 180.494 258.059 180.44C258.063 180.385 258.068 180.331 258.068 180.276Z" fill="white"/>
</mask>
<g mask="url(#mask13_602_678)">
<path d="M106.785 205.579C254.75 208.281 256.321 208.684 258.068 186.771C259.395 170.128 272.496 234.655 272.496 234.655L192.255 231.55L114.675 212.241" fill="#FDD504"/>
</g>
<path fill-rule="evenodd" clip-rule="evenodd" d="M258.068 180.276C258.068 178.785 256.86 177.575 255.368 177.574H128.534C127.056 177.574 125.768 178.714 125.723 180.193C125.7 180.923 125.975 181.632 126.483 182.157C126.991 182.681 127.691 182.978 128.421 182.978L250.478 182.978C251.299 182.978 252.086 183.305 252.666 183.886C253.247 184.467 253.573 185.255 253.572 186.076V197.078C253.573 198.788 252.187 200.174 250.478 200.175L128.534 200.175C127.057 200.175 125.768 201.315 125.723 202.794C125.7 203.524 125.974 204.232 126.483 204.757C126.991 205.282 127.691 205.578 128.421 205.579H255.368C256.86 205.578 258.068 204.368 258.068 202.877V180.603C258.068 180.548 258.062 180.494 258.059 180.44C258.063 180.385 258.068 180.331 258.068 180.276Z" stroke="black" stroke-width="1.6" stroke-linecap="round" stroke-linejoin="round"/>
<rect x="144.624" y="208.684" width="124.119" height="25.9714" fill="white"/>
<mask id="mask14_602_678" style="mask-type:luminance" maskUnits="userSpaceOnUse" x="144" y="208" width="125" height="27">
<rect x="144.624" y="208.684" width="124.119" height="25.9714" fill="white"/>
</mask>
<g mask="url(#mask14_602_678)">
<path d="M142.655 217.408L251.909 217.81L140.673 219.014L142.655 217.408Z" fill="#D6DCF2"/>
<path d="M134.551 228.237L243.805 228.638L132.569 229.842L134.551 228.237Z" fill="#D6DCF2"/>
</g>
<rect x="144.624" y="208.684" width="124.119" height="25.9714" stroke="black" stroke-width="1.6" stroke-linecap="round" stroke-linejoin="round"/>
<path d="M272.496 208.684C272.496 206.969 271.288 205.579 269.797 205.579H142.963C141.485 205.579 140.196 206.889 140.152 208.588C140.106 210.346 141.332 211.788 142.85 211.788L264.906 211.788C266.615 211.788 268.001 213.382 268.001 215.348V227.991C268.001 229.957 266.615 231.55 264.906 231.55L142.963 231.55C141.485 231.55 140.196 232.86 140.152 234.559C140.106 236.318 141.332 237.76 142.85 237.76H269.797C271.288 237.76 272.496 236.37 272.496 234.655V209.059C272.496 208.996 272.491 208.934 272.488 208.872C272.491 208.809 272.496 208.747 272.496 208.684Z" fill="#1B80FD"/>
<mask id="mask15_602_678" style="mask-type:luminance" maskUnits="userSpaceOnUse" x="140" y="205" width="133" height="33">
<path fill-rule="evenodd" clip-rule="evenodd" d="M272.496 208.684C272.496 206.969 271.288 205.579 269.797 205.579H142.963C141.485 205.579 140.196 206.889 140.152 208.588C140.106 210.346 141.332 211.788 142.85 211.788L264.906 211.788C266.615 211.788 268.001 213.382 268.001 215.348V227.991C268.001 229.957 266.615 231.55 264.906 231.55L142.963 231.55C141.485 231.55 140.196 232.86 140.152 234.559C140.106 236.318 141.332 237.76 142.85 237.76H269.797C271.288 237.76 272.496 236.37 272.496 234.655V209.059C272.496 208.996 272.491 208.934 272.488 208.872C272.491 208.809 272.496 208.747 272.496 208.684Z" fill="white"/>
</mask>
<g mask="url(#mask15_602_678)">
<path d="M128.534 237.238C276.228 237.02 272.496 237.934 272.496 223.497C272.496 209.059 284.907 254.992 284.907 254.992L159.452 248.366L137.754 243.593" fill="#1D62FC"/>
</g>
<path fill-rule="evenodd" clip-rule="evenodd" d="M272.496 208.684C272.496 206.969 271.288 205.579 269.797 205.579H142.963C141.485 205.579 140.196 206.889 140.152 208.588C140.106 210.346 141.332 211.788 142.85 211.788L264.906 211.788C266.615 211.788 268.001 213.382 268.001 215.348V227.991C268.001 229.957 266.615 231.55 264.906 231.55L142.963 231.55C141.485 231.55 140.196 232.86 140.152 234.559C140.106 236.318 141.332 237.76 142.85 237.76H269.797C271.288 237.76 272.496 236.37 272.496 234.655V209.059C272.496 208.996 272.491 208.934 272.488 208.872C272.491 208.809 272.496 208.747 272.496 208.684Z" stroke="black" stroke-width="1.6" stroke-linecap="round" stroke-linejoin="round"/>
<rect x="130.196" y="240.343" width="124.119" height="25.9714" fill="white"/>
<mask id="mask16_602_678" style="mask-type:luminance" maskUnits="userSpaceOnUse" x="130" y="240" width="125" height="27">
<rect x="130.196" y="240.343" width="124.119" height="25.9714" fill="white"/>
</mask>
<g mask="url(#mask16_602_678)">
<path d="M128.226 249.067L237.48 249.469L126.244 250.673L128.226 249.067Z" fill="#D6DCF2"/>
<path d="M120.122 259.896L229.376 260.297L118.141 261.501L120.122 259.896Z" fill="#D6DCF2"/>
</g>
<rect x="130.196" y="240.343" width="124.119" height="25.9714" stroke="black" stroke-width="1.6" stroke-linecap="round" stroke-linejoin="round"/>
<path d="M258.068 240.343C258.068 238.628 256.859 237.238 255.368 237.238H128.534C127.056 237.238 125.768 238.548 125.723 240.247C125.677 242.005 126.903 243.447 128.421 243.447L250.477 243.447C252.187 243.447 253.572 245.041 253.572 247.007V259.65C253.572 261.616 252.187 263.209 250.477 263.209L128.534 263.209C127.057 263.209 125.768 264.519 125.723 266.218C125.677 267.977 126.903 269.419 128.421 269.419H255.368C256.859 269.419 258.068 268.029 258.068 266.314V240.718C258.068 240.655 258.062 240.593 258.059 240.531C258.063 240.468 258.068 240.406 258.068 240.343Z" fill="#1A80FD"/>
<mask id="mask17_602_678" style="mask-type:luminance" maskUnits="userSpaceOnUse" x="125" y="237" width="134" height="33">
<path fill-rule="evenodd" clip-rule="evenodd" d="M258.068 240.343C258.068 238.628 256.859 237.238 255.368 237.238H128.534C127.056 237.238 125.768 238.548 125.723 240.247C125.677 242.005 126.903 243.447 128.421 243.447L250.477 243.447C252.187 243.447 253.572 245.041 253.572 247.007V259.65C253.572 261.616 252.187 263.209 250.477 263.209L128.534 263.209C127.057 263.209 125.768 264.519 125.723 266.218C125.677 267.977 126.903 269.419 128.421 269.419H255.368C256.859 269.419 258.068 268.029 258.068 266.314V240.718C258.068 240.655 258.062 240.593 258.059 240.531C258.063 240.468 258.068 240.406 258.068 240.343Z" fill="white"/>
</mask>
<g mask="url(#mask17_602_678)">
<path d="M120.001 272.647C121.185 272.165 200.398 269.419 219.376 269.419C238.355 269.419 258.438 265.452 258.752 256.962C259.067 248.472 267.549 271.77 267.549 271.77L263.406 275.719L204.821 275.126" fill="#1D62FC"/>
</g>
<path fill-rule="evenodd" clip-rule="evenodd" d="M258.068 240.343C258.068 238.628 256.859 237.238 255.368 237.238H128.534C127.056 237.238 125.768 238.548 125.723 240.247C125.677 242.005 126.903 243.447 128.421 243.447L250.477 243.447C252.187 243.447 253.572 245.041 253.572 247.007V259.65C253.572 261.616 252.187 263.209 250.477 263.209L128.534 263.209C127.057 263.209 125.768 264.519 125.723 266.218C125.677 267.977 126.903 269.419 128.421 269.419H255.368C256.859 269.419 258.068 268.029 258.068 266.314V240.718C258.068 240.655 258.062 240.593 258.059 240.531C258.063 240.468 258.068 240.406 258.068 240.343Z" stroke="black" stroke-width="1.6" stroke-linecap="round" stroke-linejoin="round"/>
<path d="M188.902 188.213L184.164 192.948" stroke="black" stroke-width="1.6" stroke-linecap="round" stroke-linejoin="round"/>
<path d="M158.091 252.142L155.135 256.882" stroke="black" stroke-width="1.6" stroke-linecap="round" stroke-linejoin="round"/>
<path d="M124.272 90.7672L137.265 73.7253L165.469 95.2683C166.734 96.2351 166.976 98.0437 166.011 99.3099L161.84 104.781L156.514 111.767C156.051 112.375 155.365 112.774 154.608 112.876C153.85 112.978 153.083 112.774 152.476 112.31L124.272 90.7672Z" fill="#FDD504"/>
<mask id="mask18_602_678" style="mask-type:luminance" maskUnits="userSpaceOnUse" x="124" y="73" width="43" height="40">
<path fill-rule="evenodd" clip-rule="evenodd" d="M124.272 90.7672L137.265 73.7253L165.469 95.2683C166.734 96.2351 166.976 98.0437 166.011 99.3099L161.84 104.781L156.514 111.767C156.051 112.375 155.365 112.774 154.608 112.876C153.85 112.978 153.083 112.774 152.476 112.31L124.272 90.7672Z" fill="white"/>
</mask>
<g mask="url(#mask18_602_678)">
<rect x="160.065" y="95.887" width="3.32175" height="34.1436" transform="rotate(127.322 160.065 95.887)" fill="white" stroke="black" stroke-width="1.6" stroke-linecap="round" stroke-linejoin="round"/>
<rect x="156.443" y="100.638" width="3.32175" height="34.1436" transform="rotate(127.322 156.443 100.638)" fill="white" stroke="black" stroke-width="1.6" stroke-linecap="round" stroke-linejoin="round"/>
<rect x="152.968" y="105.196" width="3.32175" height="34.1436" transform="rotate(127.322 152.968 105.196)" fill="white" stroke="black" stroke-width="1.6" stroke-linecap="round" stroke-linejoin="round"/>
<rect x="146.037" y="111.858" width="28.6583" height="11.2558" transform="rotate(-52.6784 146.037 111.858)" fill="#E43334"/>
<mask id="mask19_602_678" style="mask-type:luminance" maskUnits="userSpaceOnUse" x="146" y="89" width="27" height="30">
<rect x="146.037" y="111.858" width="28.6583" height="11.2558" transform="rotate(-52.6784 146.037 111.858)" fill="white"/>
</mask>
<g mask="url(#mask19_602_678)">
<path d="M156.991 114.176C148.81 108.22 153.601 102.354 162.069 91.823C170.538 81.2916 152.169 94.0547 152.169 94.0547L142.891 111.409L149.758 114.693L152.238 115.089" fill="#C11F27"/>
</g>
<rect x="146.037" y="111.858" width="28.6583" height="11.2558" transform="rotate(-52.6784 146.037 111.858)" stroke="black" stroke-width="1.6" stroke-linecap="round" stroke-linejoin="round"/>
<rect x="163.555" y="88.8789" width="26.0996" height="2.53256" transform="rotate(127.322 163.555 88.8789)" fill="#1A80FD" stroke="black" stroke-width="1.6" stroke-linecap="round" stroke-linejoin="round"/>
</g>
<path fill-rule="evenodd" clip-rule="evenodd" d="M124.272 90.7672L137.265 73.7253L165.469 95.2683C166.734 96.2351 166.976 98.0437 166.011 99.3099L161.84 104.781L156.514 111.767C156.051 112.375 155.365 112.774 154.608 112.876C153.85 112.978 153.083 112.774 152.476 112.31L124.272 90.7672Z" stroke="black" stroke-width="1.6" stroke-linecap="round" stroke-linejoin="round"/>
<path d="M118.896 73.1778C119.363 72.5656 120.053 72.2101 120.669 72.2644L137.265 73.7253L124.272 90.7672L118.484 75.1304C118.269 74.5498 118.429 73.79 118.896 73.1778Z" fill="#FACCC4"/>
<mask id="mask20_602_678" style="mask-type:luminance" maskUnits="userSpaceOnUse" x="118" y="72" width="20" height="19">
<path fill-rule="evenodd" clip-rule="evenodd" d="M118.896 73.1778C119.363 72.5656 120.053 72.2101 120.669 72.2644L137.265 73.7253L124.272 90.7672L118.484 75.1304C118.269 74.5498 118.429 73.79 118.896 73.1778Z" fill="white"/>
</mask>
<g mask="url(#mask20_602_678)">
<path d="M120.744 89.5674C134.622 72.3237 131.667 73.2325 127.854 72.8968C124.04 72.5611 143.877 70.7465 143.877 70.7465C143.877 70.7465 143.624 73.191 143.412 73.4689C143.201 73.7467 124.109 93.6033 124.109 93.6033L118.589 88.361" fill="#ED707B"/>
<rect x="141.58" y="71.6095" width="30.0912" height="4.29768" transform="rotate(127.322 141.58 71.6095)" fill="#FCB006" stroke="black" stroke-width="1.6" stroke-linecap="round" stroke-linejoin="round"/>
<ellipse cx="117.423" cy="70.3838" rx="9.3884" ry="7.67442" transform="rotate(-52.7834 117.423 70.3838)" fill="#485065" stroke="black" stroke-width="1.6" stroke-linecap="round" stroke-linejoin="round"/>
</g>
<path fill-rule="evenodd" clip-rule="evenodd" d="M118.896 73.1778V73.1778C119.363 72.5656 120.053 72.2101 120.669 72.2644L137.265 73.7253L124.272 90.7672L118.484 75.1304C118.269 74.5498 118.429 73.79 118.896 73.1778Z" stroke="black" stroke-width="1.6" stroke-linecap="round" stroke-linejoin="round"/>
<path d="M122.557 80.0474C122.722 80.6409 122.74 81.2658 122.609 81.8679" stroke="black" stroke-width="1.6" stroke-linecap="round" stroke-linejoin="round"/>
<path d="M59.2869 116.857L87.3229 93.1402L92.2347 98.9096L70.9045 123.697L59.2869 116.857Z" fill="#FCB006" stroke="black" stroke-width="1.6" stroke-linecap="round" stroke-linejoin="round"/>
<path d="M70.1352 130.439L70.6306 133.878L87.1269 139.365L84.5485 105.433L70.1352 130.439Z" fill="#D6DCF2"/>
<path d="M63.3362 123.777L88.3357 93.9653L89.6591 97.133L88.4193 110.73L87.9558 102.317L70.6306 133.878C70.6306 133.878 64.3001 128.882 63.3362 123.777Z" fill="white"/>
<mask id="mask21_602_678" style="mask-type:luminance" maskUnits="userSpaceOnUse" x="63" y="93" width="27" height="41">
<path fill-rule="evenodd" clip-rule="evenodd" d="M63.3362 123.777L88.3357 93.9653L89.6591 97.133L88.4193 110.73L87.9558 102.317L70.6306 133.878C70.6306 133.878 64.3001 128.882 63.3362 123.777Z" fill="white"/>
</mask>
<g mask="url(#mask21_602_678)">
<path d="M62.0906 129.406L80.3051 107.172L61.4975 131.147L65.5822 131.818L75.8663 117.79L66.4085 132.83L57.6404 132.719" fill="#D6DCF2"/>
</g>
<path fill-rule="evenodd" clip-rule="evenodd" d="M63.3362 123.777L88.3357 93.9653L89.6591 97.133L88.4193 110.73L87.9558 102.317L70.6306 133.878C70.6306 133.878 64.3001 128.882 63.3362 123.777Z" stroke="black" stroke-width="1.6" stroke-linecap="round" stroke-linejoin="round"/>
<path d="M126.648 117.248L128.499 116.297C128.499 116.297 129.376 114.923 127.721 113.908L87.3229 93.1402L88.3531 94.1496L89.422 96.4085L89.5221 98.6268L91.4805 103.044L126.648 117.248Z" fill="#E43334" stroke="black" stroke-width="1.6" stroke-linecap="round" stroke-linejoin="round"/>
<path d="M89.6254 101.151L89.1526 97.4318C89.1526 97.4318 89.472 93.9165 86.641 93.7171L87.323 93.1402C87.323 93.1402 90.3923 94.1789 89.7903 97.7375L89.6254 101.151Z" fill="#485065" stroke="black" stroke-width="1.6" stroke-linecap="round" stroke-linejoin="round"/>
<path d="M71.8492 138.227L89.1526 97.4318L128.499 116.297L114.706 151.749L71.8492 138.227Z" fill="#FDD504"/>
<mask id="mask22_602_678" style="mask-type:luminance" maskUnits="userSpaceOnUse" x="71" y="97" width="58" height="55">
<path fill-rule="evenodd" clip-rule="evenodd" d="M71.8492 138.227L89.1526 97.4318L128.499 116.297L114.706 151.749L71.8492 138.227Z" fill="white"/>
</mask>
<g mask="url(#mask22_602_678)">
<path d="M91.1069 108.335L82.9081 132.761C82.8202 133.022 82.8404 133.308 82.9642 133.555C83.088 133.802 83.3052 133.988 83.5675 134.074L89.0937 135.879C89.6361 136.056 90.2193 135.76 90.3968 135.218L98.2443 111.285C98.4099 110.78 98.1666 110.232 97.6812 110.016L92.5064 107.718C92.2403 107.6 91.9368 107.6 91.6704 107.717C91.404 107.834 91.1994 108.059 91.1069 108.335Z" fill="#FCB006"/>
<path d="M85.8722 142.651C79.6879 139.444 112.725 154.616 120.208 136.678C122.768 130.539 121.805 161.341 121.805 161.341L90.4438 150.86" fill="#FCB006"/>
</g>
<path fill-rule="evenodd" clip-rule="evenodd" d="M71.8492 138.227L89.1526 97.4318L128.499 116.297L114.706 151.749L71.8492 138.227V138.227Z" stroke="black" stroke-width="1.6" stroke-linecap="round" stroke-linejoin="round"/>
<path d="M110.376 132.931C109.929 133.794 109.354 134.585 108.672 135.277" stroke="black" stroke-width="1.6" stroke-linecap="round" stroke-linejoin="round"/>
<path d="M78.0097 114.612L76.1072 116.335" stroke="black" stroke-width="1.6" stroke-linecap="round" stroke-linejoin="round"/>
<path d="M284.328 261.379L280.859 261.261L272.891 260.991L266.983 260.79L261.172 266.863L291.183 267.438L284.328 261.379Z" fill="#F9C1BB"/>
<mask id="mask23_602_678" style="mask-type:luminance" maskUnits="userSpaceOnUse" x="261" y="260" width="31" height="8">
<path fill-rule="evenodd" clip-rule="evenodd" d="M284.328 261.379L280.859 261.261L272.891 260.991L266.983 260.79L261.172 266.863L291.183 267.438L284.328 261.379Z" fill="white"/>
</mask>
<g mask="url(#mask23_602_678)">
<path d="M272.812 261.633C274.692 264.823 275.251 263.775 276.511 265.451C278.633 268.275 286.939 266.968 286.817 267.438C286.696 267.909 276.45 270.629 276.45 270.629L271.66 268.275L272.085 263.516" fill="url(#paint0_linear_602_678)"/>
</g>
<path fill-rule="evenodd" clip-rule="evenodd" d="M284.328 261.379L280.859 261.261L272.891 260.991L266.983 260.79L261.172 266.863L291.183 267.438L284.328 261.379V261.379Z" stroke="black" stroke-width="1.6" stroke-linecap="round" stroke-linejoin="round"/>
<path d="M225.595 252.118L235.601 262.394L240.468 259.184C240.468 259.184 233.57 250.327 232.742 249.241C231.914 248.155 225.595 252.118 225.595 252.118Z" fill="#F9C1BB"/>
<mask id="mask24_602_678" style="mask-type:luminance" maskUnits="userSpaceOnUse" x="225" y="249" width="16" height="14">
<path fill-rule="evenodd" clip-rule="evenodd" d="M225.595 252.118L235.601 262.394L240.468 259.184C240.468 259.184 233.57 250.327 232.742 249.241C231.914 248.155 225.595 252.118 225.595 252.118Z" fill="white"/>
</mask>
<g mask="url(#mask24_602_678)">
<path d="M233.007 250.429C233.271 255.315 230.624 254.265 231.683 256.64C232.742 259.014 231.048 260.75 230.413 260.887C229.777 261.024 226.177 254.402 226.177 254.402L228.983 252.849L233.007 250.429Z" fill="url(#paint1_linear_602_678)"/>
</g>
<path fill-rule="evenodd" clip-rule="evenodd" d="M225.595 252.118L235.601 262.394L240.468 259.184C240.468 259.184 233.57 250.327 232.742 249.241C231.914 248.155 225.595 252.118 225.595 252.118Z" stroke="black" stroke-width="1.6" stroke-linecap="round" stroke-linejoin="round"/>
<path d="M231.351 259.998L231.762 263.292C231.897 264.377 233.136 265.094 234.352 264.79L252.161 260.332C251.713 258.879 250.327 257.783 248.61 257.525L237.985 255.926C237.985 255.926 238.719 258.309 231.351 259.998Z" fill="#2F387E" stroke="black" stroke-width="1.6" stroke-linecap="round" stroke-linejoin="round"/>
<path d="M281.437 261.281C281.437 261.281 284.911 265.635 282.513 267.438L295.803 269.96C301.205 270.894 303.108 270.316 302.776 268.776L303.108 268.611L287.113 260.79L281.437 261.281Z" fill="#2F387E" stroke="black" stroke-width="1.6" stroke-linecap="round" stroke-linejoin="round"/>
<path d="M130.967 268.97C134.252 269.381 140.411 268.148 140.822 268.559C141.233 268.97 140.001 269.792 140.001 269.792C140.001 269.792 147.392 270.203 146.16 272.669C145.498 273.995 140.822 272.258 139.18 272.669C137.537 273.08 133.841 273.902 130.967 271.847C128.092 269.792 131.378 269.381 131.378 269.381" fill="#F9C1BB"/>
<path d="M130.967 268.97C134.252 269.381 140.411 268.148 140.822 268.559C141.233 268.97 140.001 269.792 140.001 269.792C140.001 269.792 147.392 270.203 146.16 272.669C145.498 273.995 140.822 272.258 139.18 272.669C137.537 273.08 133.841 273.902 130.967 271.847C128.092 269.792 131.378 269.381 131.378 269.381" stroke="black" stroke-width="1.6" stroke-linecap="round" stroke-linejoin="round"/>
<path d="M167.924 205.673C167.924 205.673 173.867 200.096 175.384 192.136C175.56 191.21 175.894 190.321 176.371 189.508C177.882 186.929 181.165 181.656 182.643 181.838C184.595 182.079 179.832 188.41 179.832 188.41C179.832 188.41 181.927 191.1 182.296 192.931C182.665 194.763 182.107 195.662 179.907 197.864C176.622 201.152 175.726 206.084 175.726 206.084L167.924 205.673Z" fill="#F9C1BB"/>
<mask id="mask25_602_678" style="mask-type:luminance" maskUnits="userSpaceOnUse" x="167" y="181" width="17" height="26">
<path fill-rule="evenodd" clip-rule="evenodd" d="M167.924 205.673C167.924 205.673 173.867 200.096 175.384 192.136C175.56 191.21 175.894 190.321 176.371 189.508C177.882 186.929 181.165 181.656 182.643 181.838C184.595 182.079 179.832 188.41 179.832 188.41C179.832 188.41 181.927 191.1 182.296 192.931C182.665 194.763 182.107 195.662 179.907 197.864C176.622 201.152 175.726 206.084 175.726 206.084L167.924 205.673Z" fill="white"/>
</mask>
<g mask="url(#mask25_602_678)">
<path d="M174.575 195.883C179.182 200.494 179.758 196.459 182.061 197.612C184.365 198.765 183.213 198.189 183.213 198.189L179.569 202.269L178.606 202.8L173.999 195.883" fill="url(#paint2_linear_602_678)"/>
</g>
<path fill-rule="evenodd" clip-rule="evenodd" d="M167.924 205.673C167.924 205.673 173.867 200.096 175.384 192.136C175.56 191.21 175.894 190.321 176.371 189.508C177.882 186.929 181.165 181.656 182.643 181.838C184.595 182.079 179.832 188.41 179.832 188.41C179.832 188.41 181.927 191.1 182.296 192.931C182.665 194.763 182.107 195.662 179.907 197.864C176.622 201.152 175.726 206.084 175.726 206.084L167.924 205.673Z" stroke="black" stroke-width="1.6" stroke-linecap="round" stroke-linejoin="round"/>
<path d="M173.709 195.574C178.218 197.25 179.832 201.152 179.832 201.152C179.832 201.152 175.352 216.947 172.067 221.879C168.782 226.812 158.516 240.375 158.516 240.375L131.414 230.922C131.414 230.922 158.105 220.235 161.39 215.714C164.675 211.193 173.709 195.574 173.709 195.574Z" fill="#1A80FD"/>
<mask id="mask26_602_678" style="mask-type:luminance" maskUnits="userSpaceOnUse" x="131" y="195" width="49" height="46">
<path fill-rule="evenodd" clip-rule="evenodd" d="M173.709 195.574C178.217 197.25 179.832 201.152 179.832 201.152C179.832 201.152 175.352 216.947 172.067 221.879C168.782 226.812 158.516 240.375 158.516 240.375L131.414 230.922C131.414 230.922 158.105 220.235 161.39 215.714C164.675 211.193 173.709 195.574 173.709 195.574Z" fill="white"/>
</mask>
<g mask="url(#mask26_602_678)">
<path d="M140.685 231.403C155.072 230.774 159.743 238.726 168.564 226.85C177.385 214.973 171.511 239.801 171.511 239.801L152.827 245.478L140.252 242.006" fill="#1D62FC"/>
</g>
<path fill-rule="evenodd" clip-rule="evenodd" d="M173.709 195.574C178.218 197.25 179.832 201.152 179.832 201.152C179.832 201.152 175.352 216.947 172.067 221.879C168.782 226.812 158.516 240.375 158.516 240.375L131.414 230.922C131.414 230.922 158.105 220.235 161.39 215.714C164.675 211.193 173.709 195.574 173.709 195.574Z" stroke="black" stroke-width="1.6" stroke-linecap="round" stroke-linejoin="round"/>
<path d="M227.233 257.227C227.233 257.227 233.346 253.762 235.601 251.707C235.601 251.707 225.595 223.575 215.271 222.479C210.771 222.001 167.484 241.608 167.484 241.608L175.425 256.816C175.425 256.816 165.893 244.075 170.916 257.638C175.939 271.202 209.393 245.342 212.864 241.843L227.233 257.227Z" fill="#2F387E"/>
<mask id="mask27_602_678" style="mask-type:luminance" maskUnits="userSpaceOnUse" x="167" y="222" width="69" height="40">
<path fill-rule="evenodd" clip-rule="evenodd" d="M227.233 257.227C227.233 257.227 233.346 253.762 235.601 251.707C235.601 251.707 225.595 223.575 215.271 222.479C210.771 222.001 167.484 241.608 167.484 241.608L175.425 256.816C175.425 256.816 165.893 244.075 170.916 257.638C175.939 271.202 209.393 245.342 212.864 241.843L227.233 257.227Z" fill="white"/>
</mask>
<g mask="url(#mask27_602_678)">
<path d="M233.922 243.436L220.015 254.098L226.229 260.393L240.468 253.703L233.031 242.006" fill="#1A80FD"/>
<path d="M233.922 243.436L220.015 254.098L226.229 260.393L240.468 253.703L233.031 242.006" stroke="black" stroke-width="1.6" stroke-linecap="round" stroke-linejoin="round"/>
</g>
<path fill-rule="evenodd" clip-rule="evenodd" d="M227.233 257.227C227.233 257.227 233.346 253.762 235.601 251.707C235.601 251.707 225.595 223.575 215.271 222.479C210.771 222.001 167.484 241.608 167.484 241.608L175.425 256.816C175.425 256.816 165.893 244.075 170.916 257.638C175.939 271.202 209.393 245.342 212.864 241.843L227.233 257.227Z" stroke="black" stroke-width="1.6" stroke-linecap="round" stroke-linejoin="round"/>
<path d="M183.087 250.745C200.001 253.025 225.993 256.504 227.474 256.554C229.681 256.629 269.728 260.004 272.643 260.555C275.558 261.106 276.661 269.261 275.741 270.038C275.741 270.038 230.086 269.209 223.467 268.984C216.848 268.76 160.889 276.096 156.431 264.839C152.952 256.056 168.714 248.802 168.714 248.802" fill="#2F387E"/>
<mask id="mask28_602_678" style="mask-type:luminance" maskUnits="userSpaceOnUse" x="155" y="248" width="122" height="24">
<path fill-rule="evenodd" clip-rule="evenodd" d="M183.087 250.745C200.001 253.025 225.993 256.504 227.474 256.554C229.681 256.629 269.728 260.004 272.643 260.555C275.558 261.106 276.661 269.261 275.741 270.038C275.741 270.038 230.086 269.209 223.467 268.984C216.848 268.76 160.889 276.096 156.431 264.839C152.952 256.056 168.714 248.802 168.714 248.802" fill="white"/>
</mask>
<g mask="url(#mask28_602_678)">
<path d="M171.314 245.708C182.755 247.485 159.478 269.823 187.686 270.106C215.894 270.388 157.111 284.012 157.111 284.012C157.111 284.012 149.813 261.886 150.405 262.09C150.996 262.293 166.47 250.334 166.47 250.334" fill="#111944"/>
<path d="M264.891 257.8C270.365 262.834 268.737 273.792 268.737 273.792L278.797 273.644L275.099 256.763" fill="#1A80FD"/>
<path d="M264.891 257.8C270.365 262.834 268.737 273.792 268.737 273.792L278.797 273.644L275.099 256.763" stroke="black" stroke-width="1.6" stroke-linecap="round" stroke-linejoin="round"/>
<path d="M174.942 253.407C181.649 257.158 177.408 264.86 177.408 264.86L174.942 253.407Z" fill="#2F387E"/>
<path d="M174.942 253.407C181.649 257.158 177.408 264.86 177.408 264.86" stroke="black" stroke-width="1.6" stroke-linecap="round" stroke-linejoin="round"/>
</g>
<path d="M183.087 250.745C200.001 253.025 225.993 256.504 227.474 256.554C229.681 256.629 269.728 260.004 272.643 260.555C275.558 261.106 276.661 269.261 275.741 270.038C275.741 270.038 230.086 269.209 223.467 268.984C216.848 268.76 160.889 276.096 156.431 264.839C152.952 256.056 168.714 248.802 168.714 248.802" stroke="black" stroke-width="1.6" stroke-linecap="round" stroke-linejoin="round"/>
<path d="M147.686 231.317C150.599 232.662 153.273 234.472 155.605 236.676C162.586 243.253 175.726 232.566 175.762 245.308C175.783 252.486 165.497 275.723 154.41 272.024C143.322 268.325 119.095 263.804 119.095 263.804L118.274 249.007L118.237 240.61C118.237 240.61 129.636 230.154 136.795 228.693" fill="#1A80FD"/>
<mask id="mask29_602_678" style="mask-type:luminance" maskUnits="userSpaceOnUse" x="118" y="228" width="58" height="45">
<path fill-rule="evenodd" clip-rule="evenodd" d="M147.686 231.317C150.599 232.662 153.273 234.472 155.605 236.676C162.586 243.253 175.726 232.566 175.762 245.308C175.783 252.486 165.497 275.723 154.41 272.024C143.322 268.325 119.095 263.804 119.095 263.804L118.274 249.007L118.237 240.61C118.237 240.61 129.636 230.154 136.795 228.693" fill="white"/>
</mask>
<g mask="url(#mask29_602_678)">
<path d="M121.946 246.952C125.641 253.528 125.218 260.75 135.484 262.805C145.75 264.86 161.764 276.78 161.764 277.191C161.764 277.602 124.397 281.301 124.397 281.301L109.203 266.093L121.946 246.952Z" fill="#1D62FC"/>
<path d="M131.412 231.306C132.558 233.294 132.354 237.92 128.744 240.006C125.135 242.092 119.487 240.848 118.34 238.86C117.194 236.873 119.191 233.571 122.801 231.485C126.41 229.399 130.266 229.319 131.412 231.306Z" fill="white" stroke="black" stroke-width="1.6" stroke-linecap="round" stroke-linejoin="round"/>
</g>
<path d="M147.686 231.317C150.599 232.662 153.273 234.472 155.605 236.676C162.586 243.253 175.726 232.566 175.762 245.308C175.783 252.486 165.497 275.723 154.41 272.024C143.322 268.325 119.095 263.804 119.095 263.804L118.274 249.007L118.237 240.61C118.237 240.61 129.636 230.154 136.795 228.693" stroke="black" stroke-width="1.6" stroke-linecap="round" stroke-linejoin="round"/>
<path d="M123.402 226.968C124 231.206 127.712 232.867 129.482 233.424C129.734 233.503 129.94 233.688 130.047 233.929C130.153 234.171 130.151 234.447 130.04 234.687C129.28 236.329 127.201 239.352 122.25 239.065C121.742 239.035 121.317 238.671 121.209 238.173C121.007 237.229 120.188 235.512 117.16 233.417C112.505 230.196 123.402 226.968 123.402 226.968Z" fill="#F9C1BB"/>
<mask id="mask30_602_678" style="mask-type:luminance" maskUnits="userSpaceOnUse" x="116" y="226" width="15" height="14">
<path fill-rule="evenodd" clip-rule="evenodd" d="M123.402 226.968C124 231.206 127.712 232.867 129.482 233.424C129.734 233.503 129.94 233.688 130.047 233.929C130.153 234.171 130.151 234.447 130.04 234.687C129.28 236.329 127.201 239.352 122.25 239.065C121.742 239.035 121.317 238.671 121.209 238.173C121.007 237.229 120.188 235.512 117.16 233.417C112.505 230.196 123.402 226.968 123.402 226.968Z" fill="white"/>
</mask>
<g mask="url(#mask30_602_678)">
<ellipse cx="125.519" cy="225.299" rx="7.32263" ry="6.36441" transform="rotate(-60.5495 125.519 225.299)" fill="#ED707B"/>
</g>
<path fill-rule="evenodd" clip-rule="evenodd" d="M123.402 226.968C124 231.206 127.712 232.867 129.482 233.424C129.734 233.503 129.94 233.688 130.047 233.929C130.153 234.171 130.151 234.447 130.04 234.687C129.28 236.329 127.201 239.352 122.25 239.065C121.742 239.035 121.317 238.671 121.209 238.173C121.007 237.229 120.188 235.512 117.16 233.417C112.505 230.196 123.402 226.968 123.402 226.968Z" stroke="black" stroke-width="1.6" stroke-linecap="round" stroke-linejoin="round"/>
<path d="M122.289 231.977C126.092 229.962 128.635 225.689 117.406 216.942L111.712 218.55L110.18 223.975C110.18 223.975 109.237 225.65 109.535 226.267C109.833 226.885 122.25 239.065 122.25 239.065" fill="#F9C1BB"/>
<mask id="mask31_602_678" style="mask-type:luminance" maskUnits="userSpaceOnUse" x="109" y="216" width="17" height="24">
<path fill-rule="evenodd" clip-rule="evenodd" d="M122.289 231.977C126.092 229.962 128.635 225.689 117.406 216.942L111.712 218.55L110.18 223.975C110.18 223.975 109.237 225.65 109.535 226.267C109.833 226.885 122.25 239.065 122.25 239.065" fill="white"/>
</mask>
<g mask="url(#mask31_602_678)">
<ellipse opacity="0.27" cx="123.981" cy="222.583" rx="1.73829" ry="1.32387" transform="rotate(-40.5951 123.981 222.583)" fill="#ED707B"/>
<ellipse opacity="0.27" cx="117.74" cy="227.917" rx="1.73829" ry="1.32387" transform="rotate(-40.5951 117.74 227.917)" fill="#ED707B"/>
<path d="M121.461 222.447C121.345 222.562 121.187 222.626 121.023 222.625C120.859 222.624 120.702 222.558 120.587 222.441L119.854 221.699C119.614 221.456 119.616 221.064 119.859 220.825C120.102 220.585 120.494 220.587 120.733 220.83L121.467 221.573C121.707 221.816 121.704 222.207 121.461 222.447L121.461 222.447Z" fill="black"/>
<path d="M117.949 225.426C117.706 225.666 117.315 225.663 117.075 225.421L116.342 224.678C116.102 224.435 116.105 224.044 116.347 223.804C116.59 223.564 116.982 223.566 117.222 223.809L117.955 224.552C118.195 224.795 118.192 225.186 117.949 225.426Z" fill="black"/>
<path d="M118.947 219.678C120.103 219.054 120.338 219.787 119.641 220.225C118.944 220.662 118.192 220.086 118.947 219.678Z" fill="black"/>
<path d="M115.318 222.705C114.679 223.853 115.304 224.128 115.75 223.436C116.196 222.745 115.736 221.955 115.318 222.705Z" fill="black"/>
<path d="M119.466 224.293C119.723 224.622 119.903 224.271 120.25 223.998C120.597 223.725 120.98 223.635 120.722 223.306C120.442 222.986 119.961 222.942 119.627 223.204C119.292 223.467 119.222 223.945 119.466 224.293Z" fill="#ED707B"/>
<path d="M122.819 224.473C124.294 227.159 121.301 227.987 120.075 226.571C120.013 226.497 120.004 226.392 120.052 226.308C120.253 225.95 120.913 225.002 122.528 224.369C122.638 224.326 122.762 224.37 122.819 224.473Z" fill="#C1525F"/>
<mask id="mask32_602_678" style="mask-type:luminance" maskUnits="userSpaceOnUse" x="120" y="224" width="4" height="4">
<path fill-rule="evenodd" clip-rule="evenodd" d="M122.819 224.473C124.294 227.159 121.301 227.987 120.075 226.571C120.013 226.497 120.004 226.392 120.052 226.308C120.253 225.95 120.913 225.002 122.528 224.369C122.638 224.326 122.762 224.37 122.819 224.473Z" fill="white"/>
</mask>
<g mask="url(#mask32_602_678)">
<ellipse cx="122.206" cy="227.125" rx="1.53538" ry="1.37138" transform="rotate(-20.3372 122.206 227.125)" fill="#993443"/>
<path d="M122.103 224.432C122.226 224.59 122.377 224.815 122.367 224.886C122.302 225.322 120.997 226.175 120.723 226.169C120.647 226.167 120.244 225.666 120.244 225.666L121.851 224.493" fill="white"/>
</g>
</g>
<path d="M122.289 231.977C126.092 229.962 128.635 225.689 117.406 216.942L111.712 218.55L110.18 223.975C110.18 223.975 109.237 225.65 109.535 226.267C109.833 226.885 122.25 239.065 122.25 239.065" stroke="black" stroke-width="1.6" stroke-linecap="round" stroke-linejoin="round"/>
<path d="M113.639 228.78C111.303 225.909 113.226 219.952 117.406 216.942C121.587 213.932 112.574 206.211 108.506 212.138C108.506 212.138 98.3095 214.851 103.372 223.811C103.924 224.789 103.65 226.039 103.095 227.016C102.181 228.623 100.994 230.922 104.799 232.478C106.103 233.011 107.786 232.416 108.458 233.655C109.787 236.106 114.721 237.257 116.003 234.551C118.509 229.262 113.639 228.78 113.639 228.78Z" fill="#2F387E" stroke="black" stroke-width="1.6" stroke-linecap="round" stroke-linejoin="round"/>
<path d="M113.584 228.43L113.993 227.225C113.993 227.225 113.628 221.094 119.053 218.275L117.003 216.527C117.003 216.527 109.279 224.211 112.096 228.042L113.294 228.28L113.584 228.43Z" fill="#FDD504" stroke="black" stroke-width="1.6" stroke-linecap="round" stroke-linejoin="round"/>
<path d="M114.636 226.743C114.636 226.743 111.243 225.695 111.243 227.792C111.243 229.89 116.906 229.976 116.906 229.976" fill="#F9C1BB"/>
<path d="M114.636 226.743C114.636 226.743 111.243 225.695 111.243 227.792C111.243 229.89 116.906 229.976 116.906 229.976" stroke="black" stroke-width="1.6" stroke-linecap="round" stroke-linejoin="round"/>
<path d="M140.001 269.792C143.941 269.489 150.011 269.523 152.141 269.081C153.269 268.847 154.444 269.041 155.437 269.626C160.525 272.622 161.561 272.413 161.561 273.183C161.561 274.005 141.961 274.627 141.961 274.627L139.18 272.669" fill="#F9C1BB"/>
<mask id="mask33_602_678" style="mask-type:luminance" maskUnits="userSpaceOnUse" x="139" y="268" width="23" height="7">
<path fill-rule="evenodd" clip-rule="evenodd" d="M140.001 269.792C143.941 269.489 150.011 269.523 152.141 269.081C153.269 268.847 154.444 269.041 155.437 269.626C160.525 272.622 161.561 272.413 161.561 273.183C161.561 274.005 141.961 274.627 141.961 274.627L139.18 272.669" fill="white"/>
</mask>
<g mask="url(#mask33_602_678)">
<path d="M145.18 268.474C149.396 270.594 147.473 274.441 151.763 274.627C156.054 274.814 143.627 277.036 143.627 277.036L142.739 270.829" fill="#ED707B"/>
</g>
<path d="M140.001 269.792C143.941 269.489 150.011 269.523 152.141 269.081C153.269 268.847 154.444 269.041 155.437 269.626C160.525 272.622 161.561 272.413 161.561 273.183C161.561 274.005 141.961 274.627 141.961 274.627L139.18 272.669" stroke="black" stroke-width="1.6" stroke-linecap="round" stroke-linejoin="round"/>
<path d="M123.563 248.801C124.629 254.746 124.433 261.748 124.433 261.748L146.16 268.325C146.16 268.325 147.803 271.202 147.392 274.901C147.392 274.901 113.31 279.833 111.257 271.613C109.203 263.393 112.899 240.433 118.648 240.61" fill="#1A80FD"/>
<path d="M123.563 248.801C124.629 254.746 124.433 261.748 124.433 261.748L146.16 268.325C146.16 268.325 147.803 271.202 147.392 274.901C147.392 274.901 113.31 279.833 111.257 271.613C109.203 263.393 112.899 240.433 118.648 240.61" stroke="black" stroke-width="1.6" stroke-linecap="round" stroke-linejoin="round"/>
<path d="M108.394 212.254C108.088 212.811 108.113 213.49 108.458 214.023" stroke="black" stroke-width="1.6" stroke-linecap="round" stroke-linejoin="round"/>
<path d="M103.429 223.99C103.682 224.696 104.164 225.297 104.799 225.696" stroke="black" stroke-width="1.6" stroke-linecap="round" stroke-linejoin="round"/>
<path d="M113.423 227.862L113.374 227.936" stroke="black" stroke-width="1.6" stroke-linecap="round" stroke-linejoin="round"/>
<path d="M124.497 261.799C124.166 262.49 123.712 263.115 123.156 263.642" stroke="black" stroke-width="1.6" stroke-linecap="round" stroke-linejoin="round"/>
<path d="M169.909 221.135L171.78 221.641" stroke="black" stroke-width="1.6" stroke-linecap="round" stroke-linejoin="round"/>
<path d="M212.883 239.593C213.047 240.299 212.996 241.039 212.737 241.716" stroke="black" stroke-width="1.6" stroke-linecap="round" stroke-linejoin="round"/>
<path d="M142.723 249.363C142.488 251.342 141.649 253.201 140.321 254.687" stroke="black" stroke-width="1.6" stroke-linecap="round" stroke-linejoin="round"/>
<path d="M284.611 267.528C285.454 268.692 286.525 269.672 287.759 270.409" stroke="black" stroke-width="1.6" stroke-linecap="round" stroke-linejoin="round"/>
<path d="M284.517 267.424L283.35 268.528" stroke="black" stroke-width="1.6" stroke-linecap="round" stroke-linejoin="round"/>
<path d="M238.455 253.802C238.544 254.445 238.71 255.075 238.949 255.678" stroke="black" stroke-width="1.6" stroke-linecap="round" stroke-linejoin="round"/>
<path d="M240.049 253.711C239.654 254.299 239.305 254.916 239.005 255.557" stroke="black" stroke-width="1.6" stroke-linecap="round" stroke-linejoin="round"/>
<path d="M200.917 75.4984C196.326 74.0474 197.144 63.6399 206.137 64.8643C215.131 66.0886 213.549 82.6172 227.601 81.6649C242.197 80.6758 241.219 115.622 221.812 110.844C207.599 107.345 200.917 75.4984 200.917 75.4984Z" fill="#485065"/>
<mask id="mask34_602_678" style="mask-type:luminance" maskUnits="userSpaceOnUse" x="198" y="64" width="40" height="48">
<path fill-rule="evenodd" clip-rule="evenodd" d="M200.917 75.4984C196.326 74.0474 197.144 63.6399 206.137 64.8643C215.131 66.0886 213.549 82.6172 227.601 81.6649C242.197 80.6758 241.219 115.622 221.812 110.844C207.599 107.345 200.917 75.4984 200.917 75.4984Z" fill="white"/>
</mask>
<g mask="url(#mask34_602_678)">
<path d="M230.812 110.91C232.179 102.483 214.472 99.8471 215.789 96.269C217.106 92.691 218.429 88.6604 214.503 87.0551C210.576 85.4499 207.689 94.159 207.689 94.159L206.284 101.161L208.721 106.54L231.119 112.227" fill="#323442"/>
</g>
<path fill-rule="evenodd" clip-rule="evenodd" d="M200.917 75.4984C196.326 74.0474 197.144 63.6399 206.137 64.8643C215.131 66.0886 213.549 82.6172 227.601 81.6649C242.197 80.6758 241.219 115.622 221.812 110.844C207.599 107.345 200.917 75.4984 200.917 75.4984Z" stroke="black" stroke-width="1.6" stroke-linecap="round" stroke-linejoin="round"/>
<path d="M199.184 74.1825C199.184 74.1825 203.755 71.1672 207.689 73.5252L207.213 75.4599L200.405 75.8529L199.184 74.1825Z" fill="#FDD504" stroke="black" stroke-width="1.6" stroke-linecap="round" stroke-linejoin="round"/>
<path d="M172.485 152.008C171.534 148.172 156.687 97.8288 206.459 97.9822C256.231 98.1357 237.584 156.141 237.584 156.141L172.485 152.008Z" fill="#FDD504"/>
<mask id="mask35_602_678" style="mask-type:luminance" maskUnits="userSpaceOnUse" x="169" y="97" width="73" height="60">
<path fill-rule="evenodd" clip-rule="evenodd" d="M172.485 152.008C171.534 148.172 156.687 97.8288 206.459 97.9822C256.231 98.1357 237.584 156.141 237.584 156.141L172.485 152.008Z" fill="white"/>
</mask>
<g mask="url(#mask35_602_678)">
<ellipse cx="205.499" cy="98.6063" rx="12.803" ry="9.37756" fill="white" stroke="black" stroke-width="1.6" stroke-linecap="round" stroke-linejoin="round"/>
<ellipse cx="205.499" cy="98.6063" rx="9.5455" ry="6.99163" fill="#F9C1BB"/>
<mask id="mask36_602_678" style="mask-type:luminance" maskUnits="userSpaceOnUse" x="195" y="91" width="21" height="15">
<ellipse cx="205.499" cy="98.6063" rx="9.5455" ry="6.99163" fill="white"/>
</mask>
<g mask="url(#mask36_602_678)">
<ellipse cx="199.964" cy="98.1839" rx="11.7699" ry="5.71369" fill="#ED707B"/>
</g>
<ellipse cx="205.499" cy="98.6063" rx="9.5455" ry="6.99163" stroke="black" stroke-width="1.6" stroke-linecap="round" stroke-linejoin="round"/>
<path d="M230.352 117.345C230.276 120.385 228.849 129.165 228.849 129.165L231.185 122.935L230.352 117.345Z" fill="#FDD504" stroke="black" stroke-width="1.6" stroke-linecap="round" stroke-linejoin="round"/>
<path d="M147.774 139.643C158.812 131.586 169.798 134.076 174.949 138.735C180.099 143.394 181.971 141.663 181.971 141.663L225.038 143.248C225.038 143.248 230.532 136.96 236.076 137.724C241.619 138.488 247.963 133.427 249.071 133.837C250.179 134.246 252.51 141.663 252.51 141.663L249.687 147.954L225.855 162.235L187.451 163.912L147.774 139.643Z" fill="#FDD504" stroke="black" stroke-width="1.6" stroke-linecap="round" stroke-linejoin="round"/>
</g>
<path fill-rule="evenodd" clip-rule="evenodd" d="M172.485 152.008C171.534 148.172 156.687 97.8288 206.459 97.9822C256.231 98.1357 237.584 156.141 237.584 156.141L172.485 152.008Z" stroke="black" stroke-width="1.6" stroke-linecap="round" stroke-linejoin="round"/>
<path d="M205.23 104.809C204.979 111.14 193.571 113.394 191.131 99.633C191.131 99.633 198.096 95.783 198.211 97.6857C198.577 103.757 205.23 104.809 205.23 104.809Z" fill="white" stroke="black" stroke-width="1.6" stroke-linecap="round" stroke-linejoin="round"/>
<path d="M205.17 104.809C205.422 111.14 216.347 112.967 219.81 99.7607C219.81 99.7607 212.305 95.783 212.19 97.6857C211.823 103.757 205.17 104.809 205.17 104.809Z" fill="white" stroke="black" stroke-width="1.6" stroke-linecap="round" stroke-linejoin="round"/>
<path d="M164.586 143.913C169.338 139.616 174.746 135.117 181.971 141.663C189.196 148.209 191.312 144.169 196.837 149.13C201.696 153.492 196.267 164.331 198.265 162.235C200.264 160.139 211.412 146.066 221.308 146.215C228.104 146.317 233.894 141.844 234.28 141.663C234.666 141.482 237.668 149.437 237.668 149.437L229.586 157.876L207.204 168.771L184.669 160.485L164.586 143.913Z" fill="#FDD504" stroke="black" stroke-width="1.6" stroke-linecap="round" stroke-linejoin="round"/>
<path d="M208.708 138.999C208.552 140.547 206.989 141.695 205.207 141.662C203.425 141.63 201.907 140.427 201.81 138.875C201.706 137.2 203.274 135.771 205.319 135.808C207.365 135.845 208.877 137.329 208.708 138.999Z" fill="#F9C1BB" stroke="black" stroke-width="1.6" stroke-linecap="round" stroke-linejoin="round"/>
<path d="M244.675 166.726L248.436 166.207C248.436 166.207 255.102 174.33 237.668 177.814L244.675 166.726Z" fill="#485065" stroke="black" stroke-width="1.6" stroke-linecap="round" stroke-linejoin="round"/>
<path d="M239.629 165.716C242.873 165.464 245.652 165.371 247.106 165.601C251.981 166.371 247.394 175.93 237.668 177.814C237.668 177.814 244.121 169.255 239.629 165.716Z" fill="white" stroke="black" stroke-width="1.6" stroke-linecap="round" stroke-linejoin="round"/>
<path d="M219.948 168.056C219.948 168.056 231.318 166.363 239.629 165.716C244.121 169.255 237.668 177.814 237.668 177.814C237.05 177.934 236.426 178.021 235.799 178.073C224.809 178.994 215.407 178.048 214.136 177.058C212.864 176.069 219.948 168.056 219.948 168.056Z" fill="#485065" stroke="black" stroke-width="1.6" stroke-linecap="round" stroke-linejoin="round"/>
<path d="M212.555 162.235C218.307 165.912 222.061 168.465 222.061 168.465C224.187 171.209 223.343 173.633 222.185 175.238C221.229 176.537 219.673 177.254 218.064 177.136C215.699 176.975 213.327 176.753 210.962 176.475C211.816 172.556 212.922 166.412 212.555 162.235Z" fill="#F9C1BB" stroke="black" stroke-width="1.6" stroke-linecap="round" stroke-linejoin="round"/>
<path d="M154.219 137.367C159.808 129.886 195.236 151.161 212.555 162.235C212.922 166.412 211.816 172.556 210.962 176.475C175.251 172.27 140.984 155.083 154.219 137.367Z" fill="#1AB995"/>
<mask id="mask37_602_678" style="mask-type:luminance" maskUnits="userSpaceOnUse" x="151" y="135" width="62" height="42">
<path fill-rule="evenodd" clip-rule="evenodd" d="M154.219 137.367C159.808 129.886 195.236 151.161 212.555 162.235C212.922 166.412 211.816 172.556 210.962 176.475C175.251 172.27 140.984 155.083 154.219 137.367Z" fill="white"/>
</mask>
<g mask="url(#mask37_602_678)">
<path d="M155.95 165.716C164.459 162.852 167.143 161.048 185.793 165.469C191.338 166.784 200.988 156.106 206.166 153.973C211.343 151.841 214.645 165.469 214.645 165.469L197.751 173.323L185.997 174.756L161.133 171.642L155.95 165.716Z" fill="#0FA379"/>
<ellipse cx="152.82" cy="139.567" rx="7.69181" ry="7.69907" fill="#0FA379"/>
</g>
<path fill-rule="evenodd" clip-rule="evenodd" d="M154.219 137.367C159.808 129.886 195.236 151.161 212.555 162.235C212.922 166.412 211.816 172.556 210.962 176.475C175.251 172.27 140.984 155.083 154.219 137.367Z" stroke="black" stroke-width="1.6" stroke-linecap="round" stroke-linejoin="round"/>
<ellipse cx="205.23" cy="89.3506" rx="9.41509" ry="13.1954" fill="#F9C1BB"/>
<ellipse cx="205.23" cy="89.3506" rx="9.41509" ry="13.1954" stroke="black" stroke-width="1.6" stroke-linecap="round" stroke-linejoin="round"/>
<path d="M196.502 87.8498C191.068 85.3148 189.882 89.3657 192.38 92.691C194.254 95.185 196.338 94.8562 197.263 94.536" fill="#F9C1BB"/>
<path d="M196.502 87.8498C191.068 85.3148 189.882 89.3657 192.38 92.691C194.254 95.185 196.338 94.8562 197.263 94.536" stroke="black" stroke-width="1.6" stroke-linecap="round" stroke-linejoin="round"/>
<path d="M212.983 87.8498C218.417 85.3148 219.604 89.3657 217.105 92.691C215.503 94.8236 213.747 94.8922 212.693 94.6671" fill="#F9C1BB"/>
<path d="M212.983 87.8498C218.417 85.3148 219.604 89.3657 217.105 92.691C215.503 94.8236 213.747 94.8922 212.693 94.6671" stroke="black" stroke-width="1.6" stroke-linecap="round" stroke-linejoin="round"/>
<path d="M202.466 81.5966C201.061 92.2073 194.784 90.5749 194.784 90.5749C194.784 90.5749 191.131 74.8855 204.621 75.0669C218.111 75.2483 214.645 89.3506 214.645 89.3506C214.645 89.3506 203.965 89.5773 202.466 81.5966Z" fill="#485065" stroke="black" stroke-width="1.6" stroke-linecap="round" stroke-linejoin="round"/>
<path d="M166.145 166.726L162.385 166.207C162.385 166.207 155.719 174.33 173.152 177.814L166.145 166.726Z" fill="#485065" stroke="black" stroke-width="1.6" stroke-linecap="round" stroke-linejoin="round"/>
<path d="M171.192 165.716C167.947 165.464 165.168 165.371 163.715 165.601C158.839 166.371 163.426 175.93 173.152 177.814C173.152 177.814 166.699 169.255 171.192 165.716Z" fill="white" stroke="black" stroke-width="1.6" stroke-linecap="round" stroke-linejoin="round"/>
<path d="M190.872 168.056C190.872 168.056 179.503 166.363 171.192 165.716C166.699 169.255 173.152 177.814 173.152 177.814C173.77 177.934 174.394 178.021 175.022 178.073C186.012 178.994 195.413 178.048 196.684 177.058C197.956 176.069 190.872 168.056 190.872 168.056Z" fill="#485065" stroke="black" stroke-width="1.6" stroke-linecap="round" stroke-linejoin="round"/>
<path d="M198.265 162.235C192.514 165.912 188.759 168.465 188.759 168.465C186.633 171.209 187.477 173.633 188.635 175.238C189.591 176.537 191.148 177.254 192.756 177.136C195.121 176.975 197.493 176.753 199.859 176.475C199.005 172.556 197.898 166.412 198.265 162.235Z" fill="#F9C1BB"/>
<mask id="mask38_602_678" style="mask-type:luminance" maskUnits="userSpaceOnUse" x="187" y="162" width="13" height="16">
<path fill-rule="evenodd" clip-rule="evenodd" d="M198.265 162.235C192.514 165.912 188.759 168.465 188.759 168.465C186.633 171.209 187.477 173.633 188.635 175.238C189.591 176.537 191.148 177.254 192.756 177.136C195.121 176.975 197.493 176.753 199.859 176.475C199.005 172.556 197.898 166.412 198.265 162.235Z" fill="white"/>
</mask>
<g mask="url(#mask38_602_678)">
<path d="M189.472 166.879C188.961 172.096 193.458 177.722 197.546 175.881C201.634 174.039 195.612 163.013 198.265 162.235C200.918 161.457 202.656 178.448 202.656 178.448C202.656 178.448 201.532 178.95 200.51 179.359C199.488 179.768 189.983 179.768 189.983 179.768L184.771 172.01L185.793 165.469L190.872 168.056" fill="#ED707B"/>
</g>
<path fill-rule="evenodd" clip-rule="evenodd" d="M198.265 162.235C192.514 165.912 188.759 168.465 188.759 168.465C186.633 171.209 187.477 173.633 188.635 175.238C189.591 176.537 191.148 177.254 192.756 177.136C195.121 176.975 197.493 176.753 199.859 176.475C199.005 172.556 197.898 166.412 198.265 162.235Z" stroke="black" stroke-width="1.6" stroke-linecap="round" stroke-linejoin="round"/>
<path d="M256.601 137.367C251.012 129.886 215.584 151.161 198.265 162.235C197.898 166.412 199.005 172.556 199.859 176.475C235.569 172.27 269.836 155.083 256.601 137.367Z" fill="#1AB995"/>
<mask id="mask39_602_678" style="mask-type:luminance" maskUnits="userSpaceOnUse" x="198" y="135" width="62" height="42">
<path fill-rule="evenodd" clip-rule="evenodd" d="M256.601 137.367C251.012 129.886 215.584 151.161 198.265 162.235C197.898 166.412 199.005 172.556 199.859 176.475C235.569 172.27 269.836 155.083 256.601 137.367Z" fill="white"/>
</mask>
<g mask="url(#mask39_602_678)">
<path d="M227.601 142.634C234.645 143.453 250.133 134.525 254.726 136.992C259.319 139.459 264.28 143.101 261.827 152.103C259.374 161.105 262.852 156.141 262.852 156.141L264.283 135.808L246.437 125.391L227.601 142.634Z" fill="#0FA379"/>
<ellipse cx="260.939" cy="139.567" rx="8.58063" ry="9.36639" fill="#0FA379"/>
<path d="M202.42 157.647C201.072 164.048 205.347 178.448 205.347 178.448L196.837 179.251L194.267 159.409" fill="#1A80FD"/>
<path d="M202.42 157.647C201.072 164.048 205.347 178.448 205.347 178.448L196.837 179.251L194.267 159.409" stroke="black" stroke-width="1.6" stroke-linecap="round" stroke-linejoin="round"/>
</g>
<path fill-rule="evenodd" clip-rule="evenodd" d="M256.601 137.367C251.012 129.886 215.584 151.161 198.265 162.235C197.898 166.412 199.005 172.556 199.859 176.475C235.569 172.27 269.836 155.083 256.601 137.367Z" stroke="black" stroke-width="1.6" stroke-linecap="round" stroke-linejoin="round"/>
<path d="M180.095 102.144V117.302L206.475 124.196L180.095 102.144Z" fill="white" stroke="black" stroke-width="1.6" stroke-linecap="round" stroke-linejoin="round"/>
<path d="M176.036 102.144V115.927L205.17 124.196L176.036 102.144Z" fill="white" stroke="black" stroke-width="1.6" stroke-linecap="round" stroke-linejoin="round"/>
<path d="M172.485 104.079V130.236L208.577 142.839L203.576 123.459L172.485 104.079Z" fill="white" stroke="black" stroke-width="1.6" stroke-linecap="round" stroke-linejoin="round"/>
<path d="M230.318 102.144V117.302L203.938 124.196L230.318 102.144Z" fill="white" stroke="black" stroke-width="1.6" stroke-linecap="round" stroke-linejoin="round"/>
<path d="M234.377 102.144V115.927L205.243 124.196L234.377 102.144Z" fill="white" stroke="black" stroke-width="1.6" stroke-linecap="round" stroke-linejoin="round"/>
<path d="M237.928 104.079V130.236L201.837 142.839L206.837 123.459L237.928 104.079Z" fill="white" stroke="black" stroke-width="1.6" stroke-linecap="round" stroke-linejoin="round"/>
<path d="M170.304 109.294L168.354 104.14L169.074 104.079L201.184 122.411L201.837 124.196L170.304 109.294Z" fill="#FDD504" stroke="black" stroke-width="1.6" stroke-linecap="round" stroke-linejoin="round"/>
<path d="M201.547 121.453L201.184 121.657L203.179 124.614L211.625 123.459L212.055 121.004L211.867 120.824C211.867 120.824 207.266 123.554 201.547 121.453Z" fill="#FDD504" stroke="black" stroke-width="1.6" stroke-linecap="round" stroke-linejoin="round"/>
<path d="M211.075 124.196L212.055 122.262L241.847 107.836L242.059 108.237L221.041 122.719L211.075 124.196Z" fill="#FDD504" stroke="black" stroke-width="1.6" stroke-linecap="round" stroke-linejoin="round"/>
<path d="M168.354 104.14L170.45 141.663L201.184 156.332V123.035L168.354 104.14Z" fill="#FDD504"/>
<mask id="mask40_602_678" style="mask-type:luminance" maskUnits="userSpaceOnUse" x="168" y="104" width="34" height="53">
<path fill-rule="evenodd" clip-rule="evenodd" d="M168.354 104.14L170.45 141.663L201.184 156.332V123.035L168.354 104.14Z" fill="white"/>
</mask>
<g mask="url(#mask40_602_678)">
<ellipse cx="170.456" cy="133.211" rx="4.91107" ry="5.96601" fill="#FCB006"/>
</g>
<path fill-rule="evenodd" clip-rule="evenodd" d="M168.354 104.14L170.45 141.663L201.184 156.332V123.035L168.354 104.14V104.14Z" stroke="black" stroke-width="1.6" stroke-linecap="round" stroke-linejoin="round"/>
<path d="M212.055 122.818L242.059 108.237V142.839L212.055 156.332V122.818Z" fill="#FDD504"/>
<mask id="mask41_602_678" style="mask-type:luminance" maskUnits="userSpaceOnUse" x="212" y="108" width="31" height="49">
<path fill-rule="evenodd" clip-rule="evenodd" d="M212.055 122.818L242.059 108.237V142.839L212.055 156.332V122.818Z" fill="white"/>
</mask>
<g mask="url(#mask41_602_678)">
<ellipse cx="241.857" cy="130.866" rx="5.19898" ry="5.20389" fill="#FCB006"/>
<path d="M215.045 126.582L237.928 115.829V120.824L215.045 131.902V126.582Z" fill="#485065" stroke="black" stroke-width="1.6" stroke-linecap="round" stroke-linejoin="round"/>
</g>
<path fill-rule="evenodd" clip-rule="evenodd" d="M212.055 122.818L242.059 108.237V142.839L212.055 156.332V122.818V122.818Z" stroke="black" stroke-width="1.6" stroke-linecap="round" stroke-linejoin="round"/>
<path d="M201.184 121.657C201.184 121.657 206.04 124.776 212.055 121.004V157.13C212.055 157.13 205.315 159.379 201.184 157.13V121.657Z" fill="#FDD504" stroke="black" stroke-width="1.6" stroke-linecap="round" stroke-linejoin="round"/>
<ellipse cx="170.787" cy="131.327" rx="4.58016" ry="5.66474" fill="#F9C1BB" stroke="black" stroke-width="1.6" stroke-linecap="round" stroke-linejoin="round"/>
<ellipse cx="240.682" cy="128.369" rx="4.58016" ry="5.66474" fill="#F9C1BB" stroke="black" stroke-width="1.6" stroke-linecap="round" stroke-linejoin="round"/>
<ellipse cx="205.06" cy="110.789" rx="0.82829" ry="0.82907" fill="black"/>
<ellipse cx="205.06" cy="115.59" rx="0.82829" ry="0.82907" fill="black"/>
<rect x="203.938" y="127.062" width="4.7825" height="27.0969" fill="#FDD504" stroke="black" stroke-width="1.6" stroke-linecap="round" stroke-linejoin="round"/>
<path d="M207.474 78.2593C207.434 78.9845 207.611 79.7052 207.983 80.3288" stroke="black" stroke-width="1.6" stroke-linecap="round" stroke-linejoin="round"/>
<path d="M226.118 89.2242C226.758 89.8155 227.237 90.5601 227.51 91.3878" stroke="black" stroke-width="1.6" stroke-linecap="round" stroke-linejoin="round"/>
<path d="M185.427 133.902C186.727 135.206 188.215 136.309 189.84 137.174" stroke="black" stroke-width="1.6" stroke-linecap="round" stroke-linejoin="round"/>
<path d="M226.918 156.557L223.549 158.102" stroke="black" stroke-width="1.6" stroke-linecap="round" stroke-linejoin="round"/>
<path d="M201.595 38.502L200.937 38.1493L206.506 27.741L206.897 28.592L201.595 38.502Z" fill="#FDD504" stroke="black" stroke-width="1.6" stroke-linecap="round" stroke-linejoin="round"/>
<path d="M198.18 48.2075L201.664 39.4079L200.146 38.5938L194.759 46.3738C194.456 46.7181 194.287 47.1606 194.284 47.6197C194.264 48.288 194.578 48.9225 195.12 49.3129C195.65 49.6851 196.329 49.7757 196.938 49.5557C197.547 49.3356 198.01 48.8325 198.18 48.2075V48.2075Z" fill="#FDD504"/>
<mask id="mask42_602_678" style="mask-type:luminance" maskUnits="userSpaceOnUse" x="194" y="38" width="8" height="12">
<path fill-rule="evenodd" clip-rule="evenodd" d="M198.18 48.2075L201.664 39.4079L200.146 38.5938L194.759 46.3738C194.456 46.7181 194.287 47.1606 194.284 47.6197C194.264 48.288 194.578 48.9225 195.12 49.3129C195.65 49.6851 196.329 49.7757 196.938 49.5557C197.547 49.3356 198.01 48.8325 198.18 48.2075V48.2075Z" fill="white"/>
</mask>
<g mask="url(#mask42_602_678)">
<path d="M195.603 39.8354C197.939 42.8418 202.876 39.3475 202.876 39.3475L199.47 37.522L195.652 38.1068L194.557 40.152" fill="#FCB006"/>
</g>
<path fill-rule="evenodd" clip-rule="evenodd" d="M198.18 48.2075L201.664 39.4079L200.146 38.5938L194.759 46.3738C194.456 46.7181 194.287 47.1606 194.284 47.6197C194.264 48.288 194.578 48.9225 195.12 49.3129C195.65 49.6851 196.329 49.7757 196.938 49.5557C197.547 49.3356 198.01 48.8325 198.18 48.2075V48.2075Z" stroke="black" stroke-width="1.6" stroke-linecap="round" stroke-linejoin="round"/>
<ellipse cx="201.266" cy="38.3257" rx="1.78302" ry="1.7847" fill="#E43334"/>
<mask id="mask43_602_678" style="mask-type:luminance" maskUnits="userSpaceOnUse" x="199" y="36" width="5" height="5">
<ellipse cx="201.266" cy="38.3257" rx="1.78302" ry="1.7847" fill="white"/>
</mask>
<g mask="url(#mask43_602_678)">
<path d="M202.814 36.2241C202.873 40.9451 198.218 39.0014 198.218 39.0014L202.649 42.48L204.82 38.6789" fill="#C11F27"/>
</g>
<ellipse cx="201.266" cy="38.3257" rx="1.78302" ry="1.7847" stroke="black" stroke-width="1.6" stroke-linecap="round" stroke-linejoin="round"/>
<path d="M214.621 29.2257L208.981 39.7677L206.211 44.9449C206.161 48.1104 208.134 51.7966 211.538 55.0594C215.477 58.7574 220.32 61.3536 225.581 62.5869C230.181 63.6147 234.34 63.2152 236.944 61.4191L239.714 56.2419L245.354 45.7L214.621 29.2257Z" fill="#232C3F"/>
<path d="M222.845 47.7412L202.553 28.0294C200.739 26.267 202.309 23.2196 204.796 23.6778L232.784 28.8356C233.861 29.0343 234.85 29.5643 235.612 30.3519L255.414 50.811C257.173 52.6286 255.509 55.6261 253.038 55.0914L225.4 49.1106C224.437 48.9022 223.552 48.4278 222.845 47.7412Z" fill="#485065"/>
<mask id="mask44_602_678" style="mask-type:luminance" maskUnits="userSpaceOnUse" x="201" y="23" width="56" height="33">
<path fill-rule="evenodd" clip-rule="evenodd" d="M222.845 47.7412L202.553 28.0294C200.739 26.267 202.309 23.2196 204.796 23.6778L232.784 28.8356C233.861 29.0343 234.85 29.5643 235.612 30.3519L255.414 50.811C257.173 52.6286 255.509 55.6261 253.038 55.0914L225.4 49.1106C224.437 48.9022 223.552 48.4278 222.845 47.7412Z" fill="white"/>
</mask>
<g mask="url(#mask44_602_678)">
<path d="M229.751 26.9258C199.589 24.335 214.526 39.5103 222.845 47.7412C231.164 55.9722 191.448 35.087 191.448 35.087L200.213 20.0773L207.22 18.3118" fill="#232C3F"/>
</g>
<path fill-rule="evenodd" clip-rule="evenodd" d="M222.845 47.7412L202.553 28.0294C200.739 26.267 202.309 23.2196 204.796 23.6778L232.784 28.8356C233.861 29.0343 234.85 29.5643 235.612 30.3519L255.414 50.811C257.173 52.6286 255.509 55.6261 253.038 55.0914L225.4 49.1106C224.437 48.9022 223.552 48.4278 222.845 47.7412Z" stroke="black" stroke-width="1.6" stroke-linecap="round" stroke-linejoin="round"/>
<path d="M234.004 58.0464C232.556 58.1754 231.098 58.1345 229.66 57.9245" stroke="black" stroke-width="1.6" stroke-linecap="round" stroke-linejoin="round"/>
<path d="M224.098 35.3443C226.25 35.4635 228.384 35.8056 230.465 36.365" stroke="black" stroke-width="1.6" stroke-linecap="round" stroke-linejoin="round"/>
</g>
<defs>
<linearGradient id="paint0_linear_602_678" x1="271.66" y1="270.629" x2="286.819" y2="270.629" gradientUnits="userSpaceOnUse">
<stop stop-color="#FFA58E"/>
<stop offset="1" stop-color="#FF8167"/>
</linearGradient>
<linearGradient id="paint1_linear_602_678" x1="226.177" y1="260.889" x2="233.025" y2="260.889" gradientUnits="userSpaceOnUse">
<stop stop-color="#FFA58E"/>
<stop offset="1" stop-color="#FF8167"/>
</linearGradient>
<linearGradient id="paint2_linear_602_678" x1="173.999" y1="202.8" x2="183.501" y2="202.8" gradientUnits="userSpaceOnUse">
<stop stop-color="#FFA58E"/>
<stop offset="1" stop-color="#FF8167"/>
</linearGradient>
</defs>
</svg>
