<svg width="400" height="300" viewBox="0 0 400 300" fill="none" xmlns="http://www.w3.org/2000/svg">
<mask id="mask0_602_451" style="mask-type:luminance" maskUnits="userSpaceOnUse" x="0" y="0" width="400" height="300">
<rect width="400" height="300" fill="white"/>
</mask>
<g mask="url(#mask0_602_451)">
<path fill-rule="evenodd" clip-rule="evenodd" d="M311.166 194.019H321.298H324.212L321.824 209.476H313.554L311.166 194.019ZM311.691 194.522L313.924 208.973H315.322L314.121 194.522H311.691ZM315.765 208.973L314.564 194.522H320.814L319.613 208.973H315.765ZM320.056 208.973H321.454L323.687 194.522H321.257L320.056 208.973Z" fill="#FCB006"/>
<path d="M311.166 194.019V193.219C310.932 193.219 310.711 193.321 310.559 193.498C310.407 193.675 310.34 193.91 310.375 194.141L311.166 194.019ZM324.212 194.019L325.003 194.141C325.038 193.91 324.971 193.675 324.819 193.498C324.667 193.321 324.446 193.219 324.212 193.219V194.019ZM321.824 209.476V210.276C322.218 210.276 322.554 209.988 322.614 209.598L321.824 209.476ZM313.554 209.476L312.764 209.598C312.824 209.988 313.16 210.276 313.554 210.276V209.476ZM313.924 208.973L313.134 209.095C313.194 209.485 313.53 209.773 313.924 209.773V208.973ZM311.691 194.522V193.722C311.458 193.722 311.236 193.824 311.084 194.001C310.932 194.178 310.865 194.413 310.901 194.644L311.691 194.522ZM315.322 208.973V209.773C315.546 209.773 315.759 209.679 315.911 209.515C316.062 209.35 316.138 209.13 316.119 208.907L315.322 208.973ZM314.121 194.522L314.918 194.455C314.884 194.041 314.537 193.722 314.121 193.722V194.522ZM314.564 194.522V193.722C314.341 193.722 314.127 193.815 313.976 193.98C313.824 194.144 313.748 194.365 313.767 194.588L314.564 194.522ZM315.765 208.973L314.968 209.039C315.002 209.454 315.349 209.773 315.765 209.773V208.973ZM320.814 194.522L321.611 194.588C321.63 194.365 321.554 194.144 321.402 193.98C321.251 193.815 321.037 193.722 320.814 193.722V194.522ZM319.613 208.973V209.773C320.029 209.773 320.375 209.454 320.41 209.039L319.613 208.973ZM321.454 208.973V209.773C321.848 209.773 322.184 209.485 322.244 209.095L321.454 208.973ZM320.056 208.973L319.258 208.907C319.24 209.13 319.316 209.35 319.467 209.515C319.618 209.679 319.832 209.773 320.056 209.773V208.973ZM323.687 194.522L324.477 194.644C324.513 194.413 324.446 194.178 324.294 194.001C324.142 193.824 323.92 193.722 323.687 193.722V194.522ZM321.257 194.522V193.722C320.841 193.722 320.494 194.041 320.459 194.455L321.257 194.522ZM321.298 193.219H311.166V194.819H321.298V193.219ZM324.212 193.219H321.298V194.819H324.212V193.219ZM322.614 209.598L325.003 194.141L323.421 193.897L321.033 209.354L322.614 209.598ZM313.554 210.276H321.824V208.676H313.554V210.276ZM310.375 194.141L312.764 209.598L314.345 209.354L311.957 193.897L310.375 194.141ZM314.715 208.851L312.482 194.399L310.901 194.644L313.134 209.095L314.715 208.851ZM315.322 208.173H313.924V209.773H315.322V208.173ZM313.324 194.588L314.525 209.039L316.119 208.907L314.918 194.455L313.324 194.588ZM311.691 195.322H314.121V193.722H311.691V195.322ZM313.767 194.588L314.968 209.039L316.562 208.907L315.361 194.455L313.767 194.588ZM320.814 193.722H314.564V195.322H320.814V193.722ZM320.41 209.039L321.611 194.588L320.016 194.455L318.815 208.907L320.41 209.039ZM315.765 209.773H319.613V208.173H315.765V209.773ZM321.454 208.173H320.056V209.773H321.454V208.173ZM322.896 194.399L320.663 208.851L322.244 209.095L324.477 194.644L322.896 194.399ZM321.257 195.322H323.687V193.722H321.257V195.322ZM320.853 209.039L322.054 194.588L320.459 194.455L319.258 208.907L320.853 209.039Z" fill="black"/>
<path d="M317.689 108.639C237.73 108.639 311.15 193.588 311.15 193.588H324.228C324.228 193.588 397.648 108.639 317.689 108.639Z" fill="#1AB995"/>
<mask id="mask1_602_451" style="mask-type:luminance" maskUnits="userSpaceOnUse" x="280" y="108" width="76" height="86">
<path fill-rule="evenodd" clip-rule="evenodd" d="M317.689 108.639C237.73 108.639 311.15 193.588 311.15 193.588H324.228C324.228 193.588 397.648 108.639 317.689 108.639Z" fill="white"/>
</mask>
<g mask="url(#mask1_602_451)">
<path d="M354.554 123.44C357.894 125.699 359.554 129.739 358.768 133.693C362.572 131.209 364.225 126.475 362.795 122.163C361.365 117.852 357.211 115.044 352.677 115.325C348.143 115.606 344.367 118.905 343.48 123.361C346.85 121.152 351.217 121.184 354.554 123.44Z" fill="#FDD504" stroke="black" stroke-width="1.6" stroke-linecap="round" stroke-linejoin="round"/>
<path d="M283.49 156.548C286.83 158.807 288.491 162.847 287.704 166.801C291.508 164.317 293.161 159.583 291.731 155.271C290.301 150.96 286.147 148.152 281.613 148.433C277.079 148.714 273.303 152.013 272.416 156.469C275.786 154.26 280.153 154.292 283.49 156.548Z" fill="#FDD504" stroke="black" stroke-width="1.6" stroke-linecap="round" stroke-linejoin="round"/>
</g>
<path fill-rule="evenodd" clip-rule="evenodd" d="M317.689 108.639C237.73 108.639 311.15 193.588 311.15 193.588H324.228C324.228 193.588 397.648 108.639 317.689 108.639Z" stroke="black" stroke-width="1.6" stroke-linecap="round" stroke-linejoin="round"/>
<path d="M317.689 108.639C264.565 108.639 313.344 193.588 313.344 193.588H322.034C322.034 193.588 370.813 108.639 317.689 108.639Z" fill="white"/>
<mask id="mask2_602_451" style="mask-type:luminance" maskUnits="userSpaceOnUse" x="292" y="108" width="51" height="86">
<path fill-rule="evenodd" clip-rule="evenodd" d="M317.689 108.639C264.565 108.639 313.344 193.588 313.344 193.588H322.034C322.034 193.588 370.813 108.639 317.689 108.639Z" fill="white"/>
</mask>
<g mask="url(#mask2_602_451)">
<path d="M297.668 115.285L300.854 121.747L307.977 122.783L302.822 127.812L304.039 134.914L297.668 131.561L291.297 134.914L292.514 127.812L287.36 122.783L294.483 121.747L297.668 115.285Z" fill="#FDD504" stroke="black" stroke-width="1.6" stroke-linecap="round" stroke-linejoin="round"/>
<path d="M335.142 159.439C335.141 155.408 337.557 151.769 341.272 150.206C337.083 148.45 332.237 149.733 329.467 153.333C326.697 156.932 326.697 161.945 329.467 165.545C332.237 169.144 337.083 170.428 341.272 168.672C337.557 167.109 335.141 163.47 335.142 159.439Z" fill="#FDD504" stroke="black" stroke-width="1.6" stroke-linecap="round" stroke-linejoin="round"/>
</g>
<path fill-rule="evenodd" clip-rule="evenodd" d="M317.689 108.639C264.565 108.639 313.344 193.588 313.344 193.588H322.034C322.034 193.588 370.813 108.639 317.689 108.639Z" stroke="black" stroke-width="1.6" stroke-linecap="round" stroke-linejoin="round"/>
<path d="M317.689 108.639C296.878 108.639 315.987 193.588 315.987 193.588H319.391C319.391 193.588 338.5 108.639 317.689 108.639Z" fill="#1AB995" stroke="black" stroke-width="1.6" stroke-linecap="round" stroke-linejoin="round"/>
<path d="M319.984 223.326H315.394C313.063 223.326 311.173 221.436 311.173 219.104V208.542H324.205V219.104C324.205 220.224 323.76 221.298 322.969 222.089C322.177 222.881 321.103 223.326 319.984 223.326Z" fill="#FCB006"/>
<mask id="mask3_602_451" style="mask-type:luminance" maskUnits="userSpaceOnUse" x="311" y="208" width="14" height="16">
<path fill-rule="evenodd" clip-rule="evenodd" d="M319.984 223.326H315.394C313.063 223.326 311.173 221.436 311.173 219.104V208.542H324.205V219.104C324.205 220.224 323.76 221.298 322.969 222.089C322.177 222.881 321.103 223.326 319.984 223.326Z" fill="white"/>
</mask>
<g mask="url(#mask3_602_451)">
<path d="M309.134 210.703C324.564 210.116 324.421 218.134 323.687 223.918C322.952 229.702 326.612 204.542 326.612 204.542L314.564 206.566" fill="#FDD504"/>
</g>
<path fill-rule="evenodd" clip-rule="evenodd" d="M319.984 223.326H315.394C313.063 223.326 311.173 221.436 311.173 219.104V208.542H324.205V219.104C324.205 220.224 323.76 221.298 322.969 222.089C322.177 222.881 321.103 223.326 319.984 223.326Z" stroke="black" stroke-width="1.6" stroke-linecap="round" stroke-linejoin="round"/>
<rect x="309.851" y="207.746" width="15.6761" height="2.95671" rx="0.78127" fill="white" stroke="black" stroke-width="1.6" stroke-linecap="round" stroke-linejoin="round"/>
<path d="M326.062 192.166H309.317L311.017 195.237H324.361L326.062 192.166Z" fill="white" stroke="black" stroke-width="1.6" stroke-linecap="round" stroke-linejoin="round"/>
<path d="M337.509 127.724C338.258 129.478 337.683 131.705 336.178 132.876" stroke="black" stroke-width="1.6" stroke-linecap="round" stroke-linejoin="round"/>
<path d="M315.777 215.384C316.509 216.003 317.442 216.334 318.4 216.314" stroke="black" stroke-width="1.6" stroke-linecap="round" stroke-linejoin="round"/>
<path d="M92.4544 179.56L90.7527 169.594L119.649 146.916L92.4544 179.56Z" fill="#FDD504" stroke="black" stroke-width="1.6" stroke-linecap="round" stroke-linejoin="round"/>
<path d="M98.3197 169.741L94.5823 170.769L92.4544 179.56L107.116 163.238L98.3197 169.741Z" fill="#FDD504" stroke="black" stroke-width="1.6" stroke-linecap="round" stroke-linejoin="round"/>
<path d="M115.262 175.859L94.5823 170.769L119.649 146.916L115.262 175.859Z" fill="#FCB006" stroke="black" stroke-width="1.6" stroke-linecap="round" stroke-linejoin="round"/>
<path d="M66.1367 218.773L66.4457 219.188C68.107 217.936 69.692 216.586 71.1921 215.145L70.8345 214.771C69.3501 216.198 67.7813 217.534 66.1367 218.773Z" fill="#190000"/>
<path d="M66.0851 200.34L66.1801 200.848C68.2044 200.474 70.2507 200.23 72.3062 200.118L72.278 199.602C70.2 199.714 68.1314 199.961 66.0851 200.34Z" fill="#190000"/>
<path d="M55.1541 224.024L55.239 224.535C57.0965 224.228 59.0874 223.545 61.157 222.505L60.9247 222.042C58.9015 223.059 56.9602 223.726 55.1541 224.024Z" fill="#190000"/>
<path d="M85.817 195.147C84.81 196.862 83.7686 198.542 82.7181 200.145C81.3262 199.922 79.9182 199.758 78.5111 199.656L78.4747 200.173C80.5278 200.321 82.5693 200.601 84.5867 201.01L84.6897 200.502C84.2211 200.407 83.7497 200.319 83.2756 200.237C84.2887 198.686 85.2917 197.064 86.2634 195.41L85.817 195.147Z" fill="#190000"/>
<path d="M75.097 210.291L75.4869 210.632C76.8 209.124 78.1161 207.494 79.3979 205.787L78.9837 205.475C77.7101 207.173 76.402 208.793 75.097 210.291Z" fill="#190000"/>
<path d="M45.4736 218.935L44.9827 219.1C45.7221 221.299 47.116 222.946 49.0129 223.863L49.2371 223.396C47.4685 222.541 46.1675 220.999 45.4736 218.935Z" fill="#190000"/>
<path d="M45.3312 212.867L45.8039 213.076C46.5342 211.417 47.7725 209.801 49.4836 208.274L49.1402 207.887C47.3725 209.464 46.0907 211.14 45.3312 212.867Z" fill="#190000"/>
<path d="M60.0449 201.897C58.0655 202.553 56.1444 203.374 54.3016 204.35L54.5461 204.807C56.3629 203.844 58.257 203.035 60.2085 202.387L60.0449 201.897Z" fill="#190000"/>
<path d="M145.952 224.13L146.055 224.637C148.092 224.22 150.105 223.695 152.087 223.066L151.931 222.573C149.967 223.196 147.971 223.715 145.952 224.13Z" fill="#190000"/>
<path d="M121.526 222.732C123.45 223.533 125.437 224.172 127.467 224.642L127.585 224.138C125.582 223.675 123.623 223.044 121.726 222.253L121.526 222.732Z" fill="#190000"/>
<path d="M133.678 225.033L133.644 225.55C134.564 225.611 135.507 225.642 136.446 225.642C137.569 225.642 138.725 225.597 139.881 225.509L139.841 224.993C137.79 225.152 135.731 225.166 133.678 225.033Z" fill="#190000"/>
<path d="M91.6158 184.193C90.7108 186.085 89.7744 187.949 88.833 189.733L89.2896 189.974C90.235 188.185 91.1744 186.315 92.0824 184.416L91.6158 184.193Z" fill="#190000"/>
<path d="M173.932 211.391C172.284 212.563 170.542 213.708 168.753 214.795L169.022 215.238C170.821 214.144 172.574 212.992 174.231 211.813L173.932 211.391Z" fill="#190000"/>
<path d="M157.737 220.439L157.937 220.917C159.81 220.133 161.71 219.248 163.585 218.284L163.348 217.824C161.486 218.781 159.599 219.661 157.737 220.439Z" fill="#190000"/>
<path d="M110.966 216.154C112.545 217.511 114.224 218.749 115.987 219.858L116.262 219.419C114.52 218.324 112.862 217.101 111.301 215.76L110.966 216.154Z" fill="#190000"/>
<path d="M90.5391 202.629C92.4847 203.298 94.3838 204.096 96.2238 205.018L96.4561 204.555C94.5952 203.623 92.6745 202.816 90.7067 202.139L90.5391 202.629Z" fill="#190000"/>
<path d="M101.544 208.139C103.246 209.296 104.873 210.561 106.414 211.926L106.758 211.538C105.2 210.159 103.555 208.88 101.835 207.71L101.544 208.139Z" fill="#190000"/>
<path d="M90.7527 169.594L79.7767 166.565L119.649 146.916L90.7527 169.594Z" fill="#FCB006" stroke="black" stroke-width="1.6" stroke-linecap="round" stroke-linejoin="round"/>
<path d="M112.921 164.273C112.19 165.017 111.303 165.59 110.325 165.952" stroke="black" stroke-width="1.6" stroke-linecap="round" stroke-linejoin="round"/>
<path d="M115.926 57.3834L129.885 39.0714L160.186 62.22C161.545 63.259 161.806 65.2023 160.769 66.5628L156.288 72.4412L150.566 79.9485C150.068 80.6017 149.331 81.0302 148.517 81.1396C147.704 81.2491 146.88 81.0305 146.227 80.532L115.926 57.3834Z" fill="#FDD504"/>
<mask id="mask4_602_451" style="mask-type:luminance" maskUnits="userSpaceOnUse" x="115" y="39" width="47" height="43">
<path fill-rule="evenodd" clip-rule="evenodd" d="M115.926 57.3834L129.885 39.0714L160.186 62.22C161.545 63.259 161.806 65.2023 160.769 66.5628L156.288 72.4412L150.566 79.9485C150.068 80.6017 149.331 81.0302 148.517 81.1396C147.704 81.2491 146.88 81.0305 146.227 80.532L115.926 57.3834Z" fill="white"/>
</mask>
<g mask="url(#mask4_602_451)">
<path d="M123.056 43.4664L125.22 40.6279L154.371 62.8981L152.208 65.7366L123.056 43.4664Z" fill="white" stroke="black" stroke-width="1.6" stroke-linecap="round" stroke-linejoin="round"/>
<path d="M119.164 48.5719L121.328 45.7334L150.479 68.0036L148.316 70.8421L119.164 48.5719Z" fill="white" stroke="black" stroke-width="1.6" stroke-linecap="round" stroke-linejoin="round"/>
<path d="M115.431 53.4697L117.595 50.6312L146.746 72.9014L144.582 75.7399L115.431 53.4697Z" fill="white" stroke="black" stroke-width="1.6" stroke-linecap="round" stroke-linejoin="round"/>
<path d="M139.313 80.0411L157.98 55.5522L167.59 62.8938L148.923 87.3827L139.313 80.0411Z" fill="#E43334"/>
<mask id="mask5_602_451" style="mask-type:luminance" maskUnits="userSpaceOnUse" x="139" y="55" width="29" height="33">
<path fill-rule="evenodd" clip-rule="evenodd" d="M139.313 80.0411L157.98 55.5522L167.59 62.8938L148.923 87.3827L139.313 80.0411Z" fill="white"/>
</mask>
<g mask="url(#mask5_602_451)">
<path d="M151.078 82.5373C142.288 76.1374 147.436 69.8343 156.534 58.5179C165.632 47.2015 145.897 60.9159 145.897 60.9159L135.93 79.5635L143.307 83.0927L145.972 83.5178" fill="#C11F27"/>
</g>
<path fill-rule="evenodd" clip-rule="evenodd" d="M139.313 80.0411L157.98 55.5522L167.59 62.8938L148.923 87.3827L139.313 80.0411V80.0411Z" stroke="black" stroke-width="1.6" stroke-linecap="round" stroke-linejoin="round"/>
<path d="M141.129 77.6579L158.13 55.3555L155.967 53.7036L138.967 76.006L141.129 77.6579Z" fill="#1A80FD" stroke="black" stroke-width="1.6" stroke-linecap="round" stroke-linejoin="round"/>
</g>
<path fill-rule="evenodd" clip-rule="evenodd" d="M115.926 57.3834L129.885 39.0714L160.186 62.22C161.545 63.259 161.806 65.2023 160.769 66.5628L156.288 72.4412L150.566 79.9485C150.068 80.6017 149.331 81.0302 148.517 81.1396C147.704 81.2491 146.88 81.0305 146.227 80.532L115.926 57.3834Z" stroke="black" stroke-width="1.6" stroke-linecap="round" stroke-linejoin="round"/>
<path d="M110.151 38.4831C110.652 37.8253 111.393 37.4434 112.055 37.5017L129.885 39.0714L115.926 57.3834L109.708 40.5812C109.477 39.9574 109.649 39.1409 110.151 38.4831Z" fill="#FACCC4"/>
<mask id="mask6_602_451" style="mask-type:luminance" maskUnits="userSpaceOnUse" x="109" y="37" width="21" height="21">
<path fill-rule="evenodd" clip-rule="evenodd" d="M110.151 38.4831C110.652 37.8253 111.393 37.4434 112.055 37.5017L129.885 39.0714L115.926 57.3834L109.708 40.5812C109.477 39.9574 109.649 39.1409 110.151 38.4831Z" fill="white"/>
</mask>
<g mask="url(#mask6_602_451)">
<path d="M112.136 56.0942C127.046 37.5653 123.871 38.5419 119.774 38.1812C115.677 37.8205 136.989 35.8706 136.989 35.8706C136.989 35.8706 136.717 38.4973 136.49 38.7959C136.262 39.0944 115.751 60.4309 115.751 60.4309L109.82 54.7979" fill="#ED707B"/>
<path d="M111.25 59.7099L130.851 33.9965L134.52 36.7997L114.919 62.513L111.25 59.7099Z" fill="#FCB006" stroke="black" stroke-width="1.6" stroke-linecap="round" stroke-linejoin="round"/>
<ellipse cx="108.568" cy="35.4807" rx="10.0875" ry="8.24555" transform="rotate(-52.8054 108.568 35.4807)" fill="#485065" stroke="black" stroke-width="1.6" stroke-linecap="round" stroke-linejoin="round"/>
</g>
<path fill-rule="evenodd" clip-rule="evenodd" d="M110.151 38.4831V38.4831C110.652 37.8253 111.393 37.4434 112.055 37.5017L129.885 39.0714L115.926 57.3834L109.708 40.5812C109.477 39.9574 109.649 39.1409 110.151 38.4831Z" stroke="black" stroke-width="1.6" stroke-linecap="round" stroke-linejoin="round"/>
<path d="M114.084 45.8647C114.261 46.5025 114.28 47.1739 114.14 47.8209" stroke="black" stroke-width="1.6" stroke-linecap="round" stroke-linejoin="round"/>
<path d="M227.063 58.6463L257.184 33.1623L262.461 39.3616L239.545 65.9962L227.063 58.6463Z" fill="#FCB006" stroke="black" stroke-width="1.6" stroke-linecap="round" stroke-linejoin="round"/>
<path d="M238.718 73.2413L239.25 76.936L256.973 82.8321L254.203 46.3716L238.718 73.2413Z" fill="#D6DCF2"/>
<path d="M231.414 66.0829L258.272 34.0489L259.694 37.4527L258.362 52.0629L257.864 43.0228L239.25 76.936C239.25 76.936 232.449 71.5675 231.414 66.0829Z" fill="white"/>
<mask id="mask7_602_451" style="mask-type:luminance" maskUnits="userSpaceOnUse" x="231" y="34" width="29" height="43">
<path fill-rule="evenodd" clip-rule="evenodd" d="M231.414 66.0829L258.272 34.0489L259.694 37.4527L258.362 52.0629L257.864 43.0228L239.25 76.936C239.25 76.936 232.449 71.5675 231.414 66.0829Z" fill="white"/>
</mask>
<g mask="url(#mask7_602_451)">
<path d="M230.075 72.1314L249.644 48.2401L229.438 74.0021L233.827 74.7227L244.875 59.6486L234.714 75.8097L225.294 75.6909" fill="#D6DCF2"/>
</g>
<path fill-rule="evenodd" clip-rule="evenodd" d="M231.414 66.0829L258.272 34.0489L259.694 37.4527L258.362 52.0629L257.864 43.0228L239.25 76.936C239.25 76.936 232.449 71.5675 231.414 66.0829Z" stroke="black" stroke-width="1.6" stroke-linecap="round" stroke-linejoin="round"/>
<path d="M299.433 59.0667L301.421 58.045C301.421 58.045 302.364 56.5685 300.586 55.4774L257.184 33.1624L258.291 34.247L259.439 36.6742L259.547 39.0578L261.651 43.8048L299.433 59.0667Z" fill="#E43334" stroke="black" stroke-width="1.6" stroke-linecap="round" stroke-linejoin="round"/>
<path d="M259.658 41.7702L259.15 37.7737C259.15 37.7737 259.493 33.9965 256.451 33.7822L257.184 33.1623C257.184 33.1623 260.481 34.2784 259.835 38.1022L259.658 41.7702Z" fill="#485065" stroke="black" stroke-width="1.6" stroke-linecap="round" stroke-linejoin="round"/>
<path d="M240.56 81.6092L259.15 37.7737L301.421 58.045L286.603 96.139L240.56 81.6092Z" fill="#FDD504"/>
<mask id="mask8_602_451" style="mask-type:luminance" maskUnits="userSpaceOnUse" x="240" y="37" width="62" height="60">
<path fill-rule="evenodd" clip-rule="evenodd" d="M240.56 81.6092L259.15 37.7737L301.421 58.045L286.603 96.139L240.56 81.6092Z" fill="white"/>
</mask>
<g mask="url(#mask8_602_451)">
<path d="M261.249 49.4891L252.441 75.7357C252.346 76.0168 252.368 76.3239 252.501 76.5889C252.634 76.854 252.867 77.0549 253.149 77.1471L259.086 79.0864C259.669 79.2765 260.296 78.9585 260.486 78.3759L268.917 52.6596C269.095 52.1173 268.834 51.5283 268.312 51.2963L262.753 48.8268C262.467 48.6999 262.141 48.6994 261.855 48.8255C261.568 48.9516 261.349 49.1925 261.249 49.4891Z" fill="#FCB006"/>
<path d="M255.625 86.3634C248.981 82.9173 284.475 99.2197 292.514 79.9447C295.265 73.3487 294.23 106.446 294.23 106.446L260.537 95.1835" fill="#FCB006"/>
</g>
<path fill-rule="evenodd" clip-rule="evenodd" d="M240.56 81.6092L259.15 37.7737L301.421 58.045L286.603 96.139L240.56 81.6092V81.6092Z" stroke="black" stroke-width="1.6" stroke-linecap="round" stroke-linejoin="round"/>
<path d="M281.951 75.9185C281.471 76.8459 280.853 77.6957 280.12 78.4394" stroke="black" stroke-width="1.6" stroke-linecap="round" stroke-linejoin="round"/>
<path d="M247.178 56.2344L245.134 58.0859" stroke="black" stroke-width="1.6" stroke-linecap="round" stroke-linejoin="round"/>
<path d="M156.916 103.39L156.209 103.011L162.192 91.8267L162.613 92.7411L156.916 103.39Z" fill="#FDD504" stroke="black" stroke-width="1.6" stroke-linecap="round" stroke-linejoin="round"/>
<path d="M153.247 113.818L156.991 104.363L155.359 103.488L149.572 111.848C149.246 112.218 149.064 112.694 149.061 113.187C149.04 113.905 149.377 114.587 149.96 115.006C150.529 115.406 151.258 115.503 151.912 115.267C152.567 115.031 153.065 114.49 153.247 113.818H153.247Z" fill="#FDD504"/>
<mask id="mask9_602_451" style="mask-type:luminance" maskUnits="userSpaceOnUse" x="149" y="103" width="8" height="13">
<path fill-rule="evenodd" clip-rule="evenodd" d="M153.247 113.818L156.991 104.363L155.359 103.488L149.572 111.848C149.246 112.218 149.064 112.694 149.061 113.187C149.04 113.905 149.377 114.587 149.96 115.006C150.529 115.406 151.258 115.503 151.912 115.267C152.567 115.031 153.065 114.49 153.247 113.818H153.247Z" fill="white"/>
</mask>
<g mask="url(#mask9_602_451)">
<path d="M150.479 104.823C152.988 108.053 158.292 104.298 158.292 104.298L154.633 102.337L150.531 102.965L149.355 105.163" fill="#FCB006"/>
</g>
<path fill-rule="evenodd" clip-rule="evenodd" d="M153.247 113.818L156.991 104.363L155.359 103.488L149.572 111.848C149.246 112.218 149.064 112.694 149.061 113.187C149.04 113.905 149.377 114.587 149.96 115.006C150.529 115.406 151.258 115.503 151.912 115.267C152.567 115.031 153.065 114.49 153.247 113.818H153.247Z" stroke="black" stroke-width="1.6" stroke-linecap="round" stroke-linejoin="round"/>
<ellipse cx="156.563" cy="103.2" rx="1.9156" ry="1.91771" fill="#E43334"/>
<mask id="mask10_602_451" style="mask-type:luminance" maskUnits="userSpaceOnUse" x="154" y="101" width="5" height="5">
<ellipse cx="156.563" cy="103.2" rx="1.9156" ry="1.91771" fill="white"/>
</mask>
<g mask="url(#mask10_602_451)">
<path d="M158.226 100.942C158.289 106.015 153.288 103.926 153.288 103.926L158.049 107.664L160.382 103.58" fill="#C11F27"/>
</g>
<ellipse cx="156.563" cy="103.2" rx="1.9156" ry="1.91771" stroke="black" stroke-width="1.6" stroke-linecap="round" stroke-linejoin="round"/>
<path d="M170.911 93.4221L164.851 104.75L161.875 110.313C161.822 113.714 163.941 117.675 167.599 121.181C171.83 125.155 177.034 127.944 182.686 129.27C187.628 130.374 192.096 129.945 194.894 128.015L197.87 122.452L203.929 111.124L170.911 93.4221Z" fill="#232C3F"/>
<path d="M179.746 113.318L157.945 92.1367C155.996 90.2429 157.684 86.9683 160.355 87.4607L190.424 93.0029C191.582 93.2164 192.644 93.786 193.463 94.6322L214.737 116.616C216.627 118.569 214.839 121.79 212.184 121.216L182.491 114.789C181.456 114.565 180.505 114.055 179.746 113.318Z" fill="#485065"/>
<mask id="mask11_602_451" style="mask-type:luminance" maskUnits="userSpaceOnUse" x="157" y="87" width="59" height="35">
<path fill-rule="evenodd" clip-rule="evenodd" d="M179.746 113.318L157.945 92.1367C155.996 90.2429 157.684 86.9683 160.355 87.4607L190.424 93.0029C191.582 93.2164 192.644 93.786 193.463 94.6322L214.737 116.616C216.627 118.569 214.839 121.79 212.184 121.216L182.491 114.789C181.456 114.565 180.505 114.055 179.746 113.318Z" fill="white"/>
</mask>
<g mask="url(#mask11_602_451)">
<path d="M187.166 90.9508C154.76 88.167 170.808 104.473 179.746 113.318C188.684 122.162 146.014 99.7203 146.014 99.7203L155.431 83.5919L162.96 81.6949" fill="#232C3F"/>
</g>
<path fill-rule="evenodd" clip-rule="evenodd" d="M179.746 113.318L157.945 92.1367C155.996 90.2429 157.684 86.9683 160.355 87.4607L190.424 93.0029C191.582 93.2164 192.644 93.786 193.463 94.6322L214.737 116.616C216.627 118.569 214.839 121.79 212.184 121.216L182.491 114.789C181.456 114.565 180.505 114.055 179.746 113.318Z" stroke="black" stroke-width="1.6" stroke-linecap="round" stroke-linejoin="round"/>
<path d="M191.735 124.391C190.18 124.529 188.613 124.485 187.068 124.26" stroke="black" stroke-width="1.6" stroke-linecap="round" stroke-linejoin="round"/>
<path d="M181.092 99.9966C183.404 100.125 185.697 100.492 187.933 101.093" stroke="black" stroke-width="1.6" stroke-linecap="round" stroke-linejoin="round"/>
<ellipse cx="281.455" cy="110.456" rx="5.83812" ry="6.20255" fill="#FDD504" stroke="black" stroke-width="1.6" stroke-linecap="round" stroke-linejoin="round"/>
<path d="M242.788 71.5753C240.402 70.8685 242.14 80.8637 242.14 80.8637C242.14 80.8637 238.299 83.7321 238.024 85.2969C237.75 86.8617 240.551 95.8044 240.551 95.8044L246.191 93.938L242.788 71.5753Z" fill="#F9C1BB"/>
<mask id="mask12_602_451" style="mask-type:luminance" maskUnits="userSpaceOnUse" x="238" y="71" width="9" height="25">
<path fill-rule="evenodd" clip-rule="evenodd" d="M242.788 71.5753C240.402 70.8685 242.14 80.8637 242.14 80.8637C242.14 80.8637 238.299 83.7321 238.024 85.2969C237.75 86.8617 240.551 95.8044 240.551 95.8044L246.191 93.938L242.788 71.5753Z" fill="white"/>
</mask>
<g mask="url(#mask12_602_451)">
<path d="M235.375 93.1C238.349 87.8066 241.353 89.5671 245.516 89.5037C249.68 89.4403 247.534 92.675 247.534 92.675L242.098 97.7144L238.792 98.1918" fill="#ED707B"/>
</g>
<path fill-rule="evenodd" clip-rule="evenodd" d="M242.788 71.5753C240.402 70.8685 242.14 80.8637 242.14 80.8637C242.14 80.8637 238.299 83.7321 238.024 85.2969C237.75 86.8617 240.551 95.8044 240.551 95.8044L246.191 93.938L242.788 71.5753Z" stroke="black" stroke-width="1.6" stroke-linecap="round" stroke-linejoin="round"/>
<ellipse cx="270.604" cy="122.733" rx="12.3861" ry="12.2776" fill="#FDD504" stroke="black" stroke-width="1.6" stroke-linecap="round" stroke-linejoin="round"/>
<path d="M152.601 186.248L133.591 202.414L137.351 213.602L163.111 194.973L152.601 186.248Z" fill="#F9C1BB"/>
<mask id="mask13_602_451" style="mask-type:luminance" maskUnits="userSpaceOnUse" x="133" y="186" width="31" height="28">
<path fill-rule="evenodd" clip-rule="evenodd" d="M152.601 186.248L133.591 202.414L137.351 213.602L163.111 194.973L152.601 186.248Z" fill="white"/>
</mask>
<g mask="url(#mask13_602_451)">
<path d="M144.1 189.652C141.977 199.149 147.452 203.66 152.927 205.203C158.402 206.746 152.704 212.326 152.704 212.326L159.408 199.386L142.759 189.058" fill="#ED707B"/>
</g>
<path fill-rule="evenodd" clip-rule="evenodd" d="M152.601 186.248L133.591 202.414L137.351 213.602L163.111 194.973L152.601 186.248V186.248Z" stroke="black" stroke-width="1.6" stroke-linecap="round" stroke-linejoin="round"/>
<path d="M113.484 192.11C113.484 192.11 118.127 188.426 122.632 193.302C129.884 201.152 139.653 197.259 139.653 197.259C139.653 197.259 139.331 206.983 145.681 208.276L142.075 213.898C140.117 216.337 136.969 216.701 135.066 214.709L113.484 192.11Z" fill="#485065" stroke="black" stroke-width="1.6" stroke-linecap="round" stroke-linejoin="round"/>
<path d="M143.411 192.812C140.971 199.925 164.047 203.385 164.047 203.385L193.234 170.968L235.001 198.51L257.849 184.639L200.793 152.617C195.128 149.033 187.677 149.671 182.743 154.161L143.411 192.812Z" fill="#FDD504"/>
<path fill-rule="evenodd" clip-rule="evenodd" d="M143.411 192.812C140.971 199.925 164.047 203.385 164.047 203.385L193.234 170.968L235.001 198.51L257.849 184.639L200.793 152.617C195.128 149.033 187.677 149.671 182.743 154.161L143.411 192.812Z" stroke="black" stroke-width="1.6" stroke-linecap="round" stroke-linejoin="round"/>
<path d="M147.252 132.175L125.644 119.459L115.809 126.327L141.875 144.55L147.252 132.175Z" fill="#F9C1BB"/>
<mask id="mask14_602_451" style="mask-type:luminance" maskUnits="userSpaceOnUse" x="115" y="119" width="33" height="26">
<path fill-rule="evenodd" clip-rule="evenodd" d="M147.252 132.175L125.644 119.459L115.809 126.327L141.875 144.55L147.252 132.175Z" fill="white"/>
</mask>
<g mask="url(#mask14_602_451)">
<path d="M112.143 145.491C112.424 145.043 112.721 144.605 113.033 144.179C121.639 132.397 141.323 128.707 141.323 128.707L135.235 144.551L115.809 145.491" fill="#ED707B"/>
</g>
<path fill-rule="evenodd" clip-rule="evenodd" d="M147.252 132.175L125.644 119.459L115.809 126.327L141.875 144.55L147.252 132.175V132.175Z" stroke="black" stroke-width="1.6" stroke-linecap="round" stroke-linejoin="round"/>
<path d="M129.667 97.7173C129.667 97.7173 134.685 100.903 131.265 106.552C125.761 115.644 131.201 121.748 131.201 121.748C131.201 121.748 122.901 126.158 123.553 132.431L116.948 130.792C113.964 129.717 112.654 126.911 114.032 124.546L129.667 97.7173Z" fill="#485065" stroke="black" stroke-width="1.6" stroke-linecap="round" stroke-linejoin="round"/>
<path d="M141.323 128.707C124.317 131.556 133.355 149.541 133.355 149.541L185.178 176.429L235.691 208.191C245.067 214.087 257.547 211.857 264.151 203.105L275.296 188.338L193.747 155.298L141.323 128.707Z" fill="#FDD504"/>
<mask id="mask15_602_451" style="mask-type:luminance" maskUnits="userSpaceOnUse" x="130" y="128" width="146" height="84">
<path fill-rule="evenodd" clip-rule="evenodd" d="M141.323 128.707C124.317 131.556 133.355 149.541 133.355 149.541L185.178 176.429L235.691 208.191C245.067 214.087 257.547 211.857 264.151 203.105L275.296 188.338L193.747 155.298L141.323 128.707Z" fill="white"/>
</mask>
<g mask="url(#mask15_602_451)">
<path d="M248.276 172.795C260.084 193.925 257.781 222.081 225.089 201.525C192.397 180.968 215.836 217.431 218.071 219.567C220.305 221.704 259.567 230.489 259.567 230.489L272.916 220.517L284.89 203.385L270.764 172.082L245.793 172.967" fill="#FCB006"/>
</g>
<path fill-rule="evenodd" clip-rule="evenodd" d="M141.323 128.707C124.317 131.556 133.355 149.541 133.355 149.541L185.178 176.429L235.691 208.191C245.067 214.087 257.547 211.857 264.151 203.105L275.296 188.338L193.747 155.298L141.323 128.707Z" stroke="black" stroke-width="1.6" stroke-linecap="round" stroke-linejoin="round"/>
<path d="M235.208 99.8824C238.791 90.5366 245.516 89.5037 245.516 89.5037L252.732 116.466L260.539 142.678L250.602 160.126C250.602 160.126 242.055 134.76 241.073 127.803C240.09 120.846 235.208 99.8824 235.208 99.8824Z" fill="#1A80FD"/>
<mask id="mask16_602_451" style="mask-type:luminance" maskUnits="userSpaceOnUse" x="235" y="89" width="26" height="72">
<path fill-rule="evenodd" clip-rule="evenodd" d="M235.208 99.8824C238.791 90.5366 245.516 89.5037 245.516 89.5037L252.732 116.466L260.539 142.678L250.602 160.126C250.602 160.126 242.055 134.76 241.073 127.803C240.09 120.846 235.208 99.8824 235.208 99.8824Z" fill="white"/>
</mask>
<g mask="url(#mask16_602_451)">
<path d="M257.466 144.693C249.817 150.94 248.769 160.636 248.276 165.723C247.783 170.81 252.902 166.853 252.902 166.853L257.466 144.693Z" fill="#ED707B"/>
<path d="M235.428 136.776C247.644 150.864 250.15 148.494 252.251 145.544C254.352 142.593 255.912 160.126 255.912 160.126L249.953 166.226L239.375 156.57L235.651 147.707" fill="#1D62FC"/>
<path d="M232.294 110.456C237.222 100.533 242.307 92.84 249.777 92.675C257.248 92.51 247.87 87.2591 247.87 87.2591L231.022 91.3962" fill="white"/>
<path d="M232.294 110.456C237.222 100.533 242.307 92.84 249.777 92.675C257.248 92.51 247.87 87.2591 247.87 87.2591L231.022 91.3962" stroke="black" stroke-width="1.6" stroke-linecap="round" stroke-linejoin="round"/>
</g>
<path fill-rule="evenodd" clip-rule="evenodd" d="M235.208 99.8824C238.791 90.5366 245.516 89.5037 245.516 89.5037L252.732 116.466L260.539 142.678L250.602 160.126C250.602 160.126 242.055 134.76 241.073 127.803C240.09 120.846 235.208 99.8824 235.208 99.8824Z" stroke="black" stroke-width="1.6" stroke-linecap="round" stroke-linejoin="round"/>
<path d="M260.118 142.002L275.408 140.759C282.208 160.126 275.915 195.671 275.915 195.671C267.869 195.909 237.246 171.925 242.249 172.4C242.249 172.4 251.049 169.544 249.708 155.773C249.108 149.61 251.13 146.205 253.548 144.324" fill="#1A80FD"/>
<mask id="mask17_602_451" style="mask-type:luminance" maskUnits="userSpaceOnUse" x="241" y="140" width="38" height="56">
<path fill-rule="evenodd" clip-rule="evenodd" d="M260.118 142.002L275.408 140.759C282.208 160.126 275.915 195.671 275.915 195.671C267.869 195.909 237.246 171.925 242.249 172.4C242.249 172.4 251.049 169.544 249.708 155.773C249.108 149.61 251.13 146.205 253.548 144.324" fill="white"/>
</mask>
<g mask="url(#mask17_602_451)">
<path d="M242.573 157.951C236.882 172.774 273.805 198.674 276.665 175.169C279.526 151.664 280.951 198.327 280.574 199.925C280.197 201.523 265.601 211.48 265.601 211.48L233.937 185.141C233.937 185.141 234.831 166.059 235.055 164.441C235.278 162.823 242.573 157.951 242.573 157.951Z" fill="#1D62FC"/>
<path d="M258.218 148.785C256.188 153.982 260.539 164.696 260.539 164.696L265.301 163.105C265.301 163.105 257.327 152.338 259.194 148.466L258.218 148.785Z" fill="white" stroke="black" stroke-width="1.6" stroke-linecap="round" stroke-linejoin="round"/>
<path d="M260.539 147.299C260.532 150.8 266.242 152 266.242 152V153.876C266.242 153.876 258.341 150.906 258.218 148.785C258.095 146.663 260.539 147.299 260.539 147.299Z" fill="white" stroke="black" stroke-width="1.6" stroke-linecap="round" stroke-linejoin="round"/>
<path d="M260.261 138.548L258.218 140.033L257.142 150.306L272.97 142.844V138.349" fill="white"/>
<path d="M260.261 138.548L258.218 140.033L257.142 150.306L272.97 142.844V138.349" stroke="black" stroke-width="1.6" stroke-linecap="round" stroke-linejoin="round"/>
<path d="M244.373 164.431C234.042 171.273 271.118 189.094 278.567 188.617C286.016 188.14 282.99 197.528 282.99 197.528C282.99 197.528 265.036 199.618 264.559 199.925C264.082 200.233 242.393 173.907 242.393 173.907L238.651 171.273L241.035 168.216" fill="white"/>
<path d="M244.373 164.431C234.042 171.273 271.118 189.094 278.567 188.617C286.016 188.14 282.99 197.528 282.99 197.528C282.99 197.528 265.036 199.618 264.559 199.925C264.082 200.233 242.393 173.907 242.393 173.907L238.651 171.273L241.035 168.216" stroke="black" stroke-width="1.6" stroke-linecap="round" stroke-linejoin="round"/>
</g>
<path d="M260.118 142.002L275.408 140.759C282.208 160.126 275.915 195.671 275.915 195.671C267.869 195.909 237.246 171.925 242.249 172.4C242.249 172.4 251.049 169.544 249.708 155.773C249.108 149.61 251.13 146.205 253.548 144.324" stroke="black" stroke-width="1.6" stroke-linecap="round" stroke-linejoin="round"/>
<path d="M263.637 129.229L259.567 146.898L270.764 141.136L272.916 124.763L263.637 129.229Z" fill="#F9C1BB"/>
<mask id="mask18_602_451" style="mask-type:luminance" maskUnits="userSpaceOnUse" x="259" y="124" width="14" height="23">
<path fill-rule="evenodd" clip-rule="evenodd" d="M263.637 129.229L259.567 146.898L270.764 141.136L272.916 124.763L263.637 129.229Z" fill="white"/>
</mask>
<g mask="url(#mask18_602_451)">
<path d="M260.118 142.002C263.571 143.091 266.87 134.94 266.87 134.94L258.484 131.556V138.441" fill="#ED707B"/>
</g>
<path fill-rule="evenodd" clip-rule="evenodd" d="M263.637 129.229L259.567 146.898L270.764 141.136L272.916 124.763L263.637 129.229V129.229Z" stroke="black" stroke-width="1.6" stroke-linecap="round" stroke-linejoin="round"/>
<path d="M274.844 125.742C275.253 124.783 275.61 123.803 275.915 122.807L261.166 117.189C260.657 119.597 253.663 134.082 263.155 135.247C264.762 135.444 266.216 135.243 267.532 134.701" fill="#F9C1BB"/>
<mask id="mask19_602_451" style="mask-type:luminance" maskUnits="userSpaceOnUse" x="258" y="117" width="18" height="19">
<path fill-rule="evenodd" clip-rule="evenodd" d="M274.844 125.742C275.253 124.783 275.61 123.803 275.915 122.807L261.166 117.189C260.657 119.597 253.663 134.082 263.155 135.247C264.762 135.444 266.216 135.243 267.532 134.701" fill="white"/>
</mask>
<g mask="url(#mask19_602_451)">
<ellipse opacity="0.27" cx="255.689" cy="128.328" rx="2.58716" ry="1.91988" transform="rotate(-9.46797 255.689 128.328)" fill="#ED707B"/>
<path d="M265.17 122.807C266.417 123.533 265.981 124.143 265.172 123.74C264.363 123.338 264.356 122.333 265.17 122.807Z" fill="black"/>
</g>
<path d="M274.844 125.742C275.253 124.783 275.61 123.803 275.915 122.807L261.166 117.189C260.657 119.597 253.663 134.082 263.155 135.247C264.762 135.444 266.216 135.243 267.532 134.701" stroke="black" stroke-width="1.6" stroke-linecap="round" stroke-linejoin="round"/>
<path d="M272.97 128.697C275.011 128.697 276.666 126.94 276.666 124.771C276.666 124.701 276.649 124.635 276.646 124.566C277.377 123.463 277.765 122.169 277.761 120.846C277.761 117.987 276.011 115.566 273.589 114.715C272.433 112.55 270.248 111.087 267.738 111.087" fill="#FDD504"/>
<path d="M267.738 111.087C264.024 111.087 261.013 114.286 261.013 118.233C261.013 122.034 263.808 125.132 267.333 125.356C268.046 126.139 268.954 126.72 269.963 127.04C270.633 128.04 271.727 128.697 272.97 128.697" fill="#FDD504"/>
<path d="M267.738 111.087C264.024 111.087 261.013 114.286 261.013 118.233C261.013 122.034 263.808 125.132 267.333 125.356C268.046 126.139 268.954 126.72 269.963 127.04C270.633 128.04 271.727 128.697 272.97 128.697" stroke="black" stroke-width="1.6" stroke-linecap="round" stroke-linejoin="round"/>
<path d="M268.933 127.815C269.464 127.117 270.216 126.619 271.067 126.404C272.85 125.928 274.571 126.707 274.91 128.142C275.249 129.578 274.078 131.127 272.295 131.603C271.744 131.754 271.166 131.782 270.603 131.686" fill="#F9C1BB"/>
<path d="M268.933 127.815C269.464 127.117 270.216 126.619 271.067 126.404C272.85 125.928 274.571 126.707 274.91 128.142C275.249 129.578 274.078 131.127 272.295 131.603C271.744 131.754 271.166 131.782 270.603 131.686" stroke="black" stroke-width="1.6" stroke-linecap="round" stroke-linejoin="round"/>
<path d="M303.816 80.388C306.299 80.1544 301.643 89.7688 301.643 89.7688C301.643 89.7688 304.437 93.384 304.229 94.9971C304.02 96.6101 298.668 104.966 298.668 104.966L293.86 101.994L303.816 80.388Z" fill="#F9C1BB"/>
<mask id="mask20_602_451" style="mask-type:luminance" maskUnits="userSpaceOnUse" x="293" y="80" width="12" height="25">
<path fill-rule="evenodd" clip-rule="evenodd" d="M303.816 80.388C306.299 80.1544 301.643 89.7688 301.643 89.7688C301.643 89.7688 304.437 93.384 304.229 94.9971C304.02 96.6101 298.668 104.966 298.668 104.966L293.86 101.994L303.816 80.388Z" fill="white"/>
</mask>
<g mask="url(#mask20_602_451)">
<path d="M295.455 96.6537C299.508 98.2714 301.919 100.419 302.687 99.5178C303.455 98.6161 302.342 101.162 302.342 101.162L299.958 101.745L297.283 99.8891L296.462 98.6161" fill="#ED707B"/>
</g>
<path fill-rule="evenodd" clip-rule="evenodd" d="M303.816 80.388C306.299 80.1544 301.643 89.7688 301.643 89.7688C301.643 89.7688 304.437 93.384 304.229 94.9971C304.02 96.6101 298.668 104.966 298.668 104.966L293.86 101.994L303.816 80.388Z" stroke="black" stroke-width="1.6" stroke-linecap="round" stroke-linejoin="round"/>
<path d="M269.225 144.939L281.961 125.547L295.904 96.298C301.607 100.188 304.545 107.524 304.545 107.524L292.105 134.484L276.665 161.709" fill="#1A80FD"/>
<mask id="mask21_602_451" style="mask-type:luminance" maskUnits="userSpaceOnUse" x="269" y="96" width="36" height="66">
<path fill-rule="evenodd" clip-rule="evenodd" d="M269.225 144.939L281.961 125.547L295.904 96.298C301.607 100.188 304.545 107.524 304.545 107.524L292.105 134.484L276.665 161.709" fill="white"/>
</mask>
<g mask="url(#mask21_602_451)">
<path d="M291.579 99.5642C295.606 98.8216 303.023 112.612 303.023 112.612L307.049 108.369L296.294 93.3055L289.619 96.0635" fill="white"/>
<path d="M291.579 99.5642C295.606 98.8216 303.023 112.612 303.023 112.612L307.049 108.369L296.294 93.3055L289.619 96.0635" stroke="black" stroke-width="1.6" stroke-linecap="round" stroke-linejoin="round"/>
</g>
<path d="M269.225 144.939L281.961 125.547L295.904 96.298C301.607 100.188 304.545 107.524 304.545 107.524L292.105 134.484L276.665 161.709" stroke="black" stroke-width="1.6" stroke-linecap="round" stroke-linejoin="round"/>
<path d="M257.849 142.738C259.916 142.181 260.539 142.095 260.539 142.095L257.849 142.738Z" fill="#1A80FD"/>
<path d="M257.849 142.738C259.916 142.181 260.539 142.095 260.539 142.095" stroke="black" stroke-width="1.6" stroke-linecap="round" stroke-linejoin="round"/>
<ellipse cx="256.652" cy="152" rx="0.7725" ry="0.77335" fill="black"/>
<ellipse cx="255.698" cy="156.137" rx="0.7725" ry="0.77335" fill="black"/>
<path d="M270.513 117.337C270.874 117.771 271.39 118.047 271.952 118.104" stroke="black" stroke-width="1.6" stroke-linecap="round" stroke-linejoin="round"/>
<path d="M258.675 174.937C259.803 175.734 261.119 176.223 262.493 176.358" stroke="black" stroke-width="1.6" stroke-linecap="round" stroke-linejoin="round"/>
<path d="M188.584 157.271L188.266 158.862" stroke="black" stroke-width="1.6" stroke-linecap="round" stroke-linejoin="round"/>
<path d="M160.928 187.821L165.379 189.094" stroke="black" stroke-width="1.6" stroke-linecap="round" stroke-linejoin="round"/>
<path d="M253.795 244.93L254.444 244.842C254.444 244.842 255.99 240.809 255.142 238.386L253.546 239.46L253.729 243.339" fill="#1A80FD"/>
<path d="M253.795 244.93L254.444 244.842C254.444 244.842 255.99 240.809 255.142 238.386L253.546 239.46L253.729 243.339" stroke="black" stroke-width="1.6" stroke-linecap="round" stroke-linejoin="round"/>
<path d="M224.475 264.226L223.909 265.458L224.092 266.838L254.444 244.842V243.681L252.847 242.232L224.475 264.226Z" fill="#1A80FD" stroke="black" stroke-width="1.6" stroke-linecap="round" stroke-linejoin="round"/>
<path d="M170.225 235.157L168.229 235.29V236.688L224.092 266.838L223.909 265.458V262.528" fill="#1A80FD"/>
<path d="M170.225 235.157L168.229 235.29V236.688L224.092 266.838L223.909 265.458V262.528" stroke="black" stroke-width="1.6" stroke-linecap="round" stroke-linejoin="round"/>
<path d="M168.229 235.29C168.229 235.29 183.796 217.708 204.751 219.906L254.444 243.681L223.91 265.458L168.229 235.29Z" fill="#1A80FD"/>
<mask id="mask22_602_451" style="mask-type:luminance" maskUnits="userSpaceOnUse" x="168" y="219" width="87" height="47">
<path fill-rule="evenodd" clip-rule="evenodd" d="M168.229 235.29C168.229 235.29 183.796 217.708 204.751 219.906L254.444 243.681L223.91 265.458L168.229 235.29Z" fill="white"/>
</mask>
<g mask="url(#mask22_602_451)">
<path d="M176.61 234.086C172.753 233.558 224.722 261.674 223.426 263.405C222.129 265.137 234.269 257.652 229.696 254.535C225.122 251.418 211.337 246.821 211.337 246.821" fill="#1D62FC"/>
</g>
<path fill-rule="evenodd" clip-rule="evenodd" d="M168.229 235.29C168.229 235.29 183.796 217.708 204.751 219.906L254.444 243.681L223.91 265.458L168.229 235.29Z" stroke="black" stroke-width="1.6" stroke-linecap="round" stroke-linejoin="round"/>
<path d="M246.062 242.587L254.444 243.681L255.142 238.386L240.374 232.093L246.062 242.587Z" fill="#1A80FD" stroke="black" stroke-width="1.6" stroke-linecap="round" stroke-linejoin="round"/>
<path d="M254.471 239.385L255.396 238.986C255.396 238.986 270.808 222.004 296.886 223.902L297.077 223.152L282.384 221.504L257.936 226.099L253.047 236.488L254.471 239.385Z" fill="#1A80FD" stroke="black" stroke-width="1.6" stroke-linecap="round" stroke-linejoin="round"/>
<path d="M252.049 238.287L255.142 238.386C255.142 238.386 270.235 220.955 297.077 223.152L273.004 212.214L240.374 222.237L234.088 230.362L252.049 238.287Z" fill="#1A80FD" stroke="black" stroke-width="1.6" stroke-linecap="round" stroke-linejoin="round"/>
<path d="M177.942 225.3L173.418 227.165C173.418 227.165 174.084 231.294 172.753 233.558L224.166 262.002L223.835 253.301L177.942 225.3Z" fill="white"/>
<mask id="mask23_602_451" style="mask-type:luminance" maskUnits="userSpaceOnUse" x="172" y="225" width="53" height="38">
<path fill-rule="evenodd" clip-rule="evenodd" d="M177.942 225.3L173.418 227.165C173.418 227.165 174.084 231.294 172.753 233.558L224.166 262.002L223.835 253.301L177.942 225.3Z" fill="white"/>
</mask>
<g mask="url(#mask23_602_451)">
<path d="M170.19 228.215L191.046 239.385L169.891 229.091L170.19 228.215Z" fill="#D6DCF2"/>
</g>
<path fill-rule="evenodd" clip-rule="evenodd" d="M177.942 225.3L173.418 227.165C173.418 227.165 174.084 231.294 172.753 233.558L224.166 262.002L223.835 253.301L177.942 225.3Z" stroke="black" stroke-width="1.6" stroke-linecap="round" stroke-linejoin="round"/>
<path d="M284.927 217.134L292.427 222.049C292.427 222.049 270.991 219.716 255.396 238.986L253.298 243.133L247.392 237.026L247.758 232.168L257.903 219.716L269.212 218.174" fill="white"/>
<path d="M284.927 217.134L292.427 222.049C292.427 222.049 270.991 219.716 255.396 238.986L253.298 243.133L247.392 237.026L247.758 232.168L257.903 219.716L269.212 218.174" stroke="black" stroke-width="1.6" stroke-linecap="round" stroke-linejoin="round"/>
<path d="M225.972 244.214L223.633 253.601L224.166 262.002L253.298 243.133L251.748 239.385L231.194 238.386L225.972 244.214Z" fill="white" stroke="black" stroke-width="1.6" stroke-linecap="round" stroke-linejoin="round"/>
<path d="M209.873 215.71C209.873 215.71 189.517 205.588 173.418 227.165L223.835 253.301C223.835 253.301 234.452 239.552 251.748 239.385L209.873 215.71Z" fill="white" stroke="black" stroke-width="1.6" stroke-linecap="round" stroke-linejoin="round"/>
<path d="M239.809 190.936C235.285 197.196 213.998 196.664 209.873 215.71L251.748 239.385C251.748 239.385 270.904 216.295 285.273 217.36L239.809 190.936Z" fill="white"/>
<mask id="mask24_602_451" style="mask-type:luminance" maskUnits="userSpaceOnUse" x="209" y="190" width="77" height="50">
<path fill-rule="evenodd" clip-rule="evenodd" d="M239.809 190.936C235.285 197.196 213.998 196.664 209.873 215.71L251.748 239.385C251.748 239.385 270.904 216.295 285.273 217.36L239.809 190.936Z" fill="white"/>
</mask>
<g mask="url(#mask24_602_451)">
<path d="M212.734 206.715C209.873 215.71 242.734 228.395 241.936 233.838C241.138 239.281 202.407 219.743 202.407 219.743V199.522" fill="#D6DCF2"/>
</g>
<path fill-rule="evenodd" clip-rule="evenodd" d="M239.809 190.936C235.285 197.196 213.998 196.664 209.873 215.71L251.748 239.385C251.748 239.385 270.904 216.295 285.273 217.36V217.36L239.809 190.936Z" stroke="black" stroke-width="1.6" stroke-linecap="round" stroke-linejoin="round"/>
<path d="M173.418 217.703C173.418 217.703 189.785 206.525 209.873 215.71L251.748 239.385C251.748 239.385 230.627 233.154 220.515 244.342L173.418 217.703Z" fill="white"/>
<mask id="mask25_602_451" style="mask-type:luminance" maskUnits="userSpaceOnUse" x="173" y="212" width="79" height="33">
<path fill-rule="evenodd" clip-rule="evenodd" d="M173.418 217.703C173.418 217.703 189.785 206.525 209.873 215.71L251.748 239.385C251.748 239.385 230.627 233.154 220.515 244.342L173.418 217.703Z" fill="white"/>
</mask>
<g mask="url(#mask25_602_451)">
<path d="M182.378 217.892L199.153 227.288C199.153 227.288 205.647 222.696 218.831 222.561L208.454 216.396C208.454 216.396 195.959 211.638 182.378 217.892Z" fill="#D6DCF2"/>
</g>
<path fill-rule="evenodd" clip-rule="evenodd" d="M173.418 217.703C173.418 217.703 189.785 206.525 209.873 215.71L251.748 239.385C251.748 239.385 230.627 233.154 220.515 244.342L173.418 217.703Z" stroke="black" stroke-width="1.6" stroke-linecap="round" stroke-linejoin="round"/>
<path d="M202.342 230.368L203.473 230.976C203.473 230.976 212.345 224.488 220.304 224.407L219.303 223.728C219.303 223.728 209.514 224.891 202.342 230.368Z" fill="#D6DCF2"/>
<path d="M206.641 232.963L207.773 233.571C207.773 233.571 216.645 227.083 224.604 227.002L223.603 226.323C223.603 226.323 213.814 227.486 206.641 232.963Z" fill="#D6DCF2"/>
<path d="M210.676 235.497L211.808 236.105C211.808 236.105 220.68 229.617 228.638 229.536L227.638 228.857C227.638 228.857 217.849 230.02 210.676 235.497Z" fill="#D6DCF2"/>
<path d="M202.551 222.022L201.346 222.323" stroke="black" stroke-width="1.6" stroke-linecap="round" stroke-linejoin="round"/>
<path d="M247.067 215.04L248.294 213.552" stroke="black" stroke-width="1.6" stroke-linecap="round" stroke-linejoin="round"/>
<path d="M238.923 247.054C238.465 247.44 237.92 247.708 237.335 247.835" stroke="black" stroke-width="1.6" stroke-linecap="round" stroke-linejoin="round"/>
</g>
</svg>
