<svg width="400" height="300" viewBox="0 0 400 300" fill="none" xmlns="http://www.w3.org/2000/svg">
<mask id="mask0_602_1467" style="mask-type:luminance" maskUnits="userSpaceOnUse" x="0" y="0" width="400" height="300">
<rect width="400" height="300" fill="white"/>
</mask>
<g mask="url(#mask0_602_1467)">
<rect x="156.904" y="93.8186" width="10.4779" height="14.3353" rx="4.28449" fill="white" stroke="black" stroke-width="1.6" stroke-linecap="round" stroke-linejoin="round"/>
<rect x="156.904" y="110.287" width="10.4779" height="14.3353" rx="4.28449" fill="white" stroke="black" stroke-width="1.6" stroke-linecap="round" stroke-linejoin="round"/>
<rect x="159.628" y="54.4949" width="114.754" height="215.661" rx="14.7573" fill="white"/>
<mask id="mask1_602_1467" style="mask-type:luminance" maskUnits="userSpaceOnUse" x="159" y="54" width="116" height="217">
<rect x="159.628" y="54.4949" width="114.754" height="215.661" rx="14.7573" fill="white"/>
</mask>
<g mask="url(#mask1_602_1467)">
<path d="M215.069 49.7049C198.909 62.292 259.128 51.1838 268.462 63.1311C280.427 78.4455 276.446 106.648 276.446 106.648L285.666 59.7707L245.32 40.0547" fill="#D6DCF2"/>
</g>
<rect x="159.628" y="54.4949" width="114.754" height="215.661" rx="14.7573" stroke="black" stroke-width="1.6" stroke-linecap="round" stroke-linejoin="round"/>
<path d="M255.015 59.7708H247.504C245.085 59.7708 243.124 61.7702 243.124 64.2366C243.124 66.7031 241.163 68.7025 238.743 68.7025H195.268C192.848 68.7025 190.887 66.7031 190.887 64.2366C190.887 61.7702 188.926 59.7708 186.507 59.7708H178.996C171.57 59.7708 165.549 65.9092 165.549 73.4814V247.98C165.549 255.553 171.57 261.691 178.996 261.691H255.015C262.441 261.691 268.462 255.553 268.462 247.98V73.4813C268.462 65.9092 262.441 59.7708 255.015 59.7708Z" fill="#1A80FD"/>
<path fill-rule="evenodd" clip-rule="evenodd" d="M255.015 59.7708H247.504C245.085 59.7708 243.124 61.7702 243.124 64.2366V64.2366C243.124 66.7031 241.163 68.7025 238.743 68.7025H195.268C192.848 68.7025 190.887 66.7031 190.887 64.2366V64.2366C190.887 61.7702 188.926 59.7708 186.507 59.7708H178.996C171.57 59.7708 165.549 65.9092 165.549 73.4814V247.98C165.549 255.553 171.57 261.691 178.996 261.691H255.015C262.441 261.691 268.462 255.553 268.462 247.98V73.4813C268.462 65.9092 262.441 59.7708 255.015 59.7708Z" stroke="black" stroke-width="1.6" stroke-linecap="round" stroke-linejoin="round"/>
<path d="M218.052 203.272C216.168 204.819 214.099 206.127 211.893 207.165" stroke="black" stroke-width="1.6" stroke-linecap="round" stroke-linejoin="round"/>
<path d="M324.448 83.9509H263.454C261.734 83.9519 260.34 85.3472 260.341 87.0674V115.015C260.34 116.735 261.734 118.131 263.454 118.132H303.326C304.933 120.163 306.767 122.476 308.099 124.157C308.715 124.934 309.956 124.488 309.956 123.496V118.132H324.448C326.168 118.131 327.562 116.735 327.561 115.015V87.0674C327.562 85.3472 326.168 83.9519 324.448 83.9509V83.9509Z" fill="#FCB006"/>
<mask id="mask2_602_1467" style="mask-type:luminance" maskUnits="userSpaceOnUse" x="260" y="83" width="68" height="42">
<path fill-rule="evenodd" clip-rule="evenodd" d="M324.448 83.9509H263.454C261.734 83.9519 260.34 85.3472 260.341 87.0674V115.015C260.34 116.735 261.734 118.131 263.454 118.132H303.326C304.933 120.163 306.767 122.476 308.099 124.157C308.715 124.934 309.956 124.488 309.956 123.496V118.132H324.448C326.168 118.131 327.562 116.735 327.561 115.015V87.0674C327.562 85.3472 326.168 83.9519 324.448 83.9509V83.9509Z" fill="white"/>
</mask>
<g mask="url(#mask2_602_1467)">
<path d="M327.561 81.8423C327.137 124.268 253.245 117.306 253.245 117.306L314.532 134.276L334.744 131.23L339.525 82.2774" fill="#FDD504"/>
</g>
<path fill-rule="evenodd" clip-rule="evenodd" d="M324.448 83.9509H263.454C261.734 83.9519 260.34 85.3472 260.341 87.0674V115.015C260.34 116.735 261.734 118.131 263.454 118.132H303.326C304.933 120.163 306.767 122.476 308.099 124.157C308.715 124.934 309.956 124.488 309.956 123.496V118.132H324.448C326.168 118.131 327.562 116.735 327.561 115.015V87.0674C327.562 85.3472 326.168 83.9519 324.448 83.9509V83.9509Z" stroke="black" stroke-width="1.6" stroke-linecap="round" stroke-linejoin="round"/>
<ellipse cx="273.913" cy="100.107" rx="3.10947" ry="3.11284" fill="white" stroke="black" stroke-width="1.6" stroke-linecap="round" stroke-linejoin="round"/>
<ellipse cx="286.912" cy="100.107" rx="3.10947" ry="3.11284" fill="white" stroke="black" stroke-width="1.6" stroke-linecap="round" stroke-linejoin="round"/>
<ellipse cx="299.911" cy="100.107" rx="3.10947" ry="3.11284" fill="white" stroke="black" stroke-width="1.6" stroke-linecap="round" stroke-linejoin="round"/>
<ellipse cx="312.909" cy="100.107" rx="3.10947" ry="3.11284" fill="white" stroke="black" stroke-width="1.6" stroke-linecap="round" stroke-linejoin="round"/>
<path d="M278.46 88.6817L273.468 92.2996" stroke="black" stroke-width="1.6" stroke-linecap="round" stroke-linejoin="round"/>
<path d="M315.608 110.22L312.651 111.324" stroke="black" stroke-width="1.6" stroke-linecap="round" stroke-linejoin="round"/>
<path d="M114.73 107.769H130.221V118.542C130.221 122.462 127.044 125.639 123.124 125.639H121.827C117.907 125.639 114.73 122.462 114.73 118.542V107.77V107.769Z" fill="#E43334" stroke="black" stroke-width="1.6" stroke-linecap="round" stroke-linejoin="round"/>
<path d="M128.718 122.043H116.233C114.887 122.043 113.595 121.508 112.643 120.556C111.691 119.604 111.156 118.312 111.156 116.966V104.174H133.795V116.966C133.795 118.312 133.26 119.604 132.308 120.556C131.356 121.508 130.064 122.043 128.718 122.043Z" fill="#E43334"/>
<mask id="mask3_602_1467" style="mask-type:luminance" maskUnits="userSpaceOnUse" x="111" y="104" width="23" height="19">
<path fill-rule="evenodd" clip-rule="evenodd" d="M128.718 122.043H116.233C114.887 122.043 113.595 121.508 112.643 120.556C111.691 119.604 111.156 118.312 111.156 116.966V104.174H133.795V116.966C133.795 118.312 133.26 119.604 132.308 120.556C131.356 121.508 130.064 122.043 128.718 122.043Z" fill="white"/>
</mask>
<g mask="url(#mask3_602_1467)">
<path d="M113.232 122.879C107.296 105.051 123.442 108.467 136.977 107.77C150.511 107.072 128.666 102.674 128.666 102.674L111.156 104.174L109.314 112.064L110.295 121.453" fill="#C11F27"/>
</g>
<path fill-rule="evenodd" clip-rule="evenodd" d="M128.718 122.043H116.233C114.887 122.043 113.595 121.508 112.643 120.556C111.691 119.604 111.156 118.312 111.156 116.966V104.174H133.795V116.966C133.795 118.312 133.26 119.604 132.308 120.556C131.356 121.508 130.064 122.043 128.718 122.043Z" stroke="black" stroke-width="1.6" stroke-linecap="round" stroke-linejoin="round"/>
<path d="M144.679 74.2098C144.679 62.0561 134.936 52.1806 122.842 51.9849C114.819 51.8644 107.353 56.0756 103.307 63.0043C99.2599 69.933 99.2601 78.5044 103.307 85.4329C106.958 91.6673 108.979 98.7226 108.979 105.95C108.979 106.353 109.306 106.68 109.709 106.68H135.242C135.436 106.68 135.622 106.603 135.758 106.466C135.895 106.329 135.972 106.143 135.972 105.949C135.972 98.8087 137.837 91.7696 141.515 85.6513C143.592 82.1967 144.686 78.2406 144.679 74.2098Z" fill="#FDD504"/>
<mask id="mask4_602_1467" style="mask-type:luminance" maskUnits="userSpaceOnUse" x="100" y="51" width="45" height="56">
<path fill-rule="evenodd" clip-rule="evenodd" d="M144.679 74.2098C144.679 62.0561 134.936 52.1806 122.842 51.9849C114.819 51.8644 107.353 56.0756 103.307 63.0043C99.2599 69.933 99.2601 78.5044 103.307 85.4329C106.958 91.6673 108.979 98.7226 108.979 105.95C108.979 106.353 109.306 106.68 109.709 106.68H135.242C135.436 106.68 135.622 106.603 135.758 106.466C135.895 106.329 135.972 106.143 135.972 105.949C135.972 98.8087 137.837 91.7696 141.515 85.6513C143.592 82.1967 144.686 78.2406 144.679 74.2098Z" fill="white"/>
</mask>
<g mask="url(#mask4_602_1467)">
<path d="M107.533 55.3715C84.0262 81.0433 121.78 108.814 141.251 106.457C160.721 104.1 113.232 122.879 113.232 122.879L93.077 113.109L85.4509 76.7456" fill="#FCB006"/>
</g>
<path fill-rule="evenodd" clip-rule="evenodd" d="M144.679 74.2098C144.679 62.0561 134.936 52.1806 122.842 51.9849C114.819 51.8644 107.353 56.0756 103.307 63.0043C99.2599 69.933 99.2601 78.5044 103.307 85.4329C106.958 91.6673 108.979 98.7226 108.979 105.95V105.95C108.979 106.353 109.306 106.68 109.709 106.68H135.242C135.436 106.68 135.622 106.603 135.758 106.466C135.895 106.329 135.972 106.143 135.972 105.949V105.949C135.972 98.8087 137.837 91.7696 141.515 85.6513C143.592 82.1967 144.686 78.2406 144.679 74.2098V74.2098Z" stroke="black" stroke-width="1.6" stroke-linecap="round" stroke-linejoin="round"/>
<rect x="110.295" y="109.622" width="24.3608" height="3.48672" rx="1.59559" fill="white" stroke="black" stroke-width="1.6" stroke-linecap="round" stroke-linejoin="round"/>
<rect x="110.295" y="114.961" width="24.3608" height="3.48672" rx="1.59559" fill="white" stroke="black" stroke-width="1.6" stroke-linecap="round" stroke-linejoin="round"/>
<rect x="120.003" y="22.6479" width="4.94456" height="20.6605" rx="2.26517" fill="#FCB006" stroke="black" stroke-width="1.6" stroke-linecap="round" stroke-linejoin="round"/>
<rect x="72.4388" y="75.2138" width="4.94991" height="20.6382" rx="2.26517" transform="rotate(-90 72.4388 75.2138)" fill="#FCB006" stroke="black" stroke-width="1.6" stroke-linecap="round" stroke-linejoin="round"/>
<rect x="151.874" y="75.2138" width="4.94991" height="20.6382" rx="2.26517" transform="rotate(-90 151.874 75.2138)" fill="#FCB006" stroke="black" stroke-width="1.6" stroke-linecap="round" stroke-linejoin="round"/>
<path d="M101.835 51.7809L101.54 52.0759C101.116 52.5009 100.54 52.7397 99.9394 52.7397C99.3389 52.7397 98.7629 52.5009 98.3386 52.0759L86.9469 40.6719C86.0628 39.7864 86.0628 38.3522 86.9469 37.4667L87.2415 37.1717C87.6659 36.7467 88.2418 36.5079 88.8424 36.5079C89.443 36.5079 90.0189 36.7467 90.4432 37.1717L101.835 48.5757C102.719 49.4612 102.719 50.8955 101.835 51.7809Z" fill="#FCB006" stroke="black" stroke-width="1.6" stroke-linecap="round" stroke-linejoin="round"/>
<path d="M157.71 37.1717L158.004 37.4667C158.888 38.3522 158.888 39.7864 158.004 40.6719L146.613 52.0759C146.188 52.5009 145.612 52.7397 145.012 52.7397C144.411 52.7397 143.835 52.5009 143.411 52.0759L143.116 51.781C142.232 50.8955 142.232 49.4613 143.116 48.5758L154.508 37.1718C154.932 36.7468 155.508 36.508 156.109 36.508C156.709 36.508 157.285 36.7468 157.71 37.1717Z" fill="#FCB006" stroke="black" stroke-width="1.6" stroke-linecap="round" stroke-linejoin="round"/>
<path d="M135.412 73.6315C133.086 76.22 130.526 78.5896 127.767 80.7103" stroke="black" stroke-width="1.6" stroke-linecap="round" stroke-linejoin="round"/>
<path d="M104.095 171.389C104.095 186.264 116.14 198.323 130.999 198.323C133.853 198.321 136.687 197.863 139.397 196.967L156.341 202.202C158.23 202.785 159.92 200.859 159.098 199.059L153.325 186.422C156.318 181.981 157.912 176.745 157.904 171.389C157.904 156.514 145.858 144.456 130.999 144.456C116.141 144.456 104.095 156.514 104.095 171.389Z" fill="#E43334"/>
<mask id="mask5_602_1467" style="mask-type:luminance" maskUnits="userSpaceOnUse" x="104" y="144" width="56" height="59">
<path fill-rule="evenodd" clip-rule="evenodd" d="M104.095 171.389C104.095 186.264 116.14 198.323 130.999 198.323C133.853 198.321 136.687 197.863 139.397 196.967L156.341 202.202C158.23 202.785 159.92 200.859 159.098 199.059L153.325 186.422C156.318 181.981 157.912 176.745 157.904 171.389C157.904 156.514 145.858 144.456 130.999 144.456C116.141 144.456 104.095 156.514 104.095 171.389Z" fill="white"/>
</mask>
<g mask="url(#mask5_602_1467)">
<path d="M110.456 148.668C103.067 212.173 139.396 196.967 139.396 196.967L123.714 209.127L75.0314 186.282L95.8953 151.259" fill="#C11F27"/>
</g>
<path fill-rule="evenodd" clip-rule="evenodd" d="M104.095 171.389C104.095 186.264 116.14 198.323 130.999 198.323C133.853 198.321 136.687 197.863 139.397 196.967L156.341 202.202C158.23 202.785 159.92 200.859 159.098 199.059L153.325 186.422C156.318 181.981 157.912 176.745 157.904 171.389C157.904 156.514 145.858 144.456 130.999 144.456C116.141 144.456 104.095 156.514 104.095 171.389Z" stroke="black" stroke-width="1.6" stroke-linecap="round" stroke-linejoin="round"/>
<path fill-rule="evenodd" clip-rule="evenodd" d="M134.177 166.029C133.787 166.572 133.191 167.183 132.39 167.863L131.504 168.678C130.592 169.489 129.909 170.525 129.522 171.682C129.144 172.826 128.955 174.36 128.955 176.284H133.346C133.346 175.107 133.487 174.15 133.77 173.414C134.066 172.661 134.54 171.991 135.151 171.462C136.425 170.353 137.375 169.47 138.001 168.813C138.636 168.144 139.156 167.375 139.542 166.538C139.943 165.678 140.144 164.671 140.144 163.516C140.162 162.197 139.773 160.904 139.028 159.814C138.284 158.728 137.246 157.879 135.912 157.268C134.579 156.656 133.062 156.351 131.363 156.351C128.978 156.351 127.031 156.838 125.521 157.811C124.01 158.785 122.983 160.188 122.44 162.022L126.618 163.89C127.256 161.581 128.707 160.426 130.973 160.426C132.2 160.426 133.139 160.765 133.788 161.445C134.437 162.124 134.762 162.973 134.762 163.991C134.762 164.806 134.567 165.486 134.177 166.029ZM133.434 180.104C132.879 179.572 132.142 179.306 131.221 179.306C130.3 179.306 129.562 179.572 129.008 180.104C128.453 180.636 128.176 181.343 128.176 182.226C128.176 183.109 128.453 183.817 129.008 184.349C129.563 184.881 130.301 185.147 131.221 185.147C132.141 185.146 132.879 184.88 133.434 184.349C133.989 183.817 134.266 183.11 134.266 182.226C134.266 181.344 133.988 180.636 133.434 180.104Z" fill="white"/>
<path d="M132.39 167.863L131.872 167.252C131.864 167.259 131.856 167.267 131.848 167.274L132.39 167.863ZM134.177 166.029L134.827 166.495L134.827 166.495L134.177 166.029ZM131.504 168.678L132.036 169.275L132.046 169.266L131.504 168.678ZM129.522 171.682L128.763 171.429L128.762 171.432L129.522 171.682ZM128.955 176.284H128.155C128.155 176.726 128.513 177.084 128.955 177.084V176.284ZM133.346 176.284V177.084C133.787 177.084 134.146 176.726 134.146 176.284L133.346 176.284ZM133.77 173.414L133.025 173.122L133.023 173.127L133.77 173.414ZM135.151 171.462L135.675 172.067L135.676 172.065L135.151 171.462ZM138.001 168.813L138.581 169.365L138.582 169.363L138.001 168.813ZM139.542 166.538L138.817 166.2L138.815 166.203L139.542 166.538ZM140.144 163.516L139.344 163.505V163.516H140.144ZM139.028 159.814L139.689 159.363L139.688 159.362L139.028 159.814ZM135.912 157.268L136.246 156.541L136.246 156.541L135.912 157.268ZM131.363 156.351V155.551H131.363L131.363 156.351ZM125.521 157.811L125.087 157.139L125.087 157.139L125.521 157.811ZM122.44 162.022L121.673 161.795C121.559 162.179 121.748 162.589 122.114 162.752L122.44 162.022ZM126.618 163.89L126.292 164.62C126.505 164.715 126.748 164.713 126.959 164.613C127.17 164.514 127.327 164.327 127.389 164.103L126.618 163.89ZM130.973 160.426V161.226H130.973L130.973 160.426ZM133.788 161.445L133.209 161.997L133.21 161.997L133.788 161.445ZM134.762 163.991H133.962V163.991L134.762 163.991ZM131.221 179.306V178.506H131.221L131.221 179.306ZM133.434 180.104L133.988 179.527L133.988 179.527L133.434 180.104ZM129.008 180.104L128.454 179.527L128.454 179.527L129.008 180.104ZM128.176 182.226L128.976 182.227V182.226H128.176ZM129.008 184.349L128.454 184.926L128.454 184.926L129.008 184.349ZM131.221 185.147V185.947H131.222L131.221 185.147ZM133.434 184.349L133.987 184.926L133.987 184.926L133.434 184.349ZM134.266 182.226H135.066V182.226L134.266 182.226ZM132.907 168.473C133.734 167.773 134.384 167.113 134.827 166.495L133.527 165.562C133.191 166.031 132.649 166.594 131.872 167.252L132.907 168.473ZM132.046 169.266L132.931 168.451L131.848 167.274L130.962 168.089L132.046 169.266ZM130.28 171.936C130.623 170.911 131.228 169.994 132.036 169.275L130.972 168.08C129.956 168.984 129.194 170.139 128.763 171.429L130.28 171.936ZM129.755 176.284C129.755 174.4 129.942 172.962 130.281 171.933L128.762 171.432C128.347 172.69 128.155 174.319 128.155 176.284H129.755ZM133.346 175.484H128.955V177.084H133.346V175.484ZM133.023 173.127C132.692 173.988 132.546 175.052 132.546 176.284L134.146 176.284C134.146 175.161 134.282 174.312 134.517 173.701L133.023 173.127ZM134.627 170.857C133.918 171.471 133.368 172.249 133.025 173.122L134.515 173.707C134.763 173.074 135.161 172.512 135.675 172.067L134.627 170.857ZM137.422 168.261C136.822 168.891 135.894 169.755 134.626 170.858L135.676 172.065C136.956 170.952 137.929 170.049 138.581 169.365L137.422 168.261ZM138.815 166.203C138.466 166.961 137.995 167.657 137.421 168.263L138.582 169.363C139.276 168.631 139.846 167.789 140.268 166.873L138.815 166.203ZM139.344 163.516C139.344 164.579 139.159 165.466 138.817 166.2L140.266 166.876C140.727 165.89 140.944 164.763 140.944 163.516H139.344ZM138.368 160.266C139.019 161.219 139.36 162.35 139.344 163.505L140.943 163.527C140.964 162.043 140.526 160.589 139.689 159.363L138.368 160.266ZM135.579 157.995C136.796 158.553 137.715 159.313 138.368 160.267L139.688 159.362C138.853 158.143 137.695 157.206 136.246 156.541L135.579 157.995ZM131.363 157.151C132.965 157.151 134.365 157.439 135.579 157.995L136.246 156.541C134.792 155.874 133.159 155.551 131.363 155.551V157.151ZM125.954 158.484C127.299 157.617 129.083 157.151 131.363 157.151L131.363 155.551C128.874 155.551 126.763 156.059 125.087 157.139L125.954 158.484ZM123.207 162.249C123.699 160.586 124.615 159.346 125.954 158.484L125.087 157.139C123.405 158.223 122.266 159.79 121.673 161.795L123.207 162.249ZM126.945 163.159L122.767 161.291L122.114 162.752L126.292 164.62L126.945 163.159ZM130.973 159.626C129.701 159.626 128.584 159.953 127.687 160.666C126.795 161.376 126.198 162.407 125.847 163.677L127.389 164.103C127.676 163.064 128.124 162.363 128.683 161.918C129.238 161.477 129.98 161.226 130.973 161.226V159.626ZM134.366 160.892C133.524 160.01 132.349 159.626 130.973 159.626L130.973 161.226C132.052 161.226 132.754 161.52 133.209 161.997L134.366 160.892ZM135.562 163.991C135.562 162.786 135.17 161.733 134.366 160.892L133.21 161.997C133.704 162.515 133.962 163.16 133.962 163.991H135.562ZM134.827 166.495C135.334 165.788 135.562 164.936 135.562 163.991L133.962 163.991C133.962 164.676 133.8 165.183 133.527 165.563L134.827 166.495ZM131.221 180.106C131.979 180.106 132.503 180.32 132.88 180.681L133.988 179.527C133.255 178.824 132.305 178.506 131.221 178.506V180.106ZM129.562 180.681C129.938 180.32 130.463 180.106 131.222 180.106L131.221 178.506C130.137 178.507 129.186 178.825 128.454 179.527L129.562 180.681ZM128.976 182.226C128.976 181.526 129.188 181.039 129.562 180.681L128.454 179.527C127.718 180.232 127.376 181.161 127.376 182.226H128.976ZM129.562 183.771C129.188 183.413 128.976 182.927 128.976 182.227L127.376 182.226C127.376 183.292 127.718 184.22 128.454 184.926L129.562 183.771ZM131.221 184.347C130.464 184.347 129.939 184.133 129.562 183.771L128.454 184.926C129.187 185.628 130.138 185.947 131.221 185.947V184.347ZM132.88 183.771C132.503 184.133 131.978 184.346 131.221 184.347L131.222 185.947C132.305 185.946 133.255 185.628 133.987 184.926L132.88 183.771ZM133.466 182.226C133.466 182.927 133.254 183.413 132.88 183.771L133.987 184.926C134.724 184.221 135.066 183.292 135.066 182.226H133.466ZM132.88 180.681C133.253 181.04 133.466 181.526 133.466 182.227L135.066 182.226C135.065 181.161 134.723 180.233 133.988 179.527L132.88 180.681Z" fill="black"/>
<path d="M153.433 179.076L149.123 181.903" stroke="black" stroke-width="1.6" stroke-linecap="round" stroke-linejoin="round"/>
<path d="M117.866 158.789L116.893 159.45" stroke="black" stroke-width="1.6" stroke-linecap="round" stroke-linejoin="round"/>
<path d="M254.825 104.878C254.825 104.006 254.479 103.169 253.863 102.551C253.246 101.934 252.409 101.587 251.537 101.586H182.028C181.155 101.587 180.319 101.934 179.702 102.551C179.085 103.169 178.739 104.006 178.74 104.878V108.916H254.825V104.878Z" fill="white" stroke="black" stroke-width="1.6" stroke-linecap="round" stroke-linejoin="round"/>
<path d="M178.74 108.916V149.214C178.739 150.086 179.085 150.923 179.702 151.54C180.319 152.158 181.155 152.505 182.028 152.505H251.537C252.409 152.505 253.246 152.158 253.863 151.54C254.479 150.923 254.825 150.086 254.825 149.214V108.916H178.74Z" fill="white" stroke="black" stroke-width="1.6" stroke-linecap="round" stroke-linejoin="round"/>
<ellipse cx="182.873" cy="105.163" rx="0.91078" ry="0.91177" fill="#E43334" stroke="black" stroke-width="1.6" stroke-linecap="round" stroke-linejoin="round"/>
<ellipse cx="186.7" cy="105.163" rx="0.91078" ry="0.91177" fill="#FDD504" stroke="black" stroke-width="1.6" stroke-linecap="round" stroke-linejoin="round"/>
<ellipse cx="190.527" cy="105.163" rx="0.91078" ry="0.91177" fill="#1AB995" stroke="black" stroke-width="1.6" stroke-linecap="round" stroke-linejoin="round"/>
<rect x="184.726" y="112.976" width="64.1128" height="34.7688" rx="1.37756" fill="#7A24EA"/>
<mask id="mask6_602_1467" style="mask-type:luminance" maskUnits="userSpaceOnUse" x="184" y="112" width="65" height="36">
<rect x="184.726" y="112.976" width="64.1128" height="34.7688" rx="1.37756" fill="white"/>
</mask>
<g mask="url(#mask6_602_1467)">
<path d="M247.279 109.451C248.839 146.366 176.104 149.242 176.104 149.242L258.392 162.326L263.769 127.046" fill="#6B1AD3"/>
</g>
<rect x="184.726" y="112.976" width="64.1128" height="34.7688" rx="1.37756" stroke="black" stroke-width="1.6" stroke-linecap="round" stroke-linejoin="round"/>
<ellipse opacity="0.36" cx="216.782" cy="128.758" rx="10.1685" ry="10.1922" fill="white" stroke="black" stroke-width="1.6" stroke-linecap="round" stroke-linejoin="round"/>
<path d="M213.949 128.758V125.003C213.949 124.775 214.07 124.564 214.267 124.45C214.465 124.336 214.708 124.336 214.905 124.45L218.15 126.327L221.395 128.205C221.592 128.32 221.713 128.53 221.713 128.758C221.713 128.987 221.592 129.197 221.395 129.312L218.15 131.19L214.905 133.067C214.708 133.181 214.465 133.181 214.267 133.067C214.07 132.953 213.949 132.742 213.949 132.514V128.758Z" fill="white" stroke="black" stroke-width="1.6" stroke-linecap="round" stroke-linejoin="round"/>
<path d="M195.413 122.324C194.832 123.002 194.119 123.555 193.317 123.949" stroke="black" stroke-width="1.6" stroke-linecap="round" stroke-linejoin="round"/>
<path d="M242.252 141.401L240.664 141.931" stroke="black" stroke-width="1.6" stroke-linecap="round" stroke-linejoin="round"/>
<path d="M299.473 200.363V159.232H275.795V200.363C259.842 205.395 248.271 220.315 248.271 237.947C248.271 259.71 265.895 277.352 287.634 277.352C309.373 277.352 326.996 259.71 326.996 237.947C326.996 220.315 315.425 205.395 299.473 200.363Z" fill="white"/>
<mask id="mask7_602_1467" style="mask-type:luminance" maskUnits="userSpaceOnUse" x="248" y="159" width="79" height="119">
<path fill-rule="evenodd" clip-rule="evenodd" d="M299.473 200.363V159.232H275.795V200.363C259.842 205.395 248.271 220.315 248.271 237.947C248.271 259.71 265.895 277.352 287.634 277.352C309.373 277.352 326.996 259.71 326.996 237.947C326.996 220.315 315.425 205.395 299.473 200.363Z" fill="white"/>
</mask>
<g mask="url(#mask7_602_1467)">
<path d="M273.137 189.533C273.685 181.122 283.385 161.441 289.552 161.441C295.719 161.441 278.827 158.324 278.827 158.324L272.838 162.26L269.621 167.271" fill="#D6DCF2"/>
</g>
<path fill-rule="evenodd" clip-rule="evenodd" d="M299.473 200.363V159.232H275.795V200.363C259.842 205.395 248.271 220.315 248.271 237.947C248.271 259.71 265.895 277.352 287.634 277.352C309.373 277.352 326.996 259.71 326.996 237.947C326.996 220.315 315.425 205.395 299.473 200.363Z" stroke="black" stroke-width="1.6" stroke-linecap="round" stroke-linejoin="round"/>
<rect x="271.986" y="155.029" width="31.2962" height="7.40086" rx="3.39054" fill="white" stroke="black" stroke-width="1.6" stroke-linecap="round" stroke-linejoin="round"/>
<path d="M255.856 227.667C269.442 217.646 290.535 233.394 305.73 232.141C320.924 230.888 306.802 239.478 305.73 239.836C304.657 240.194 277.665 245.049 277.665 245.049" fill="#FCB006"/>
<path d="M255.856 227.667C269.442 217.646 290.535 233.394 305.73 232.141C320.924 230.888 306.802 239.478 305.73 239.836C304.657 240.194 277.665 245.049 277.665 245.049" stroke="black" stroke-width="1.6" stroke-linecap="round" stroke-linejoin="round"/>
<path d="M287.634 232.354C271.254 237.724 262.291 222.987 254.204 220.54C251.398 225.913 249.933 231.885 249.934 237.947C249.934 258.79 266.813 275.687 287.634 275.687C308.455 275.687 325.333 258.79 325.333 237.947C325.336 232.786 324.276 227.68 322.22 222.945C313.399 222.576 302.798 227.382 287.634 232.354Z" fill="#FDD504"/>
<mask id="mask8_602_1467" style="mask-type:luminance" maskUnits="userSpaceOnUse" x="249" y="220" width="77" height="56">
<path fill-rule="evenodd" clip-rule="evenodd" d="M287.634 232.354C271.254 237.724 262.291 222.987 254.204 220.54C251.398 225.913 249.933 231.885 249.934 237.947C249.934 258.79 266.813 275.687 287.634 275.687C308.455 275.687 325.333 258.79 325.333 237.947C325.336 232.786 324.276 227.68 322.22 222.945C313.399 222.576 302.798 227.382 287.634 232.354Z" fill="white"/>
</mask>
<g mask="url(#mask8_602_1467)">
<path d="M254.204 220.54C253.354 287.437 339.694 270.794 339.694 270.794L246.561 301.982L219.032 259.163L227.255 231.604" fill="#FCB006"/>
</g>
<path fill-rule="evenodd" clip-rule="evenodd" d="M287.634 232.354C271.254 237.724 262.291 222.987 254.204 220.54C251.398 225.913 249.933 231.885 249.934 237.947C249.934 258.79 266.813 275.687 287.634 275.687C308.455 275.687 325.333 258.79 325.333 237.947C325.336 232.786 324.276 227.68 322.22 222.945C313.399 222.576 302.798 227.382 287.634 232.354Z" stroke="black" stroke-width="1.6" stroke-linecap="round" stroke-linejoin="round"/>
<ellipse opacity="0.2" cx="266.725" cy="240.675" rx="1.16621" ry="1.16747" fill="white" stroke="black" stroke-width="1.6" stroke-linecap="round" stroke-linejoin="round"/>
<ellipse opacity="0.2" cx="280.016" cy="239.847" rx="1.61161" ry="1.61335" fill="white" stroke="black" stroke-width="1.6" stroke-linecap="round" stroke-linejoin="round"/>
<ellipse opacity="0.2" cx="269.596" cy="247.342" rx="0.99675" ry="0.99783" fill="white" stroke="black" stroke-width="1.6" stroke-linecap="round" stroke-linejoin="round"/>
<ellipse opacity="0.2" cx="306.959" cy="249.478" rx="3.83705" ry="3.8412" fill="white" stroke="black" stroke-width="1.6" stroke-linecap="round" stroke-linejoin="round"/>
<path d="M284.098 174.453L283.218 177.062" stroke="black" stroke-width="1.6" stroke-linecap="round" stroke-linejoin="round"/>
<path d="M299.67 246.687C297.708 249.369 295.213 251.617 292.342 253.29" stroke="black" stroke-width="1.6" stroke-linecap="round" stroke-linejoin="round"/>
<rect x="99.1165" y="253.422" width="91.962" height="16.8882" fill="#FDD504"/>
<mask id="mask9_602_1467" style="mask-type:luminance" maskUnits="userSpaceOnUse" x="99" y="253" width="93" height="18">
<rect x="99.1165" y="253.422" width="91.962" height="16.8882" fill="white"/>
</mask>
<g mask="url(#mask9_602_1467)">
<rect x="110.638" y="250.538" width="11.7267" height="22.0371" fill="#E43334" stroke="black" stroke-width="1.6" stroke-linecap="round" stroke-linejoin="round"/>
<path d="M133.973 252.606C130.073 256.122 199.102 259.642 200.336 267.416C201.571 275.189 195.907 246.96 195.907 246.96L186.912 247.646" fill="#FCB006"/>
</g>
<rect x="99.1165" y="253.422" width="91.962" height="16.8882" stroke="black" stroke-width="1.6" stroke-linecap="round" stroke-linejoin="round"/>
<rect x="122.984" y="214.016" width="91.962" height="16.8882" fill="#E43334"/>
<mask id="mask10_602_1467" style="mask-type:luminance" maskUnits="userSpaceOnUse" x="122" y="214" width="93" height="17">
<rect x="122.984" y="214.016" width="91.962" height="16.8882" fill="white"/>
</mask>
<g mask="url(#mask10_602_1467)">
<rect x="203.425" y="233.17" width="11.7267" height="22.0371" transform="rotate(-180 203.425 233.17)" fill="white" stroke="black" stroke-width="1.6" stroke-linecap="round" stroke-linejoin="round"/>
<rect x="188.684" y="233.17" width="2.19447" height="22.0371" transform="rotate(-180 188.684 233.17)" fill="white" stroke="black" stroke-width="1.6" stroke-linecap="round" stroke-linejoin="round"/>
<path d="M121.98 227.288C118.963 229.897 181.094 229.897 179.722 230.996C178.351 232.094 124.449 235.115 124.449 235.115L119.512 227.975" fill="#C11F27"/>
</g>
<rect x="122.984" y="214.016" width="91.962" height="16.8882" stroke="black" stroke-width="1.6" stroke-linecap="round" stroke-linejoin="round"/>
<path d="M209.714 241.476H128.216C131.39 244.308 128.216 252.443 128.216 252.443H209.714C209.714 252.443 206.54 244.308 209.714 241.476Z" fill="white"/>
<mask id="mask11_602_1467" style="mask-type:luminance" maskUnits="userSpaceOnUse" x="128" y="241" width="82" height="12">
<path fill-rule="evenodd" clip-rule="evenodd" d="M209.714 241.476H128.216C131.39 244.308 128.216 252.444 128.216 252.444H209.714C209.714 252.444 206.54 244.308 209.714 241.476Z" fill="white"/>
</mask>
<g mask="url(#mask11_602_1467)">
<path d="M127.09 245.721L128.735 245.75L156.921 246.236L125.444 246.96" fill="#D6DCF2"/>
<path d="M222.384 248.865L220.739 248.837L192.553 248.35L224.03 247.626" fill="#D6DCF2"/>
</g>
<path fill-rule="evenodd" clip-rule="evenodd" d="M209.714 241.476H128.216C131.39 244.308 128.216 252.443 128.216 252.443H209.714C209.714 252.443 206.54 244.308 209.714 241.476Z" stroke="black" stroke-width="1.6" stroke-linecap="round" stroke-linejoin="round"/>
<rect x="125.041" y="239.417" width="87.8474" height="3.08931" fill="#1AB995" stroke="black" stroke-width="1.6" stroke-linecap="round" stroke-linejoin="round"/>
<rect x="125.041" y="250.332" width="87.8474" height="3.08931" fill="#1AB995" stroke="black" stroke-width="1.6" stroke-linecap="round" stroke-linejoin="round"/>
<rect x="102.545" y="235.161" width="97.7911" height="5.2175" fill="#7A24EA"/>
<mask id="mask12_602_1467" style="mask-type:luminance" maskUnits="userSpaceOnUse" x="102" y="235" width="99" height="6">
<rect x="102.545" y="235.161" width="97.7911" height="5.2175" fill="white"/>
</mask>
<g mask="url(#mask12_602_1467)">
<path d="M151.441 234.291C137.89 238.616 201.256 236.305 203.107 237.769C204.959 239.234 204.342 233.513 204.342 233.513L186.237 231.408" fill="#6B1AD3"/>
</g>
<rect x="102.545" y="235.161" width="97.7911" height="5.2175" stroke="black" stroke-width="1.6" stroke-linecap="round" stroke-linejoin="round"/>
<rect x="110.5" y="230.904" width="97.7911" height="5.2175" fill="#1A80FD" stroke="black" stroke-width="1.6" stroke-linecap="round" stroke-linejoin="round"/>
<path d="M155.56 263.283L157.583 264.891" stroke="black" stroke-width="1.6" stroke-linecap="round" stroke-linejoin="round"/>
<path d="M150.346 222.035L153.973 221.61" stroke="black" stroke-width="1.6" stroke-linecap="round" stroke-linejoin="round"/>
</g>
</svg>
