<svg width="405" height="272" viewBox="0 0 405 272" fill="none" xmlns="http://www.w3.org/2000/svg">
<rect x="351.158" y="243.254" width="246.27" height="45.177" transform="rotate(-180 351.158 243.254)" fill="#BB393C"/>
<mask id="mask0_0_118" style="mask-type:luminance" maskUnits="userSpaceOnUse" x="104" y="198" width="248" height="46">
<rect x="351.158" y="243.254" width="246.27" height="45.177" transform="rotate(-180 351.158 243.254)" fill="white"/>
</mask>
<g mask="url(#mask0_0_118)">
<rect x="320.305" y="249.315" width="31.4035" height="58.9505" transform="rotate(-180 320.305 249.315)" fill="#90282A"/>
<rect x="280.828" y="249.315" width="5.87669" height="58.9505" transform="rotate(-180 280.828 249.315)" fill="#90282A"/>
<path d="M102.2 233.582C94.1197 240.561 260.503 240.561 256.83 243.499C253.158 246.438 108.811 254.518 108.811 254.518L95.5889 235.419" fill="#90282A"/>
<path d="M193.317 202.379C180.168 201.886 268.229 232.771 270.709 233.322C273.188 233.873 266.868 213.673 266.868 213.673L249.237 208.715" fill="#90282A"/>
</g>
<path d="M158.517 196.943L285.6 225.959C285.6 225.959 288.171 199.881 293.68 196.943H158.517Z" fill="#EFF3FC"/>
<path d="M326.106 140.565H140.479C147.707 155.123 140.479 196.943 140.479 196.943H326.106C326.106 196.943 318.877 155.123 326.106 140.565Z" fill="#EFF3FC"/>
<mask id="mask1_0_118" style="mask-type:luminance" maskUnits="userSpaceOnUse" x="140" y="140" width="187" height="57">
<path fill-rule="evenodd" clip-rule="evenodd" d="M326.106 140.565H140.479C147.707 155.123 140.479 196.943 140.479 196.943H326.106C326.106 196.943 318.877 155.123 326.106 140.565Z" fill="white"/>
</mask>
<g mask="url(#mask1_0_118)">
<path d="M137.912 162.387L141.659 162.533L205.858 165.034L134.163 168.754" fill="#D6DCF2"/>
<path d="M354.964 178.547L351.216 178.401L287.018 175.9L358.713 172.179" fill="#D6DCF2"/>
<path d="M356.839 151.613L353.091 151.467L151.45 148.896L360.587 145.246" fill="#D6DCF2"/>
</g>
<rect x="133.247" y="129.978" width="200.09" height="10.5873" fill="#75AA3C"/>
<mask id="mask2_0_118" style="mask-type:luminance" maskUnits="userSpaceOnUse" x="133" y="129" width="201" height="12">
<rect x="133.247" y="129.978" width="200.09" height="10.5873" fill="white"/>
</mask>
<g mask="url(#mask2_0_118)">
<path d="M121.529 135.272L365.266 140.566L133.247 156.2" fill="#97CC64"/>
</g>
<rect x="133.247" y="187.543" width="200.09" height="10.5873" fill="#75AA3C"/>
<mask id="mask3_0_118" style="mask-type:luminance" maskUnits="userSpaceOnUse" x="133" y="187" width="201" height="12">
<rect x="133.247" y="187.543" width="200.09" height="10.5873" fill="white"/>
</mask>
<g mask="url(#mask3_0_118)">
<path d="M125.552 196.943C140.478 196.943 304.791 194.143 305.893 198.13C306.995 202.117 143.549 207.994 143.549 207.994L110.397 196.943" fill="#75AA3C"/>
</g>
<path d="M254.998 173.524L265.704 171.305L268.723 170.679C269.223 170.576 269.56 169.958 269.404 169.479C269.251 168.967 268.722 168.667 268.204 168.797L257.497 171.016L254.479 171.641C253.978 171.745 253.642 172.363 253.797 172.842C253.951 173.354 254.48 173.654 254.998 173.524V173.524Z" fill="#D6DCF2"/>
<path d="M157.57 224.677H170.398C170.909 224.677 171.398 224.228 171.374 223.701C171.365 223.166 170.934 222.734 170.398 222.725H157.57C157.059 222.725 156.57 223.174 156.594 223.701C156.603 224.236 157.035 224.668 157.57 224.677Z" fill="#90282A"/>
<path d="M289.784 7.8902C289.784 3.59553 286.302 0.114021 282.008 0.114014H117.615C113.32 0.114021 109.839 3.59553 109.839 7.8902V17.4288H289.784V7.8902Z" fill="#EFF3FC"/>
<mask id="mask4_0_118" style="mask-type:luminance" maskUnits="userSpaceOnUse" x="109" y="0" width="181" height="18">
<path fill-rule="evenodd" clip-rule="evenodd" d="M289.784 7.8902C289.784 3.59553 286.302 0.114021 282.008 0.114014H117.615C113.32 0.114021 109.839 3.59553 109.839 7.8902V17.4288H289.784V7.8902Z" fill="white"/>
</mask>
<g mask="url(#mask4_0_118)">
<path d="M87.6689 0.113979C286.133 1.30738 287.789 -1.05212 289.464 21.137C291.138 43.3261 295.325 -10.2626 295.325 -10.2626L234.619 -14.4492L113.207 -7.33199" fill="#D6DCF2"/>
</g>
<path d="M109.839 17.4287V112.632C109.839 116.927 113.32 120.409 117.615 120.409H282.008C286.302 120.409 289.784 116.927 289.784 112.632V17.4287H109.839Z" fill="#589BF7"/>
<mask id="mask5_0_118" style="mask-type:luminance" maskUnits="userSpaceOnUse" x="109" y="17" width="181" height="104">
<path fill-rule="evenodd" clip-rule="evenodd" d="M109.839 17.4287V112.632C109.839 116.927 113.32 120.409 117.615 120.409H282.008C286.302 120.409 289.784 116.927 289.784 112.632V17.4287H109.839Z" fill="white"/>
</mask>
<g mask="url(#mask5_0_118)">
<path d="M104.827 97.9875C109.206 133.382 258.81 123.895 258.81 123.895L106.286 138.49L94.2451 106.267" fill="#2976DF"/>
</g>
<circle cx="119.615" cy="8.56444" r="2.15404" fill="#BB393C"/>
<circle cx="128.666" cy="8.56444" r="2.15404" fill="#FFC562"/>
<circle cx="137.717" cy="8.56444" r="2.15404" fill="#75AA3C"/>
<rect x="123.996" y="27.0215" width="151.629" height="82.1408" rx="3.25623" fill="#97CC64"/>
<mask id="mask6_0_118" style="mask-type:luminance" maskUnits="userSpaceOnUse" x="123" y="27" width="153" height="83">
<rect x="123.996" y="27.0215" width="151.629" height="82.1408" rx="3.25623" fill="white"/>
</mask>
<g mask="url(#mask6_0_118)">
<path d="M294.934 37.319C303.33 152.869 97.5078 105.916 97.5078 105.916C97.5078 105.916 142.095 138.572 145.235 139.2C148.375 139.828 263.926 132.292 263.926 132.292L289.783 102.148V17.4288L282.765 13.6011" fill="#75AA3C"/>
</g>
<ellipse cx="199.811" cy="64.3076" rx="24.049" ry="24.0788" fill="#EFF3FC"/>
<path d="M193.11 64.3074V55.4355C193.11 54.8966 193.397 54.3984 193.863 54.1287C194.33 53.859 194.905 53.8588 195.372 54.1282L203.046 58.5642L210.719 63.0002C211.186 63.2702 211.473 63.7684 211.473 64.3074C211.473 64.8465 211.186 65.3447 210.719 65.6147L203.046 70.0507L195.372 74.4867C194.905 74.7561 194.33 74.7559 193.863 74.4862C193.397 74.2165 193.11 73.7183 193.11 73.1794L193.11 64.3074Z" fill="#FFC562"/>
<mask id="mask7_0_118" style="mask-type:luminance" maskUnits="userSpaceOnUse" x="193" y="53" width="19" height="22">
<path fill-rule="evenodd" clip-rule="evenodd" d="M193.11 64.3077V55.4357C193.11 54.8968 193.397 54.3986 193.863 54.1289C194.33 53.8592 194.905 53.859 195.372 54.1285L203.046 58.5645L210.719 63.0005C211.186 63.2705 211.473 63.7687 211.473 64.3077C211.473 64.8467 211.186 65.3449 210.719 65.6149L203.046 70.0509L195.372 74.4869C194.905 74.7563 194.33 74.7562 193.863 74.4865C193.397 74.2168 193.11 73.7186 193.11 73.1797L193.11 64.3077Z" fill="white"/>
</mask>
<g mask="url(#mask7_0_118)">
<path d="M209.55 58.7014C210.037 72.0807 181.089 81.2028 181.089 81.2028L199.811 82.2974L223.86 64.3075" fill="#D89D35"/>
</g>
<path d="M167.403 11.443L171.791 10.0125C172.177 9.88668 172.467 9.46853 172.334 9.05601C172.209 8.67033 171.791 8.37793 171.377 8.51293L166.989 9.94346C166.603 10.0693 166.313 10.4874 166.446 10.9C166.571 11.2856 166.988 11.5781 167.403 11.443Z" fill="#D6DCF2"/>
<path d="M254.465 58.5391L251.222 64.764C251.035 65.1244 251.118 65.6252 251.501 65.8278C251.859 66.0167 252.365 65.934 252.565 65.5489L255.807 59.324C255.995 58.9635 255.912 58.4628 255.528 58.2601C255.171 58.0712 254.665 58.1539 254.465 58.5391Z" fill="#75AA3C"/>
<path d="M152.628 86.3591C152.943 86.3591 153.226 86.1697 153.347 85.8791C153.467 85.5886 153.4 85.2541 153.178 85.0317C152.956 84.8093 152.621 84.7428 152.331 84.8632C152.04 84.9835 151.851 85.267 151.851 85.5815C151.855 86.009 152.201 86.3544 152.628 86.3591Z" fill="#75AA3C"/>
<path d="M242.944 46.2355C240.493 40.3111 243.513 35.2303 233.211 34.1917C212.995 22.8883 223.091 44.7727 210.308 51.3456C197.526 57.9185 214.744 71.7205 234.15 63.6895C256.781 54.3237 246.451 54.7122 242.944 46.2355Z" fill="#516DDB"/>
<path d="M216.75 88.676L208.534 107.101L201.785 98.4318L209.067 88.2714L213.786 85.8667" fill="#FF9763"/>
<path d="M197.692 85.8668C204.735 97.0172 215.427 94.9126 215.427 94.9126L225.167 69.6409C225.167 69.6409 220.14 59.198 216.017 58.1377C210.882 56.8172 197.692 85.8668 197.692 85.8668Z" fill="#BB393C"/>
<mask id="mask8_0_118" style="mask-type:luminance" maskUnits="userSpaceOnUse" x="197" y="58" width="29" height="38">
<path fill-rule="evenodd" clip-rule="evenodd" d="M197.691 85.8668C204.734 97.0172 215.427 94.9126 215.427 94.9126L225.166 69.6409C225.166 69.6409 220.139 59.198 216.016 58.1377C210.881 56.8172 197.691 85.8668 197.691 85.8668Z" fill="white"/>
</mask>
<g mask="url(#mask8_0_118)">
<path d="M202.816 70.1201C204.417 78.1263 214.152 77.8214 214.152 77.8214L207.151 84.7959C207.151 84.7959 194.637 80.5238 194.392 74.8885" fill="#F0F3FC"/>
</g>
<path d="M227.131 106.959L260.894 105.822C260.894 105.822 258.337 67.8723 250.906 65.3446C244.006 62.9977 230.697 58.4368 215.093 60.1353C213.116 60.3505 214.889 62.8179 215.249 64.773C215.707 67.2606 213.333 70.8829 214.673 78.1458C217.993 96.1412 227.131 106.959 227.131 106.959Z" fill="#BB393C"/>
<mask id="mask9_0_118" style="mask-type:luminance" maskUnits="userSpaceOnUse" x="214" y="59" width="47" height="48">
<path fill-rule="evenodd" clip-rule="evenodd" d="M227.131 106.959L260.894 105.822C260.894 105.822 258.337 67.8723 250.906 65.3446C244.006 62.9977 230.697 58.4368 215.093 60.1353C213.116 60.3505 214.889 62.8179 215.249 64.773C215.707 67.2606 213.333 70.8829 214.673 78.1458C217.993 96.1412 227.131 106.959 227.131 106.959Z" fill="white"/>
</mask>
<g mask="url(#mask9_0_118)">
<path d="M248.358 78.8042C232.209 78.5271 252.266 92.0518 240.728 94.0325C229.19 96.0132 222.952 97.6848 225.042 102.322C227.132 106.959 245.729 101.662 246.389 101.882C247.049 102.102 260.895 97.0765 260.895 97.0765V84.3899L252.331 75.0093" fill="#90282A"/>
<path d="M222.038 59.5166C216.34 77.7438 226.066 77.57 242.223 63.8945C258.38 50.219 237.343 56.6843 237.343 56.6843L221.979 58.7417" fill="#F0F3FC"/>
<path d="M223.065 59.0843C217.495 77.3115 226.498 75.6994 242.291 62.0239C258.084 48.3484 237.521 54.8137 237.521 54.8137L222.504 56.8711" fill="#FF9763"/>
</g>
<path d="M224.324 90.0104L224.218 90.6557H217.506L217.569 90.0104L219.204 89.9064L217.348 86.097L214.319 89.8231L215.821 90.0105L215.714 90.6558H211.29L211.396 90.0105L213.132 89.8231L217.056 85.5142L214.351 80.0395L213.249 79.9146L213.352 79.29H219.978L219.875 79.9146L218.362 80.0604L220.13 83.6199L222.995 80.1019L221.515 79.9146L221.618 79.29H225.762L225.659 79.9146L224.179 80.1227L220.422 84.2027L223.28 89.9271L224.324 90.0104Z" fill="#F0F3FC"/>
<path d="M239.044 90.0103L238.938 90.6556H232.679L232.785 90.0103L234.165 89.8854C234.385 88.6781 234.697 86.9086 234.896 85.7013L235.388 82.7038C235.655 81.0801 235.276 80.4972 234.261 80.4972C233.614 80.4972 232.664 80.8927 231.606 81.6837L230.946 85.7013C230.754 86.867 230.478 88.6781 230.298 89.9063L231.511 90.0103L231.405 90.6555H225.168L225.274 90.0103L226.74 89.8854C226.964 88.6572 227.28 86.8669 227.471 85.7012L227.755 83.9735C227.977 82.6205 228.069 81.9335 228.19 80.9344L226.598 80.7678L226.68 80.2683L231.579 78.9569L231.847 79.165L231.676 80.9968C233.36 79.4147 234.626 78.936 236.05 78.936C238.101 78.936 239.292 80.2266 238.844 82.9536L238.392 85.7013C238.19 86.9295 237.921 88.6989 237.766 89.9063L239.044 90.0103Z" fill="#F0F3FC"/>
<path d="M226.01 64.1605C226.64 61.008 227.392 56.8155 227.257 55.386L236.161 48.4343L238.406 62.7444" fill="#FF9763"/>
<mask id="mask10_0_118" style="mask-type:luminance" maskUnits="userSpaceOnUse" x="226" y="48" width="13" height="17">
<path fill-rule="evenodd" clip-rule="evenodd" d="M226.011 64.1608C226.641 61.0083 227.393 56.8158 227.258 55.3863L236.162 48.4346L238.407 62.7446" fill="white"/>
</mask>
<g mask="url(#mask10_0_118)">
<path d="M232.85 53.3338C235.498 53.3065 231.722 59.4206 225.167 64.1608C223.01 65.7207 222.36 55.3611 222.36 55.3611L225.228 53.4059" fill="#E84B23"/>
</g>
<path d="M237.62 46.7644C233.663 44.6904 233.411 40.3401 230.535 39.7693C227.926 42.5596 223.412 39.0234 220.977 42.6564C219.559 62.4864 228.574 59.0793 234.03 52.6826" fill="#FF9763"/>
<mask id="mask11_0_118" style="mask-type:luminance" maskUnits="userSpaceOnUse" x="220" y="39" width="18" height="19">
<path fill-rule="evenodd" clip-rule="evenodd" d="M237.62 46.7642C233.663 44.6901 233.411 40.3399 230.535 39.769C227.926 42.5594 223.412 39.0231 220.977 42.6562C219.559 62.4862 228.574 59.0791 234.03 52.6823" fill="white"/>
</mask>
<g mask="url(#mask11_0_118)">
<ellipse opacity="0.27" cx="221.11" cy="50.642" rx="2.09686" ry="1.59672" transform="rotate(-3.147 221.11 50.642)" fill="#E84B23"/>
<ellipse opacity="0.27" cx="230.997" cy="50.0986" rx="2.09686" ry="1.59672" transform="rotate(-3.147 230.997 50.0986)" fill="#E84B23"/>
<rect x="222.498" y="45.6631" width="1.491" height="2.75006" rx="0.745498" transform="rotate(0.967 222.498 45.6631)" fill="#190000"/>
<rect x="228.044" y="45.3369" width="1.491" height="2.75006" rx="0.745498" transform="rotate(0.9665 228.044 45.3369)" fill="#190000"/>
<path d="M223.087 43.9154C221.559 44.3334 221.963 45.1696 222.936 44.9706C223.909 44.7717 224.086 43.6423 223.087 43.9154Z" fill="#190000"/>
<path d="M228.776 43.5339C230.289 44.0032 229.973 44.7637 229.007 44.532C228.042 44.3002 227.787 43.2273 228.776 43.5339Z" fill="#190000"/>
<path d="M226.475 48.3735C226.523 48.8752 226.074 48.7178 225.544 48.769C225.014 48.8202 224.604 49.0606 224.556 48.5589C224.534 48.0467 224.917 47.6071 225.427 47.5578C225.938 47.5084 226.397 47.8666 226.475 48.3735Z" fill="#E84B23"/>
<path d="M223.695 51.3234C224.643 54.8953 227.945 53.1248 227.838 50.8691C227.83 50.7524 227.751 50.6529 227.638 50.62C227.165 50.4751 225.8 50.1976 223.863 50.9902C223.732 51.044 223.66 51.1861 223.695 51.3234Z" fill="#C1525F"/>
<mask id="mask12_0_118" style="mask-type:luminance" maskUnits="userSpaceOnUse" x="223" y="50" width="5" height="4">
<path fill-rule="evenodd" clip-rule="evenodd" d="M223.695 51.3234C224.643 54.8953 227.945 53.1248 227.838 50.8691C227.83 50.7524 227.751 50.6529 227.638 50.62C227.165 50.4751 225.8 50.1976 223.863 50.9902C223.732 51.044 223.66 51.1861 223.695 51.3234Z" fill="white"/>
</mask>
<g mask="url(#mask12_0_118)">
<ellipse cx="226.437" cy="53.1267" rx="1.85263" ry="1.65355" transform="rotate(-23.46 226.437 53.1267)" fill="#993443"/>
<path d="M224.287 50.6918C224.311 50.931 224.366 51.2537 224.434 51.3067C224.854 51.6335 226.703 51.2904 226.937 51.0574C227.003 50.9926 226.937 50.2205 226.937 50.2205L224.558 50.5343" fill="#F0F3FC"/>
</g>
</g>
<path d="M235.794 45.8453C244.318 41.172 241.159 51.0939 235.887 51.0939L235.794 45.8453Z" fill="#FF9763"/>
<path d="M195.306 107.527C191.928 107.636 189.758 103.972 191.483 101.066C199.754 87.1257 213.068 62.2718 213.131 61.5206C213.248 60.1103 207.164 56.382 206.694 55.5201C206.223 54.6583 209.122 47.2149 209.749 46.9798C210.376 46.7448 214.45 48.0767 214.764 47.92C215.077 47.7633 215.645 50.7015 211.199 49.7221C211.199 49.7221 213.197 50.7015 213.471 51.2891C213.471 51.2891 215.704 51.818 215.528 53.2871C215.528 53.2871 216.938 54.5799 216.762 55.6377C216.762 55.6377 219.954 59.281 219.778 60.9264C219.635 62.2598 212.339 91.7582 209.578 102.895C208.961 105.383 206.765 107.158 204.203 107.24L195.306 107.527Z" fill="#FF9763"/>
<mask id="mask13_0_118" style="mask-type:luminance" maskUnits="userSpaceOnUse" x="190" y="46" width="30" height="62">
<path fill-rule="evenodd" clip-rule="evenodd" d="M195.306 107.527C191.928 107.636 189.758 103.972 191.483 101.066C199.754 87.1257 213.068 62.2718 213.131 61.5206C213.248 60.1103 207.164 56.382 206.694 55.5201C206.223 54.6583 209.122 47.2149 209.749 46.9798C210.376 46.7448 214.45 48.0767 214.764 47.92C215.077 47.7633 215.645 50.7015 211.199 49.7221C211.199 49.7221 213.197 50.7015 213.471 51.2891C213.471 51.2891 215.704 51.818 215.528 53.2871C215.528 53.2871 216.938 54.5799 216.762 55.6377C216.762 55.6377 219.954 59.281 219.778 60.9264C219.635 62.2598 212.339 91.7582 209.578 102.895C208.961 105.383 206.765 107.158 204.203 107.24L195.306 107.527Z" fill="white"/>
</mask>
<g mask="url(#mask13_0_118)">
<path d="M194.392 80.3247C208.199 71.1273 211.223 75.7276 213.37 82.2272C215.517 88.7267 205.331 86.8243 205.331 86.8243L201.784 85.8667" fill="#E84B23"/>
</g>
<path d="M273.835 98.572L270.053 89.3254L260.859 93.8406L260.929 94.0611C246.91 98.497 223.059 104.864 220.32 105.931C216.422 105.246 214.561 104.955 213.828 105.049C213.095 105.142 206.199 107.365 205.703 107.192C205.206 107.018 204.724 109.605 207.686 109.463C210.649 109.321 212.019 108.91 212.019 108.91C212.019 108.91 212.177 110.152 212.74 110.317C212.74 110.317 213.721 112.164 214.951 112.244C216.18 112.324 220.971 112.658 220.971 112.658L265.516 108.441L268.595 107.937C270.657 107.599 272.452 106.34 273.472 104.517C274.492 102.694 274.625 100.505 273.835 98.572Z" fill="#FF9763"/>
<mask id="mask14_0_118" style="mask-type:luminance" maskUnits="userSpaceOnUse" x="205" y="89" width="70" height="24">
<path fill-rule="evenodd" clip-rule="evenodd" d="M273.835 98.572L270.053 89.3254L260.859 93.8406L260.929 94.0611C246.91 98.497 223.059 104.864 220.32 105.931C216.422 105.246 214.561 104.955 213.828 105.049C213.095 105.142 206.199 107.365 205.703 107.192C205.206 107.018 204.724 109.605 207.686 109.463C210.649 109.321 212.019 108.91 212.019 108.91C212.019 108.91 212.177 110.152 212.74 110.317C212.74 110.317 213.721 112.164 214.951 112.244C216.18 112.324 220.971 112.658 220.971 112.658L265.516 108.441L268.595 107.937C270.657 107.599 272.452 106.34 273.472 104.517C274.492 102.694 274.625 100.505 273.835 98.572Z" fill="white"/>
</mask>
<g mask="url(#mask14_0_118)">
<path d="M252.388 96.3414C261.95 96.8888 271.38 93.9401 268.674 90.9107C265.968 87.8812 258.416 89.3256 258.416 89.3256" fill="#E84B23"/>
</g>
<path d="M245.667 78.1114C247.747 85.18 250.533 95.1601 250.533 95.1601C264.618 96.9207 271.311 88.5081 271.311 88.5081C271.311 88.5081 261.86 66.8366 250.908 65.3298" fill="#BB393C"/>
<mask id="mask15_0_118" style="mask-type:luminance" maskUnits="userSpaceOnUse" x="245" y="65" width="27" height="31">
<path fill-rule="evenodd" clip-rule="evenodd" d="M245.667 78.1114C247.747 85.18 250.533 95.1601 250.533 95.1601C264.618 96.9207 271.311 88.5081 271.311 88.5081C271.311 88.5081 261.86 66.8366 250.908 65.3298" fill="white"/>
</mask>
<g mask="url(#mask15_0_118)">
<path d="M245.105 84.7959C262.83 86.448 266.876 76.0269 266.876 76.0269L269.188 80.366C269.188 80.366 261.449 91.6499 245.667 87.4113" fill="#F0F3FC"/>
</g>
<path d="M227.358 111.842H175.003L161.475 76.9899C161.39 76.7724 161.419 76.5272 161.55 76.3346C161.682 76.142 161.901 76.0269 162.134 76.0269H211.53C212.691 76.0269 213.732 76.7396 214.152 77.8213L227.358 111.842Z" fill="#6F4EB9"/>
<mask id="mask16_0_118" style="mask-type:luminance" maskUnits="userSpaceOnUse" x="161" y="76" width="67" height="36">
<path fill-rule="evenodd" clip-rule="evenodd" d="M227.358 111.842H175.003L161.475 76.9899C161.39 76.7724 161.419 76.5272 161.55 76.3346C161.682 76.142 161.901 76.0269 162.134 76.0269H211.53C212.691 76.0269 213.732 76.7396 214.152 77.8213L227.358 111.842Z" fill="white"/>
</mask>
<g mask="url(#mask16_0_118)">
<path d="M164.442 93.9346C179.681 115.636 215.288 107.294 222.077 112.069C228.867 116.843 189.488 116.39 189.035 116.39C188.583 116.39 172.891 117.748 172.891 117.748L165.348 115.032" fill="#97CC64"/>
</g>
<path d="M209.445 110.937H259.578C260.305 110.937 260.894 111.526 260.894 112.253V112.748H209.445V110.937Z" fill="#6F4EB9"/>
<rect x="229.813" y="111.842" width="5.35614" height="0.452634" fill="#97CC64"/>
<rect x="236.377" y="111.842" width="5.35614" height="0.452634" fill="#97CC64"/>
<rect x="173.913" y="111.842" width="52.4298" height="0.905268" fill="#6F4EB9"/>
<path d="M226.343 111.842H173.989L160.46 76.9899C160.376 76.7724 160.404 76.5272 160.536 76.3346C160.668 76.142 160.886 76.0269 161.119 76.0269H210.516C211.676 76.0269 212.717 76.7396 213.137 77.8213L226.343 111.842Z" fill="#9A7ED9"/>
<mask id="mask17_0_118" style="mask-type:luminance" maskUnits="userSpaceOnUse" x="160" y="76" width="67" height="36">
<path fill-rule="evenodd" clip-rule="evenodd" d="M226.343 111.842H173.989L160.46 76.9899C160.376 76.7724 160.404 76.5272 160.536 76.3346C160.668 76.142 160.886 76.0269 161.119 76.0269H210.516C211.676 76.0269 212.717 76.7396 213.137 77.8213L226.343 111.842Z" fill="white"/>
</mask>
<g mask="url(#mask17_0_118)">
<path d="M163.428 93.9346C178.666 115.636 214.273 107.294 221.063 112.069C227.852 116.843 188.473 116.39 188.021 116.39C187.568 116.39 171.877 117.748 171.877 117.748L164.333 115.032" fill="#6F4EB9"/>
</g>
<ellipse cx="190.033" cy="92.7531" rx="3.03632" ry="4.14162" transform="rotate(-55.7489 190.033 92.7531)" fill="#F0F3FC"/>
<path d="M187.978 84.0347H184.003C183.025 79.0623 180.295 78.8083 180.295 78.8083C179.192 78.8083 179.807 79.5705 179.788 79.6975C181.02 82.1292 179.03 84.0347 179.03 84.0347L182.524 90.9307C182.868 91.6114 184.054 91.8566 184.47 91.8566H190.442C191.004 91.8566 190.809 90.5681 190.809 90.5681C190.061 86.1763 189.399 84.8696 189.399 84.8696C189.128 84.3389 188.574 84.0134 187.978 84.0347H187.978Z" fill="#FE7578"/>
<path d="M176.808 84.0369H174.428C173.936 84.0369 174.143 84.4589 174.143 84.4589L178.157 91.4138C178.306 91.68 178.584 91.8481 178.889 91.8565H180.948C181.378 91.8565 181.225 91.5636 181.225 91.5636L177.68 84.5643C177.505 84.245 177.172 84.0438 176.808 84.0369L176.808 84.0369Z" fill="#FFC562"/>
<path d="M204.301 93.7139L203.791 100.565C203.77 100.844 203.866 101.119 204.057 101.324C204.247 101.529 204.514 101.646 204.794 101.646H213.791C214.217 101.646 214.597 101.377 214.739 100.975C214.881 100.573 214.754 100.125 214.422 99.8567L205.936 93.0057C205.645 92.7708 205.247 92.7167 204.904 92.8653C204.561 93.014 204.328 93.3408 204.301 93.7139Z" fill="#516DDB"/>
<path d="M238.06 47.0529L238.014 47.5052C238.02 47.7497 238.217 47.9463 238.461 47.9528L238.58 47.9369C238.655 47.9162 238.723 47.8766 238.778 47.8217L238.848 47.7311C238.888 47.6626 238.909 47.5846 238.909 47.5052L238.956 47.0529C238.949 46.8084 238.752 46.6117 238.508 46.6052L238.389 46.6212C238.314 46.6418 238.246 46.6815 238.191 46.7364L238.121 46.827C238.081 46.8955 238.06 46.9735 238.06 47.0529H238.06Z" fill="#373947"/>
<path d="M224.221 35.1604L223.788 35.3765C223.606 35.4796 223.507 35.6859 223.541 35.8929C223.544 35.9615 223.565 36.028 223.602 36.0856L223.683 36.1905C223.747 36.254 223.826 36.2999 223.912 36.3238L224.05 36.3423C224.142 36.3425 224.232 36.318 224.312 36.2715L224.744 36.0554C224.927 35.9524 225.026 35.746 224.991 35.539C224.988 35.4704 224.967 35.4039 224.93 35.3463L224.849 35.2414C224.785 35.1779 224.707 35.132 224.62 35.1081L224.482 35.0896C224.39 35.0895 224.3 35.1139 224.221 35.1604Z" fill="#3152BA"/>
<path d="M242.302 55.3429L242.194 55.559C242.157 55.6166 242.136 55.6832 242.133 55.7517C242.108 55.9573 242.204 56.1588 242.38 56.2681L242.504 56.3204C242.594 56.3451 242.689 56.3451 242.78 56.3204L242.903 56.2681C242.98 56.2231 243.044 56.1591 243.089 56.0822L243.197 55.866C243.235 55.8084 243.256 55.7419 243.259 55.6733C243.284 55.4677 243.187 55.2663 243.012 55.157L242.888 55.1047C242.797 55.08 242.702 55.08 242.612 55.1047L242.488 55.157C242.411 55.202 242.347 55.266 242.302 55.3429Z" fill="#3152BA"/>
<path d="M244.017 104.637L244.882 104.853C245.017 104.888 245.16 104.869 245.281 104.801C245.461 104.696 245.561 104.493 245.534 104.286C245.507 104.079 245.359 103.909 245.158 103.853L244.293 103.637C244.158 103.603 244.015 103.621 243.894 103.69C243.714 103.795 243.614 103.998 243.641 104.204C243.668 104.411 243.816 104.581 244.017 104.637Z" fill="#E84B23"/>
<path d="M181.633 101.774L184.876 103.72C185.036 103.814 185.234 103.815 185.395 103.723C185.556 103.632 185.656 103.461 185.656 103.275C185.657 103.09 185.559 102.918 185.399 102.825L182.156 100.879C181.909 100.735 181.592 100.819 181.448 101.066C181.304 101.313 181.386 101.63 181.633 101.774Z" fill="#6F4EB9"/>
<path d="M240.259 72.5341C239.79 73.6013 239.204 74.6131 238.512 75.551C238.351 75.77 238.469 76.1389 238.698 76.2601C238.946 76.3962 239.258 76.3146 239.407 76.0742C240.099 75.1363 240.685 74.1245 241.154 73.0573C241.263 72.8098 241.235 72.4892 240.968 72.3482C240.744 72.2295 240.376 72.2692 240.259 72.5341Z" fill="#90282A"/>
<path d="M306.151 241.855L209.148 214.092L306.151 183.063L403.153 214.092L306.151 241.855Z" fill="#274B69"/>
<mask id="mask18_0_118" style="mask-type:luminance" maskUnits="userSpaceOnUse" x="209" y="183" width="195" height="59">
<path fill-rule="evenodd" clip-rule="evenodd" d="M306.151 241.855L209.148 214.092L306.151 183.063L403.153 214.092L306.151 241.855Z" fill="white"/>
</mask>
<g mask="url(#mask18_0_118)">
<path d="M181.453 208.208C271.106 244.884 251.714 205.209 296.575 215.849C341.437 226.489 279.256 246.277 279.256 246.277L216.092 249.978L194.697 225.528" fill="#0C273A"/>
<path d="M313.292 175.845C302.429 179.043 306.15 183.063 306.15 183.063L417.8 233.907L400.753 194.263L361.18 187.262" fill="#11314B"/>
</g>
<path d="M306.151 210.984C281.201 210.984 260.976 215.806 260.976 221.755V256.831H261.263C261.263 254.166 351.038 254.166 351.038 256.831H351.326V221.755C351.326 215.806 331.1 210.984 306.151 210.984Z" fill="#274B69"/>
<mask id="mask19_0_118" style="mask-type:luminance" maskUnits="userSpaceOnUse" x="260" y="210" width="92" height="47">
<path fill-rule="evenodd" clip-rule="evenodd" d="M306.151 210.984C281.201 210.984 260.976 215.806 260.976 221.755V256.831H261.263C261.263 254.166 351.038 254.166 351.038 256.831H351.326V221.755C351.326 215.806 331.1 210.984 306.151 210.984Z" fill="white"/>
</mask>
<g mask="url(#mask19_0_118)">
<path d="M250.603 248.762C265.981 208.055 336.539 213.483 351.013 221.624C365.486 229.765 335.635 202.628 335.635 202.628L259.649 200.819L247.89 210.769" fill="#11314B"/>
</g>
<rect x="235.328" y="204.622" width="1.74775" height="37.4795" fill="#FFC562"/>
<path d="M240.745 265.892L238.219 243.893H234.185L231.659 265.892C231.229 267.762 231.989 269.705 233.574 270.787C235.159 271.869 237.245 271.869 238.83 270.787C240.415 269.705 241.175 267.762 240.745 265.892Z" fill="#FFC562"/>
<mask id="mask20_0_118" style="mask-type:luminance" maskUnits="userSpaceOnUse" x="231" y="243" width="10" height="29">
<path fill-rule="evenodd" clip-rule="evenodd" d="M240.745 265.892L238.219 243.893H234.185L231.659 265.892C231.229 267.762 231.989 269.705 233.574 270.787C235.159 271.869 237.245 271.869 238.83 270.787C240.415 269.705 241.175 267.762 240.745 265.892Z" fill="white"/>
</mask>
<g mask="url(#mask20_0_118)">
<path d="M224.805 276.149C232.947 279.767 240.653 242.429 240.653 242.429H231.607L224.37 247.857V253.284" fill="#D89D35"/>
</g>
<circle cx="236.202" cy="242.101" r="4.17518" fill="#BB393C"/>
<path d="M323.722 233.59L317.636 237.855C317.359 238.049 317.203 238.431 317.403 238.742C317.581 239.018 317.994 239.183 318.291 238.975L324.377 234.71C324.654 234.516 324.81 234.134 324.609 233.822C324.432 233.547 324.019 233.381 323.722 233.59Z" fill="#11314B"/>
<path d="M270.813 203.077C271.474 202.708 272.147 202.361 272.832 202.037C273.17 201.877 273.511 201.724 273.854 201.575C273.899 201.556 273.944 201.537 273.989 201.517C274.009 201.508 274.104 201.469 273.997 201.513C274.079 201.479 274.16 201.445 274.242 201.412C274.424 201.337 274.607 201.264 274.79 201.192C276.192 200.644 277.629 200.192 279.092 199.837C279.914 199.638 280.743 199.471 281.578 199.335C281.914 199.28 282.131 198.846 282.031 198.537C281.913 198.173 281.593 198.025 281.233 198.084C278.205 198.584 275.257 199.491 272.471 200.78C271.685 201.142 270.914 201.534 270.158 201.957C269.849 202.138 269.745 202.535 269.926 202.844C270.107 203.154 270.504 203.258 270.813 203.077V203.077Z" fill="#11314B"/>
<path d="M75.3301 224.257L49.9297 227.229L45.6182 235.565L51.8689 239.797L95.4882 241.984C98.1754 241.984 100.738 240.851 102.546 238.862C104.353 236.874 105.238 234.215 104.983 231.54L104.894 230.605C104.719 228.742 103.998 226.972 102.82 225.518" fill="#589BF7"/>
<mask id="mask21_0_118" style="mask-type:luminance" maskUnits="userSpaceOnUse" x="45" y="224" width="61" height="18">
<path fill-rule="evenodd" clip-rule="evenodd" d="M75.3301 224.257L49.9297 227.229L45.6182 235.565L51.8689 239.797L95.4882 241.984C98.1754 241.984 100.738 240.851 102.546 238.862C104.353 236.874 105.238 234.215 104.983 231.54L104.894 230.605C104.719 228.742 103.998 226.972 102.82 225.518" fill="white"/>
</mask>
<g mask="url(#mask21_0_118)">
<path d="M60.9013 221.972C60.5367 229.306 69.7466 240.992 80.9996 241.984C92.2526 242.976 63.8177 246.986 63.8177 246.986C63.8177 246.986 51.9505 241.539 51.869 239.797C51.7876 238.055 57.6204 224.192 57.6204 224.192" fill="#2976DF"/>
<path d="M56.877 233.55C57.1368 233.675 73.6953 232.846 83.1857 232.36C85.8274 232.225 87.1465 229.106 85.4097 227.111L81.725 222.877" fill="#589BF7"/>
</g>
<path d="M62.2923 225.387L28.8539 227.399L21.7963 224.463C20.5699 223.918 19.1326 224.212 18.2187 225.195L0.107422 243.901C7.59597 248.534 11.9909 235.926 26.1683 237.96L65.4513 241.984L62.2923 225.387Z" fill="#3A3530"/>
<mask id="mask22_0_118" style="mask-type:luminance" maskUnits="userSpaceOnUse" x="0" y="224" width="66" height="21">
<path fill-rule="evenodd" clip-rule="evenodd" d="M62.2923 225.387L28.8539 227.399L21.7963 224.463C20.5699 223.918 19.1326 224.212 18.2187 225.195L0.107422 243.901C7.59597 248.534 11.9909 235.926 26.1683 237.96L65.4513 241.984L62.2923 225.387Z" fill="white"/>
</mask>
<g mask="url(#mask22_0_118)">
<path d="M55.9043 222.242L60.8257 251.224L72.4112 245.632L62.6309 221.027L55.9043 222.242Z" fill="#935738"/>
</g>
<path d="M123.51 221.027L135.509 175.857L111.51 166.616V210.448L123.51 221.027Z" fill="#589BF7"/>
<mask id="mask23_0_118" style="mask-type:luminance" maskUnits="userSpaceOnUse" x="111" y="166" width="25" height="56">
<path fill-rule="evenodd" clip-rule="evenodd" d="M123.51 221.027L135.509 175.857L111.51 166.616V210.448L123.51 221.027Z" fill="white"/>
</mask>
<g mask="url(#mask23_0_118)">
<path d="M107.017 195.585C124.864 200.93 130.849 198.205 130.849 198.205L131.806 209.073L107.928 211.625L107.563 201.236" fill="#2976DF"/>
<path d="M119.215 204.075L122.924 180.63" stroke="#2976DF" stroke-width="0.971061" stroke-linecap="round" stroke-linejoin="round"/>
</g>
<path d="M135.51 175.857C137.327 167.696 130.535 160.187 122.233 161.178L50.6035 169.729L57.9269 196.619L115.049 186.978" fill="#589BF7"/>
<mask id="mask24_0_118" style="mask-type:luminance" maskUnits="userSpaceOnUse" x="50" y="161" width="86" height="36">
<path fill-rule="evenodd" clip-rule="evenodd" d="M135.51 175.857C137.327 167.696 130.535 160.187 122.233 161.178L50.6035 169.729L57.9269 196.619L115.049 186.978" fill="white"/>
</mask>
<g mask="url(#mask24_0_118)">
<path d="M74.5381 184.389L119.314 176.105C120.3 175.922 121.314 176.217 122.049 176.9C122.784 177.583 123.152 178.574 123.042 179.571L120.066 206.494" stroke="#2976DF" stroke-width="0.971061" stroke-linecap="round" stroke-linejoin="round"/>
<path d="M64.6748 179.16C66.7257 195.201 109.037 187.992 109.037 187.992L92.3806 198.205H67.4175L65.7647 189.584" fill="#2976DF"/>
</g>
<path d="M113.078 243.849H142.296C142.296 232.804 121.6 241.984 122.494 234.317C123.497 225.72 130.849 198.205 130.849 198.205L111.038 200.875L110.219 240.997C110.169 242.557 111.463 243.849 113.078 243.849Z" fill="#3A3530"/>
<mask id="mask25_0_118" style="mask-type:luminance" maskUnits="userSpaceOnUse" x="110" y="198" width="33" height="46">
<path fill-rule="evenodd" clip-rule="evenodd" d="M113.078 243.849H142.296C142.296 232.804 121.6 241.985 122.494 234.317C123.497 225.721 130.849 198.205 130.849 198.205L111.038 200.876L110.219 240.997C110.169 242.558 111.463 243.849 113.078 243.849Z" fill="white"/>
</mask>
<g mask="url(#mask25_0_118)">
<path d="M106.396 206.202L135.51 202.556L134.466 193.078L108.909 196.133" fill="#935738"/>
</g>
<path d="M104.953 139.444L98.0059 134.353L115.049 135.662C115.049 135.662 132.285 123.702 135.062 119.751C137.84 115.8 143.456 113.016 144.01 112.17C144.01 112.17 145.648 112.764 142.458 115.984C142.458 115.984 149.735 112.353 151.54 111.378C153.345 110.403 153.886 112.32 150.764 114.44C150.764 114.44 152.707 115.075 149.322 117.822C149.322 117.822 151.11 118.333 148.047 121.198C144.088 124.902 139.952 125.819 139.952 125.819L120.875 147.024C119.574 148.452 117.746 149.288 115.814 149.338L98.894 149.848L104.953 139.444Z" fill="#FF9763"/>
<mask id="mask26_0_118" style="mask-type:luminance" maskUnits="userSpaceOnUse" x="98" y="111" width="56" height="39">
<path fill-rule="evenodd" clip-rule="evenodd" d="M104.953 139.444L98.0059 134.353L115.049 135.662C115.049 135.662 132.285 123.702 135.062 119.751C137.84 115.8 143.456 113.016 144.01 112.17C144.01 112.17 145.648 112.764 142.458 115.984C142.458 115.984 149.735 112.353 151.54 111.378C153.345 110.403 153.886 112.32 150.764 114.44C150.764 114.44 152.707 115.075 149.322 117.822C149.322 117.822 151.11 118.333 148.047 121.198C144.088 124.902 139.952 125.819 139.952 125.819L120.875 147.024C119.574 148.452 117.746 149.288 115.814 149.338L98.894 149.848L104.953 139.444Z" fill="white"/>
</mask>
<g mask="url(#mask26_0_118)">
<path d="M110.218 157.125C114.308 154.938 112.422 134.179 112.422 134.179L104.465 154.84L114.125 158.948" fill="#E84B23"/>
</g>
<path d="M80.999 149.924L108.872 152.813C108.872 152.813 113.981 141.924 112.421 134.179L81.1614 129.853L80.999 149.924Z" fill="#F0F3FC"/>
<mask id="mask27_0_118" style="mask-type:luminance" maskUnits="userSpaceOnUse" x="81" y="129" width="32" height="24">
<path fill-rule="evenodd" clip-rule="evenodd" d="M81 149.924L108.873 152.813C108.873 152.813 113.982 141.924 112.422 134.179L81.1624 129.853L81 149.924Z" fill="white"/>
</mask>
<g mask="url(#mask27_0_118)">
<path d="M85.2325 136.49C84.4316 148.598 94.9672 151.372 98.0061 151.687C101.045 152.002 87.8744 156.083 87.4911 156.083C87.1079 156.083 76.4521 149.848 76.4521 149.848L82.6367 136.537" fill="#D6DCF2"/>
<path d="M106.732 129.52C111.347 136.97 101.149 156.099 101.149 156.099L106.732 129.52Z" fill="#F0F3FC"/>
</g>
<path d="M133.057 96.5125L157.521 106.589L114.712 210.613C112.99 214.799 108.852 217.064 105.471 215.671L93.2513 210.638C89.87 209.245 88.5256 204.723 90.2484 200.536L133.057 96.5125Z" fill="#9A7ED9"/>
<mask id="mask28_0_118" style="mask-type:luminance" maskUnits="userSpaceOnUse" x="89" y="96" width="69" height="121">
<path fill-rule="evenodd" clip-rule="evenodd" d="M133.058 96.5125L157.522 106.589L114.713 210.613C112.991 214.799 108.853 217.064 105.472 215.671L93.2522 210.638C89.8709 209.245 88.5266 204.723 90.2494 200.536L133.058 96.5125Z" fill="white"/>
</mask>
<g mask="url(#mask28_0_118)">
<rect x="114.097" y="199.783" width="4.10116" height="106.646" transform="rotate(-157.613 114.097 199.783)" fill="#6F4EB9"/>
<rect x="107.275" y="196.973" width="4.10116" height="106.646" transform="rotate(-157.613 107.275 196.973)" fill="#6F4EB9"/>
<rect x="100.732" y="194.278" width="4.10116" height="106.646" transform="rotate(-157.613 100.732 194.278)" fill="#6F4EB9"/>
<rect x="114.848" y="222.233" width="35.3827" height="17.2082" transform="rotate(-157.613 114.848 222.233)" fill="#935738"/>
<rect x="121.43" y="206.991" width="32.2235" height="3.87184" transform="rotate(-157.613 121.43 206.991)" fill="#F0F3FC"/>
</g>
<path d="M153.982 80.4292C154.845 80.7702 155.446 81.5637 155.541 82.4868L157.522 106.589L133.058 96.5123L151.426 80.7923C152.144 80.2034 153.129 80.0634 153.982 80.4292Z" fill="#FFCCCC"/>
<mask id="mask29_0_118" style="mask-type:luminance" maskUnits="userSpaceOnUse" x="133" y="80" width="25" height="27">
<path fill-rule="evenodd" clip-rule="evenodd" d="M153.982 80.4292C154.845 80.7702 155.446 81.5637 155.541 82.4868L157.522 106.589L133.058 96.5123L151.426 80.7923C152.144 80.2034 153.129 80.0634 153.982 80.4292Z" fill="white"/>
</mask>
<g mask="url(#mask29_0_118)">
<rect x="161.178" y="111.648" width="37.1518" height="6.57039" transform="rotate(-157.613 161.178 111.648)" fill="#FF999A"/>
<ellipse cx="157.162" cy="77.0025" rx="11.7329" ry="11.5912" transform="rotate(-68.3624 157.162 77.0025)" fill="#3A3531"/>
</g>
<path d="M150.558 92.5762L149.261 93.1376C149.173 93.1888 149.109 93.2723 149.082 93.3701C149.055 93.4713 149.069 93.5791 149.121 93.67C149.172 93.7574 149.256 93.8214 149.353 93.8488C149.455 93.8703 149.561 93.8565 149.653 93.8096L150.951 93.2482C151.039 93.197 151.103 93.1135 151.13 93.0156C151.157 92.9144 151.143 92.8067 151.091 92.7158C151.039 92.6284 150.956 92.5643 150.858 92.537C150.756 92.5155 150.651 92.5293 150.558 92.5762Z" fill="#FF999A"/>
<path d="M65.4509 168.091L35.5854 166.616L34.0433 179.099C33.0287 187.311 36.1034 195.498 42.2724 201.013L78.6729 233.55L103.421 226.242L68.9987 185.071" fill="#589BF7"/>
<mask id="mask30_0_118" style="mask-type:luminance" maskUnits="userSpaceOnUse" x="33" y="166" width="71" height="68">
<path fill-rule="evenodd" clip-rule="evenodd" d="M65.4509 168.091L35.5854 166.616L34.0433 179.099C33.0287 187.311 36.1034 195.498 42.2724 201.013L78.6729 233.55L103.421 226.242L68.9987 185.071" fill="white"/>
</mask>
<g mask="url(#mask30_0_118)">
<path d="M21.3389 179.842C47.9746 190.381 66.4119 174.415 66.4119 174.415L34.561 162.182L26.1709 168.666L27.129 173.648" fill="#2976DF"/>
<path d="M52.7773 175.762C53.1701 187.063 41.3223 190.344 41.3223 190.344" stroke="#2976DF" stroke-width="0.971061" stroke-linecap="round" stroke-linejoin="round"/>
<path d="M50.6025 186.516L86.4841 228.439" stroke="#2976DF" stroke-width="0.971061" stroke-linecap="round" stroke-linejoin="round"/>
</g>
<path d="M84.8029 130.357C84.8029 130.357 62.446 128.043 56.6972 131.109C50.9485 134.175 39.1552 147.396 31.4902 170.391C55.4433 185.53 72.5953 174.561 72.5953 174.561C72.5953 174.561 85.2209 155.98 86.3513 140.635" fill="#F0F3FC"/>
<mask id="mask31_0_118" style="mask-type:luminance" maskUnits="userSpaceOnUse" x="31" y="129" width="56" height="50">
<path fill-rule="evenodd" clip-rule="evenodd" d="M84.8029 130.357C84.8029 130.357 62.446 128.043 56.6972 131.109C50.9485 134.175 39.1552 147.396 31.4902 170.391C55.4433 185.53 72.5953 174.561 72.5953 174.561C72.5953 174.561 85.2209 155.98 86.3513 140.635" fill="white"/>
</mask>
<g mask="url(#mask31_0_118)">
<path d="M23.2969 161.089C52.3279 182.463 63.9901 168.162 54.7824 152.814C50.6033 145.847 79.5025 162.44 79.5025 162.44L83.0836 181.068L77.449 182.283L56.9269 183.823L36.5189 181.068L31.3451 175.578" fill="#D6DCF2"/>
</g>
<path d="M85.2328 121.229L79.0588 139.535L67.418 129.731L72.3875 121.72L85.2328 121.229Z" fill="#FF9763"/>
<mask id="mask32_0_118" style="mask-type:luminance" maskUnits="userSpaceOnUse" x="67" y="121" width="19" height="19">
<path fill-rule="evenodd" clip-rule="evenodd" d="M85.2318 121.229L79.0578 139.535L67.417 129.731L72.3865 121.72L85.2318 121.229Z" fill="white"/>
</mask>
<g mask="url(#mask32_0_118)">
<path d="M75.1852 123.865C88.3324 130.413 69.8242 144.085 69.8242 144.085L93.0339 133.392L87.7888 119.015L74.4797 120.053" fill="#E84B23"/>
</g>
<path d="M71.7256 123.738L73.8354 111.608L88.8384 106.19C91.4478 109.386 92.8235 125.325 88.8384 128.437C87.4934 129.488 82.7275 128.086 78.5658 126.547" fill="#FF9763"/>
<path d="M71.7253 126.132C80.0473 121.175 82.8018 116.606 79.8129 113.567C76.8239 110.529 69.9672 115.412 69.9672 115.412L68.0918 118.178L71.7253 126.132Z" fill="#3A3530"/>
<path d="M89.5413 106.305C86.4988 100.259 79.048 97.7823 72.8994 100.775C66.7509 103.767 64.2331 111.094 67.2756 117.141C67.575 117.735 67.9223 118.303 68.3139 118.841L90.2853 108.148C90.0879 107.515 89.8391 106.898 89.5413 106.305Z" fill="#935738"/>
<path d="M91.448 109.386L68.6106 120.5C67.9569 120.82 67.1675 120.558 66.8353 119.91L66.0663 118.382C65.911 118.071 65.887 117.711 65.9999 117.383C66.1127 117.055 66.3528 116.785 66.6662 116.636L71.9046 114.087L89.5037 105.522C90.1573 105.202 90.9468 105.464 91.2789 106.112L92.0479 107.64C92.2033 107.951 92.2272 108.311 92.1144 108.639C92.0015 108.968 91.7614 109.237 91.448 109.386Z" fill="#935738"/>
<mask id="mask33_0_118" style="mask-type:luminance" maskUnits="userSpaceOnUse" x="65" y="105" width="28" height="16">
<path fill-rule="evenodd" clip-rule="evenodd" d="M91.448 109.386L68.6106 120.5C67.9569 120.82 67.1675 120.558 66.8353 119.91L66.0663 118.382C65.911 118.071 65.887 117.711 65.9999 117.383C66.1127 117.055 66.3528 116.785 66.6662 116.636L71.9046 114.087L89.5037 105.522C90.1573 105.202 90.9468 105.464 91.2789 106.112L92.0479 107.64C92.2033 107.951 92.2272 108.311 92.1144 108.639C92.0015 108.968 91.7614 109.237 91.448 109.386Z" fill="white"/>
</mask>
<g mask="url(#mask33_0_118)">
<path d="M68.2031 113.672C68.8854 115.773 69.8143 117.786 70.9704 119.669C71.2946 120.195 71.6365 120.71 71.9961 121.214C72.137 121.441 72.4311 121.518 72.6653 121.39C72.8777 121.265 72.9949 120.937 72.8408 120.72C72.2179 119.847 71.6467 118.938 71.1302 117.997C70.6196 117.069 70.1648 116.111 69.7682 115.129C69.5418 114.564 69.3346 113.991 69.1465 113.412C69.0699 113.155 68.8045 113.005 68.5448 113.07C68.2861 113.144 68.1342 113.412 68.2031 113.672L68.2031 113.672Z" fill="#190000"/>
<path d="M72.7197 114.273C73.3817 116.273 74.218 118.211 75.219 120.065C75.4987 120.583 75.7913 121.093 76.0968 121.595C76.1848 121.747 76.347 121.84 76.522 121.839C76.6971 121.838 76.8584 121.744 76.945 121.592C77.0316 121.439 77.0303 121.253 76.9416 121.102C75.8907 119.374 74.993 117.557 74.2588 115.673C74.0463 115.125 73.8478 114.571 73.6631 114.012C73.5864 113.756 73.3211 113.605 73.0614 113.671C72.8027 113.745 72.6508 114.012 72.7197 114.273Z" fill="#190000"/>
<path d="M76.331 111.61C76.7459 113.708 77.3066 115.774 78.0089 117.794C78.2092 118.369 78.4209 118.94 78.6441 119.507C78.7224 119.763 78.9864 119.913 79.2458 119.849C79.48 119.785 79.6846 119.495 79.5875 119.247C78.8051 117.257 78.1624 115.215 77.6641 113.136C77.5223 112.543 77.3924 111.948 77.2744 111.35C77.2003 111.091 76.9328 110.939 76.6726 111.008C76.4156 111.085 76.2648 111.35 76.331 111.61Z" fill="#190000"/>
<path d="M80.0497 108.192C81.2307 110.431 82.3395 112.707 83.3762 115.018C83.6671 115.667 83.9521 116.319 84.2312 116.974C84.335 117.217 84.6929 117.27 84.9005 117.149C85.1519 117.002 85.1802 116.724 85.076 116.48C84.082 114.151 83.0145 111.856 81.8734 109.594C81.5528 108.959 81.2265 108.327 80.8945 107.698C80.7578 107.465 80.4587 107.387 80.2258 107.523C79.993 107.66 79.9142 107.959 80.0497 108.192L80.0497 108.192Z" fill="#190000"/>
<path d="M84.0654 105.516C85.1223 107.588 86.0447 109.727 86.8267 111.918C87.0506 112.546 87.263 113.177 87.4639 113.813C87.5097 113.982 87.6426 114.114 87.8123 114.158C87.9819 114.203 88.1623 114.153 88.2852 114.028C88.4081 113.903 88.4547 113.721 88.4073 113.553C87.6815 111.264 86.8101 109.024 85.7986 106.847C85.5137 106.233 85.2176 105.625 84.9101 105.022C84.7734 104.789 84.4743 104.711 84.2415 104.847C84.0086 104.984 83.9298 105.283 84.0654 105.516Z" fill="#190000"/>
<path d="M87.2206 104.663C88.68 106.809 89.9769 109.061 91.1002 111.401C91.4166 112.06 91.7188 112.725 92.0069 113.398C92.1112 113.64 92.4682 113.695 92.6762 113.573C92.9272 113.426 92.9564 113.148 92.8517 112.904C91.8284 110.519 90.628 108.214 89.2606 106.008C88.8752 105.387 88.4768 104.774 88.0653 104.169C87.9249 103.941 87.6303 103.864 87.3961 103.994C87.1649 104.132 87.0869 104.429 87.2206 104.663Z" fill="#190000"/>
</g>
<path d="M82.0372 116.562C73.3655 111.294 71.7261 119.975 79.0574 122.787L82.0372 116.562Z" fill="#FF9763"/>
<path d="M74.9007 150.558L87.049 167.129L120.943 160.378C124.709 156.327 131.147 156.266 132.18 154.547C132.18 154.547 134.209 156.058 131.057 158.372C130.848 158.525 130.615 158.683 130.358 158.843C126.227 161.421 138.254 153.872 138.862 153.258C139.469 152.644 140.319 154.731 138.862 156.266C138.862 156.266 140.502 157.554 136.918 160.316C133.334 163.078 127.47 167.334 122.31 168.479L86.5958 183.076C85.3889 183.569 84.0975 183.823 82.7936 183.823C79.2393 183.817 75.949 181.946 74.126 178.895L62.6309 159.764L74.9007 150.558Z" fill="#FF9763"/>
<mask id="mask34_0_118" style="mask-type:luminance" maskUnits="userSpaceOnUse" x="62" y="150" width="78" height="34">
<path fill-rule="evenodd" clip-rule="evenodd" d="M74.9016 150.558L87.05 167.129L120.944 160.378C124.71 156.327 131.148 156.266 132.181 154.547C132.181 154.547 134.21 156.058 131.058 158.372C130.849 158.526 130.616 158.683 130.359 158.844C126.228 161.421 138.255 153.872 138.863 153.258C139.47 152.645 140.32 154.731 138.863 156.266C138.863 156.266 140.503 157.555 136.919 160.317C133.335 163.078 127.471 167.334 122.311 168.479L86.5967 183.076C85.3898 183.569 84.0984 183.823 82.7945 183.823C79.2403 183.817 75.95 181.946 74.127 178.895L62.6318 159.764L74.9016 150.558Z" fill="white"/>
</mask>
<g mask="url(#mask34_0_118)">
<path d="M62.6318 188.658C78.0082 185.464 86.4855 163.428 86.4855 163.428L71.7262 167.207L67.9097 179.854" fill="#E84B23"/>
</g>
<path d="M52.7773 149.848L72.5954 179.16C72.5954 179.16 84.8524 167.625 86.4847 163.428L69.5267 135.728" fill="#F0F3FC"/>
<mask id="mask35_0_118" style="mask-type:luminance" maskUnits="userSpaceOnUse" x="52" y="135" width="35" height="45">
<path fill-rule="evenodd" clip-rule="evenodd" d="M52.7783 149.848L72.5964 179.16C72.5964 179.16 84.8534 167.625 86.4856 163.428L69.5277 135.728" fill="white"/>
</mask>
<g mask="url(#mask35_0_118)">
<path d="M65.7646 179.16C67.3606 173.157 82.9742 157.937 85.6938 157.846L65.7646 179.16Z" fill="#F0F3FC"/>
</g>
<path d="M88.3072 114.595C88.7099 114.45 89.1541 114.658 89.2993 115.061L89.7434 116.293C89.8887 116.695 89.68 117.139 89.2773 117.285C88.8746 117.43 88.4305 117.221 88.2852 116.818L87.8411 115.587C87.6959 115.184 87.9046 114.74 88.3072 114.595L88.3072 114.595Z" fill="#190000"/>
<path d="M88.0766 111.922C85.839 112.619 85.6781 113.708 87.1052 113.364C88.5323 113.02 89.5385 111.467 88.0766 111.922Z" fill="#190000"/>
<path d="M90.9971 115.429C94.648 116.235 94.2034 120.182 90.9971 119.356V115.429Z" fill="#FF9763"/>
<circle cx="83.7875" cy="119.649" r="2.39585" fill="#E84B23"/>
<path d="M87.2363 120.728C87.9726 121.329 88.9775 121.481 89.8588 121.125" stroke="#993443" stroke-width="0.971061" stroke-linecap="round" stroke-linejoin="round"/>
<path d="M78.7069 117.884C78.3706 117.499 77.765 117.446 77.3304 117.681C76.888 117.94 76.6892 118.475 76.8548 118.96C76.9381 119.232 77.1237 119.462 77.3726 119.6C77.4708 119.655 77.586 119.67 77.6949 119.642C77.8571 119.598 77.9767 119.46 77.9985 119.293C78.0204 119.127 77.9401 118.963 77.7948 118.878C77.7599 118.86 77.7267 118.839 77.6955 118.815L77.7801 118.881C77.7396 118.848 77.7028 118.811 77.6704 118.771L77.7358 118.856C77.6961 118.804 77.6631 118.747 77.6378 118.687L77.6799 118.787C77.6552 118.726 77.6379 118.662 77.6284 118.597L77.6433 118.708C77.6347 118.643 77.6342 118.578 77.6418 118.513L77.6268 118.624C77.6348 118.564 77.6504 118.505 77.6734 118.449L77.6312 118.549C77.6519 118.501 77.6784 118.456 77.7101 118.414L77.6447 118.499C77.6753 118.46 77.7101 118.426 77.7485 118.395L77.6639 118.461C77.7097 118.426 77.7596 118.397 77.8125 118.374L77.7125 118.417C77.7745 118.391 77.8394 118.374 77.9057 118.365L77.7945 118.38C77.8613 118.372 77.9287 118.373 77.9954 118.381L77.8842 118.366C77.9459 118.375 78.0063 118.391 78.0642 118.414L77.9643 118.372C78.0172 118.394 78.0672 118.423 78.1131 118.458L78.0284 118.393C78.0599 118.417 78.089 118.445 78.1154 118.475C78.235 118.595 78.4149 118.631 78.5712 118.566C78.7275 118.501 78.8294 118.349 78.8294 118.18C78.8251 118.07 78.7817 117.965 78.7069 117.884V117.884Z" fill="#190000"/>
<path d="M65.7646 129.52L69.6313 126.132L79.0583 139.535C79.0583 139.535 76.78 140.887 77.0357 142.466L65.7646 129.52Z" fill="#F0F3FC"/>
<path d="M68.0923 145.797L69.9846 149.631L74.2159 150.246L71.1542 153.23L71.8768 157.444L68.0923 155.455L64.3077 157.444L65.0305 153.23L61.9688 150.246L66.2 149.631L68.0923 145.797Z" fill="#FFC562"/>
<path d="M80.9997 141.439C80.9997 141.439 80.5772 140.063 79.4736 139.639L82.6535 129.52L85.2324 130.482L80.9997 141.439Z" fill="#F0F3FC"/>
<path d="M54.8115 154.039C55.2052 154.708 55.5398 155.41 55.8114 156.137C56.0543 156.847 56.1784 157.573 56.039 158.276C55.9729 158.536 56.1237 158.801 56.3807 158.877C56.6235 158.933 56.9292 158.804 56.9824 158.536C57.3378 156.744 56.4993 155.07 55.6562 153.545C55.5195 153.313 55.2204 153.235 54.9875 153.371C54.7547 153.507 54.6759 153.806 54.8115 154.039V154.039Z" fill="#D6DCF2"/>
<path d="M86.3558 167.378L85.2716 169.448C85.1829 169.599 85.1815 169.786 85.2681 169.938C85.3547 170.09 85.516 170.185 85.6911 170.186C85.8662 170.186 86.0283 170.094 86.1163 169.942L87.2006 167.871C87.3369 167.638 87.2584 167.339 87.0251 167.202C86.7918 167.066 86.4922 167.144 86.3558 167.378H86.3558Z" fill="#E84B23"/>
<path d="M118.393 231.877L119.849 230.901C119.957 230.834 120.037 230.73 120.074 230.608C120.126 230.416 120.058 230.212 119.9 230.09C119.742 229.969 119.527 229.955 119.355 230.056L117.9 231.032C117.791 231.099 117.712 231.203 117.675 231.324C117.622 231.516 117.691 231.721 117.848 231.842C118.006 231.964 118.222 231.977 118.393 231.877Z" fill="#190000"/>
<path d="M77.6671 208.924C78.4999 209.785 79.4358 210.539 80.4535 211.17C80.6872 211.304 80.9848 211.226 81.1228 210.994C81.2534 210.76 81.176 210.465 80.9473 210.325C80.7089 210.177 80.475 210.022 80.2454 209.861C80.1276 209.778 80.011 209.693 79.8958 209.606C79.8702 209.586 79.8447 209.567 79.8192 209.548C79.7925 209.527 79.7938 209.528 79.823 209.551L79.7852 209.521C79.7286 209.476 79.6721 209.431 79.616 209.386C79.1739 209.027 78.7541 208.642 78.3589 208.232C78.2353 208.108 78.0551 208.06 77.8862 208.105C77.7172 208.15 77.5853 208.282 77.5401 208.451C77.4949 208.62 77.5433 208.801 77.6671 208.924L77.6671 208.924Z" fill="#2976DF"/>
<circle cx="79.0581" cy="145.098" r="0.517127" fill="#F0F3FC"/>
<path d="M131.602 157.175L130.507 158.085C130.415 158.177 130.364 158.302 130.363 158.432C130.364 158.562 130.416 158.687 130.507 158.78C130.6 158.871 130.724 158.923 130.855 158.924L130.985 158.906C131.067 158.883 131.142 158.84 131.202 158.78L132.297 157.87C132.389 157.778 132.441 157.653 132.441 157.522C132.44 157.392 132.388 157.268 132.297 157.175C132.205 157.083 132.08 157.031 131.95 157.031L131.819 157.049C131.737 157.071 131.662 157.115 131.602 157.175V157.175Z" fill="#E84B23"/>
<path d="M46.1459 150.394C46.2539 151.752 46.562 153.087 47.06 154.356C47.1384 154.611 47.4023 154.761 47.6617 154.697C47.8954 154.633 48.1012 154.343 48.0034 154.096C47.5311 152.911 47.2349 151.664 47.1242 150.394C47.1189 150.126 46.903 149.91 46.635 149.905C46.3881 149.916 46.1233 150.121 46.1459 150.394Z" fill="#D6DCF2"/>
<path d="M178.27 230.685C158.003 231.314 134.365 231.675 109.115 231.675C83.8651 231.675 48.337 231.314 28.0707 230.685C26.2427 230.685 24.7607 234.796 24.7607 239.869C24.7607 244.941 26.2427 249.053 28.0707 249.053C48.337 248.424 83.8651 248.062 109.115 248.062C134.365 248.062 158.003 248.424 178.27 249.053C180.098 249.053 181.579 244.941 181.579 239.869C181.579 234.796 180.098 230.685 178.27 230.685Z" fill="#D6DCF2"/>
<path d="M173.297 227.74C154.488 228.571 132.55 229.049 109.115 229.049C85.6809 229.049 51.8526 228.571 33.0436 227.74C31.3471 227.74 29.9717 233.17 29.9717 239.869C29.9717 246.567 31.3471 251.997 33.0436 251.997C51.8526 251.166 85.6809 250.689 109.115 250.689C132.55 250.689 154.488 251.166 173.297 251.997C174.993 251.997 176.369 246.567 176.369 239.869C176.369 233.17 174.994 227.74 173.297 227.74Z" fill="#EFF3FC"/>
<mask id="mask36_0_118" style="mask-type:luminance" maskUnits="userSpaceOnUse" x="29" y="227" width="148" height="25">
<path fill-rule="evenodd" clip-rule="evenodd" d="M173.297 227.74C154.488 228.571 132.55 229.049 109.115 229.049C85.6809 229.049 51.8526 228.571 33.0436 227.74C31.3471 227.74 29.9717 233.17 29.9717 239.869C29.9717 246.567 31.3471 251.997 33.0436 251.997C51.8526 251.166 85.6809 250.689 109.115 250.689C132.55 250.689 154.488 251.166 173.297 251.997C174.993 251.997 176.369 246.567 176.369 239.869C176.369 233.17 174.994 227.74 173.297 227.74Z" fill="white"/>
</mask>
<g mask="url(#mask36_0_118)">
<path d="M37.4722 225.744C26.8217 244.174 40.4315 260.7 40.4315 260.7L45.8997 243.879" fill="#D6DCF2"/>
</g>
<path d="M167.863 224.73C150.647 225.767 130.566 226.363 109.116 226.363C87.6653 226.363 55.6944 225.767 38.4779 224.73C36.925 224.73 35.666 231.508 35.666 239.869C35.666 248.23 36.925 255.008 38.4779 255.008C55.6944 253.971 87.6653 253.375 109.116 253.375C130.566 253.375 150.647 253.971 167.863 255.008C169.416 255.008 170.675 248.23 170.675 239.869C170.675 231.508 169.416 224.73 167.863 224.73Z" fill="#EFF3FC"/>
<mask id="mask37_0_118" style="mask-type:luminance" maskUnits="userSpaceOnUse" x="35" y="224" width="136" height="32">
<path fill-rule="evenodd" clip-rule="evenodd" d="M167.863 224.729C150.647 225.767 130.566 226.362 109.116 226.362C87.6653 226.362 55.6944 225.767 38.4779 224.729C36.925 224.729 35.666 231.508 35.666 239.869C35.666 248.23 36.925 255.008 38.4779 255.008C55.6944 253.971 87.6653 253.375 109.116 253.375C130.566 253.375 150.647 253.971 167.863 255.008C169.416 255.008 170.675 248.23 170.675 239.869C170.675 231.507 169.416 224.729 167.863 224.729Z" fill="white"/>
</mask>
<g mask="url(#mask37_0_118)">
<path d="M94.1406 222.544C92.6824 246.239 95.8643 231.984 92.8039 255.008C91.7056 263.271 62.3033 256.325 63.3969 256.568C64.4905 256.811 126.464 259.485 126.464 259.485L115.528 248.427C115.528 248.427 118.565 236.032 111.396 233.116L110.667 221.085L92.5609 222.058" fill="#D6DCF2"/>
<path d="M43.2255 219.141C37.4713 225.744 34.213 252.719 47.357 253.409C60.501 254.1 73.1185 255.559 73.1185 255.559L59.9947 266.047L23.0537 262.158L29.9713 222.301L46.3849 212.823" fill="#D6DCF2"/>
</g>
<rect x="96.6631" y="226.044" width="13.0152" height="23.9957" fill="#FFC562"/>
<path d="M119.774 260.272L113.357 258.431L111.584 264.868L98.1152 240.863L106.305 236.268L119.774 260.272Z" fill="#FFC562"/>
<mask id="mask38_0_118" style="mask-type:luminance" maskUnits="userSpaceOnUse" x="98" y="236" width="22" height="29">
<path fill-rule="evenodd" clip-rule="evenodd" d="M119.773 260.272L113.356 258.431L111.583 264.868L98.1143 240.863L106.304 236.268L119.773 260.272Z" fill="white"/>
</mask>
<g mask="url(#mask38_0_118)">
<path d="M114.191 246.3C112.976 253.713 107.257 253.467 110.42 262.795C113.583 272.123 101.492 250.736 101.492 250.736L112.003 244.295" fill="#D89D35"/>
</g>
<path d="M86.5664 260.272L92.9837 258.431L94.7564 264.868L108.225 240.863L100.035 236.268L86.5664 260.272Z" fill="#FFC562"/>
<mask id="mask39_0_118" style="mask-type:luminance" maskUnits="userSpaceOnUse" x="86" y="236" width="23" height="29">
<path fill-rule="evenodd" clip-rule="evenodd" d="M86.5674 260.272L92.9847 258.431L94.7574 264.868L108.226 240.863L100.036 236.268L86.5674 260.272Z" fill="white"/>
</mask>
<g mask="url(#mask39_0_118)">
<path d="M84.6636 255.56C91.5909 248.112 96.5595 255.878 101.67 255.008C106.78 254.138 87.823 243.08 87.823 243.08L83.208 248.166" fill="#D89D35"/>
</g>
<circle cx="103.17" cy="243.88" r="11.68" fill="#90282A"/>
<mask id="mask40_0_118" style="mask-type:luminance" maskUnits="userSpaceOnUse" x="91" y="232" width="24" height="24">
<circle cx="103.17" cy="243.879" r="11.68" fill="white"/>
</mask>
<g mask="url(#mask40_0_118)">
<circle cx="98.7718" cy="242.249" r="11.68" fill="#BB393C"/>
</g>
<path d="M54.0596 239.108V241.296C54.0596 241.725 54.4074 242.073 54.8364 242.073C55.2655 242.073 55.6133 241.725 55.6133 241.296V239.108C55.6133 238.679 55.2655 238.332 54.8364 238.332C54.4074 238.332 54.0596 238.679 54.0596 239.108H54.0596Z" fill="#D6DCF2"/>
<path d="M151.009 236.193C151.022 236.466 151.021 236.74 151.006 237.013C150.999 237.137 150.99 237.26 150.977 237.384C150.964 237.449 150.956 237.515 150.955 237.581C150.94 237.438 150.973 237.45 150.963 237.522C150.956 237.563 150.95 237.604 150.944 237.645C150.858 238.177 150.722 238.699 150.538 239.205C150.493 239.33 150.439 239.451 150.393 239.576C150.399 239.56 150.468 239.406 150.413 239.527C150.399 239.557 150.386 239.588 150.373 239.618C150.342 239.686 150.311 239.754 150.278 239.821C150.163 240.06 150.037 240.293 149.9 240.521C149.76 240.755 149.608 240.982 149.445 241.203C149.426 241.229 149.406 241.256 149.386 241.282C149.315 241.377 149.415 241.242 149.417 241.243C149.417 241.244 149.321 241.363 149.308 241.379C149.219 241.488 149.127 241.594 149.033 241.699C148.833 241.92 148.621 242.13 148.398 242.328C148.28 242.432 148.159 242.531 148.036 242.63C147.956 242.695 148.158 242.539 148.076 242.6C148.042 242.624 148.009 242.65 147.976 242.674C147.909 242.723 147.841 242.771 147.773 242.818C147.439 243.048 147.255 243.51 147.494 243.881C147.708 244.213 148.199 244.406 148.557 244.159C150.565 242.772 151.948 240.651 152.408 238.254C152.538 237.575 152.59 236.884 152.563 236.193C152.544 235.788 152.219 235.397 151.786 235.416C151.381 235.434 150.989 235.758 151.009 236.193L151.009 236.193Z" fill="#D6DCF2"/>
</svg>
