<svg width="530" height="398" viewBox="0 0 530 398" fill="none" xmlns="http://www.w3.org/2000/svg">
<mask id="mask0_602_22" style="mask-type:luminance" maskUnits="userSpaceOnUse" x="0" y="0" width="530" height="398">
<rect width="530" height="398" fill="white"/>
</mask>
<g mask="url(#mask0_602_22)">
<path d="M212.219 164.069L208.349 167.456" stroke="#90282A" stroke-width="1.1" stroke-linecap="round" stroke-linejoin="round"/>
<path d="M287.641 216.749L284.724 218.662" stroke="#90282A" stroke-width="1.1" stroke-linecap="round" stroke-linejoin="round"/>
<path d="M372.529 171.574C372.529 198.034 393.974 219.485 420.427 219.485C425.507 219.481 430.554 218.666 435.377 217.073L465.543 226.384C468.906 227.423 471.915 223.995 470.451 220.794L460.174 198.315C465.501 190.416 468.341 181.102 468.326 171.574C468.326 145.113 446.881 123.663 420.427 123.663C393.974 123.663 372.529 145.113 372.529 171.574Z" fill="#399FE8"/>
<mask id="mask1_602_22" style="mask-type:luminance" maskUnits="userSpaceOnUse" x="372" y="123" width="99" height="104">
<path fill-rule="evenodd" clip-rule="evenodd" d="M372.529 171.574C372.529 198.034 393.974 219.485 420.427 219.485C425.507 219.481 430.554 218.666 435.377 217.073L465.543 226.384C468.906 227.423 471.915 223.995 470.451 220.794L460.174 198.315C465.501 190.416 468.341 181.102 468.326 171.574C468.326 145.113 446.881 123.663 420.427 123.663C393.974 123.663 372.529 145.113 372.529 171.574Z" fill="white"/>
</mask>
<g mask="url(#mask1_602_22)">
<path d="M366.469 199.855C432.445 195.5 434.387 135.769 434.387 135.769L350.114 149.263" fill="#3B8BE2"/>
</g>
<path fill-rule="evenodd" clip-rule="evenodd" d="M372.529 171.574C372.529 198.034 393.974 219.485 420.427 219.485C425.507 219.481 430.554 218.666 435.377 217.073L465.543 226.384C468.906 227.423 471.915 223.995 470.451 220.794L460.174 198.315C465.501 190.416 468.341 181.102 468.326 171.574C468.326 145.113 446.881 123.663 420.427 123.663C393.974 123.663 372.529 145.113 372.529 171.574Z" stroke="#190000" stroke-width="1.1" stroke-linecap="round" stroke-linejoin="round"/>
<path d="M391.162 92.533C367.29 92.533 347.938 111.89 347.938 135.769C347.942 140.354 348.677 144.909 350.114 149.263L341.714 176.492C340.777 179.527 343.869 182.243 346.757 180.922L367.037 171.645C374.163 176.454 382.566 179.017 391.162 179.004C415.034 179.004 434.387 159.647 434.387 135.769C434.387 111.89 415.034 92.533 391.162 92.533Z" fill="#409159"/>
<mask id="mask2_602_22" style="mask-type:luminance" maskUnits="userSpaceOnUse" x="341" y="92" width="94" height="90">
<path fill-rule="evenodd" clip-rule="evenodd" d="M391.162 92.533C367.29 92.533 347.938 111.89 347.938 135.769C347.942 140.354 348.677 144.909 350.114 149.263L341.714 176.492C340.777 179.527 343.869 182.243 346.757 180.922L367.037 171.645C374.163 176.454 382.566 179.017 391.162 179.004C415.034 179.004 434.387 159.647 434.387 135.769C434.387 111.89 415.034 92.533 391.162 92.533Z" fill="white"/>
</mask>
<g mask="url(#mask2_602_22)">
<path d="M393.872 87.6015C357.022 109.267 346.309 146.977 346.309 146.977L307.643 117.116L339.066 84.9426" fill="#357C49"/>
</g>
<path fill-rule="evenodd" clip-rule="evenodd" d="M391.162 92.533C367.29 92.533 347.938 111.89 347.938 135.769C347.942 140.354 348.677 144.909 350.114 149.263L341.714 176.492C340.777 179.527 343.869 182.243 346.757 180.922L367.037 171.645C374.163 176.454 382.566 179.017 391.162 179.004C415.034 179.004 434.387 159.647 434.387 135.769C434.387 111.89 415.034 92.533 391.162 92.533Z" stroke="#190000" stroke-width="1.1" stroke-linecap="round" stroke-linejoin="round"/>
<path d="M442.361 189.452L438.008 193.081" stroke="#2976DF" stroke-width="1.1" stroke-linecap="round" stroke-linejoin="round"/>
<path d="M382.863 129.938L382.137 131.39L382.863 129.938Z" fill="#357C49"/>
<path d="M382.863 129.938L382.137 131.39" stroke="#75AA3C" stroke-width="1.1" stroke-linecap="round" stroke-linejoin="round"/>
<path d="M215.192 122.857L218.071 125.738L221.231 128.898L224.66 132.328C225.821 133.489 227.396 134.142 229.038 134.142C230.679 134.142 232.254 133.489 233.415 132.328L236.827 128.915L239.464 126.277L242.883 122.857H281.581C285.081 122.857 288.438 121.467 290.913 118.991C293.388 116.516 294.778 113.158 294.778 109.657V51.2364C294.778 43.946 288.869 38.036 281.581 38.0359H176.494C172.993 38.0323 169.634 39.4218 167.159 41.8982C164.683 44.3745 163.294 47.7343 163.297 51.2364V109.657C163.297 113.158 164.688 116.516 167.163 118.991C169.637 121.467 172.994 122.858 176.494 122.857H215.192Z" fill="#9879C9"/>
<mask id="mask3_602_22" style="mask-type:luminance" maskUnits="userSpaceOnUse" x="163" y="38" width="132" height="97">
<path fill-rule="evenodd" clip-rule="evenodd" d="M215.192 122.857L218.071 125.738L221.231 128.898L224.66 132.328C225.821 133.489 227.396 134.142 229.038 134.142C230.679 134.142 232.254 133.489 233.415 132.328L236.827 128.915L239.464 126.277L242.883 122.857H281.581C285.081 122.857 288.438 121.467 290.913 118.991C293.388 116.516 294.778 113.158 294.778 109.657V51.2364C294.778 43.946 288.869 38.036 281.581 38.0359H176.494C172.993 38.0323 169.634 39.4218 167.159 41.8982C164.683 44.3745 163.294 47.7343 163.297 51.2364V109.657C163.297 113.158 164.688 116.516 167.163 118.991C169.637 121.467 172.994 122.858 176.494 122.857H215.192Z" fill="white"/>
</mask>
<g mask="url(#mask3_602_22)">
<path d="M244.046 143.857L201.881 85.6084L260.312 64.1436L299.191 134.142L244.046 143.857Z" fill="#6F4EB9"/>
</g>
<path fill-rule="evenodd" clip-rule="evenodd" d="M215.192 122.857L218.071 125.738L221.231 128.898L224.66 132.328C225.821 133.489 227.396 134.142 229.038 134.142C230.679 134.142 232.254 133.489 233.415 132.328L236.827 128.915L239.464 126.277L242.883 122.857H281.581C285.081 122.857 288.438 121.467 290.913 118.991C293.388 116.516 294.778 113.158 294.778 109.657V51.2364C294.778 43.946 288.869 38.036 281.581 38.0359H176.494C172.993 38.0323 169.634 39.4218 167.159 41.8982C164.683 44.3745 163.294 47.7343 163.297 51.2364V109.657C163.297 113.158 164.688 116.516 167.163 118.991C169.637 121.467 172.994 122.858 176.494 122.857H215.192Z" stroke="#190000" stroke-width="1.1" stroke-linecap="round" stroke-linejoin="round"/>
<path d="M211.109 96.5763C214.676 100.15 218.406 103.451 221.317 105.915C224.276 108.419 226.391 110.061 226.635 110.25C228.004 111.338 229.941 111.338 231.31 110.25C231.601 110.025 234.551 107.735 238.418 104.381C240.989 102.152 243.965 99.4525 246.836 96.5761C248.804 94.6039 250.723 92.5484 252.428 90.5041C253.742 88.9505 254.956 87.3154 256.064 85.6084C256.473 84.9654 256.9 84.2952 257.326 83.5924C258.83 81.1099 260.32 78.2194 260.985 74.6751C261.226 73.3853 261.347 72.0756 261.346 70.7633C261.349 68.5163 261 66.2826 260.312 64.1436C259.376 61.2164 257.786 58.5408 255.663 56.3196C252.841 53.3902 249.166 51.4364 245.094 50.9575C244.443 50.8811 243.789 50.8429 243.134 50.8429C237.562 50.8429 232.388 53.6342 228.973 58.2473C228.789 57.9991 228.601 57.7562 228.407 57.5187C225.007 53.3422 220.083 50.8429 214.811 50.8429C214.65 50.8429 214.49 50.8452 214.331 50.8498C209.672 50.9825 205.441 53.0395 202.282 56.3196C200.159 58.5409 198.569 61.2165 197.633 64.1436C196.945 66.2826 196.596 68.5163 196.599 70.7633C196.598 72.0757 196.719 73.3853 196.96 74.6752C197.625 78.2195 199.115 81.1099 200.619 83.5924C201.045 84.2953 201.472 84.9654 201.881 85.6084C202.989 87.3154 204.203 88.9506 205.517 90.5042C207.222 92.5485 209.141 94.604 211.109 96.5763Z" fill="#D3575E"/>
<mask id="mask4_602_22" style="mask-type:luminance" maskUnits="userSpaceOnUse" x="196" y="50" width="66" height="62">
<path fill-rule="evenodd" clip-rule="evenodd" d="M211.109 96.5763C214.676 100.15 218.406 103.451 221.317 105.915C224.276 108.419 226.391 110.061 226.635 110.25C228.004 111.338 229.941 111.338 231.31 110.25C231.601 110.025 234.551 107.735 238.418 104.381C240.989 102.152 243.965 99.4525 246.836 96.5761C248.804 94.6039 250.723 92.5484 252.428 90.5041C253.742 88.9505 254.956 87.3154 256.064 85.6084C256.473 84.9654 256.9 84.2952 257.326 83.5924C258.83 81.1099 260.32 78.2194 260.985 74.6751C261.226 73.3853 261.347 72.0756 261.346 70.7633C261.349 68.5163 261 66.2826 260.312 64.1436C259.376 61.2164 257.786 58.5408 255.663 56.3196C252.841 53.3902 249.166 51.4364 245.094 50.9575C244.443 50.8811 243.789 50.8429 243.134 50.8429C237.562 50.8429 232.388 53.6342 228.973 58.2473C228.789 57.9991 228.601 57.7562 228.407 57.5187C225.007 53.3422 220.083 50.8429 214.811 50.8429C214.65 50.8429 214.49 50.8452 214.331 50.8498C209.672 50.9825 205.441 53.0395 202.282 56.3196C200.159 58.5409 198.569 61.2165 197.633 64.1436C196.945 66.2826 196.596 68.5163 196.599 70.7633C196.598 72.0757 196.719 73.3853 196.96 74.6752C197.625 78.2195 199.115 81.1099 200.619 83.5924C201.045 84.2953 201.472 84.9654 201.881 85.6084C202.989 87.3154 204.203 88.9506 205.517 90.5042C207.222 92.5485 209.141 94.604 211.109 96.5763Z" fill="white"/>
</mask>
<g mask="url(#mask4_602_22)">
<path d="M229.788 50.8429C261.816 32.0291 256.051 95.3771 229.184 111.06C202.317 126.743 286.374 111.066 286.374 111.066L263.81 31.3034L211.387 35.658" fill="#BA424D"/>
</g>
<path fill-rule="evenodd" clip-rule="evenodd" d="M211.109 96.5763C214.676 100.15 218.406 103.451 221.317 105.915C224.276 108.419 226.391 110.061 226.635 110.25C228.004 111.338 229.941 111.338 231.31 110.25C231.601 110.025 234.551 107.735 238.418 104.381C240.989 102.152 243.965 99.4525 246.836 96.5761C248.804 94.6039 250.723 92.5484 252.428 90.5041C253.742 88.9505 254.956 87.3154 256.064 85.6084C256.473 84.9654 256.9 84.2952 257.326 83.5924C258.83 81.1099 260.32 78.2194 260.985 74.6751C261.226 73.3852 261.347 72.0756 261.346 70.7633C261.349 68.5163 261 66.2826 260.312 64.1436C259.376 61.2164 257.786 58.5408 255.663 56.3196C252.841 53.3902 249.166 51.4364 245.094 50.9575C244.443 50.8811 243.789 50.8429 243.134 50.8429C237.562 50.8429 232.388 53.6342 228.973 58.2473C228.789 57.9991 228.601 57.7562 228.407 57.5187C225.007 53.3422 220.083 50.8429 214.811 50.8429C214.65 50.8429 214.49 50.8452 214.331 50.8498C209.672 50.9825 205.441 53.0395 202.282 56.3196C200.159 58.5409 198.569 61.2165 197.633 64.1436C196.945 66.2826 196.596 68.5163 196.599 70.7633C196.598 72.0757 196.719 73.3853 196.96 74.6752C197.625 78.2195 199.115 81.1099 200.619 83.5924C201.045 84.2953 201.472 84.9654 201.881 85.6084C202.989 87.3154 204.203 88.9506 205.517 90.5042C207.222 92.5485 209.141 94.604 211.109 96.5763Z" stroke="#190000" stroke-width="1.1" stroke-linecap="round" stroke-linejoin="round"/>
<path d="M178.488 88.6884C177.603 90.8312 177.771 93.2646 178.941 95.2659" stroke="#6F4EB9" stroke-width="1.1" stroke-linecap="round" stroke-linejoin="round"/>
<path d="M238.649 68.3285L237.922 71.957" stroke="#90282A" stroke-width="1.1" stroke-linecap="round" stroke-linejoin="round"/>
<rect x="184.002" y="296.534" width="214.806" height="63.1651" rx="6.15003" fill="#6F4EB9"/>
<rect x="184.002" y="294.317" width="214.806" height="63.1651" rx="6.15003" fill="#9879C9"/>
<mask id="mask5_602_22" style="mask-type:luminance" maskUnits="userSpaceOnUse" x="184" y="294" width="215" height="64">
<rect x="184.002" y="294.317" width="214.806" height="63.1651" rx="6.15003" fill="white"/>
</mask>
<g mask="url(#mask5_602_22)">
<path d="M405.23 262.785L207.87 430.264L467.476 400.683L416.114 273.67" fill="#6F4EB9"/>
</g>
<rect x="184.002" y="294.317" width="214.806" height="63.1651" rx="6.15003" stroke="#190000" stroke-width="1.1" stroke-linecap="round" stroke-linejoin="round"/>
<rect x="239.181" y="313.461" width="132.703" height="8.91678" rx="2.15016" fill="white" stroke="#190000" stroke-width="1.1" stroke-linecap="round" stroke-linejoin="round"/>
<rect x="239.181" y="326.944" width="48.5119" height="8.78201" rx="2.15016" fill="white" stroke="#190000" stroke-width="1.1" stroke-linecap="round" stroke-linejoin="round"/>
<rect x="293.031" y="326.944" width="48.5119" height="8.78201" rx="2.15016" fill="white" stroke="#190000" stroke-width="1.1" stroke-linecap="round" stroke-linejoin="round"/>
<path d="M215.658 308.612C209.196 308.611 203.37 312.505 200.897 318.477C198.423 324.449 199.79 331.323 204.36 335.894C208.93 340.465 215.802 341.832 221.772 339.359C227.743 336.885 231.636 331.057 231.636 324.593C231.636 320.355 229.952 316.29 226.956 313.292C223.959 310.295 219.896 308.612 215.658 308.612V308.612Z" fill="white" stroke="#190000" stroke-width="1.1" stroke-linecap="round" stroke-linejoin="round"/>
<path d="M210.654 300.535L204.818 304.358" stroke="#6F4EB9" stroke-width="1.1" stroke-linecap="round" stroke-linejoin="round"/>
<path d="M369.416 336.98C367.178 338.369 364.696 339.319 362.103 339.781" stroke="#6F4EB9" stroke-width="1.1" stroke-linecap="round" stroke-linejoin="round"/>
<rect x="60.1096" y="198.19" width="260.569" height="76.6219" rx="7.46025" fill="#409159" stroke="#190000" stroke-width="1.1" stroke-linecap="round" stroke-linejoin="round"/>
<rect x="60.1096" y="195.5" width="260.569" height="76.6219" rx="7.46025" fill="#409159"/>
<mask id="mask6_602_22" style="mask-type:luminance" maskUnits="userSpaceOnUse" x="60" y="195" width="261" height="78">
<rect x="60.1096" y="195.5" width="260.569" height="76.6219" rx="7.46025" fill="white"/>
</mask>
<g mask="url(#mask6_602_22)">
<path d="M328.468 157.252L89.062 360.41L403.975 324.527L341.671 170.456" fill="#357C49"/>
</g>
<rect x="60.1096" y="195.5" width="260.569" height="76.6219" rx="7.46025" stroke="#190000" stroke-width="1.1" stroke-linecap="round" stroke-linejoin="round"/>
<rect x="127.043" y="218.723" width="160.974" height="10.8164" rx="2.60824" fill="white" stroke="#190000" stroke-width="1.1" stroke-linecap="round" stroke-linejoin="round"/>
<rect x="127.043" y="235.078" width="58.8469" height="10.653" rx="2.60824" fill="white" stroke="#190000" stroke-width="1.1" stroke-linecap="round" stroke-linejoin="round"/>
<rect x="192.366" y="235.078" width="58.8469" height="10.653" rx="2.60824" fill="white" stroke="#190000" stroke-width="1.1" stroke-linecap="round" stroke-linejoin="round"/>
<path d="M98.5092 212.841C90.6701 212.841 83.6028 217.564 80.6029 224.808C77.603 232.053 79.2611 240.391 84.8042 245.936C90.3473 251.48 98.6837 253.139 105.926 250.138C113.168 247.137 117.891 240.068 117.891 232.227C117.891 227.086 115.849 222.155 112.214 218.519C108.579 214.883 103.649 212.841 98.5092 212.841V212.841Z" fill="white" stroke="#190000" stroke-width="1.1" stroke-linecap="round" stroke-linejoin="round"/>
<path d="M107.09 203.006L104.752 204.199" stroke="#75AA3C" stroke-width="1.1" stroke-linecap="round" stroke-linejoin="round"/>
<path d="M292.565 251.837C290.678 254.807 288.056 257.24 284.952 258.898" stroke="#75AA3C" stroke-width="1.1" stroke-linecap="round" stroke-linejoin="round"/>
<path d="M87.0949 185.332L78.44 187.664L65.613 190.612C62.7711 191.265 60.9496 194.298 61.5395 197.395C62.0863 200.266 64.5303 202.227 67.2103 201.943C74.5219 201.168 88.8451 200.196 88.8451 200.196L87.0949 185.332Z" fill="#FACCC4"/>
<mask id="mask7_602_22" style="mask-type:luminance" maskUnits="userSpaceOnUse" x="61" y="185" width="28" height="17">
<path fill-rule="evenodd" clip-rule="evenodd" d="M87.0949 185.332L78.44 187.664L65.613 190.612C62.7711 191.265 60.9496 194.298 61.5395 197.395C62.0863 200.266 64.5303 202.227 67.2103 201.943C74.5219 201.168 88.8451 200.196 88.8451 200.196L87.0949 185.332Z" fill="white"/>
</mask>
<g mask="url(#mask7_602_22)">
<path d="M90.8426 204.411C76.3424 202.355 79.0029 189.412 79.0029 189.412L87.1675 191.589L91.6121 198.166" fill="#ED707B"/>
</g>
<path fill-rule="evenodd" clip-rule="evenodd" d="M87.0949 185.332L78.44 187.664L65.613 190.612C62.7711 191.265 60.9496 194.298 61.5395 197.395V197.395C62.0863 200.266 64.5303 202.227 67.2103 201.943C74.5219 201.168 88.8451 200.196 88.8451 200.196L87.0949 185.332Z" stroke="#190000" stroke-width="1.1" stroke-linecap="round" stroke-linejoin="round"/>
<path d="M85.794 200.534C88.2554 199.993 110.61 199.018 112.875 197.225L95.9246 175.471L93.1027 172.792C87.878 175.309 78.44 187.664 78.44 187.664C78.44 187.664 80.8972 199.666 85.794 200.534Z" fill="#399FE8"/>
<mask id="mask8_602_22" style="mask-type:luminance" maskUnits="userSpaceOnUse" x="78" y="172" width="35" height="29">
<path fill-rule="evenodd" clip-rule="evenodd" d="M85.794 200.534C88.2554 199.993 110.61 199.018 112.875 197.225L95.9246 175.471L93.1027 172.792C87.878 175.309 78.44 187.664 78.44 187.664C78.44 187.664 80.8972 199.666 85.794 200.534Z" fill="white"/>
</mask>
<g mask="url(#mask8_602_22)">
<path d="M94.4458 179.641C107.527 197.533 86.7789 201.28 86.7789 201.28L104.43 206.984L117.299 198.825L116.388 185.332L95.7428 181.539" fill="#3B8BE2"/>
<path d="M81.3289 180.724C80.0809 189.7 90.8426 201.167 90.8426 201.167L81.3289 180.724Z" fill="#399FE8"/>
<path d="M81.3289 180.724C80.0809 189.7 90.8426 201.167 90.8426 201.167" stroke="#190000" stroke-width="1.1" stroke-linecap="round" stroke-linejoin="round"/>
</g>
<path fill-rule="evenodd" clip-rule="evenodd" d="M85.794 200.534C88.2554 199.993 110.61 199.018 112.875 197.225L95.9246 175.471L93.1027 172.792C87.878 175.309 78.44 187.664 78.44 187.664C78.44 187.664 80.8972 199.666 85.794 200.534Z" stroke="#190000" stroke-width="1.1" stroke-linecap="round" stroke-linejoin="round"/>
<path d="M77.5326 192.855C81.6797 185.061 91.1559 167.137 91.5541 165.354C92.0646 163.067 89.0467 150.525 88.6589 149.938C88.2711 149.351 85.7836 146.715 87.69 155.937C87.9223 161.95 85.3534 165.958 85.3534 165.958L62.8625 192.3" fill="#FACCC4"/>
<path d="M77.5326 192.855C81.6797 185.061 91.1559 167.137 91.5541 165.354C92.0646 163.067 89.0467 150.525 88.6589 149.938C88.2711 149.351 85.7836 146.715 87.69 155.937C87.9223 161.95 85.3534 165.958 85.3534 165.958L62.8625 192.3" stroke="#190000" stroke-width="1.1" stroke-linecap="round" stroke-linejoin="round"/>
<path d="M276.604 190.614L272.376 192.57L253.707 195.262L248.819 182.94L271.272 181.063" fill="#FACCC4"/>
<mask id="mask9_602_22" style="mask-type:luminance" maskUnits="userSpaceOnUse" x="248" y="181" width="29" height="15">
<path fill-rule="evenodd" clip-rule="evenodd" d="M276.604 190.614L272.376 192.57L253.707 195.262L248.819 182.94L271.272 181.063" fill="white"/>
</mask>
<g mask="url(#mask9_602_22)">
<path d="M256.276 179.032C265.061 189.478 262.711 198.445 262.711 198.445L245.628 199.944L249.754 175.197" fill="#ED707B"/>
</g>
<path d="M276.604 190.614L272.376 192.57L253.707 195.262L248.819 182.94L271.272 181.063" stroke="#190000" stroke-width="1.1" stroke-linecap="round" stroke-linejoin="round"/>
<path d="M264.362 181.407C264.362 181.407 268.728 180.822 272.435 179.858C274.028 179.444 275.718 179.98 276.78 181.237C294.696 202.512 294.686 201.891 294.686 201.891C286.489 206.846 277.509 191.965 270.383 192.857C270.383 192.857 272.856 184.455 264.362 181.407Z" fill="#4B4D5C" stroke="#190000" stroke-width="1.1" stroke-linecap="round" stroke-linejoin="round"/>
<path d="M213.72 188.552L212.891 183.662L204.648 165.348L194.67 169.743L203.413 189.026" fill="#FACCC4"/>
<mask id="mask10_602_22" style="mask-type:luminance" maskUnits="userSpaceOnUse" x="194" y="165" width="20" height="25">
<path fill-rule="evenodd" clip-rule="evenodd" d="M213.72 188.552L212.891 183.662L204.648 165.348L194.67 169.743L203.413 189.026" fill="white"/>
</mask>
<g mask="url(#mask10_602_22)">
<path d="M193.585 173.082C203.281 179.17 215.893 174.994 215.893 174.994L207.028 168.85L192.387 169.511" fill="#ED707B"/>
</g>
<path d="M213.72 188.552L212.891 183.662L204.648 165.348L194.67 169.743L203.413 189.026" stroke="#190000" stroke-width="1.1" stroke-linecap="round" stroke-linejoin="round"/>
<path d="M200.919 182.878C200.919 182.878 198.138 190.193 199.628 194.367C228.475 199.155 232.597 197.943 232.597 197.943C231.886 187.817 215.682 194.686 214.675 182.324C214.675 182.324 207.963 188.849 200.919 182.878Z" fill="#4B4D5C" stroke="#190000" stroke-width="1.1" stroke-linecap="round" stroke-linejoin="round"/>
<path d="M196.064 174.995C196.064 174.995 208.347 175.13 212.358 172.69L202.236 135.252C200.955 130.514 196.938 127.258 192.374 127.258C189.604 127.258 186.951 128.467 185.018 130.611L142.669 177.57L160.968 189.63L189.381 156.765L196.064 174.995Z" fill="#FB81B2"/>
<mask id="mask11_602_22" style="mask-type:luminance" maskUnits="userSpaceOnUse" x="142" y="127" width="71" height="63">
<path fill-rule="evenodd" clip-rule="evenodd" d="M196.064 174.995C196.064 174.995 208.347 175.13 212.358 172.69L202.236 135.252C200.955 130.514 196.938 127.258 192.374 127.258C189.604 127.258 186.951 128.467 185.018 130.611L142.669 177.57L160.968 189.63L189.381 156.765L196.064 174.995Z" fill="white"/>
</mask>
<g mask="url(#mask11_602_22)">
<ellipse cx="195.246" cy="126.17" rx="8.94893" ry="6.16911" fill="#EA70A2"/>
<path d="M186.297 170.013C201.535 173.043 214.777 166.131 214.777 166.131" stroke="#BA393C" stroke-width="1.1" stroke-linecap="round" stroke-linejoin="round"/>
<path d="M204.195 169.695L196.64 146.619C195.204 142.233 189.483 141.178 186.579 144.764L156.004 182.514" stroke="#BA393C" stroke-width="1.1" stroke-linecap="round" stroke-linejoin="round"/>
<path d="M181.961 165.348C174.406 177.738 150.472 178.234 150.472 178.234L172.361 182.324L181.673 179.641" fill="#EA70A2"/>
</g>
<path fill-rule="evenodd" clip-rule="evenodd" d="M196.064 174.995C196.064 174.995 208.347 175.13 212.358 172.69L202.236 135.252C200.955 130.514 196.938 127.258 192.374 127.258V127.258C189.604 127.258 186.951 128.467 185.018 130.611L142.669 177.57L160.968 189.63L189.381 156.765L196.064 174.995Z" stroke="#190000" stroke-width="1.1" stroke-linecap="round" stroke-linejoin="round"/>
<path d="M165.153 177.279L257.982 181.884C257.982 181.884 260.99 193.836 257.982 198.445H153.072L151.345 176.594" fill="#FB81B2"/>
<mask id="mask12_602_22" style="mask-type:luminance" maskUnits="userSpaceOnUse" x="151" y="176" width="109" height="23">
<path fill-rule="evenodd" clip-rule="evenodd" d="M165.153 177.279L257.982 181.884C257.982 181.884 260.99 193.836 257.982 198.445H153.072L151.345 176.594" fill="white"/>
</mask>
<g mask="url(#mask12_602_22)">
<path d="M202.969 201.884C153.056 201.312 179.912 185.332 151.5 178.555C138.94 175.558 153.072 198.445 153.072 198.445L159.844 205.279L184.8 204.684L202.969 204.089" fill="#EA70A2"/>
<path d="M251.117 176.594C255.228 188.708 252.326 201.971 252.326 201.971" stroke="#BA393C" stroke-width="1.1" stroke-linecap="round" stroke-linejoin="round"/>
<path d="M163.088 190.043L253.296 191.408" stroke="#BA393C" stroke-width="1.1" stroke-linecap="round" stroke-linejoin="round"/>
</g>
<path d="M165.153 177.279L257.982 181.884C257.982 181.884 260.99 193.836 257.982 198.445H153.072L151.345 176.594" stroke="#190000" stroke-width="1.1" stroke-linecap="round" stroke-linejoin="round"/>
<path d="M92.4729 173.751C92.4729 173.751 100.988 158.73 125.435 157.408L152.121 189.483L144.263 195.601L110.706 197.337C110.706 197.337 101.924 194.485 96.2854 184.404" fill="#399FE8"/>
<mask id="mask13_602_22" style="mask-type:luminance" maskUnits="userSpaceOnUse" x="92" y="157" width="61" height="41">
<path fill-rule="evenodd" clip-rule="evenodd" d="M92.4729 173.751C92.4729 173.751 100.988 158.73 125.435 157.408L152.121 189.483L144.263 195.601L110.706 197.337C110.706 197.337 101.924 194.485 96.2854 184.404" fill="white"/>
</mask>
<g mask="url(#mask13_602_22)">
<ellipse cx="103.261" cy="165.849" rx="9.95162" ry="11.8038" transform="rotate(-27.4933 103.261 165.849)" fill="#FACCC4" stroke="#190000" stroke-width="1.1" stroke-linecap="round" stroke-linejoin="round"/>
<path d="M126.979 168.547C144.061 189.522 119.747 191.155 119.747 191.155L142.669 201.971L155.107 200.534L150.552 182.059L131.42 168.547" fill="#3B8BE2"/>
<path d="M118.999 179.641C124.26 178.426 125.65 174.374 125.65 174.374L130.427 180.845C130.699 183.68 127.404 186.663 123.897 186.107L118.999 179.641Z" fill="white" stroke="#190000" stroke-width="1.1" stroke-linecap="round" stroke-linejoin="round"/>
</g>
<path d="M92.4729 173.751C92.4729 173.751 100.988 158.73 125.435 157.408L152.121 189.483L144.263 195.601L110.706 197.337C110.706 197.337 101.924 194.485 96.2854 184.404" stroke="#190000" stroke-width="1.1" stroke-linecap="round" stroke-linejoin="round"/>
<path d="M98.3924 171.777L94.048 159.202L104.986 155.063L108.81 166.131" fill="#FACCC4"/>
<mask id="mask14_602_22" style="mask-type:luminance" maskUnits="userSpaceOnUse" x="94" y="155" width="15" height="17">
<path fill-rule="evenodd" clip-rule="evenodd" d="M98.3924 171.777L94.048 159.202L104.986 155.063L108.81 166.131" fill="white"/>
</mask>
<g mask="url(#mask14_602_22)">
<path d="M93.5663 170.786C101.465 172.999 106.052 163.921 106.052 163.921L96.6737 164.191L94.146 166.975L94.4434 167.907" fill="#ED707B"/>
</g>
<path d="M98.3924 171.777L94.048 159.202L104.986 155.063L108.81 166.131" stroke="#190000" stroke-width="1.1" stroke-linecap="round" stroke-linejoin="round"/>
<path d="M108.075 151.86L90.378 159.455L87.3458 151.079C86.829 149.651 87.473 148.037 88.7841 147.475L101.733 141.917C103.045 141.354 104.526 142.055 105.043 143.483L108.075 151.86Z" fill="#4B4D5C" stroke="#190000" stroke-width="1.1" stroke-linecap="round" stroke-linejoin="round"/>
<path d="M102.242 165.671C98.2845 167.169 93.9612 164.889 92.5858 160.58L88.7202 148.467L103.052 143.044L106.918 155.156C108.293 159.466 106.2 164.173 102.242 165.671Z" fill="#FACCC4"/>
<mask id="mask15_602_22" style="mask-type:luminance" maskUnits="userSpaceOnUse" x="88" y="143" width="20" height="24">
<path fill-rule="evenodd" clip-rule="evenodd" d="M102.242 165.671C98.2845 167.169 93.9612 164.889 92.5858 160.58L88.7202 148.467L103.052 143.044L106.918 155.156C108.293 159.466 106.2 164.173 102.242 165.671Z" fill="white"/>
</mask>
<g mask="url(#mask15_602_22)">
<path d="M94.8046 154.97C94.7951 154.949 94.8048 154.924 94.8264 154.914C94.848 154.904 94.8732 154.914 94.8828 154.936L95.7619 156.919C95.7714 156.94 95.7617 156.966 95.7401 156.975C95.7185 156.985 95.6933 156.975 95.6837 156.953L94.8046 154.97Z" fill="#190000"/>
<path d="M101.479 151.97C101.49 151.965 101.526 152.02 101.579 152.121C101.633 152.223 101.7 152.363 101.766 152.511L102.184 153.455C102.321 153.764 102.414 154.022 102.393 154.031C102.371 154.041 102.243 153.798 102.106 153.49L101.688 152.546C101.622 152.398 101.563 152.254 101.524 152.146C101.485 152.038 101.469 151.974 101.479 151.97L101.479 151.97Z" fill="#190000"/>
<path d="M94.7328 153.227C92.7395 153.528 93.0287 154.459 94.2898 154.344C95.551 154.23 96.0351 153.03 94.7328 153.227Z" fill="#190000"/>
<path d="M100.871 150.744C102.545 149.697 102.759 150.474 101.736 151.185C100.713 151.897 99.7776 151.428 100.871 150.744Z" fill="#190000"/>
<path d="M100.106 155.427C100.301 155.866 99.8163 155.873 99.3134 156.096C98.8106 156.319 98.4802 156.673 98.2856 156.234C98.0911 155.796 98.3409 155.259 98.8437 155.036C99.3465 154.813 99.9118 154.988 100.106 155.427Z" fill="#ED707B"/>
<ellipse cx="96.3893" cy="158.073" rx="1.641" ry="0.938477" transform="rotate(-19.6652 96.3893 158.073)" fill="#ED707B"/>
<ellipse cx="103.222" cy="155.29" rx="1.641" ry="0.938477" transform="rotate(-19.6652 103.222 155.29)" fill="#ED707B"/>
</g>
<path fill-rule="evenodd" clip-rule="evenodd" d="M102.242 165.671V165.671C98.2845 167.169 93.9612 164.889 92.5858 160.58L88.7202 148.467L103.052 143.044L106.918 155.156C108.293 159.466 106.2 164.173 102.242 165.671Z" stroke="#190000" stroke-width="1.1" stroke-linecap="round" stroke-linejoin="round"/>
<path d="M98.4862 134.459C96.2935 135.708 95.1219 138.149 95.512 140.324C91.4879 144.591 85.0279 139.102 88.6107 149.606L89.9825 152.868C89.471 144.468 96.6994 152.968 99.4603 146.157C99.9685 144.927 100.932 143.94 102.151 143.403C102.321 143.326 102.49 143.24 102.658 143.145C105.249 141.669 106.415 138.529 105.263 136.13C104.111 133.732 101.077 132.984 98.4862 134.459Z" fill="#4B4D5C" stroke="#190000" stroke-width="1.1" stroke-linecap="round" stroke-linejoin="round"/>
<path d="M107.063 153.732L106.235 153.143C106.453 162.839 104.638 156.651 100.006 158.665C95.2259 160.213 97.3261 166.293 91.9745 158.539L91.6612 159.561C91.6612 159.561 92.5253 166.197 99.6506 167.148C101.671 167.418 103.685 166.656 105.116 165.08C110.164 159.522 107.063 153.732 107.063 153.732Z" fill="#4B4D5C" stroke="#190000" stroke-width="1.1" stroke-linecap="round" stroke-linejoin="round"/>
<path d="M92.0917 154.199C84.3041 151.207 87.8746 162.583 94.0481 159.202L92.0917 154.199Z" fill="#FACCC4"/>
<path d="M92.0917 154.199C84.3041 151.207 87.8746 162.583 94.0481 159.202" stroke="#190000" stroke-width="1.1" stroke-linecap="round" stroke-linejoin="round"/>
<path d="M103.672 149.817C108.077 142.211 111.754 153.546 104.986 155.063L103.672 149.817Z" fill="#FACCC4"/>
<path d="M103.672 149.817C108.077 142.211 111.754 153.546 104.986 155.063" stroke="#190000" stroke-width="1.1" stroke-linecap="round" stroke-linejoin="round"/>
<path d="M152.121 197.337L132.965 177.081L145.605 170.013L163.088 188.265L152.121 197.337Z" fill="#FACCC4"/>
<mask id="mask16_602_22" style="mask-type:luminance" maskUnits="userSpaceOnUse" x="132" y="170" width="32" height="28">
<path fill-rule="evenodd" clip-rule="evenodd" d="M152.121 197.337L132.965 177.081L145.605 170.013L163.088 188.265L152.121 197.337Z" fill="white"/>
</mask>
<g mask="url(#mask16_602_22)">
<path d="M153.013 167.201C153.98 183.606 137.673 183.675 137.673 183.675L138.985 175.743L148.846 167.855" fill="#ED707B"/>
</g>
<path fill-rule="evenodd" clip-rule="evenodd" d="M152.121 197.337L132.965 177.081L145.605 170.013L163.088 188.265L152.121 197.337V197.337Z" stroke="#190000" stroke-width="1.1" stroke-linecap="round" stroke-linejoin="round"/>
<path d="M127.38 170.014C131.669 176.759 137.673 183.675 137.673 183.675C142.228 183.96 152.121 170.676 152.121 170.676C152.121 170.676 135.454 155.625 124.825 157.444" fill="#399FE8"/>
<mask id="mask17_602_22" style="mask-type:luminance" maskUnits="userSpaceOnUse" x="124" y="157" width="29" height="27">
<path fill-rule="evenodd" clip-rule="evenodd" d="M127.38 170.014C131.669 176.759 137.673 183.675 137.673 183.675C142.228 183.96 152.121 170.676 152.121 170.676C152.121 170.676 135.454 155.625 124.825 157.444" fill="white"/>
</mask>
<g mask="url(#mask17_602_22)">
<path d="M148.026 163.42C150.26 169.837 133.934 180.724 133.934 180.724L148.026 163.42Z" fill="#399FE8"/>
<path d="M148.026 163.42C150.26 169.837 133.934 180.724 133.934 180.724" stroke="#190000" stroke-width="1.1" stroke-linecap="round" stroke-linejoin="round"/>
</g>
<path d="M127.38 170.014C131.669 176.759 137.673 183.675 137.673 183.675C142.228 183.96 152.121 170.676 152.121 170.676C152.121 170.676 135.454 155.625 124.825 157.444" stroke="#190000" stroke-width="1.1" stroke-linecap="round" stroke-linejoin="round"/>
<path d="M114.819 194.642L109.121 197.997C108.853 198.167 108.525 198.214 108.22 198.125C107.915 198.036 107.663 197.821 107.527 197.533L101.49 184.89C101.21 184.258 101.446 183.517 102.039 183.164L107.736 179.81C108.005 179.64 108.333 179.593 108.638 179.682C108.943 179.771 109.195 179.986 109.33 180.274L115.368 192.917C115.648 193.548 115.412 194.289 114.819 194.642Z" fill="#4B4D5C" stroke="#190000" stroke-width="1.1" stroke-linecap="round" stroke-linejoin="round"/>
<path d="M106.592 186.902L104.863 187.92C104.669 188.043 104.431 188.077 104.209 188.013C103.988 187.948 103.805 187.792 103.707 187.584L102.864 185.818C102.661 185.36 102.832 184.823 103.262 184.567L104.991 183.549C105.185 183.426 105.423 183.392 105.645 183.456C105.866 183.521 106.049 183.677 106.147 183.886L106.99 185.651C107.193 186.109 107.022 186.646 106.592 186.902Z" fill="#4B4D5C" stroke="#190000" stroke-width="1.1" stroke-linecap="round" stroke-linejoin="round"/>
<path d="M162.446 187.847C164.053 188.744 165.263 190.433 165.603 192.517C166.275 196.636 163.301 200.377 159.505 200.189L120.468 198.26C120.468 198.26 115.138 198.789 114.457 198.878C113.776 198.966 110.81 198.657 108.846 198.348C106.883 198.039 107.363 196.186 107.363 196.186C105.72 196.186 106.001 194.068 106.001 194.068C102.635 194.244 103.316 191.817 103.717 191.729C104.117 191.641 110.489 190.317 111.612 189.831C112.734 189.346 111.05 187.581 111.05 187.581C106.362 186.345 108.205 184.403 108.526 184.403C108.846 184.403 111.571 184.801 112.092 184.889C112.613 184.977 119.026 191.155 119.747 191.155C120.167 191.155 135.35 189.614 147.943 188.328" fill="#FACCC4"/>
<path d="M162.446 187.847C164.053 188.744 165.263 190.433 165.603 192.517V192.517C166.275 196.636 163.301 200.377 159.505 200.189L120.468 198.26C120.468 198.26 115.138 198.789 114.457 198.878C113.776 198.966 110.81 198.657 108.846 198.348C106.883 198.039 107.363 196.186 107.363 196.186C105.72 196.186 106.001 194.068 106.001 194.068C102.635 194.244 103.316 191.817 103.717 191.729C104.117 191.641 110.489 190.317 111.612 189.831C112.734 189.346 111.05 187.581 111.05 187.581C106.362 186.345 108.205 184.403 108.526 184.403C108.846 184.403 111.571 184.801 112.092 184.889C112.613 184.977 119.026 191.155 119.747 191.155C120.167 191.155 135.35 189.614 147.943 188.328" stroke="#190000" stroke-width="1.1" stroke-linecap="round" stroke-linejoin="round"/>
<ellipse cx="205.526" cy="187.407" rx="1.33024" ry="4.8928" fill="#FACCC4" stroke="#190000" stroke-width="1.1" stroke-linecap="round" stroke-linejoin="round"/>
<path d="M273.914 191.55C274.43 193.033 274.838 194.553 275.135 196.095" stroke="#190000" stroke-width="1.1" stroke-linecap="round" stroke-linejoin="round"/>
<path d="M273.552 191.917C272.527 192.772 271.768 193.904 271.367 195.177" stroke="#190000" stroke-width="1.1" stroke-linecap="round" stroke-linejoin="round"/>
<path d="M100.152 139.119L99.7852 140.206" stroke="#190000" stroke-width="1.1" stroke-linecap="round" stroke-linejoin="round"/>
<path d="M155.265 192.638C155.123 193.967 154.395 195.163 153.281 195.902" stroke="#E84B23" stroke-width="1.1" stroke-linecap="round" stroke-linejoin="round"/>
<path d="M188.95 151.598C189.807 153.447 189.776 155.585 188.867 157.409" stroke="#BA393C" stroke-width="1.1" stroke-linecap="round" stroke-linejoin="round"/>
<path d="M143.398 189H144.124" stroke="#E84B23" stroke-width="1.1" stroke-linecap="round" stroke-linejoin="round"/>
<path d="M66.7217 194.825C66.2311 196.221 67.0869 197.938 68.4963 198.386" stroke="#E84B23" stroke-width="1.1" stroke-linecap="round" stroke-linejoin="round"/>
<path d="M199.078 182.821C198.569 183.3 198.254 183.95 198.194 184.646" stroke="#BA393C" stroke-width="1.1" stroke-linecap="round" stroke-linejoin="round"/>
<path d="M138.5 167.589V169.041" stroke="#2976DF" stroke-width="1.1" stroke-linecap="round" stroke-linejoin="round"/>
<path d="M90.8014 182.288C90.6372 183.415 91.1278 184.538 92.0665 185.183" stroke="#2976DF" stroke-width="1.1" stroke-linecap="round" stroke-linejoin="round"/>
<ellipse cx="412.169" cy="255.368" rx="11.9545" ry="11.9576" fill="#409159" stroke="#190000" stroke-width="1.1" stroke-linecap="round" stroke-linejoin="round"/>
<ellipse cx="348.411" cy="62.9269" rx="9.84956" ry="9.85211" fill="#D3575E" stroke="#190000" stroke-width="1.1" stroke-linecap="round" stroke-linejoin="round"/>
<path d="M99.1937 91.8143C100.246 92.8037 101.378 93.7041 102.579 94.5061C103.759 95.2949 104.992 96.0008 106.27 96.6187C107.863 97.3921 109.515 98.0369 111.21 98.5471C112.247 98.8567 112.875 98.9819 112.875 98.9819C112.875 98.9819 112.884 98.9795 112.901 98.9746C113.051 98.9307 113.865 98.6865 115.089 98.2058C116.9 97.4924 118.657 96.6457 120.343 95.6727C121.553 94.9758 122.719 94.2069 123.837 93.37C124.671 92.7443 125.472 92.0751 126.236 91.3653C127.187 90.4832 128.069 89.5292 128.874 88.5119C130.279 86.7474 131.388 84.7664 132.159 82.6463C132.644 81.2926 132.979 79.8899 133.16 78.4633C133.272 77.5738 133.328 76.6779 133.327 75.7813C133.327 75.1247 133.275 74.4691 133.171 73.8206C132.932 72.3373 132.446 70.9046 131.734 69.5818C131.145 68.482 130.409 67.468 129.545 66.568C128.91 65.9059 128.205 65.3146 127.442 64.8046C126.35 64.0703 125.138 63.5338 123.86 63.2194C123.06 63.0253 122.24 62.9271 121.417 62.927C118.304 62.9193 115.314 64.1404 113.096 66.3251C113.022 66.3985 112.948 66.4728 112.875 66.5482C110.641 64.227 107.556 62.919 104.334 62.927C103.673 62.927 103.013 62.9904 102.364 63.1163C101.14 63.3574 99.9658 63.8048 98.8918 64.4396C97.9033 65.0227 96.9995 65.7389 96.2057 66.568C95.3337 67.4765 94.5915 68.5011 93.9999 69.6128C93.2842 70.95 92.7998 72.3987 92.5672 73.8975C92.4718 74.5209 92.4237 75.1506 92.4233 75.7813C92.422 76.7744 92.4797 77.7666 92.5962 78.7529C92.7679 80.2208 93.0876 81.6676 93.5506 83.0712C94.2596 85.2085 95.3151 87.2146 96.6748 89.0095C97.4348 90.013 98.2774 90.9512 99.1937 91.8143Z" fill="#D3575E"/>
<mask id="mask18_602_22" style="mask-type:luminance" maskUnits="userSpaceOnUse" x="92" y="62" width="42" height="37">
<path fill-rule="evenodd" clip-rule="evenodd" d="M99.1937 91.8143C100.246 92.8037 101.378 93.7041 102.579 94.5061C103.759 95.2949 104.992 96.0008 106.27 96.6187C107.863 97.3921 109.515 98.0369 111.21 98.5471C112.247 98.8567 112.875 98.9819 112.875 98.9819C112.875 98.9819 112.884 98.9795 112.901 98.9746C113.051 98.9307 113.865 98.6865 115.089 98.2058C116.9 97.4924 118.657 96.6457 120.343 95.6727C121.553 94.9758 122.719 94.2069 123.837 93.37C124.671 92.7443 125.472 92.0751 126.236 91.3653C127.187 90.4832 128.069 89.5292 128.874 88.5119C130.279 86.7474 131.388 84.7664 132.159 82.6463C132.644 81.2926 132.979 79.8899 133.16 78.4633C133.272 77.5738 133.328 76.6779 133.327 75.7813C133.327 75.1247 133.275 74.4691 133.171 73.8206C132.932 72.3373 132.446 70.9046 131.734 69.5818C131.145 68.482 130.409 67.468 129.545 66.568C128.91 65.9059 128.205 65.3146 127.442 64.8046C126.35 64.0703 125.138 63.5338 123.86 63.2194C123.06 63.0253 122.24 62.9271 121.417 62.927C118.304 62.9193 115.314 64.1404 113.096 66.3251C113.022 66.3985 112.948 66.4728 112.875 66.5482C110.641 64.227 107.556 62.919 104.334 62.927C103.673 62.927 103.013 62.9904 102.364 63.1163C101.14 63.3574 99.9658 63.8048 98.8918 64.4396C97.9033 65.0227 96.9995 65.7389 96.2057 66.568C95.3337 67.4765 94.5915 68.5011 93.9999 69.6128C93.2842 70.95 92.7998 72.3987 92.5672 73.8975C92.4718 74.5209 92.4237 75.1506 92.4233 75.7813C92.422 76.7744 92.4797 77.7666 92.5962 78.7529C92.7679 80.2208 93.0876 81.6676 93.5506 83.0712C94.2596 85.2085 95.3151 87.2146 96.6748 89.0095C97.4348 90.013 98.2774 90.9512 99.1937 91.8143Z" fill="white"/>
</mask>
<g mask="url(#mask18_602_22)">
<path d="M114.599 61.7909C136.599 59.5484 129.12 95.0779 111.21 98.5471C93.3008 102.016 124.688 104.96 124.688 104.96L150.751 62.927H138.981" fill="#BA424D"/>
</g>
<path fill-rule="evenodd" clip-rule="evenodd" d="M99.1937 91.8143C100.246 92.8037 101.378 93.7041 102.579 94.5061C103.759 95.2949 104.992 96.0008 106.27 96.6187C107.863 97.3921 109.515 98.0369 111.21 98.5471C112.247 98.8567 112.875 98.9819 112.875 98.9819C112.875 98.9819 112.884 98.9795 112.901 98.9746C113.051 98.9307 113.865 98.6865 115.089 98.2058C116.9 97.4924 118.657 96.6457 120.343 95.6727C121.553 94.9758 122.719 94.2069 123.837 93.37C124.671 92.7443 125.472 92.0751 126.236 91.3653C127.187 90.4832 128.069 89.5292 128.874 88.5119C130.279 86.7474 131.388 84.7664 132.159 82.6463C132.644 81.2926 132.979 79.89 133.16 78.4633C133.272 77.5738 133.328 76.6779 133.327 75.7813C133.327 75.1247 133.275 74.4691 133.171 73.8206C132.932 72.3373 132.446 70.9046 131.734 69.5818C131.145 68.482 130.409 67.468 129.545 66.568C128.91 65.9059 128.205 65.3146 127.442 64.8046C126.35 64.0703 125.138 63.5338 123.86 63.2194C123.06 63.0253 122.24 62.9271 121.417 62.927C118.304 62.9193 115.314 64.1404 113.096 66.3251C113.022 66.3985 112.948 66.4728 112.875 66.5482C110.641 64.227 107.556 62.919 104.334 62.927C103.673 62.927 103.013 62.9904 102.364 63.1163C101.14 63.3574 99.9658 63.8048 98.8918 64.4396C97.9033 65.0227 96.9995 65.7389 96.2057 66.568C95.3337 67.4765 94.5915 68.5011 93.9999 69.6128C93.2842 70.95 92.7998 72.3987 92.5672 73.8975C92.4718 74.5209 92.4237 75.1506 92.4233 75.7813C92.422 76.7744 92.4797 77.7666 92.5962 78.7529C92.7679 80.2208 93.0876 81.6676 93.5506 83.0712C94.2596 85.2085 95.3151 87.2146 96.6748 89.0095C97.4348 90.013 98.2774 90.9512 99.1937 91.8143V91.8143Z" stroke="#190000" stroke-width="1.1" stroke-linecap="round" stroke-linejoin="round"/>
<path d="M104.378 72.0258C104.11 72.6271 104.104 73.3126 104.361 73.9187" stroke="#90282A" stroke-width="1.1" stroke-linecap="round" stroke-linejoin="round"/>
<path d="M120.638 87.621C120.063 88.781 119.039 89.6554 117.803 90.041" stroke="#90282A" stroke-width="1.1" stroke-linecap="round" stroke-linejoin="round"/>
<path d="M333.513 234.769L341.357 242.318C342.184 243.113 342.684 244.114 342.491 245.289L340.672 256.328C340.505 257.286 340.802 258.267 341.471 258.973C342.436 260.014 343.983 260.271 345.231 259.596L351.431 256.284L355.097 254.325C356.812 253.41 358.368 254.493 359.883 255.277L367.942 259.448C370.245 260.64 372.913 258.673 372.459 256.121L372.212 254.735L370.783 246.714C370.505 245.155 370.111 243.583 371.378 242.331L373.299 240.433L379.336 234.47C380.139 233.686 380.459 232.531 380.173 231.445C379.888 230.359 379.041 229.511 377.956 229.223C377.828 229.189 377.699 229.163 377.568 229.145L371.774 228.342L366.489 227.609C365.469 227.467 364.585 226.833 364.123 225.913L359.398 216.491L359.108 215.913C358.579 214.842 357.485 214.168 356.292 214.176C355.098 214.184 354.014 214.872 353.498 215.949L349.793 223.584L348.614 226.014C347.836 227.615 346.221 227.748 344.656 227.986L336.603 229.21L335.212 229.421C332.649 229.811 331.645 232.971 333.513 234.769Z" fill="#FBD164"/>
<mask id="mask19_602_22" style="mask-type:luminance" maskUnits="userSpaceOnUse" x="332" y="214" width="49" height="46">
<path fill-rule="evenodd" clip-rule="evenodd" d="M333.513 234.769L341.357 242.318C342.184 243.113 342.684 244.114 342.491 245.289L340.672 256.328C340.505 257.286 340.802 258.267 341.471 258.973C342.436 260.014 343.983 260.271 345.231 259.596L351.431 256.284L355.097 254.325C356.812 253.41 358.368 254.493 359.883 255.277L367.942 259.448C370.245 260.64 372.913 258.673 372.459 256.121L372.212 254.735L370.783 246.714C370.505 245.155 370.111 243.583 371.378 242.331L373.299 240.433L379.336 234.47C380.139 233.686 380.459 232.531 380.173 231.445C379.888 230.359 379.041 229.511 377.956 229.223C377.828 229.189 377.699 229.163 377.568 229.145L371.774 228.342L366.489 227.609C365.469 227.467 364.585 226.833 364.123 225.913L359.398 216.491L359.108 215.913C358.579 214.842 357.485 214.168 356.292 214.176C355.098 214.184 354.014 214.872 353.498 215.949L349.793 223.584L348.614 226.014C347.836 227.615 346.221 227.748 344.656 227.986L336.603 229.21L335.212 229.421C332.649 229.811 331.645 232.971 333.513 234.769Z" fill="white"/>
</mask>
<g mask="url(#mask19_602_22)">
<path d="M339.225 268.008L355.097 254.325C355.097 254.325 357.592 245.687 367.942 259.448C378.292 273.209 364.942 268.148 364.942 268.148" fill="#F9B964"/>
<path d="M332.551 228.79C351.31 227.806 355.686 229.253 353.498 215.949C351.31 202.645 332.551 215.718 332.551 215.718" fill="#F9B964"/>
</g>
<path fill-rule="evenodd" clip-rule="evenodd" d="M333.513 234.769L341.357 242.318C342.184 243.113 342.684 244.114 342.491 245.289L340.672 256.328C340.505 257.286 340.802 258.267 341.471 258.973C342.436 260.014 343.983 260.271 345.231 259.596L351.431 256.284L355.097 254.325C356.812 253.409 358.368 254.493 359.883 255.277L367.942 259.448C370.245 260.64 372.913 258.673 372.459 256.121L372.212 254.735L370.783 246.714C370.505 245.155 370.111 243.583 371.378 242.331L373.299 240.433L379.336 234.47C380.139 233.686 380.459 232.531 380.173 231.445C379.888 230.359 379.041 229.511 377.956 229.223C377.828 229.189 377.699 229.163 377.568 229.145L371.774 228.342L366.489 227.609C365.469 227.467 364.585 226.833 364.123 225.913L359.398 216.491L359.108 215.913C358.579 214.842 357.485 214.168 356.292 214.176C355.098 214.184 354.014 214.872 353.498 215.949L349.793 223.584L348.614 226.014C347.836 227.615 346.221 227.748 344.656 227.986L336.603 229.21L335.212 229.421C332.649 229.811 331.645 232.971 333.513 234.769Z" stroke="#190000" stroke-width="1.1" stroke-linecap="round" stroke-linejoin="round"/>
<path d="M363.366 240.008L361.375 242.237" stroke="#D89D35" stroke-width="1.1" stroke-linecap="round" stroke-linejoin="round"/>
</g>
</svg>
